G75*
%MOIN*%
%OFA0B0*%
%FSLAX24Y24*%
%IPPOS*%
%LPD*%
%AMOC8*
5,1,8,0,0,1.08239X$1,22.5*
%
%ADD10C,0.0634*%
%ADD11R,0.0880X0.0880*%
%ADD12C,0.0880*%
%ADD13C,0.1340*%
%ADD14R,0.0820X0.0820*%
%ADD15OC8,0.0820*%
%ADD16R,0.0476X0.0476*%
D10*
X000720Y004486D03*
X000720Y005486D03*
X000720Y006486D03*
X000720Y007486D03*
X000720Y008486D03*
X000720Y009486D03*
X000720Y010486D03*
X000720Y011486D03*
X005720Y011486D03*
X005720Y010486D03*
X005720Y009486D03*
X005720Y008486D03*
X005720Y007486D03*
X005720Y006486D03*
X005720Y005486D03*
X005720Y004486D03*
X011720Y005986D03*
X012720Y005986D03*
X013720Y005986D03*
X014720Y005986D03*
X015720Y005986D03*
X016720Y005986D03*
X017720Y005986D03*
X018720Y005986D03*
X024720Y005986D03*
X025720Y005986D03*
X026720Y005986D03*
X027720Y005986D03*
X028720Y005986D03*
X029720Y005986D03*
X030720Y005986D03*
X031720Y005986D03*
X037720Y005986D03*
X038720Y005986D03*
X039720Y005986D03*
X040720Y005986D03*
X041720Y005986D03*
X042720Y005986D03*
X043720Y005986D03*
X044720Y005986D03*
X050720Y005986D03*
X051720Y005986D03*
X052720Y005986D03*
X053720Y005986D03*
X054720Y005986D03*
X055720Y005986D03*
X056720Y005986D03*
X057720Y005986D03*
X057720Y010986D03*
X056720Y010986D03*
X055720Y010986D03*
X054720Y010986D03*
X053720Y010986D03*
X052720Y010986D03*
X051720Y010986D03*
X050720Y010986D03*
X044720Y010986D03*
X043720Y010986D03*
X042720Y010986D03*
X041720Y010986D03*
X040720Y010986D03*
X039720Y010986D03*
X038720Y010986D03*
X037720Y010986D03*
X031720Y010986D03*
X030720Y010986D03*
X029720Y010986D03*
X028720Y010986D03*
X027720Y010986D03*
X026720Y010986D03*
X025720Y010986D03*
X024720Y010986D03*
X018720Y010986D03*
X017720Y010986D03*
X016720Y010986D03*
X015720Y010986D03*
X014720Y010986D03*
X013720Y010986D03*
X012720Y010986D03*
X011720Y010986D03*
D11*
X001720Y014736D03*
X012970Y017236D03*
X025970Y017236D03*
X038970Y016986D03*
X051970Y016736D03*
D12*
X053348Y016736D03*
X054726Y016736D03*
X056104Y016736D03*
X043104Y016986D03*
X041726Y016986D03*
X040348Y016986D03*
X030104Y017236D03*
X028726Y017236D03*
X027348Y017236D03*
X017104Y017236D03*
X015726Y017236D03*
X014348Y017236D03*
X001720Y013358D03*
D13*
X001970Y001986D03*
X001970Y017486D03*
X059220Y017486D03*
X059220Y001986D03*
D14*
X054720Y006986D03*
X041720Y006986D03*
X028720Y006986D03*
X015720Y006986D03*
D15*
X016720Y006986D03*
X016720Y007986D03*
X015720Y007986D03*
X015720Y008986D03*
X016720Y008986D03*
X028720Y008986D03*
X029720Y008986D03*
X029720Y007986D03*
X028720Y007986D03*
X029720Y006986D03*
X041720Y007986D03*
X042720Y007986D03*
X042720Y008986D03*
X041720Y008986D03*
X042720Y006986D03*
X054720Y007986D03*
X055720Y007986D03*
X055720Y008986D03*
X054720Y008986D03*
X055720Y006986D03*
X003720Y006986D03*
X002720Y006986D03*
X002720Y007986D03*
X003720Y007986D03*
X003720Y008986D03*
X002720Y008986D03*
D16*
X016720Y006986D03*
X017720Y004736D03*
X011720Y004236D03*
X024720Y004236D03*
X030720Y004736D03*
X037720Y004236D03*
X043720Y004736D03*
X050720Y004236D03*
X056720Y004736D03*
X029720Y008986D03*
M02*
