G75*
%MOIN*%
%OFA0B0*%
%FSLAX24Y24*%
%IPPOS*%
%LPD*%
%AMOC8*
5,1,8,0,0,1.08239X$1,22.5*
%
%ADD10C,0.0554*%
%ADD11R,0.0800X0.0800*%
%ADD12C,0.0800*%
%ADD13R,0.0740X0.0740*%
%ADD14OC8,0.0740*%
%ADD15C,0.0660*%
%ADD16C,0.0320*%
%ADD17C,0.0500*%
%ADD18R,0.0396X0.0396*%
%ADD19C,0.0240*%
D10*
X000720Y004486D03*
X000720Y005486D03*
X000720Y006486D03*
X000720Y007486D03*
X000720Y008486D03*
X000720Y009486D03*
X000720Y010486D03*
X000720Y011486D03*
X005720Y011486D03*
X005720Y010486D03*
X005720Y009486D03*
X005720Y008486D03*
X005720Y007486D03*
X005720Y006486D03*
X005720Y005486D03*
X005720Y004486D03*
X011720Y005986D03*
X012720Y005986D03*
X013720Y005986D03*
X014720Y005986D03*
X015720Y005986D03*
X016720Y005986D03*
X017720Y005986D03*
X018720Y005986D03*
X024720Y005986D03*
X025720Y005986D03*
X026720Y005986D03*
X027720Y005986D03*
X028720Y005986D03*
X029720Y005986D03*
X030720Y005986D03*
X031720Y005986D03*
X037720Y005986D03*
X038720Y005986D03*
X039720Y005986D03*
X040720Y005986D03*
X041720Y005986D03*
X042720Y005986D03*
X043720Y005986D03*
X044720Y005986D03*
X050720Y005986D03*
X051720Y005986D03*
X052720Y005986D03*
X053720Y005986D03*
X054720Y005986D03*
X055720Y005986D03*
X056720Y005986D03*
X057720Y005986D03*
X057720Y010986D03*
X056720Y010986D03*
X055720Y010986D03*
X054720Y010986D03*
X053720Y010986D03*
X052720Y010986D03*
X051720Y010986D03*
X050720Y010986D03*
X044720Y010986D03*
X043720Y010986D03*
X042720Y010986D03*
X041720Y010986D03*
X040720Y010986D03*
X039720Y010986D03*
X038720Y010986D03*
X037720Y010986D03*
X031720Y010986D03*
X030720Y010986D03*
X029720Y010986D03*
X028720Y010986D03*
X027720Y010986D03*
X026720Y010986D03*
X025720Y010986D03*
X024720Y010986D03*
X018720Y010986D03*
X017720Y010986D03*
X016720Y010986D03*
X015720Y010986D03*
X014720Y010986D03*
X013720Y010986D03*
X012720Y010986D03*
X011720Y010986D03*
D11*
X001720Y014736D03*
X012970Y017236D03*
X025970Y017236D03*
X038970Y016986D03*
X051970Y016736D03*
D12*
X053348Y016736D03*
X054726Y016736D03*
X056104Y016736D03*
X043104Y016986D03*
X041726Y016986D03*
X040348Y016986D03*
X030104Y017236D03*
X028726Y017236D03*
X027348Y017236D03*
X017104Y017236D03*
X015726Y017236D03*
X014348Y017236D03*
X001720Y013358D03*
D13*
X015720Y006986D03*
X028720Y006986D03*
X041720Y006986D03*
X054720Y006986D03*
D14*
X055720Y006986D03*
X055720Y007986D03*
X054720Y007986D03*
X054720Y008986D03*
X055720Y008986D03*
X042720Y008986D03*
X041720Y008986D03*
X041720Y007986D03*
X042720Y007986D03*
X042720Y006986D03*
X029720Y006986D03*
X029720Y007986D03*
X028720Y007986D03*
X028720Y008986D03*
X029720Y008986D03*
X016720Y008986D03*
X015720Y008986D03*
X015720Y007986D03*
X016720Y007986D03*
X016720Y006986D03*
X003720Y006986D03*
X002720Y006986D03*
X002720Y007986D03*
X003720Y007986D03*
X003720Y008986D03*
X002720Y008986D03*
D15*
X011720Y010986D02*
X011720Y011986D01*
X024720Y011986D01*
X024720Y010986D01*
X024720Y011986D02*
X037720Y011986D01*
X037720Y010986D01*
X037720Y011986D02*
X049720Y011986D01*
X050720Y010986D01*
D16*
X043720Y010986D02*
X042720Y009986D01*
X042720Y008986D01*
D17*
X030720Y010986D02*
X029720Y009986D01*
X029720Y008986D01*
X017720Y010986D02*
X016720Y009986D01*
X016720Y008986D01*
X016720Y007986D01*
X016720Y006986D01*
X055720Y006986D02*
X055720Y007986D01*
X055720Y008986D01*
X055720Y009986D01*
X056720Y010986D01*
D18*
X056720Y004736D03*
X050720Y004236D03*
X043720Y004736D03*
X037720Y004236D03*
X030720Y004736D03*
X024720Y004236D03*
X017720Y004736D03*
X011720Y004236D03*
X016720Y006986D03*
X029720Y008986D03*
D19*
X005970Y004236D02*
X005720Y004486D01*
X004220Y004486D01*
X003720Y004986D01*
X003720Y006986D01*
X003720Y007986D02*
X005220Y007986D01*
X005220Y005236D01*
X005470Y004986D01*
X005970Y004986D01*
X006220Y004736D01*
X017720Y004736D01*
X030720Y004736D01*
X043720Y004736D01*
X056720Y004736D01*
X057720Y005236D02*
X044720Y005236D01*
X044720Y005986D01*
X044720Y005236D02*
X031720Y005236D01*
X031720Y005986D01*
X031720Y005236D02*
X018720Y005236D01*
X006720Y005236D01*
X006470Y005486D01*
X006470Y010736D01*
X005720Y011486D01*
X004720Y011486D01*
X003720Y010486D01*
X003720Y008986D01*
X005220Y009986D02*
X005220Y007986D01*
X005220Y009986D02*
X005720Y010486D01*
X018720Y005986D02*
X018720Y005236D01*
X024720Y004236D02*
X037720Y004236D01*
X050720Y004236D01*
X057720Y005236D02*
X057720Y005986D01*
X024720Y004236D02*
X011720Y004236D01*
X005970Y004236D01*
M02*
