G75*
%MOIN*%
%OFA0B0*%
%FSLAX24Y24*%
%IPPOS*%
%LPD*%
%AMOC8*
5,1,8,0,0,1.08239X$1,22.5*
%
%ADD10C,0.0060*%
%ADD11C,0.0080*%
%ADD12C,0.0050*%
D10*
X000620Y001986D02*
X000622Y002059D01*
X000628Y002132D01*
X000638Y002204D01*
X000652Y002276D01*
X000669Y002347D01*
X000691Y002417D01*
X000716Y002486D01*
X000745Y002553D01*
X000777Y002618D01*
X000813Y002682D01*
X000853Y002744D01*
X000895Y002803D01*
X000941Y002860D01*
X000990Y002914D01*
X001042Y002966D01*
X001096Y003015D01*
X001153Y003061D01*
X001212Y003103D01*
X001274Y003143D01*
X001338Y003179D01*
X001403Y003211D01*
X001470Y003240D01*
X001539Y003265D01*
X001609Y003287D01*
X001680Y003304D01*
X001752Y003318D01*
X001824Y003328D01*
X001897Y003334D01*
X001970Y003336D01*
X002043Y003334D01*
X002116Y003328D01*
X002188Y003318D01*
X002260Y003304D01*
X002331Y003287D01*
X002401Y003265D01*
X002470Y003240D01*
X002537Y003211D01*
X002602Y003179D01*
X002666Y003143D01*
X002728Y003103D01*
X002787Y003061D01*
X002844Y003015D01*
X002898Y002966D01*
X002950Y002914D01*
X002999Y002860D01*
X003045Y002803D01*
X003087Y002744D01*
X003127Y002682D01*
X003163Y002618D01*
X003195Y002553D01*
X003224Y002486D01*
X003249Y002417D01*
X003271Y002347D01*
X003288Y002276D01*
X003302Y002204D01*
X003312Y002132D01*
X003318Y002059D01*
X003320Y001986D01*
X003318Y001913D01*
X003312Y001840D01*
X003302Y001768D01*
X003288Y001696D01*
X003271Y001625D01*
X003249Y001555D01*
X003224Y001486D01*
X003195Y001419D01*
X003163Y001354D01*
X003127Y001290D01*
X003087Y001228D01*
X003045Y001169D01*
X002999Y001112D01*
X002950Y001058D01*
X002898Y001006D01*
X002844Y000957D01*
X002787Y000911D01*
X002728Y000869D01*
X002666Y000829D01*
X002602Y000793D01*
X002537Y000761D01*
X002470Y000732D01*
X002401Y000707D01*
X002331Y000685D01*
X002260Y000668D01*
X002188Y000654D01*
X002116Y000644D01*
X002043Y000638D01*
X001970Y000636D01*
X001897Y000638D01*
X001824Y000644D01*
X001752Y000654D01*
X001680Y000668D01*
X001609Y000685D01*
X001539Y000707D01*
X001470Y000732D01*
X001403Y000761D01*
X001338Y000793D01*
X001274Y000829D01*
X001212Y000869D01*
X001153Y000911D01*
X001096Y000957D01*
X001042Y001006D01*
X000990Y001058D01*
X000941Y001112D01*
X000895Y001169D01*
X000853Y001228D01*
X000813Y001290D01*
X000777Y001354D01*
X000745Y001419D01*
X000716Y001486D01*
X000691Y001555D01*
X000669Y001625D01*
X000652Y001696D01*
X000638Y001768D01*
X000628Y001840D01*
X000622Y001913D01*
X000620Y001986D01*
D11*
X001301Y001986D02*
X001303Y002037D01*
X001309Y002088D01*
X001319Y002138D01*
X001332Y002188D01*
X001350Y002236D01*
X001370Y002283D01*
X001395Y002328D01*
X001423Y002371D01*
X001454Y002412D01*
X001488Y002450D01*
X001525Y002485D01*
X001564Y002518D01*
X001606Y002548D01*
X001650Y002574D01*
X001696Y002596D01*
X001744Y002616D01*
X001793Y002631D01*
X001843Y002643D01*
X001893Y002651D01*
X001944Y002655D01*
X001996Y002655D01*
X002047Y002651D01*
X002097Y002643D01*
X002147Y002631D01*
X002196Y002616D01*
X002244Y002596D01*
X002290Y002574D01*
X002334Y002548D01*
X002376Y002518D01*
X002415Y002485D01*
X002452Y002450D01*
X002486Y002412D01*
X002517Y002371D01*
X002545Y002328D01*
X002570Y002283D01*
X002590Y002236D01*
X002608Y002188D01*
X002621Y002138D01*
X002631Y002088D01*
X002637Y002037D01*
X002639Y001986D01*
X002637Y001935D01*
X002631Y001884D01*
X002621Y001834D01*
X002608Y001784D01*
X002590Y001736D01*
X002570Y001689D01*
X002545Y001644D01*
X002517Y001601D01*
X002486Y001560D01*
X002452Y001522D01*
X002415Y001487D01*
X002376Y001454D01*
X002334Y001424D01*
X002290Y001398D01*
X002244Y001376D01*
X002196Y001356D01*
X002147Y001341D01*
X002097Y001329D01*
X002047Y001321D01*
X001996Y001317D01*
X001944Y001317D01*
X001893Y001321D01*
X001843Y001329D01*
X001793Y001341D01*
X001744Y001356D01*
X001696Y001376D01*
X001650Y001398D01*
X001606Y001424D01*
X001564Y001454D01*
X001525Y001487D01*
X001488Y001522D01*
X001454Y001560D01*
X001423Y001601D01*
X001395Y001644D01*
X001370Y001689D01*
X001350Y001736D01*
X001332Y001784D01*
X001319Y001834D01*
X001309Y001884D01*
X001303Y001935D01*
X001301Y001986D01*
D12*
X017495Y006586D02*
X017495Y006661D01*
X017570Y006736D01*
X017945Y006736D01*
X017945Y006661D02*
X017945Y006811D01*
X017945Y006971D02*
X017945Y007196D01*
X017870Y007271D01*
X017720Y007271D01*
X017645Y007196D01*
X017645Y006971D01*
X017495Y006971D02*
X017945Y006971D01*
X017495Y006586D02*
X017570Y006511D01*
X017570Y007431D02*
X017495Y007506D01*
X017495Y007657D01*
X017570Y007732D01*
X017645Y007732D01*
X017720Y007657D01*
X017720Y007431D01*
X017570Y007431D01*
X017720Y007431D02*
X017870Y007582D01*
X017945Y007732D01*
X030495Y007431D02*
X030570Y007431D01*
X030870Y007732D01*
X030945Y007732D01*
X030945Y007431D01*
X030870Y007271D02*
X030720Y007271D01*
X030645Y007196D01*
X030645Y006971D01*
X030495Y006971D02*
X030945Y006971D01*
X030945Y007196D01*
X030870Y007271D01*
X030945Y006811D02*
X030945Y006661D01*
X030945Y006736D02*
X030570Y006736D01*
X030495Y006661D01*
X030495Y006586D01*
X030570Y006511D01*
X043495Y006586D02*
X043495Y006661D01*
X043570Y006736D01*
X043945Y006736D01*
X043945Y006661D02*
X043945Y006811D01*
X043945Y006971D02*
X043945Y007196D01*
X043870Y007271D01*
X043720Y007271D01*
X043645Y007196D01*
X043645Y006971D01*
X043495Y006971D02*
X043945Y006971D01*
X043495Y006586D02*
X043570Y006511D01*
X043570Y007431D02*
X043645Y007431D01*
X043720Y007506D01*
X043720Y007657D01*
X043645Y007732D01*
X043570Y007732D01*
X043495Y007657D01*
X043495Y007506D01*
X043570Y007431D01*
X043720Y007506D02*
X043795Y007431D01*
X043870Y007431D01*
X043945Y007506D01*
X043945Y007657D01*
X043870Y007732D01*
X043795Y007732D01*
X043720Y007657D01*
X056495Y007506D02*
X056495Y007657D01*
X056570Y007732D01*
X056870Y007732D01*
X056945Y007657D01*
X056945Y007506D01*
X056870Y007431D01*
X056795Y007431D01*
X056720Y007506D01*
X056720Y007732D01*
X056495Y007506D02*
X056570Y007431D01*
X056720Y007271D02*
X056645Y007196D01*
X056645Y006971D01*
X056495Y006971D02*
X056945Y006971D01*
X056945Y007196D01*
X056870Y007271D01*
X056720Y007271D01*
X056945Y006811D02*
X056945Y006661D01*
X056945Y006736D02*
X056570Y006736D01*
X056495Y006661D01*
X056495Y006586D01*
X056570Y006511D01*
M02*
