%
M48
M72
T01C0.0236
T02C0.0354
T03C0.0400
T04C0.0472
T05C0.1260
%
T01
X11720Y4236
X17720Y4736
X16720Y6986
X24720Y4236
X30720Y4736
X37720Y4236
X43720Y4736
X50720Y4236
X56720Y4736
X29720Y8986
T02
X29720Y10986
X28720Y10986
X27720Y10986
X26720Y10986
X25720Y10986
X24720Y10986
X18720Y10986
X17720Y10986
X16720Y10986
X15720Y10986
X14720Y10986
X13720Y10986
X12720Y10986
X11720Y10986
X5720Y11486
X5720Y10486
X5720Y9486
X5720Y8486
X5720Y7486
X5720Y6486
X5720Y5486
X5720Y4486
X720Y4486
X720Y5486
X720Y6486
X720Y7486
X720Y8486
X720Y9486
X720Y10486
X720Y11486
X11720Y5986
X12720Y5986
X13720Y5986
X14720Y5986
X15720Y5986
X16720Y5986
X17720Y5986
X18720Y5986
X24720Y5986
X25720Y5986
X26720Y5986
X27720Y5986
X28720Y5986
X29720Y5986
X30720Y5986
X31720Y5986
X37720Y5986
X38720Y5986
X39720Y5986
X40720Y5986
X41720Y5986
X42720Y5986
X43720Y5986
X44720Y5986
X50720Y5986
X51720Y5986
X52720Y5986
X53720Y5986
X54720Y5986
X55720Y5986
X56720Y5986
X57720Y5986
X57720Y10986
X56720Y10986
X55720Y10986
X54720Y10986
X53720Y10986
X52720Y10986
X51720Y10986
X50720Y10986
X44720Y10986
X43720Y10986
X42720Y10986
X41720Y10986
X40720Y10986
X39720Y10986
X38720Y10986
X37720Y10986
X31720Y10986
X30720Y10986
T03
X29720Y8986
X28720Y8986
X28720Y7986
X29720Y7986
X29720Y6986
X28720Y6986
X16720Y6986
X15720Y6986
X15720Y7986
X16720Y7986
X16720Y8986
X15720Y8986
X3720Y8986
X2720Y8986
X2720Y7986
X3720Y7986
X3720Y6986
X2720Y6986
X41720Y6986
X42720Y6986
X42720Y7986
X41720Y7986
X41720Y8986
X42720Y8986
X54720Y8986
X55720Y8986
X55720Y7986
X54720Y7986
X54720Y6986
X55720Y6986
T04
X56104Y16736
X54726Y16736
X53348Y16736
X51970Y16736
X43104Y16986
X41726Y16986
X40348Y16986
X38970Y16986
X30104Y17236
X28726Y17236
X27348Y17236
X25970Y17236
X17104Y17236
X15726Y17236
X14348Y17236
X12970Y17236
X1720Y14736
X1720Y13358
T05
X1970Y1986
X1970Y17486
X59220Y17486
X59220Y1986
M30
