G75*
%MOIN*%
%OFA0B0*%
%FSLAX25Y25*%
%IPPOS*%
%LPD*%
%AMOC8*
5,1,8,0,0,1.08239X$1,22.5*
%
%ADD10C,0.05543*%
%ADD11R,0.07400X0.07400*%
%ADD12OC8,0.07400*%
%ADD13C,0.07050*%
%ADD14C,0.06600*%
%ADD15C,0.02400*%
%ADD16OC8,0.03569*%
%ADD17C,0.03200*%
%ADD18C,0.05000*%
%ADD19R,0.03962X0.03962*%
D10*
X0007200Y0037407D03*
X0007200Y0047407D03*
X0007200Y0057407D03*
X0007200Y0067407D03*
X0007200Y0077407D03*
X0007200Y0087407D03*
X0007200Y0097407D03*
X0007200Y0107407D03*
X0057200Y0107407D03*
X0057200Y0097407D03*
X0057200Y0087407D03*
X0057200Y0077407D03*
X0057200Y0067407D03*
X0057200Y0057407D03*
X0057200Y0047407D03*
X0057200Y0037407D03*
X0177200Y0032407D03*
X0187200Y0032407D03*
X0197200Y0032407D03*
X0207200Y0032407D03*
X0217200Y0032407D03*
X0227200Y0032407D03*
X0237200Y0032407D03*
X0247200Y0032407D03*
X0257200Y0032407D03*
X0267200Y0032407D03*
X0277200Y0032407D03*
X0287200Y0032407D03*
X0297200Y0032407D03*
X0307200Y0032407D03*
X0317200Y0032407D03*
X0327200Y0032407D03*
X0337200Y0032407D03*
X0347200Y0032407D03*
X0357200Y0032407D03*
X0367200Y0032407D03*
X0377200Y0032407D03*
X0387200Y0032407D03*
X0397200Y0032407D03*
X0407200Y0032407D03*
X0417200Y0032407D03*
X0427200Y0032407D03*
X0437200Y0032407D03*
X0447200Y0032407D03*
X0457200Y0032407D03*
X0467200Y0032407D03*
X0477200Y0032407D03*
X0487200Y0032407D03*
X0487200Y0082407D03*
X0477200Y0082407D03*
X0467200Y0082407D03*
X0457200Y0082407D03*
X0447200Y0082407D03*
X0437200Y0082407D03*
X0427200Y0082407D03*
X0417200Y0082407D03*
X0407200Y0082407D03*
X0397200Y0082407D03*
X0387200Y0082407D03*
X0377200Y0082407D03*
X0367200Y0082407D03*
X0357200Y0082407D03*
X0347200Y0082407D03*
X0337200Y0082407D03*
X0327200Y0082407D03*
X0317200Y0082407D03*
X0307200Y0082407D03*
X0297200Y0082407D03*
X0287200Y0082407D03*
X0277200Y0082407D03*
X0267200Y0082407D03*
X0257200Y0082407D03*
X0247200Y0082407D03*
X0237200Y0082407D03*
X0227200Y0082407D03*
X0217200Y0082407D03*
X0207200Y0082407D03*
X0197200Y0082407D03*
X0187200Y0082407D03*
X0177200Y0082407D03*
D11*
X0217200Y0042407D03*
X0297200Y0042407D03*
X0377200Y0042407D03*
X0457200Y0042407D03*
D12*
X0467200Y0042407D03*
X0467200Y0052407D03*
X0457200Y0052407D03*
X0457200Y0062407D03*
X0467200Y0062407D03*
X0387200Y0062407D03*
X0377200Y0062407D03*
X0377200Y0052407D03*
X0387200Y0052407D03*
X0387200Y0042407D03*
X0307200Y0042407D03*
X0307200Y0052407D03*
X0297200Y0052407D03*
X0297200Y0062407D03*
X0307200Y0062407D03*
X0227200Y0062407D03*
X0217200Y0062407D03*
X0217200Y0052407D03*
X0227200Y0052407D03*
X0227200Y0042407D03*
X0104700Y0037407D03*
X0094700Y0037407D03*
X0084700Y0037407D03*
X0084700Y0027407D03*
X0094700Y0027407D03*
X0104700Y0027407D03*
X0037200Y0062407D03*
X0027200Y0062407D03*
X0027200Y0072407D03*
X0037200Y0072407D03*
X0037200Y0082407D03*
X0027200Y0082407D03*
D13*
X0076175Y0084749D02*
X0083225Y0084749D01*
X0083225Y0065064D02*
X0076175Y0065064D01*
X0182672Y0113882D02*
X0182672Y0120932D01*
X0202357Y0120932D02*
X0202357Y0113882D01*
X0222043Y0113882D02*
X0222043Y0120932D01*
X0241728Y0120932D02*
X0241728Y0113882D01*
X0262672Y0113882D02*
X0262672Y0120932D01*
X0282357Y0120932D02*
X0282357Y0113882D01*
X0302043Y0113882D02*
X0302043Y0120932D01*
X0321728Y0120932D02*
X0321728Y0113882D01*
X0342672Y0113882D02*
X0342672Y0120932D01*
X0362357Y0120932D02*
X0362357Y0113882D01*
X0382043Y0113882D02*
X0382043Y0120932D01*
X0401728Y0120932D02*
X0401728Y0113882D01*
X0422672Y0113882D02*
X0422672Y0120932D01*
X0442357Y0120932D02*
X0442357Y0113882D01*
X0462043Y0113882D02*
X0462043Y0120932D01*
X0481728Y0120932D02*
X0481728Y0113882D01*
D14*
X0417200Y0092407D02*
X0417200Y0082407D01*
X0417200Y0092407D02*
X0337200Y0092407D01*
X0337200Y0082407D01*
X0337200Y0092407D02*
X0257200Y0092407D01*
X0257200Y0082407D01*
X0257200Y0092407D02*
X0177200Y0092407D01*
X0177200Y0082407D01*
D15*
X0062796Y0015378D02*
X0063532Y0013210D01*
X0064545Y0011157D01*
X0065816Y0009254D01*
X0067326Y0007533D01*
X0069047Y0006023D01*
X0070950Y0004751D01*
X0073003Y0003739D01*
X0075171Y0003003D01*
X0077416Y0002557D01*
X0079700Y0002407D01*
X0514700Y0002407D01*
X0079700Y0002407D01*
X0070869Y0004805D02*
X0522833Y0004805D01*
X0522810Y0004788D02*
X0520931Y0003762D01*
X0518926Y0003015D01*
X0516835Y0002560D01*
X0514700Y0002407D01*
X0522810Y0004788D02*
X0524523Y0006071D01*
X0526036Y0007584D01*
X0527319Y0009297D01*
X0528344Y0011176D01*
X0529092Y0013181D01*
X0529547Y0015272D01*
X0529700Y0017407D01*
X0529700Y0117407D01*
X0529550Y0119691D01*
X0529104Y0121936D01*
X0528368Y0124104D01*
X0527355Y0126157D01*
X0526084Y0128060D01*
X0524574Y0129781D01*
X0522853Y0131291D01*
X0520950Y0132562D01*
X0518897Y0133575D01*
X0516729Y0134311D01*
X0514484Y0134757D01*
X0512200Y0134907D01*
X0079700Y0134907D01*
X0077416Y0134757D01*
X0075171Y0134311D01*
X0073003Y0133575D01*
X0070950Y0132562D01*
X0069047Y0131291D01*
X0067326Y0129781D01*
X0065816Y0128060D01*
X0064545Y0126157D01*
X0063532Y0124104D01*
X0062796Y0121936D01*
X0062350Y0119691D01*
X0062200Y0117407D01*
X0062200Y0019907D01*
X0062350Y0017623D01*
X0062796Y0015378D01*
X0063128Y0014399D02*
X0092899Y0014399D01*
X0095274Y0012025D02*
X0096524Y0011507D01*
X0173527Y0011507D01*
X0174308Y0010726D01*
X0180092Y0010726D01*
X0180873Y0011507D01*
X0253527Y0011507D01*
X0254308Y0010726D01*
X0260092Y0010726D01*
X0260873Y0011507D01*
X0333527Y0011507D01*
X0334308Y0010726D01*
X0340092Y0010726D01*
X0340873Y0011507D01*
X0413527Y0011507D01*
X0414308Y0010726D01*
X0420092Y0010726D01*
X0421381Y0012015D01*
X0421381Y0016507D01*
X0473527Y0016507D01*
X0474308Y0015726D01*
X0480092Y0015726D01*
X0481381Y0017015D01*
X0481381Y0021507D01*
X0487876Y0021507D01*
X0489126Y0022025D01*
X0490082Y0022981D01*
X0490600Y0024231D01*
X0490600Y0028776D01*
X0491415Y0029591D01*
X0492172Y0031418D01*
X0492172Y0033396D01*
X0491415Y0035223D01*
X0490016Y0036622D01*
X0488189Y0037379D01*
X0486211Y0037379D01*
X0484384Y0036622D01*
X0482985Y0035223D01*
X0482228Y0033396D01*
X0482228Y0031418D01*
X0482985Y0029591D01*
X0483800Y0028776D01*
X0483800Y0028307D01*
X0480131Y0028307D01*
X0481415Y0029591D01*
X0482172Y0031418D01*
X0482172Y0033396D01*
X0481415Y0035223D01*
X0480016Y0036622D01*
X0478189Y0037379D01*
X0476211Y0037379D01*
X0474384Y0036622D01*
X0472985Y0035223D01*
X0472228Y0033396D01*
X0472228Y0031418D01*
X0472985Y0029591D01*
X0474269Y0028307D01*
X0470131Y0028307D01*
X0471415Y0029591D01*
X0472172Y0031418D01*
X0472172Y0033396D01*
X0471415Y0035223D01*
X0470016Y0036622D01*
X0469834Y0036697D01*
X0473100Y0039963D01*
X0473100Y0044851D01*
X0471900Y0046051D01*
X0471900Y0048763D01*
X0473100Y0049963D01*
X0473100Y0054851D01*
X0471900Y0056051D01*
X0471900Y0058763D01*
X0473100Y0059963D01*
X0473100Y0064851D01*
X0471900Y0066051D01*
X0471900Y0070460D01*
X0479360Y0077920D01*
X0480016Y0078192D01*
X0481415Y0079591D01*
X0482172Y0081418D01*
X0482172Y0083396D01*
X0481415Y0085223D01*
X0480016Y0086622D01*
X0478189Y0087379D01*
X0476211Y0087379D01*
X0474384Y0086622D01*
X0472985Y0085223D01*
X0472714Y0084567D01*
X0471987Y0083841D01*
X0471415Y0085223D01*
X0470016Y0086622D01*
X0468189Y0087379D01*
X0466211Y0087379D01*
X0464384Y0086622D01*
X0462985Y0085223D01*
X0462228Y0083396D01*
X0462228Y0081418D01*
X0462985Y0079591D01*
X0464384Y0078192D01*
X0465766Y0077620D01*
X0463216Y0075069D01*
X0462500Y0073342D01*
X0462500Y0066051D01*
X0462200Y0065751D01*
X0459644Y0068307D01*
X0454756Y0068307D01*
X0451300Y0064851D01*
X0451300Y0059963D01*
X0453856Y0057407D01*
X0451300Y0054851D01*
X0451300Y0049963D01*
X0452956Y0048307D01*
X0452589Y0048307D01*
X0451300Y0047018D01*
X0451300Y0037796D01*
X0452589Y0036507D01*
X0454269Y0036507D01*
X0452985Y0035223D01*
X0452228Y0033396D01*
X0452228Y0031418D01*
X0452985Y0029591D01*
X0454269Y0028307D01*
X0450131Y0028307D01*
X0451415Y0029591D01*
X0452172Y0031418D01*
X0452172Y0033396D01*
X0451415Y0035223D01*
X0450016Y0036622D01*
X0448189Y0037379D01*
X0446211Y0037379D01*
X0444384Y0036622D01*
X0442985Y0035223D01*
X0442228Y0033396D01*
X0442228Y0031418D01*
X0442985Y0029591D01*
X0444269Y0028307D01*
X0440131Y0028307D01*
X0441415Y0029591D01*
X0442172Y0031418D01*
X0442172Y0033396D01*
X0441415Y0035223D01*
X0440016Y0036622D01*
X0438189Y0037379D01*
X0436211Y0037379D01*
X0434384Y0036622D01*
X0432985Y0035223D01*
X0432228Y0033396D01*
X0432228Y0031418D01*
X0432985Y0029591D01*
X0434269Y0028307D01*
X0430131Y0028307D01*
X0431415Y0029591D01*
X0432172Y0031418D01*
X0432172Y0033396D01*
X0431415Y0035223D01*
X0430016Y0036622D01*
X0428189Y0037379D01*
X0426211Y0037379D01*
X0424384Y0036622D01*
X0422985Y0035223D01*
X0422228Y0033396D01*
X0422228Y0031418D01*
X0422985Y0029591D01*
X0424269Y0028307D01*
X0420131Y0028307D01*
X0421415Y0029591D01*
X0422172Y0031418D01*
X0422172Y0033396D01*
X0421415Y0035223D01*
X0420016Y0036622D01*
X0418189Y0037379D01*
X0416211Y0037379D01*
X0414384Y0036622D01*
X0412985Y0035223D01*
X0412228Y0033396D01*
X0412228Y0031418D01*
X0412985Y0029591D01*
X0414269Y0028307D01*
X0410600Y0028307D01*
X0410600Y0028776D01*
X0411415Y0029591D01*
X0412172Y0031418D01*
X0412172Y0033396D01*
X0411415Y0035223D01*
X0410016Y0036622D01*
X0408189Y0037379D01*
X0406211Y0037379D01*
X0404384Y0036622D01*
X0402985Y0035223D01*
X0402228Y0033396D01*
X0402228Y0031418D01*
X0402985Y0029591D01*
X0403800Y0028776D01*
X0403800Y0028307D01*
X0400131Y0028307D01*
X0401415Y0029591D01*
X0402172Y0031418D01*
X0402172Y0033396D01*
X0401415Y0035223D01*
X0400016Y0036622D01*
X0398189Y0037379D01*
X0396211Y0037379D01*
X0394384Y0036622D01*
X0392985Y0035223D01*
X0392228Y0033396D01*
X0392228Y0031418D01*
X0392985Y0029591D01*
X0394269Y0028307D01*
X0390131Y0028307D01*
X0391415Y0029591D01*
X0392172Y0031418D01*
X0392172Y0033396D01*
X0391415Y0035223D01*
X0390016Y0036622D01*
X0389834Y0036697D01*
X0393100Y0039963D01*
X0393100Y0044851D01*
X0390544Y0047407D01*
X0393100Y0049963D01*
X0393100Y0054851D01*
X0390544Y0057407D01*
X0393100Y0059963D01*
X0393100Y0064851D01*
X0391000Y0066951D01*
X0391000Y0070833D01*
X0397602Y0077435D01*
X0398189Y0077435D01*
X0400016Y0078192D01*
X0401415Y0079591D01*
X0402172Y0081418D01*
X0402172Y0083396D01*
X0401415Y0085223D01*
X0400016Y0086622D01*
X0398189Y0087379D01*
X0396211Y0087379D01*
X0394384Y0086622D01*
X0392985Y0085223D01*
X0392228Y0083396D01*
X0392228Y0082809D01*
X0392172Y0082753D01*
X0392172Y0083396D01*
X0391415Y0085223D01*
X0390016Y0086622D01*
X0388189Y0087379D01*
X0386211Y0087379D01*
X0384384Y0086622D01*
X0382985Y0085223D01*
X0382228Y0083396D01*
X0382228Y0081418D01*
X0382985Y0079591D01*
X0384384Y0078192D01*
X0386211Y0077435D01*
X0386854Y0077435D01*
X0383979Y0074559D01*
X0383400Y0073163D01*
X0383400Y0066951D01*
X0382200Y0065751D01*
X0379644Y0068307D01*
X0374756Y0068307D01*
X0371300Y0064851D01*
X0371300Y0059963D01*
X0373856Y0057407D01*
X0371300Y0054851D01*
X0371300Y0049963D01*
X0372956Y0048307D01*
X0372589Y0048307D01*
X0371300Y0047018D01*
X0371300Y0037796D01*
X0372589Y0036507D01*
X0374269Y0036507D01*
X0372985Y0035223D01*
X0372228Y0033396D01*
X0372228Y0031418D01*
X0372985Y0029591D01*
X0374269Y0028307D01*
X0370131Y0028307D01*
X0371415Y0029591D01*
X0372172Y0031418D01*
X0372172Y0033396D01*
X0371415Y0035223D01*
X0370016Y0036622D01*
X0368189Y0037379D01*
X0366211Y0037379D01*
X0364384Y0036622D01*
X0362985Y0035223D01*
X0362228Y0033396D01*
X0362228Y0031418D01*
X0362985Y0029591D01*
X0364269Y0028307D01*
X0360131Y0028307D01*
X0361415Y0029591D01*
X0362172Y0031418D01*
X0362172Y0033396D01*
X0361415Y0035223D01*
X0360016Y0036622D01*
X0358189Y0037379D01*
X0356211Y0037379D01*
X0354384Y0036622D01*
X0352985Y0035223D01*
X0352228Y0033396D01*
X0352228Y0031418D01*
X0352985Y0029591D01*
X0354269Y0028307D01*
X0350131Y0028307D01*
X0351415Y0029591D01*
X0352172Y0031418D01*
X0352172Y0033396D01*
X0351415Y0035223D01*
X0350016Y0036622D01*
X0348189Y0037379D01*
X0346211Y0037379D01*
X0344384Y0036622D01*
X0342985Y0035223D01*
X0342228Y0033396D01*
X0342228Y0031418D01*
X0342985Y0029591D01*
X0344269Y0028307D01*
X0340131Y0028307D01*
X0341415Y0029591D01*
X0342172Y0031418D01*
X0342172Y0033396D01*
X0341415Y0035223D01*
X0340016Y0036622D01*
X0338189Y0037379D01*
X0336211Y0037379D01*
X0334384Y0036622D01*
X0332985Y0035223D01*
X0332228Y0033396D01*
X0332228Y0031418D01*
X0332985Y0029591D01*
X0334269Y0028307D01*
X0330600Y0028307D01*
X0330600Y0028776D01*
X0331415Y0029591D01*
X0332172Y0031418D01*
X0332172Y0033396D01*
X0331415Y0035223D01*
X0330016Y0036622D01*
X0328189Y0037379D01*
X0326211Y0037379D01*
X0324384Y0036622D01*
X0322985Y0035223D01*
X0322228Y0033396D01*
X0322228Y0031418D01*
X0322985Y0029591D01*
X0323800Y0028776D01*
X0323800Y0028307D01*
X0320131Y0028307D01*
X0321415Y0029591D01*
X0322172Y0031418D01*
X0322172Y0033396D01*
X0321415Y0035223D01*
X0320016Y0036622D01*
X0318189Y0037379D01*
X0316211Y0037379D01*
X0314384Y0036622D01*
X0312985Y0035223D01*
X0312228Y0033396D01*
X0312228Y0031418D01*
X0312985Y0029591D01*
X0314269Y0028307D01*
X0310131Y0028307D01*
X0311415Y0029591D01*
X0312172Y0031418D01*
X0312172Y0033396D01*
X0311415Y0035223D01*
X0310016Y0036622D01*
X0309834Y0036697D01*
X0313100Y0039963D01*
X0313100Y0044851D01*
X0310544Y0047407D01*
X0313100Y0049963D01*
X0313100Y0054851D01*
X0310544Y0057407D01*
X0313100Y0059963D01*
X0313100Y0064851D01*
X0311900Y0066051D01*
X0311900Y0070460D01*
X0319360Y0077920D01*
X0320016Y0078192D01*
X0321415Y0079591D01*
X0322172Y0081418D01*
X0322172Y0083396D01*
X0321415Y0085223D01*
X0320016Y0086622D01*
X0318189Y0087379D01*
X0316211Y0087379D01*
X0314384Y0086622D01*
X0312985Y0085223D01*
X0312714Y0084567D01*
X0311987Y0083841D01*
X0311415Y0085223D01*
X0310016Y0086622D01*
X0308189Y0087379D01*
X0306211Y0087379D01*
X0304384Y0086622D01*
X0302985Y0085223D01*
X0302228Y0083396D01*
X0302228Y0081418D01*
X0302985Y0079591D01*
X0304384Y0078192D01*
X0305766Y0077620D01*
X0304538Y0076391D01*
X0303216Y0075069D01*
X0302500Y0073342D01*
X0302500Y0066051D01*
X0302200Y0065751D01*
X0299644Y0068307D01*
X0294756Y0068307D01*
X0291300Y0064851D01*
X0291300Y0059963D01*
X0293856Y0057407D01*
X0291300Y0054851D01*
X0291300Y0049963D01*
X0292956Y0048307D01*
X0292589Y0048307D01*
X0291300Y0047018D01*
X0291300Y0037796D01*
X0292589Y0036507D01*
X0294269Y0036507D01*
X0292985Y0035223D01*
X0292228Y0033396D01*
X0292228Y0031418D01*
X0292985Y0029591D01*
X0294269Y0028307D01*
X0290131Y0028307D01*
X0291415Y0029591D01*
X0292172Y0031418D01*
X0292172Y0033396D01*
X0291415Y0035223D01*
X0290016Y0036622D01*
X0288189Y0037379D01*
X0286211Y0037379D01*
X0284384Y0036622D01*
X0282985Y0035223D01*
X0282228Y0033396D01*
X0282228Y0031418D01*
X0282985Y0029591D01*
X0284269Y0028307D01*
X0280131Y0028307D01*
X0281415Y0029591D01*
X0282172Y0031418D01*
X0282172Y0033396D01*
X0281415Y0035223D01*
X0280016Y0036622D01*
X0278189Y0037379D01*
X0276211Y0037379D01*
X0274384Y0036622D01*
X0272985Y0035223D01*
X0272228Y0033396D01*
X0272228Y0031418D01*
X0272985Y0029591D01*
X0274269Y0028307D01*
X0270131Y0028307D01*
X0271415Y0029591D01*
X0272172Y0031418D01*
X0272172Y0033396D01*
X0271415Y0035223D01*
X0270016Y0036622D01*
X0268189Y0037379D01*
X0266211Y0037379D01*
X0264384Y0036622D01*
X0262985Y0035223D01*
X0262228Y0033396D01*
X0262228Y0031418D01*
X0262985Y0029591D01*
X0264269Y0028307D01*
X0260131Y0028307D01*
X0261415Y0029591D01*
X0262172Y0031418D01*
X0262172Y0033396D01*
X0261415Y0035223D01*
X0260016Y0036622D01*
X0258189Y0037379D01*
X0256211Y0037379D01*
X0254384Y0036622D01*
X0252985Y0035223D01*
X0252228Y0033396D01*
X0252228Y0031418D01*
X0252985Y0029591D01*
X0254269Y0028307D01*
X0250600Y0028307D01*
X0250600Y0028776D01*
X0251415Y0029591D01*
X0252172Y0031418D01*
X0252172Y0033396D01*
X0251415Y0035223D01*
X0250016Y0036622D01*
X0248189Y0037379D01*
X0246211Y0037379D01*
X0244384Y0036622D01*
X0242985Y0035223D01*
X0242228Y0033396D01*
X0242228Y0031418D01*
X0242985Y0029591D01*
X0243800Y0028776D01*
X0243800Y0028307D01*
X0240131Y0028307D01*
X0241415Y0029591D01*
X0242172Y0031418D01*
X0242172Y0033396D01*
X0241415Y0035223D01*
X0240016Y0036622D01*
X0238189Y0037379D01*
X0236211Y0037379D01*
X0234384Y0036622D01*
X0232985Y0035223D01*
X0232228Y0033396D01*
X0232228Y0031418D01*
X0232985Y0029591D01*
X0234269Y0028307D01*
X0230131Y0028307D01*
X0231415Y0029591D01*
X0232172Y0031418D01*
X0232172Y0033396D01*
X0231415Y0035223D01*
X0230016Y0036622D01*
X0229834Y0036697D01*
X0233100Y0039963D01*
X0233100Y0044851D01*
X0231900Y0046051D01*
X0231900Y0048763D01*
X0233100Y0049963D01*
X0233100Y0054851D01*
X0231900Y0056051D01*
X0231900Y0058763D01*
X0233100Y0059963D01*
X0233100Y0064851D01*
X0231900Y0066051D01*
X0231900Y0070460D01*
X0239360Y0077920D01*
X0240016Y0078192D01*
X0241415Y0079591D01*
X0242172Y0081418D01*
X0242172Y0083396D01*
X0241415Y0085223D01*
X0240016Y0086622D01*
X0238189Y0087379D01*
X0236211Y0087379D01*
X0234384Y0086622D01*
X0232985Y0085223D01*
X0232714Y0084567D01*
X0231987Y0083841D01*
X0231415Y0085223D01*
X0230016Y0086622D01*
X0228189Y0087379D01*
X0226211Y0087379D01*
X0224384Y0086622D01*
X0222985Y0085223D01*
X0222228Y0083396D01*
X0222228Y0081418D01*
X0222985Y0079591D01*
X0224384Y0078192D01*
X0225766Y0077620D01*
X0224538Y0076391D01*
X0223216Y0075069D01*
X0222500Y0073342D01*
X0222500Y0066051D01*
X0222200Y0065751D01*
X0219644Y0068307D01*
X0214756Y0068307D01*
X0211300Y0064851D01*
X0211300Y0059963D01*
X0213856Y0057407D01*
X0211300Y0054851D01*
X0211300Y0049963D01*
X0212956Y0048307D01*
X0212589Y0048307D01*
X0211300Y0047018D01*
X0211300Y0037796D01*
X0212589Y0036507D01*
X0214269Y0036507D01*
X0212985Y0035223D01*
X0212228Y0033396D01*
X0212228Y0031418D01*
X0212985Y0029591D01*
X0214269Y0028307D01*
X0210131Y0028307D01*
X0211415Y0029591D01*
X0212172Y0031418D01*
X0212172Y0033396D01*
X0211415Y0035223D01*
X0210016Y0036622D01*
X0208189Y0037379D01*
X0206211Y0037379D01*
X0204384Y0036622D01*
X0202985Y0035223D01*
X0202228Y0033396D01*
X0202228Y0031418D01*
X0202985Y0029591D01*
X0204269Y0028307D01*
X0200131Y0028307D01*
X0201415Y0029591D01*
X0202172Y0031418D01*
X0202172Y0033396D01*
X0201415Y0035223D01*
X0200016Y0036622D01*
X0198189Y0037379D01*
X0196211Y0037379D01*
X0194384Y0036622D01*
X0192985Y0035223D01*
X0192228Y0033396D01*
X0192228Y0031418D01*
X0192985Y0029591D01*
X0194269Y0028307D01*
X0190131Y0028307D01*
X0191415Y0029591D01*
X0192172Y0031418D01*
X0192172Y0033396D01*
X0191415Y0035223D01*
X0190016Y0036622D01*
X0188189Y0037379D01*
X0186211Y0037379D01*
X0184384Y0036622D01*
X0182985Y0035223D01*
X0182228Y0033396D01*
X0182228Y0031418D01*
X0182985Y0029591D01*
X0184269Y0028307D01*
X0180131Y0028307D01*
X0181415Y0029591D01*
X0182172Y0031418D01*
X0182172Y0033396D01*
X0181415Y0035223D01*
X0180016Y0036622D01*
X0178189Y0037379D01*
X0176211Y0037379D01*
X0174384Y0036622D01*
X0172985Y0035223D01*
X0172228Y0033396D01*
X0172228Y0031418D01*
X0172985Y0029591D01*
X0174269Y0028307D01*
X0110600Y0028307D01*
X0110600Y0029851D01*
X0108044Y0032407D01*
X0110600Y0034963D01*
X0110600Y0039851D01*
X0107144Y0043307D01*
X0102256Y0043307D01*
X0099700Y0040751D01*
X0097144Y0043307D01*
X0092256Y0043307D01*
X0089700Y0040751D01*
X0087144Y0043307D01*
X0082256Y0043307D01*
X0078800Y0039851D01*
X0078800Y0034963D01*
X0081356Y0032407D01*
X0078800Y0029851D01*
X0078800Y0024963D01*
X0082256Y0021507D01*
X0085792Y0021507D01*
X0095274Y0012025D01*
X0095331Y0012001D02*
X0064128Y0012001D01*
X0065583Y0009602D02*
X0527485Y0009602D01*
X0528652Y0012001D02*
X0421368Y0012001D01*
X0421381Y0014399D02*
X0529357Y0014399D01*
X0529656Y0016798D02*
X0481165Y0016798D01*
X0481381Y0019196D02*
X0529700Y0019196D01*
X0529700Y0021595D02*
X0488089Y0021595D01*
X0490502Y0023994D02*
X0529700Y0023994D01*
X0529700Y0026392D02*
X0490600Y0026392D01*
X0490615Y0028791D02*
X0529700Y0028791D01*
X0529700Y0031189D02*
X0492077Y0031189D01*
X0487200Y0032407D02*
X0487200Y0024907D01*
X0407200Y0024907D01*
X0407200Y0032407D01*
X0412077Y0031189D02*
X0412323Y0031189D01*
X0412308Y0033588D02*
X0412092Y0033588D01*
X0410652Y0035986D02*
X0413748Y0035986D01*
X0420652Y0035986D02*
X0423748Y0035986D01*
X0422308Y0033588D02*
X0422092Y0033588D01*
X0430652Y0035986D02*
X0433748Y0035986D01*
X0432308Y0033588D02*
X0432092Y0033588D01*
X0440652Y0035986D02*
X0443748Y0035986D01*
X0442308Y0033588D02*
X0442092Y0033588D01*
X0450652Y0035986D02*
X0453748Y0035986D01*
X0452308Y0033588D02*
X0452092Y0033588D01*
X0452077Y0031189D02*
X0452323Y0031189D01*
X0453785Y0028791D02*
X0450615Y0028791D01*
X0443785Y0028791D02*
X0440615Y0028791D01*
X0433785Y0028791D02*
X0430615Y0028791D01*
X0423785Y0028791D02*
X0420615Y0028791D01*
X0422077Y0031189D02*
X0422323Y0031189D01*
X0413785Y0028791D02*
X0410615Y0028791D01*
X0407200Y0024907D02*
X0327200Y0024907D01*
X0327200Y0032407D01*
X0332077Y0031189D02*
X0332323Y0031189D01*
X0332308Y0033588D02*
X0332092Y0033588D01*
X0330652Y0035986D02*
X0333748Y0035986D01*
X0340652Y0035986D02*
X0343748Y0035986D01*
X0342308Y0033588D02*
X0342092Y0033588D01*
X0350652Y0035986D02*
X0353748Y0035986D01*
X0352308Y0033588D02*
X0352092Y0033588D01*
X0360652Y0035986D02*
X0363748Y0035986D01*
X0362308Y0033588D02*
X0362092Y0033588D01*
X0370652Y0035986D02*
X0373748Y0035986D01*
X0372308Y0033588D02*
X0372092Y0033588D01*
X0372077Y0031189D02*
X0372323Y0031189D01*
X0362323Y0031189D02*
X0362077Y0031189D01*
X0360615Y0028791D02*
X0363785Y0028791D01*
X0370615Y0028791D02*
X0373785Y0028791D01*
X0390615Y0028791D02*
X0393785Y0028791D01*
X0400615Y0028791D02*
X0403785Y0028791D01*
X0402323Y0031189D02*
X0402077Y0031189D01*
X0402092Y0033588D02*
X0402308Y0033588D01*
X0403748Y0035986D02*
X0400652Y0035986D01*
X0393748Y0035986D02*
X0390652Y0035986D01*
X0392092Y0033588D02*
X0392308Y0033588D01*
X0392323Y0031189D02*
X0392077Y0031189D01*
X0391522Y0038385D02*
X0451300Y0038385D01*
X0451300Y0040783D02*
X0393100Y0040783D01*
X0393100Y0043182D02*
X0451300Y0043182D01*
X0451300Y0045580D02*
X0392371Y0045580D01*
X0391116Y0047979D02*
X0452260Y0047979D01*
X0451300Y0050377D02*
X0393100Y0050377D01*
X0393100Y0052776D02*
X0451300Y0052776D01*
X0451623Y0055174D02*
X0392777Y0055174D01*
X0390710Y0057573D02*
X0453690Y0057573D01*
X0451300Y0059971D02*
X0393100Y0059971D01*
X0393100Y0062370D02*
X0451300Y0062370D01*
X0451300Y0064768D02*
X0393100Y0064768D01*
X0391000Y0067167D02*
X0453616Y0067167D01*
X0460784Y0067167D02*
X0462500Y0067167D01*
X0462500Y0069565D02*
X0391000Y0069565D01*
X0392131Y0071964D02*
X0462500Y0071964D01*
X0462923Y0074362D02*
X0394529Y0074362D01*
X0396928Y0076761D02*
X0464907Y0076761D01*
X0463417Y0079159D02*
X0460983Y0079159D01*
X0461415Y0079591D02*
X0460016Y0078192D01*
X0458189Y0077435D01*
X0456211Y0077435D01*
X0454384Y0078192D01*
X0452985Y0079591D01*
X0452228Y0081418D01*
X0452228Y0083396D01*
X0452985Y0085223D01*
X0454384Y0086622D01*
X0456211Y0087379D01*
X0458189Y0087379D01*
X0460016Y0086622D01*
X0461415Y0085223D01*
X0462172Y0083396D01*
X0462172Y0081418D01*
X0461415Y0079591D01*
X0462172Y0081558D02*
X0462228Y0081558D01*
X0452228Y0081558D02*
X0452172Y0081558D01*
X0452172Y0081418D02*
X0451415Y0079591D01*
X0450016Y0078192D01*
X0448189Y0077435D01*
X0446211Y0077435D01*
X0444384Y0078192D01*
X0442985Y0079591D01*
X0442228Y0081418D01*
X0442228Y0083396D01*
X0442985Y0085223D01*
X0444384Y0086622D01*
X0446211Y0087379D01*
X0448189Y0087379D01*
X0450016Y0086622D01*
X0451415Y0085223D01*
X0452172Y0083396D01*
X0452172Y0081418D01*
X0451939Y0083956D02*
X0452461Y0083956D01*
X0454117Y0086355D02*
X0450283Y0086355D01*
X0444117Y0086355D02*
X0440283Y0086355D01*
X0440016Y0086622D02*
X0438189Y0087379D01*
X0436211Y0087379D01*
X0434384Y0086622D01*
X0432985Y0085223D01*
X0432228Y0083396D01*
X0432228Y0081418D01*
X0432985Y0079591D01*
X0434384Y0078192D01*
X0436211Y0077435D01*
X0438189Y0077435D01*
X0440016Y0078192D01*
X0441415Y0079591D01*
X0442172Y0081418D01*
X0442172Y0083396D01*
X0441415Y0085223D01*
X0440016Y0086622D01*
X0441939Y0083956D02*
X0442461Y0083956D01*
X0442228Y0081558D02*
X0442172Y0081558D01*
X0440983Y0079159D02*
X0443417Y0079159D01*
X0450983Y0079159D02*
X0453417Y0079159D01*
X0461939Y0083956D02*
X0462461Y0083956D01*
X0464117Y0086355D02*
X0460283Y0086355D01*
X0470283Y0086355D02*
X0474117Y0086355D01*
X0472103Y0083956D02*
X0471939Y0083956D01*
X0480283Y0086355D02*
X0484117Y0086355D01*
X0484384Y0086622D02*
X0482985Y0085223D01*
X0482228Y0083396D01*
X0482228Y0081418D01*
X0482985Y0079591D01*
X0484384Y0078192D01*
X0486211Y0077435D01*
X0488189Y0077435D01*
X0490016Y0078192D01*
X0491415Y0079591D01*
X0492172Y0081418D01*
X0492172Y0083396D01*
X0491415Y0085223D01*
X0490016Y0086622D01*
X0488189Y0087379D01*
X0486211Y0087379D01*
X0484384Y0086622D01*
X0482461Y0083956D02*
X0481939Y0083956D01*
X0482172Y0081558D02*
X0482228Y0081558D01*
X0483417Y0079159D02*
X0480983Y0079159D01*
X0478201Y0076761D02*
X0529700Y0076761D01*
X0529700Y0079159D02*
X0490983Y0079159D01*
X0492172Y0081558D02*
X0529700Y0081558D01*
X0529700Y0083956D02*
X0491939Y0083956D01*
X0490283Y0086355D02*
X0529700Y0086355D01*
X0529700Y0088753D02*
X0087317Y0088753D01*
X0088078Y0087992D02*
X0086468Y0089603D01*
X0084364Y0090474D01*
X0075036Y0090474D01*
X0072932Y0089603D01*
X0071322Y0087992D01*
X0070450Y0085888D01*
X0070450Y0083611D01*
X0071322Y0081506D01*
X0072932Y0079896D01*
X0075036Y0079024D01*
X0084364Y0079024D01*
X0086468Y0079896D01*
X0088078Y0081506D01*
X0088950Y0083611D01*
X0088950Y0085888D01*
X0088078Y0087992D01*
X0088757Y0086355D02*
X0174176Y0086355D01*
X0173961Y0086199D02*
X0173408Y0085646D01*
X0172948Y0085013D01*
X0172593Y0084315D01*
X0172351Y0083571D01*
X0172228Y0082798D01*
X0172228Y0082407D01*
X0177200Y0082407D01*
X0177200Y0082407D01*
X0177200Y0087379D01*
X0176809Y0087379D01*
X0176036Y0087256D01*
X0175292Y0087014D01*
X0174594Y0086659D01*
X0173961Y0086199D01*
X0172476Y0083956D02*
X0088950Y0083956D01*
X0088100Y0081558D02*
X0172301Y0081558D01*
X0172351Y0081243D02*
X0172593Y0080498D01*
X0172948Y0079801D01*
X0173408Y0079168D01*
X0173961Y0078615D01*
X0174594Y0078155D01*
X0175292Y0077799D01*
X0176036Y0077558D01*
X0176809Y0077435D01*
X0177200Y0077435D01*
X0177591Y0077435D01*
X0178364Y0077558D01*
X0179108Y0077799D01*
X0179806Y0078155D01*
X0180439Y0078615D01*
X0180992Y0079168D01*
X0181452Y0079801D01*
X0181807Y0080498D01*
X0182049Y0081243D01*
X0182172Y0082016D01*
X0182172Y0082407D01*
X0182172Y0082798D01*
X0182049Y0083571D01*
X0181807Y0084315D01*
X0181452Y0085013D01*
X0180992Y0085646D01*
X0180439Y0086199D01*
X0179806Y0086659D01*
X0179108Y0087014D01*
X0178364Y0087256D01*
X0177591Y0087379D01*
X0177200Y0087379D01*
X0177200Y0082407D01*
X0182172Y0082407D01*
X0177200Y0082407D01*
X0177200Y0082407D01*
X0177200Y0082407D01*
X0172228Y0082407D01*
X0172228Y0082016D01*
X0172351Y0081243D01*
X0177200Y0081558D02*
X0177200Y0081558D01*
X0177200Y0082407D02*
X0177200Y0077435D01*
X0177200Y0082407D01*
X0177200Y0082407D01*
X0182099Y0081558D02*
X0182228Y0081558D01*
X0182228Y0081418D02*
X0182985Y0079591D01*
X0184384Y0078192D01*
X0186211Y0077435D01*
X0188189Y0077435D01*
X0190016Y0078192D01*
X0191415Y0079591D01*
X0192172Y0081418D01*
X0192172Y0083396D01*
X0191415Y0085223D01*
X0190016Y0086622D01*
X0188189Y0087379D01*
X0186211Y0087379D01*
X0184384Y0086622D01*
X0182985Y0085223D01*
X0182228Y0083396D01*
X0182228Y0081418D01*
X0182461Y0083956D02*
X0181924Y0083956D01*
X0180224Y0086355D02*
X0184117Y0086355D01*
X0190283Y0086355D02*
X0194117Y0086355D01*
X0194384Y0086622D02*
X0192985Y0085223D01*
X0192228Y0083396D01*
X0192228Y0081418D01*
X0192985Y0079591D01*
X0194384Y0078192D01*
X0196211Y0077435D01*
X0198189Y0077435D01*
X0200016Y0078192D01*
X0201415Y0079591D01*
X0202172Y0081418D01*
X0202172Y0083396D01*
X0201415Y0085223D01*
X0200016Y0086622D01*
X0198189Y0087379D01*
X0196211Y0087379D01*
X0194384Y0086622D01*
X0192461Y0083956D02*
X0191939Y0083956D01*
X0200283Y0086355D02*
X0204117Y0086355D01*
X0204384Y0086622D02*
X0202985Y0085223D01*
X0202228Y0083396D01*
X0202228Y0081418D01*
X0202985Y0079591D01*
X0204384Y0078192D01*
X0206211Y0077435D01*
X0208189Y0077435D01*
X0210016Y0078192D01*
X0211415Y0079591D01*
X0212172Y0081418D01*
X0212172Y0083396D01*
X0211415Y0085223D01*
X0210016Y0086622D01*
X0208189Y0087379D01*
X0206211Y0087379D01*
X0204384Y0086622D01*
X0202461Y0083956D02*
X0201939Y0083956D01*
X0202172Y0081558D02*
X0202228Y0081558D01*
X0212172Y0081558D02*
X0212228Y0081558D01*
X0212228Y0081418D02*
X0212985Y0079591D01*
X0214384Y0078192D01*
X0216211Y0077435D01*
X0218189Y0077435D01*
X0220016Y0078192D01*
X0221415Y0079591D01*
X0222172Y0081418D01*
X0222172Y0083396D01*
X0221415Y0085223D01*
X0220016Y0086622D01*
X0218189Y0087379D01*
X0216211Y0087379D01*
X0214384Y0086622D01*
X0212985Y0085223D01*
X0212228Y0083396D01*
X0212228Y0081418D01*
X0212461Y0083956D02*
X0211939Y0083956D01*
X0210283Y0086355D02*
X0214117Y0086355D01*
X0220283Y0086355D02*
X0224117Y0086355D01*
X0222461Y0083956D02*
X0221939Y0083956D01*
X0222172Y0081558D02*
X0222228Y0081558D01*
X0223417Y0079159D02*
X0220983Y0079159D01*
X0224907Y0076761D02*
X0062200Y0076761D01*
X0062200Y0079159D02*
X0074711Y0079159D01*
X0084689Y0079159D02*
X0173417Y0079159D01*
X0177200Y0079159D02*
X0177200Y0079159D01*
X0180983Y0079159D02*
X0183417Y0079159D01*
X0190983Y0079159D02*
X0193417Y0079159D01*
X0200983Y0079159D02*
X0203417Y0079159D01*
X0210983Y0079159D02*
X0213417Y0079159D01*
X0222923Y0074362D02*
X0062200Y0074362D01*
X0062200Y0071964D02*
X0222500Y0071964D01*
X0222500Y0069565D02*
X0086770Y0069565D01*
X0086955Y0069431D02*
X0086226Y0069961D01*
X0085423Y0070370D01*
X0084566Y0070648D01*
X0083676Y0070789D01*
X0079700Y0070789D01*
X0075724Y0070789D01*
X0074834Y0070648D01*
X0073977Y0070370D01*
X0073174Y0069961D01*
X0072445Y0069431D01*
X0071808Y0068794D01*
X0071279Y0068065D01*
X0070869Y0067262D01*
X0070591Y0066405D01*
X0070450Y0065515D01*
X0070450Y0065064D01*
X0070450Y0064614D01*
X0070591Y0063724D01*
X0070869Y0062867D01*
X0071279Y0062064D01*
X0071808Y0061335D01*
X0072445Y0060698D01*
X0073174Y0060168D01*
X0073977Y0059759D01*
X0074834Y0059480D01*
X0075724Y0059339D01*
X0079700Y0059339D01*
X0083676Y0059339D01*
X0084566Y0059480D01*
X0085423Y0059759D01*
X0086226Y0060168D01*
X0086955Y0060698D01*
X0087592Y0061335D01*
X0088121Y0062064D01*
X0088531Y0062867D01*
X0088809Y0063724D01*
X0088950Y0064614D01*
X0088950Y0065064D01*
X0079700Y0065064D01*
X0079700Y0059339D01*
X0079700Y0065064D01*
X0079700Y0065064D01*
X0079700Y0065064D01*
X0070450Y0065064D01*
X0079700Y0065064D01*
X0079700Y0065064D01*
X0088950Y0065064D01*
X0088950Y0065515D01*
X0088809Y0066405D01*
X0088531Y0067262D01*
X0088121Y0068065D01*
X0087592Y0068794D01*
X0086955Y0069431D01*
X0088562Y0067167D02*
X0213616Y0067167D01*
X0220784Y0067167D02*
X0222500Y0067167D01*
X0231900Y0067167D02*
X0293616Y0067167D01*
X0300784Y0067167D02*
X0302500Y0067167D01*
X0302500Y0069565D02*
X0231900Y0069565D01*
X0233404Y0071964D02*
X0302500Y0071964D01*
X0302923Y0074362D02*
X0235802Y0074362D01*
X0238201Y0076761D02*
X0304907Y0076761D01*
X0303417Y0079159D02*
X0300983Y0079159D01*
X0301415Y0079591D02*
X0300016Y0078192D01*
X0298189Y0077435D01*
X0296211Y0077435D01*
X0294384Y0078192D01*
X0292985Y0079591D01*
X0292228Y0081418D01*
X0292228Y0083396D01*
X0292985Y0085223D01*
X0294384Y0086622D01*
X0296211Y0087379D01*
X0298189Y0087379D01*
X0300016Y0086622D01*
X0301415Y0085223D01*
X0302172Y0083396D01*
X0302172Y0081418D01*
X0301415Y0079591D01*
X0302172Y0081558D02*
X0302228Y0081558D01*
X0302461Y0083956D02*
X0301939Y0083956D01*
X0300283Y0086355D02*
X0304117Y0086355D01*
X0310283Y0086355D02*
X0314117Y0086355D01*
X0312103Y0083956D02*
X0311939Y0083956D01*
X0320283Y0086355D02*
X0324117Y0086355D01*
X0324384Y0086622D02*
X0322985Y0085223D01*
X0322228Y0083396D01*
X0322228Y0081418D01*
X0322985Y0079591D01*
X0324384Y0078192D01*
X0326211Y0077435D01*
X0328189Y0077435D01*
X0330016Y0078192D01*
X0331415Y0079591D01*
X0332172Y0081418D01*
X0332172Y0083396D01*
X0331415Y0085223D01*
X0330016Y0086622D01*
X0328189Y0087379D01*
X0326211Y0087379D01*
X0324384Y0086622D01*
X0322461Y0083956D02*
X0321939Y0083956D01*
X0322172Y0081558D02*
X0322228Y0081558D01*
X0323417Y0079159D02*
X0320983Y0079159D01*
X0318201Y0076761D02*
X0386180Y0076761D01*
X0383417Y0079159D02*
X0380983Y0079159D01*
X0381415Y0079591D02*
X0380016Y0078192D01*
X0378189Y0077435D01*
X0376211Y0077435D01*
X0374384Y0078192D01*
X0372985Y0079591D01*
X0372228Y0081418D01*
X0372228Y0083396D01*
X0372985Y0085223D01*
X0374384Y0086622D01*
X0376211Y0087379D01*
X0378189Y0087379D01*
X0380016Y0086622D01*
X0381415Y0085223D01*
X0382172Y0083396D01*
X0382172Y0081418D01*
X0381415Y0079591D01*
X0382172Y0081558D02*
X0382228Y0081558D01*
X0382461Y0083956D02*
X0381939Y0083956D01*
X0380283Y0086355D02*
X0384117Y0086355D01*
X0390283Y0086355D02*
X0394117Y0086355D01*
X0392461Y0083956D02*
X0391939Y0083956D01*
X0400283Y0086355D02*
X0404117Y0086355D01*
X0404384Y0086622D02*
X0402985Y0085223D01*
X0402228Y0083396D01*
X0402228Y0081418D01*
X0402985Y0079591D01*
X0404384Y0078192D01*
X0406211Y0077435D01*
X0408189Y0077435D01*
X0410016Y0078192D01*
X0411415Y0079591D01*
X0412172Y0081418D01*
X0412172Y0083396D01*
X0411415Y0085223D01*
X0410016Y0086622D01*
X0408189Y0087379D01*
X0406211Y0087379D01*
X0404384Y0086622D01*
X0402461Y0083956D02*
X0401939Y0083956D01*
X0402172Y0081558D02*
X0402228Y0081558D01*
X0403417Y0079159D02*
X0400983Y0079159D01*
X0410983Y0079159D02*
X0413417Y0079159D01*
X0413408Y0079168D02*
X0413961Y0078615D01*
X0414594Y0078155D01*
X0415292Y0077799D01*
X0416036Y0077558D01*
X0416809Y0077435D01*
X0417200Y0077435D01*
X0417591Y0077435D01*
X0418364Y0077558D01*
X0419108Y0077799D01*
X0419806Y0078155D01*
X0420439Y0078615D01*
X0420992Y0079168D01*
X0421452Y0079801D01*
X0421807Y0080498D01*
X0422049Y0081243D01*
X0422172Y0082016D01*
X0422172Y0082407D01*
X0422172Y0082798D01*
X0422049Y0083571D01*
X0421807Y0084315D01*
X0421452Y0085013D01*
X0420992Y0085646D01*
X0420439Y0086199D01*
X0419806Y0086659D01*
X0419108Y0087014D01*
X0418364Y0087256D01*
X0417591Y0087379D01*
X0417200Y0087379D01*
X0416809Y0087379D01*
X0416036Y0087256D01*
X0415292Y0087014D01*
X0414594Y0086659D01*
X0413961Y0086199D01*
X0413408Y0085646D01*
X0412948Y0085013D01*
X0412593Y0084315D01*
X0412351Y0083571D01*
X0412228Y0082798D01*
X0412228Y0082407D01*
X0417200Y0082407D01*
X0417200Y0082407D01*
X0417200Y0087379D01*
X0417200Y0082407D01*
X0422172Y0082407D01*
X0417200Y0082407D01*
X0417200Y0082407D01*
X0417200Y0082407D01*
X0412228Y0082407D01*
X0412228Y0082016D01*
X0412351Y0081243D01*
X0412593Y0080498D01*
X0412948Y0079801D01*
X0413408Y0079168D01*
X0417200Y0079159D02*
X0417200Y0079159D01*
X0417200Y0077435D02*
X0417200Y0082407D01*
X0417200Y0082407D01*
X0417200Y0077435D01*
X0420983Y0079159D02*
X0423417Y0079159D01*
X0422985Y0079591D02*
X0424384Y0078192D01*
X0426211Y0077435D01*
X0428189Y0077435D01*
X0430016Y0078192D01*
X0431415Y0079591D01*
X0432172Y0081418D01*
X0432172Y0083396D01*
X0431415Y0085223D01*
X0430016Y0086622D01*
X0428189Y0087379D01*
X0426211Y0087379D01*
X0424384Y0086622D01*
X0422985Y0085223D01*
X0422228Y0083396D01*
X0422228Y0081418D01*
X0422985Y0079591D01*
X0422228Y0081558D02*
X0422099Y0081558D01*
X0417200Y0081558D02*
X0417200Y0081558D01*
X0412301Y0081558D02*
X0412172Y0081558D01*
X0411939Y0083956D02*
X0412476Y0083956D01*
X0414176Y0086355D02*
X0410283Y0086355D01*
X0417200Y0086355D02*
X0417200Y0086355D01*
X0417200Y0083956D02*
X0417200Y0083956D01*
X0420224Y0086355D02*
X0424117Y0086355D01*
X0422461Y0083956D02*
X0421924Y0083956D01*
X0430283Y0086355D02*
X0434117Y0086355D01*
X0432461Y0083956D02*
X0431939Y0083956D01*
X0432172Y0081558D02*
X0432228Y0081558D01*
X0433417Y0079159D02*
X0430983Y0079159D01*
X0471900Y0069565D02*
X0529700Y0069565D01*
X0529700Y0071964D02*
X0473404Y0071964D01*
X0475802Y0074362D02*
X0529700Y0074362D01*
X0529700Y0067167D02*
X0471900Y0067167D01*
X0473100Y0064768D02*
X0529700Y0064768D01*
X0529700Y0062370D02*
X0473100Y0062370D01*
X0473100Y0059971D02*
X0529700Y0059971D01*
X0529700Y0057573D02*
X0471900Y0057573D01*
X0472777Y0055174D02*
X0529700Y0055174D01*
X0529700Y0052776D02*
X0473100Y0052776D01*
X0473100Y0050377D02*
X0529700Y0050377D01*
X0529700Y0047979D02*
X0471900Y0047979D01*
X0472371Y0045580D02*
X0529700Y0045580D01*
X0529700Y0043182D02*
X0473100Y0043182D01*
X0473100Y0040783D02*
X0529700Y0040783D01*
X0529700Y0038385D02*
X0471522Y0038385D01*
X0470652Y0035986D02*
X0473748Y0035986D01*
X0472308Y0033588D02*
X0472092Y0033588D01*
X0472077Y0031189D02*
X0472323Y0031189D01*
X0473785Y0028791D02*
X0470615Y0028791D01*
X0480615Y0028791D02*
X0483785Y0028791D01*
X0482323Y0031189D02*
X0482077Y0031189D01*
X0482092Y0033588D02*
X0482308Y0033588D01*
X0483748Y0035986D02*
X0480652Y0035986D01*
X0490652Y0035986D02*
X0529700Y0035986D01*
X0529700Y0033588D02*
X0492092Y0033588D01*
X0442323Y0031189D02*
X0442077Y0031189D01*
X0432323Y0031189D02*
X0432077Y0031189D01*
X0397200Y0019907D02*
X0477200Y0019907D01*
X0525656Y0007204D02*
X0067700Y0007204D01*
X0084700Y0027407D02*
X0097200Y0014907D01*
X0177200Y0014907D01*
X0257200Y0014907D01*
X0337200Y0014907D01*
X0417200Y0014907D01*
X0397200Y0019907D02*
X0317200Y0019907D01*
X0237200Y0019907D01*
X0102200Y0019907D01*
X0094700Y0027407D01*
X0104700Y0027407D02*
X0107200Y0024907D01*
X0247200Y0024907D01*
X0327200Y0024907D01*
X0330615Y0028791D02*
X0333785Y0028791D01*
X0340615Y0028791D02*
X0343785Y0028791D01*
X0350615Y0028791D02*
X0353785Y0028791D01*
X0352323Y0031189D02*
X0352077Y0031189D01*
X0342323Y0031189D02*
X0342077Y0031189D01*
X0323785Y0028791D02*
X0320615Y0028791D01*
X0322077Y0031189D02*
X0322323Y0031189D01*
X0322308Y0033588D02*
X0322092Y0033588D01*
X0320652Y0035986D02*
X0323748Y0035986D01*
X0313748Y0035986D02*
X0310652Y0035986D01*
X0312092Y0033588D02*
X0312308Y0033588D01*
X0312323Y0031189D02*
X0312077Y0031189D01*
X0310615Y0028791D02*
X0313785Y0028791D01*
X0293785Y0028791D02*
X0290615Y0028791D01*
X0283785Y0028791D02*
X0280615Y0028791D01*
X0273785Y0028791D02*
X0270615Y0028791D01*
X0263785Y0028791D02*
X0260615Y0028791D01*
X0253785Y0028791D02*
X0250615Y0028791D01*
X0252077Y0031189D02*
X0252323Y0031189D01*
X0247200Y0032407D02*
X0247200Y0024907D01*
X0243785Y0028791D02*
X0240615Y0028791D01*
X0242077Y0031189D02*
X0242323Y0031189D01*
X0242308Y0033588D02*
X0242092Y0033588D01*
X0240652Y0035986D02*
X0243748Y0035986D01*
X0250652Y0035986D02*
X0253748Y0035986D01*
X0252308Y0033588D02*
X0252092Y0033588D01*
X0260652Y0035986D02*
X0263748Y0035986D01*
X0262308Y0033588D02*
X0262092Y0033588D01*
X0270652Y0035986D02*
X0273748Y0035986D01*
X0272308Y0033588D02*
X0272092Y0033588D01*
X0280652Y0035986D02*
X0283748Y0035986D01*
X0282308Y0033588D02*
X0282092Y0033588D01*
X0290652Y0035986D02*
X0293748Y0035986D01*
X0292308Y0033588D02*
X0292092Y0033588D01*
X0292077Y0031189D02*
X0292323Y0031189D01*
X0282323Y0031189D02*
X0282077Y0031189D01*
X0272323Y0031189D02*
X0272077Y0031189D01*
X0262323Y0031189D02*
X0262077Y0031189D01*
X0291300Y0038385D02*
X0231522Y0038385D01*
X0230652Y0035986D02*
X0233748Y0035986D01*
X0232308Y0033588D02*
X0232092Y0033588D01*
X0232077Y0031189D02*
X0232323Y0031189D01*
X0233785Y0028791D02*
X0230615Y0028791D01*
X0213785Y0028791D02*
X0210615Y0028791D01*
X0203785Y0028791D02*
X0200615Y0028791D01*
X0193785Y0028791D02*
X0190615Y0028791D01*
X0183785Y0028791D02*
X0180615Y0028791D01*
X0173785Y0028791D02*
X0110600Y0028791D01*
X0109262Y0031189D02*
X0172323Y0031189D01*
X0172308Y0033588D02*
X0109224Y0033588D01*
X0110600Y0035986D02*
X0173748Y0035986D01*
X0180652Y0035986D02*
X0183748Y0035986D01*
X0182308Y0033588D02*
X0182092Y0033588D01*
X0190652Y0035986D02*
X0193748Y0035986D01*
X0192308Y0033588D02*
X0192092Y0033588D01*
X0200652Y0035986D02*
X0203748Y0035986D01*
X0202308Y0033588D02*
X0202092Y0033588D01*
X0202077Y0031189D02*
X0202323Y0031189D01*
X0212077Y0031189D02*
X0212323Y0031189D01*
X0212308Y0033588D02*
X0212092Y0033588D01*
X0210652Y0035986D02*
X0213748Y0035986D01*
X0211300Y0038385D02*
X0110600Y0038385D01*
X0109668Y0040783D02*
X0211300Y0040783D01*
X0211300Y0043182D02*
X0107269Y0043182D01*
X0102131Y0043182D02*
X0097269Y0043182D01*
X0099668Y0040783D02*
X0099732Y0040783D01*
X0092131Y0043182D02*
X0087269Y0043182D01*
X0089668Y0040783D02*
X0089732Y0040783D01*
X0082131Y0043182D02*
X0062200Y0043182D01*
X0062200Y0040783D02*
X0079732Y0040783D01*
X0078800Y0038385D02*
X0062200Y0038385D01*
X0057200Y0037407D02*
X0037200Y0062407D01*
X0062200Y0062370D02*
X0071123Y0062370D01*
X0070450Y0064768D02*
X0062200Y0064768D01*
X0062200Y0067167D02*
X0070838Y0067167D01*
X0079700Y0067167D02*
X0079700Y0067167D01*
X0079700Y0065065D02*
X0079700Y0070789D01*
X0079700Y0065065D01*
X0079700Y0065065D01*
X0079700Y0064768D02*
X0079700Y0064768D01*
X0079700Y0062370D02*
X0079700Y0062370D01*
X0079700Y0059971D02*
X0079700Y0059971D01*
X0073561Y0059971D02*
X0062200Y0059971D01*
X0062200Y0057573D02*
X0213690Y0057573D01*
X0211623Y0055174D02*
X0062200Y0055174D01*
X0062200Y0052776D02*
X0211300Y0052776D01*
X0211300Y0050377D02*
X0062200Y0050377D01*
X0062200Y0047979D02*
X0212260Y0047979D01*
X0211300Y0045580D02*
X0062200Y0045580D01*
X0057200Y0047407D02*
X0037200Y0072407D01*
X0019700Y0082407D02*
X0017200Y0079907D01*
X0017200Y0049907D01*
X0014700Y0047407D01*
X0007200Y0047407D01*
X0062200Y0035986D02*
X0078800Y0035986D01*
X0080175Y0033588D02*
X0062200Y0033588D01*
X0062200Y0031189D02*
X0080138Y0031189D01*
X0078800Y0028791D02*
X0062200Y0028791D01*
X0062200Y0026392D02*
X0078800Y0026392D01*
X0079770Y0023994D02*
X0062200Y0023994D01*
X0062200Y0021595D02*
X0082168Y0021595D01*
X0088102Y0019196D02*
X0062247Y0019196D01*
X0062514Y0016798D02*
X0090501Y0016798D01*
X0182077Y0031189D02*
X0182323Y0031189D01*
X0192077Y0031189D02*
X0192323Y0031189D01*
X0233100Y0040783D02*
X0291300Y0040783D01*
X0291300Y0043182D02*
X0233100Y0043182D01*
X0232371Y0045580D02*
X0291300Y0045580D01*
X0292260Y0047979D02*
X0231900Y0047979D01*
X0233100Y0050377D02*
X0291300Y0050377D01*
X0291300Y0052776D02*
X0233100Y0052776D01*
X0232777Y0055174D02*
X0291623Y0055174D01*
X0293690Y0057573D02*
X0231900Y0057573D01*
X0233100Y0059971D02*
X0291300Y0059971D01*
X0291300Y0062370D02*
X0233100Y0062370D01*
X0233100Y0064768D02*
X0291300Y0064768D01*
X0311900Y0067167D02*
X0373616Y0067167D01*
X0380784Y0067167D02*
X0383400Y0067167D01*
X0383400Y0069565D02*
X0311900Y0069565D01*
X0313404Y0071964D02*
X0383400Y0071964D01*
X0383897Y0074362D02*
X0315802Y0074362D01*
X0330983Y0079159D02*
X0333417Y0079159D01*
X0333408Y0079168D02*
X0333961Y0078615D01*
X0334594Y0078155D01*
X0335292Y0077799D01*
X0336036Y0077558D01*
X0336809Y0077435D01*
X0337200Y0077435D01*
X0337591Y0077435D01*
X0338364Y0077558D01*
X0339108Y0077799D01*
X0339806Y0078155D01*
X0340439Y0078615D01*
X0340992Y0079168D01*
X0341452Y0079801D01*
X0341807Y0080498D01*
X0342049Y0081243D01*
X0342172Y0082016D01*
X0342172Y0082407D01*
X0342172Y0082798D01*
X0342049Y0083571D01*
X0341807Y0084315D01*
X0341452Y0085013D01*
X0340992Y0085646D01*
X0340439Y0086199D01*
X0339806Y0086659D01*
X0339108Y0087014D01*
X0338364Y0087256D01*
X0337591Y0087379D01*
X0337200Y0087379D01*
X0336809Y0087379D01*
X0336036Y0087256D01*
X0335292Y0087014D01*
X0334594Y0086659D01*
X0333961Y0086199D01*
X0333408Y0085646D01*
X0332948Y0085013D01*
X0332593Y0084315D01*
X0332351Y0083571D01*
X0332228Y0082798D01*
X0332228Y0082407D01*
X0337200Y0082407D01*
X0337200Y0082407D01*
X0337200Y0087379D01*
X0337200Y0082407D01*
X0342172Y0082407D01*
X0337200Y0082407D01*
X0337200Y0082407D01*
X0337200Y0082407D01*
X0332228Y0082407D01*
X0332228Y0082016D01*
X0332351Y0081243D01*
X0332593Y0080498D01*
X0332948Y0079801D01*
X0333408Y0079168D01*
X0337200Y0079159D02*
X0337200Y0079159D01*
X0337200Y0077435D02*
X0337200Y0082407D01*
X0337200Y0082407D01*
X0337200Y0077435D01*
X0340983Y0079159D02*
X0343417Y0079159D01*
X0342985Y0079591D02*
X0344384Y0078192D01*
X0346211Y0077435D01*
X0348189Y0077435D01*
X0350016Y0078192D01*
X0351415Y0079591D01*
X0352172Y0081418D01*
X0352172Y0083396D01*
X0351415Y0085223D01*
X0350016Y0086622D01*
X0348189Y0087379D01*
X0346211Y0087379D01*
X0344384Y0086622D01*
X0342985Y0085223D01*
X0342228Y0083396D01*
X0342228Y0081418D01*
X0342985Y0079591D01*
X0342228Y0081558D02*
X0342099Y0081558D01*
X0337200Y0081558D02*
X0337200Y0081558D01*
X0332301Y0081558D02*
X0332172Y0081558D01*
X0331939Y0083956D02*
X0332476Y0083956D01*
X0334176Y0086355D02*
X0330283Y0086355D01*
X0337200Y0086355D02*
X0337200Y0086355D01*
X0337200Y0083956D02*
X0337200Y0083956D01*
X0340224Y0086355D02*
X0344117Y0086355D01*
X0342461Y0083956D02*
X0341924Y0083956D01*
X0350283Y0086355D02*
X0354117Y0086355D01*
X0354384Y0086622D02*
X0352985Y0085223D01*
X0352228Y0083396D01*
X0352228Y0081418D01*
X0352985Y0079591D01*
X0354384Y0078192D01*
X0356211Y0077435D01*
X0358189Y0077435D01*
X0360016Y0078192D01*
X0361415Y0079591D01*
X0362172Y0081418D01*
X0362172Y0083396D01*
X0361415Y0085223D01*
X0360016Y0086622D01*
X0358189Y0087379D01*
X0356211Y0087379D01*
X0354384Y0086622D01*
X0352461Y0083956D02*
X0351939Y0083956D01*
X0360283Y0086355D02*
X0364117Y0086355D01*
X0364384Y0086622D02*
X0362985Y0085223D01*
X0362228Y0083396D01*
X0362228Y0081418D01*
X0362985Y0079591D01*
X0364384Y0078192D01*
X0366211Y0077435D01*
X0368189Y0077435D01*
X0370016Y0078192D01*
X0371415Y0079591D01*
X0372172Y0081418D01*
X0372172Y0083396D01*
X0371415Y0085223D01*
X0370016Y0086622D01*
X0368189Y0087379D01*
X0366211Y0087379D01*
X0364384Y0086622D01*
X0362461Y0083956D02*
X0361939Y0083956D01*
X0370283Y0086355D02*
X0374117Y0086355D01*
X0372461Y0083956D02*
X0371939Y0083956D01*
X0372172Y0081558D02*
X0372228Y0081558D01*
X0362228Y0081558D02*
X0362172Y0081558D01*
X0360983Y0079159D02*
X0363417Y0079159D01*
X0370983Y0079159D02*
X0373417Y0079159D01*
X0353417Y0079159D02*
X0350983Y0079159D01*
X0352172Y0081558D02*
X0352228Y0081558D01*
X0294117Y0086355D02*
X0290283Y0086355D01*
X0290016Y0086622D02*
X0288189Y0087379D01*
X0286211Y0087379D01*
X0284384Y0086622D01*
X0282985Y0085223D01*
X0282228Y0083396D01*
X0282228Y0081418D01*
X0282985Y0079591D01*
X0284384Y0078192D01*
X0286211Y0077435D01*
X0288189Y0077435D01*
X0290016Y0078192D01*
X0291415Y0079591D01*
X0292172Y0081418D01*
X0292172Y0083396D01*
X0291415Y0085223D01*
X0290016Y0086622D01*
X0291939Y0083956D02*
X0292461Y0083956D01*
X0284117Y0086355D02*
X0280283Y0086355D01*
X0280016Y0086622D02*
X0278189Y0087379D01*
X0276211Y0087379D01*
X0274384Y0086622D01*
X0272985Y0085223D01*
X0272228Y0083396D01*
X0272228Y0081418D01*
X0272985Y0079591D01*
X0274384Y0078192D01*
X0276211Y0077435D01*
X0278189Y0077435D01*
X0280016Y0078192D01*
X0281415Y0079591D01*
X0282172Y0081418D01*
X0282172Y0083396D01*
X0281415Y0085223D01*
X0280016Y0086622D01*
X0281939Y0083956D02*
X0282461Y0083956D01*
X0282228Y0081558D02*
X0282172Y0081558D01*
X0292172Y0081558D02*
X0292228Y0081558D01*
X0293417Y0079159D02*
X0290983Y0079159D01*
X0283417Y0079159D02*
X0280983Y0079159D01*
X0273417Y0079159D02*
X0270983Y0079159D01*
X0271415Y0079591D02*
X0270016Y0078192D01*
X0268189Y0077435D01*
X0266211Y0077435D01*
X0264384Y0078192D01*
X0262985Y0079591D01*
X0262228Y0081418D01*
X0262228Y0083396D01*
X0262985Y0085223D01*
X0264384Y0086622D01*
X0266211Y0087379D01*
X0268189Y0087379D01*
X0270016Y0086622D01*
X0271415Y0085223D01*
X0272172Y0083396D01*
X0272172Y0081418D01*
X0271415Y0079591D01*
X0272172Y0081558D02*
X0272228Y0081558D01*
X0272461Y0083956D02*
X0271939Y0083956D01*
X0270283Y0086355D02*
X0274117Y0086355D01*
X0264117Y0086355D02*
X0260224Y0086355D01*
X0260439Y0086199D02*
X0259806Y0086659D01*
X0259108Y0087014D01*
X0258364Y0087256D01*
X0257591Y0087379D01*
X0257200Y0087379D01*
X0256809Y0087379D01*
X0256036Y0087256D01*
X0255292Y0087014D01*
X0254594Y0086659D01*
X0253961Y0086199D01*
X0253408Y0085646D01*
X0252948Y0085013D01*
X0252593Y0084315D01*
X0252351Y0083571D01*
X0252228Y0082798D01*
X0252228Y0082407D01*
X0257200Y0082407D01*
X0257200Y0082407D01*
X0257200Y0087379D01*
X0257200Y0082407D01*
X0262172Y0082407D01*
X0262172Y0082798D01*
X0262049Y0083571D01*
X0261807Y0084315D01*
X0261452Y0085013D01*
X0260992Y0085646D01*
X0260439Y0086199D01*
X0261924Y0083956D02*
X0262461Y0083956D01*
X0257200Y0083956D02*
X0257200Y0083956D01*
X0257200Y0086355D02*
X0257200Y0086355D01*
X0254176Y0086355D02*
X0250283Y0086355D01*
X0250016Y0086622D02*
X0248189Y0087379D01*
X0246211Y0087379D01*
X0244384Y0086622D01*
X0242985Y0085223D01*
X0242228Y0083396D01*
X0242228Y0081418D01*
X0242985Y0079591D01*
X0244384Y0078192D01*
X0246211Y0077435D01*
X0248189Y0077435D01*
X0250016Y0078192D01*
X0251415Y0079591D01*
X0252172Y0081418D01*
X0252172Y0083396D01*
X0251415Y0085223D01*
X0250016Y0086622D01*
X0251939Y0083956D02*
X0252476Y0083956D01*
X0252228Y0082407D02*
X0252228Y0082016D01*
X0252351Y0081243D01*
X0252593Y0080498D01*
X0252948Y0079801D01*
X0253408Y0079168D01*
X0253961Y0078615D01*
X0254594Y0078155D01*
X0255292Y0077799D01*
X0256036Y0077558D01*
X0256809Y0077435D01*
X0257200Y0077435D01*
X0257591Y0077435D01*
X0258364Y0077558D01*
X0259108Y0077799D01*
X0259806Y0078155D01*
X0260439Y0078615D01*
X0260992Y0079168D01*
X0261452Y0079801D01*
X0261807Y0080498D01*
X0262049Y0081243D01*
X0262172Y0082016D01*
X0262172Y0082407D01*
X0257200Y0082407D01*
X0257200Y0082407D01*
X0257200Y0082407D01*
X0252228Y0082407D01*
X0252172Y0081558D02*
X0252301Y0081558D01*
X0257200Y0081558D02*
X0257200Y0081558D01*
X0257200Y0082407D02*
X0257200Y0077435D01*
X0257200Y0082407D01*
X0257200Y0082407D01*
X0262099Y0081558D02*
X0262228Y0081558D01*
X0263417Y0079159D02*
X0260983Y0079159D01*
X0257200Y0079159D02*
X0257200Y0079159D01*
X0253417Y0079159D02*
X0250983Y0079159D01*
X0243417Y0079159D02*
X0240983Y0079159D01*
X0242172Y0081558D02*
X0242228Y0081558D01*
X0242461Y0083956D02*
X0241939Y0083956D01*
X0240283Y0086355D02*
X0244117Y0086355D01*
X0234117Y0086355D02*
X0230283Y0086355D01*
X0231939Y0083956D02*
X0232103Y0083956D01*
X0192228Y0081558D02*
X0192172Y0081558D01*
X0177200Y0083956D02*
X0177200Y0083956D01*
X0177200Y0086355D02*
X0177200Y0086355D01*
X0181534Y0108157D02*
X0183811Y0108157D01*
X0185915Y0109028D01*
X0187526Y0110639D01*
X0188397Y0112743D01*
X0188397Y0122071D01*
X0187526Y0124175D01*
X0185915Y0125785D01*
X0183811Y0126657D01*
X0181534Y0126657D01*
X0179429Y0125785D01*
X0177819Y0124175D01*
X0176947Y0122071D01*
X0176947Y0112743D01*
X0177819Y0110639D01*
X0179429Y0109028D01*
X0181534Y0108157D01*
X0178118Y0110340D02*
X0095174Y0110340D01*
X0096136Y0112337D02*
X0093911Y0107718D01*
X0093911Y0107718D01*
X0090424Y0103959D01*
X0090424Y0103959D01*
X0090424Y0103959D01*
X0085984Y0101396D01*
X0085984Y0101396D01*
X0080985Y0100255D01*
X0080985Y0100255D01*
X0075873Y0100638D01*
X0075873Y0100638D01*
X0071100Y0102511D01*
X0071100Y0102511D01*
X0067092Y0105708D01*
X0067091Y0105708D01*
X0067091Y0105708D01*
X0064203Y0109944D01*
X0064203Y0109944D01*
X0062692Y0114843D01*
X0062692Y0119970D01*
X0064203Y0124870D01*
X0064203Y0124870D01*
X0067091Y0129106D01*
X0067091Y0129106D01*
X0067092Y0129106D01*
X0071100Y0132303D01*
X0071100Y0132303D01*
X0075873Y0134176D01*
X0075873Y0134176D01*
X0080985Y0134559D01*
X0080985Y0134559D01*
X0085984Y0133418D01*
X0085984Y0133418D01*
X0090424Y0130854D01*
X0090424Y0130854D01*
X0093911Y0127096D01*
X0093911Y0127096D01*
X0096136Y0122477D01*
X0096136Y0122477D01*
X0096900Y0117407D01*
X0096136Y0112337D01*
X0096136Y0112337D01*
X0096196Y0112738D02*
X0176949Y0112738D01*
X0176947Y0115137D02*
X0096558Y0115137D01*
X0096881Y0117535D02*
X0176947Y0117535D01*
X0176947Y0119934D02*
X0096519Y0119934D01*
X0096158Y0122332D02*
X0177056Y0122332D01*
X0178375Y0124731D02*
X0095050Y0124731D01*
X0093880Y0127129D02*
X0498244Y0127129D01*
X0499591Y0129106D02*
X0496703Y0124870D01*
X0496703Y0124870D01*
X0495192Y0119970D01*
X0495192Y0114843D01*
X0496703Y0109944D01*
X0499591Y0105708D01*
X0499592Y0105708D01*
X0503600Y0102511D01*
X0508373Y0100638D01*
X0513485Y0100255D01*
X0513485Y0100255D01*
X0518484Y0101396D01*
X0522924Y0103959D01*
X0526411Y0107718D01*
X0528636Y0112337D01*
X0528636Y0112337D01*
X0529400Y0117407D01*
X0528636Y0122477D01*
X0526411Y0127096D01*
X0522924Y0130854D01*
X0518484Y0133418D01*
X0518484Y0133418D01*
X0513485Y0134559D01*
X0508373Y0134176D01*
X0503600Y0132303D01*
X0503600Y0132303D01*
X0499592Y0129106D01*
X0499591Y0129106D01*
X0500121Y0129528D02*
X0091655Y0129528D01*
X0088567Y0131927D02*
X0503128Y0131927D01*
X0510366Y0134325D02*
X0082010Y0134325D01*
X0077866Y0134325D02*
X0075243Y0134325D01*
X0070628Y0131927D02*
X0069998Y0131927D01*
X0067621Y0129528D02*
X0067104Y0129528D01*
X0065744Y0127129D02*
X0065194Y0127129D01*
X0064161Y0124731D02*
X0063841Y0124731D01*
X0063421Y0122332D02*
X0062931Y0122332D01*
X0062692Y0119934D02*
X0062398Y0119934D01*
X0062208Y0117535D02*
X0062692Y0117535D01*
X0062692Y0115137D02*
X0062200Y0115137D01*
X0062200Y0112738D02*
X0063341Y0112738D01*
X0064081Y0110340D02*
X0062200Y0110340D01*
X0062200Y0107941D02*
X0065569Y0107941D01*
X0067298Y0105543D02*
X0062200Y0105543D01*
X0062200Y0103144D02*
X0070306Y0103144D01*
X0075598Y0100746D02*
X0062200Y0100746D01*
X0062200Y0098347D02*
X0529700Y0098347D01*
X0529700Y0095949D02*
X0062200Y0095949D01*
X0062200Y0093550D02*
X0529700Y0093550D01*
X0529700Y0091152D02*
X0062200Y0091152D01*
X0062200Y0088753D02*
X0072083Y0088753D01*
X0070643Y0086355D02*
X0062200Y0086355D01*
X0062200Y0083956D02*
X0070450Y0083956D01*
X0071300Y0081558D02*
X0062200Y0081558D01*
X0037200Y0082407D02*
X0057200Y0107407D01*
X0083136Y0100746D02*
X0508098Y0100746D01*
X0508373Y0100638D02*
X0508373Y0100638D01*
X0503600Y0102511D02*
X0503600Y0102511D01*
X0502806Y0103144D02*
X0089012Y0103144D01*
X0091893Y0105543D02*
X0499798Y0105543D01*
X0499591Y0105708D02*
X0499591Y0105708D01*
X0498069Y0107941D02*
X0094019Y0107941D01*
X0027200Y0082407D02*
X0019700Y0082407D01*
X0062200Y0069565D02*
X0072630Y0069565D01*
X0079700Y0069565D02*
X0079700Y0069565D01*
X0088950Y0064768D02*
X0211300Y0064768D01*
X0211300Y0062370D02*
X0088277Y0062370D01*
X0085839Y0059971D02*
X0211300Y0059971D01*
X0310710Y0057573D02*
X0373690Y0057573D01*
X0371623Y0055174D02*
X0312777Y0055174D01*
X0313100Y0052776D02*
X0371300Y0052776D01*
X0371300Y0050377D02*
X0313100Y0050377D01*
X0311116Y0047979D02*
X0372260Y0047979D01*
X0371300Y0045580D02*
X0312371Y0045580D01*
X0313100Y0043182D02*
X0371300Y0043182D01*
X0371300Y0040783D02*
X0313100Y0040783D01*
X0311522Y0038385D02*
X0371300Y0038385D01*
X0371300Y0059971D02*
X0313100Y0059971D01*
X0313100Y0062370D02*
X0371300Y0062370D01*
X0371300Y0064768D02*
X0313100Y0064768D01*
X0320589Y0108157D02*
X0322866Y0108157D01*
X0324971Y0109028D01*
X0326581Y0110639D01*
X0327453Y0112743D01*
X0327453Y0122071D01*
X0326581Y0124175D01*
X0324971Y0125785D01*
X0322866Y0126657D01*
X0320589Y0126657D01*
X0318485Y0125785D01*
X0316874Y0124175D01*
X0316003Y0122071D01*
X0316003Y0112743D01*
X0316874Y0110639D01*
X0318485Y0109028D01*
X0320589Y0108157D01*
X0317173Y0110340D02*
X0306597Y0110340D01*
X0306896Y0110639D02*
X0307768Y0112743D01*
X0307768Y0122071D01*
X0306896Y0124175D01*
X0305285Y0125785D01*
X0303181Y0126657D01*
X0300904Y0126657D01*
X0298800Y0125785D01*
X0297189Y0124175D01*
X0296318Y0122071D01*
X0296318Y0112743D01*
X0297189Y0110639D01*
X0298800Y0109028D01*
X0300904Y0108157D01*
X0303181Y0108157D01*
X0305285Y0109028D01*
X0306896Y0110639D01*
X0307766Y0112738D02*
X0316005Y0112738D01*
X0316003Y0115137D02*
X0307768Y0115137D01*
X0307768Y0117535D02*
X0316003Y0117535D01*
X0316003Y0119934D02*
X0307768Y0119934D01*
X0307659Y0122332D02*
X0316111Y0122332D01*
X0317430Y0124731D02*
X0306340Y0124731D01*
X0297745Y0124731D02*
X0286655Y0124731D01*
X0287211Y0124175D02*
X0285600Y0125785D01*
X0283496Y0126657D01*
X0281219Y0126657D01*
X0279115Y0125785D01*
X0277504Y0124175D01*
X0276632Y0122071D01*
X0276632Y0112743D01*
X0277504Y0110639D01*
X0279115Y0109028D01*
X0281219Y0108157D01*
X0283496Y0108157D01*
X0285600Y0109028D01*
X0287211Y0110639D01*
X0288082Y0112743D01*
X0288082Y0122071D01*
X0287211Y0124175D01*
X0287974Y0122332D02*
X0296426Y0122332D01*
X0296318Y0119934D02*
X0288082Y0119934D01*
X0288082Y0117535D02*
X0296318Y0117535D01*
X0296318Y0115137D02*
X0288082Y0115137D01*
X0288081Y0112738D02*
X0296319Y0112738D01*
X0297488Y0110340D02*
X0286912Y0110340D01*
X0277803Y0110340D02*
X0267227Y0110340D01*
X0267526Y0110639D02*
X0268397Y0112743D01*
X0268397Y0122071D01*
X0267526Y0124175D01*
X0265915Y0125785D01*
X0263811Y0126657D01*
X0261534Y0126657D01*
X0259429Y0125785D01*
X0257819Y0124175D01*
X0256947Y0122071D01*
X0256947Y0112743D01*
X0257819Y0110639D01*
X0259429Y0109028D01*
X0261534Y0108157D01*
X0263811Y0108157D01*
X0265915Y0109028D01*
X0267526Y0110639D01*
X0268395Y0112738D02*
X0276634Y0112738D01*
X0276632Y0115137D02*
X0268397Y0115137D01*
X0268397Y0117535D02*
X0276632Y0117535D01*
X0276632Y0119934D02*
X0268397Y0119934D01*
X0268289Y0122332D02*
X0276741Y0122332D01*
X0278060Y0124731D02*
X0266970Y0124731D01*
X0258375Y0124731D02*
X0246025Y0124731D01*
X0246581Y0124175D02*
X0244971Y0125785D01*
X0242866Y0126657D01*
X0240589Y0126657D01*
X0238485Y0125785D01*
X0236874Y0124175D01*
X0236003Y0122071D01*
X0236003Y0112743D01*
X0236874Y0110639D01*
X0238485Y0109028D01*
X0240589Y0108157D01*
X0242866Y0108157D01*
X0244971Y0109028D01*
X0246581Y0110639D01*
X0247453Y0112743D01*
X0247453Y0122071D01*
X0246581Y0124175D01*
X0247344Y0122332D02*
X0257056Y0122332D01*
X0256947Y0119934D02*
X0247453Y0119934D01*
X0247453Y0117535D02*
X0256947Y0117535D01*
X0256947Y0115137D02*
X0247453Y0115137D01*
X0247451Y0112738D02*
X0256949Y0112738D01*
X0258118Y0110340D02*
X0246282Y0110340D01*
X0237173Y0110340D02*
X0226597Y0110340D01*
X0226896Y0110639D02*
X0227768Y0112743D01*
X0227768Y0122071D01*
X0226896Y0124175D01*
X0225285Y0125785D01*
X0223181Y0126657D01*
X0220904Y0126657D01*
X0218800Y0125785D01*
X0217189Y0124175D01*
X0216318Y0122071D01*
X0216318Y0112743D01*
X0217189Y0110639D01*
X0218800Y0109028D01*
X0220904Y0108157D01*
X0223181Y0108157D01*
X0225285Y0109028D01*
X0226896Y0110639D01*
X0227766Y0112738D02*
X0236005Y0112738D01*
X0236003Y0115137D02*
X0227768Y0115137D01*
X0227768Y0117535D02*
X0236003Y0117535D01*
X0236003Y0119934D02*
X0227768Y0119934D01*
X0227659Y0122332D02*
X0236111Y0122332D01*
X0237430Y0124731D02*
X0226340Y0124731D01*
X0217745Y0124731D02*
X0206655Y0124731D01*
X0207211Y0124175D02*
X0205600Y0125785D01*
X0203496Y0126657D01*
X0201219Y0126657D01*
X0199115Y0125785D01*
X0197504Y0124175D01*
X0196632Y0122071D01*
X0196632Y0112743D01*
X0197504Y0110639D01*
X0199115Y0109028D01*
X0201219Y0108157D01*
X0203496Y0108157D01*
X0205600Y0109028D01*
X0207211Y0110639D01*
X0208082Y0112743D01*
X0208082Y0122071D01*
X0207211Y0124175D01*
X0207974Y0122332D02*
X0216426Y0122332D01*
X0216318Y0119934D02*
X0208082Y0119934D01*
X0208082Y0117535D02*
X0216318Y0117535D01*
X0216318Y0115137D02*
X0208082Y0115137D01*
X0208081Y0112738D02*
X0216319Y0112738D01*
X0217488Y0110340D02*
X0206912Y0110340D01*
X0197803Y0110340D02*
X0187227Y0110340D01*
X0188395Y0112738D02*
X0196634Y0112738D01*
X0196632Y0115137D02*
X0188397Y0115137D01*
X0188397Y0117535D02*
X0196632Y0117535D01*
X0196632Y0119934D02*
X0188397Y0119934D01*
X0188289Y0122332D02*
X0196741Y0122332D01*
X0198060Y0124731D02*
X0186970Y0124731D01*
X0326025Y0124731D02*
X0338375Y0124731D01*
X0337819Y0124175D02*
X0339429Y0125785D01*
X0341534Y0126657D01*
X0343811Y0126657D01*
X0345915Y0125785D01*
X0347526Y0124175D01*
X0348397Y0122071D01*
X0348397Y0112743D01*
X0347526Y0110639D01*
X0345915Y0109028D01*
X0343811Y0108157D01*
X0341534Y0108157D01*
X0339429Y0109028D01*
X0337819Y0110639D01*
X0336947Y0112743D01*
X0336947Y0122071D01*
X0337819Y0124175D01*
X0337056Y0122332D02*
X0327344Y0122332D01*
X0327453Y0119934D02*
X0336947Y0119934D01*
X0336947Y0117535D02*
X0327453Y0117535D01*
X0327453Y0115137D02*
X0336947Y0115137D01*
X0336949Y0112738D02*
X0327451Y0112738D01*
X0326282Y0110340D02*
X0338118Y0110340D01*
X0347227Y0110340D02*
X0357803Y0110340D01*
X0357504Y0110639D02*
X0359115Y0109028D01*
X0361219Y0108157D01*
X0363496Y0108157D01*
X0365600Y0109028D01*
X0367211Y0110639D01*
X0368082Y0112743D01*
X0368082Y0122071D01*
X0367211Y0124175D01*
X0365600Y0125785D01*
X0363496Y0126657D01*
X0361219Y0126657D01*
X0359115Y0125785D01*
X0357504Y0124175D01*
X0356632Y0122071D01*
X0356632Y0112743D01*
X0357504Y0110639D01*
X0356634Y0112738D02*
X0348395Y0112738D01*
X0348397Y0115137D02*
X0356632Y0115137D01*
X0356632Y0117535D02*
X0348397Y0117535D01*
X0348397Y0119934D02*
X0356632Y0119934D01*
X0356741Y0122332D02*
X0348289Y0122332D01*
X0346970Y0124731D02*
X0358060Y0124731D01*
X0366655Y0124731D02*
X0377745Y0124731D01*
X0377189Y0124175D02*
X0378800Y0125785D01*
X0380904Y0126657D01*
X0383181Y0126657D01*
X0385285Y0125785D01*
X0386896Y0124175D01*
X0387768Y0122071D01*
X0387768Y0112743D01*
X0386896Y0110639D01*
X0385285Y0109028D01*
X0383181Y0108157D01*
X0380904Y0108157D01*
X0378800Y0109028D01*
X0377189Y0110639D01*
X0376318Y0112743D01*
X0376318Y0122071D01*
X0377189Y0124175D01*
X0376426Y0122332D02*
X0367974Y0122332D01*
X0368082Y0119934D02*
X0376318Y0119934D01*
X0376318Y0117535D02*
X0368082Y0117535D01*
X0368082Y0115137D02*
X0376318Y0115137D01*
X0376319Y0112738D02*
X0368081Y0112738D01*
X0366912Y0110340D02*
X0377488Y0110340D01*
X0386597Y0110340D02*
X0397173Y0110340D01*
X0396874Y0110639D02*
X0398485Y0109028D01*
X0400589Y0108157D01*
X0402866Y0108157D01*
X0404971Y0109028D01*
X0406581Y0110639D01*
X0407453Y0112743D01*
X0407453Y0122071D01*
X0406581Y0124175D01*
X0404971Y0125785D01*
X0402866Y0126657D01*
X0400589Y0126657D01*
X0398485Y0125785D01*
X0396874Y0124175D01*
X0396003Y0122071D01*
X0396003Y0112743D01*
X0396874Y0110639D01*
X0396005Y0112738D02*
X0387766Y0112738D01*
X0387768Y0115137D02*
X0396003Y0115137D01*
X0396003Y0117535D02*
X0387768Y0117535D01*
X0387768Y0119934D02*
X0396003Y0119934D01*
X0396111Y0122332D02*
X0387659Y0122332D01*
X0386340Y0124731D02*
X0397430Y0124731D01*
X0406025Y0124731D02*
X0418375Y0124731D01*
X0417819Y0124175D02*
X0419429Y0125785D01*
X0421534Y0126657D01*
X0423811Y0126657D01*
X0425915Y0125785D01*
X0427526Y0124175D01*
X0428397Y0122071D01*
X0428397Y0112743D01*
X0427526Y0110639D01*
X0425915Y0109028D01*
X0423811Y0108157D01*
X0421534Y0108157D01*
X0419429Y0109028D01*
X0417819Y0110639D01*
X0416947Y0112743D01*
X0416947Y0122071D01*
X0417819Y0124175D01*
X0417056Y0122332D02*
X0407344Y0122332D01*
X0407453Y0119934D02*
X0416947Y0119934D01*
X0416947Y0117535D02*
X0407453Y0117535D01*
X0407453Y0115137D02*
X0416947Y0115137D01*
X0416949Y0112738D02*
X0407451Y0112738D01*
X0406282Y0110340D02*
X0418118Y0110340D01*
X0427227Y0110340D02*
X0437803Y0110340D01*
X0437504Y0110639D02*
X0439115Y0109028D01*
X0441219Y0108157D01*
X0443496Y0108157D01*
X0445600Y0109028D01*
X0447211Y0110639D01*
X0448082Y0112743D01*
X0448082Y0122071D01*
X0447211Y0124175D01*
X0445600Y0125785D01*
X0443496Y0126657D01*
X0441219Y0126657D01*
X0439115Y0125785D01*
X0437504Y0124175D01*
X0436632Y0122071D01*
X0436632Y0112743D01*
X0437504Y0110639D01*
X0436634Y0112738D02*
X0428395Y0112738D01*
X0428397Y0115137D02*
X0436632Y0115137D01*
X0436632Y0117535D02*
X0428397Y0117535D01*
X0428397Y0119934D02*
X0436632Y0119934D01*
X0436741Y0122332D02*
X0428289Y0122332D01*
X0426970Y0124731D02*
X0438060Y0124731D01*
X0446655Y0124731D02*
X0457745Y0124731D01*
X0457189Y0124175D02*
X0458800Y0125785D01*
X0460904Y0126657D01*
X0463181Y0126657D01*
X0465285Y0125785D01*
X0466896Y0124175D01*
X0467768Y0122071D01*
X0467768Y0112743D01*
X0466896Y0110639D01*
X0465285Y0109028D01*
X0463181Y0108157D01*
X0460904Y0108157D01*
X0458800Y0109028D01*
X0457189Y0110639D01*
X0456318Y0112743D01*
X0456318Y0122071D01*
X0457189Y0124175D01*
X0456426Y0122332D02*
X0447974Y0122332D01*
X0448082Y0119934D02*
X0456318Y0119934D01*
X0456318Y0117535D02*
X0448082Y0117535D01*
X0448082Y0115137D02*
X0456318Y0115137D01*
X0456319Y0112738D02*
X0448081Y0112738D01*
X0446912Y0110340D02*
X0457488Y0110340D01*
X0466597Y0110340D02*
X0477173Y0110340D01*
X0476874Y0110639D02*
X0478485Y0109028D01*
X0480589Y0108157D01*
X0482866Y0108157D01*
X0484971Y0109028D01*
X0486581Y0110639D01*
X0487453Y0112743D01*
X0487453Y0122071D01*
X0486581Y0124175D01*
X0484971Y0125785D01*
X0482866Y0126657D01*
X0480589Y0126657D01*
X0478485Y0125785D01*
X0476874Y0124175D01*
X0476003Y0122071D01*
X0476003Y0112743D01*
X0476874Y0110639D01*
X0476005Y0112738D02*
X0467766Y0112738D01*
X0467768Y0115137D02*
X0476003Y0115137D01*
X0476003Y0117535D02*
X0467768Y0117535D01*
X0467768Y0119934D02*
X0476003Y0119934D01*
X0476111Y0122332D02*
X0467659Y0122332D01*
X0466340Y0124731D02*
X0477430Y0124731D01*
X0486025Y0124731D02*
X0496661Y0124731D01*
X0495921Y0122332D02*
X0487344Y0122332D01*
X0487453Y0119934D02*
X0495192Y0119934D01*
X0495192Y0117535D02*
X0487453Y0117535D01*
X0487453Y0115137D02*
X0495192Y0115137D01*
X0495841Y0112738D02*
X0487451Y0112738D01*
X0486282Y0110340D02*
X0496581Y0110340D01*
X0496703Y0109944D02*
X0496703Y0109944D01*
X0518484Y0101396D02*
X0518484Y0101396D01*
X0515636Y0100746D02*
X0529700Y0100746D01*
X0529700Y0103144D02*
X0521512Y0103144D01*
X0522924Y0103959D02*
X0522924Y0103959D01*
X0524393Y0105543D02*
X0529700Y0105543D01*
X0529700Y0107941D02*
X0526519Y0107941D01*
X0526411Y0107718D02*
X0526411Y0107718D01*
X0527674Y0110340D02*
X0529700Y0110340D01*
X0529700Y0112738D02*
X0528696Y0112738D01*
X0529058Y0115137D02*
X0529700Y0115137D01*
X0529692Y0117535D02*
X0529381Y0117535D01*
X0529502Y0119934D02*
X0529019Y0119934D01*
X0528969Y0122332D02*
X0528658Y0122332D01*
X0528636Y0122477D02*
X0528636Y0122477D01*
X0528059Y0124731D02*
X0527550Y0124731D01*
X0526706Y0127129D02*
X0526380Y0127129D01*
X0526411Y0127096D02*
X0526411Y0127096D01*
X0524796Y0129528D02*
X0524155Y0129528D01*
X0522924Y0130854D02*
X0522924Y0130854D01*
X0521902Y0131927D02*
X0521067Y0131927D01*
X0516657Y0134325D02*
X0514510Y0134325D01*
D16*
X0164700Y0094907D03*
X0164700Y0089907D03*
X0144700Y0089907D03*
X0139700Y0089907D03*
X0134700Y0089907D03*
X0129700Y0089907D03*
X0129700Y0094907D03*
X0134700Y0094907D03*
X0139700Y0094907D03*
X0144700Y0094907D03*
X0109700Y0094907D03*
X0109700Y0089907D03*
D17*
X0387200Y0072407D02*
X0387200Y0062407D01*
X0387200Y0072407D02*
X0397200Y0082407D01*
D18*
X0467200Y0072407D02*
X0467200Y0062407D01*
X0467200Y0052407D01*
X0467200Y0042407D01*
X0467200Y0072407D02*
X0477200Y0082407D01*
X0317200Y0082407D02*
X0307200Y0072407D01*
X0307200Y0062407D01*
X0237200Y0082407D02*
X0227200Y0072407D01*
X0227200Y0062407D01*
X0227200Y0052407D01*
X0227200Y0042407D01*
D19*
X0227200Y0042407D03*
X0307200Y0062407D03*
X0317200Y0019907D03*
X0337200Y0014907D03*
X0397200Y0019907D03*
X0417200Y0014907D03*
X0477200Y0019907D03*
X0257200Y0014907D03*
X0237200Y0019907D03*
X0177200Y0014907D03*
M02*
