G75*
%MOIN*%
%OFA0B0*%
%FSLAX25Y25*%
%IPPOS*%
%LPD*%
%AMOC8*
5,1,8,0,0,1.08239X$1,22.5*
%
%ADD10C,0.06343*%
%ADD11C,0.13398*%
%ADD12R,0.08200X0.08200*%
%ADD13OC8,0.08200*%
%ADD14C,0.07850*%
%ADD15OC8,0.04369*%
%ADD16R,0.04762X0.04762*%
D10*
X0007200Y0037407D03*
X0007200Y0047407D03*
X0007200Y0057407D03*
X0007200Y0067407D03*
X0007200Y0077407D03*
X0007200Y0087407D03*
X0007200Y0097407D03*
X0007200Y0107407D03*
X0057200Y0107407D03*
X0057200Y0097407D03*
X0057200Y0087407D03*
X0057200Y0077407D03*
X0057200Y0067407D03*
X0057200Y0057407D03*
X0057200Y0047407D03*
X0057200Y0037407D03*
X0177200Y0032407D03*
X0187200Y0032407D03*
X0197200Y0032407D03*
X0207200Y0032407D03*
X0217200Y0032407D03*
X0227200Y0032407D03*
X0237200Y0032407D03*
X0247200Y0032407D03*
X0257200Y0032407D03*
X0267200Y0032407D03*
X0277200Y0032407D03*
X0287200Y0032407D03*
X0297200Y0032407D03*
X0307200Y0032407D03*
X0317200Y0032407D03*
X0327200Y0032407D03*
X0337200Y0032407D03*
X0347200Y0032407D03*
X0357200Y0032407D03*
X0367200Y0032407D03*
X0377200Y0032407D03*
X0387200Y0032407D03*
X0397200Y0032407D03*
X0407200Y0032407D03*
X0417200Y0032407D03*
X0427200Y0032407D03*
X0437200Y0032407D03*
X0447200Y0032407D03*
X0457200Y0032407D03*
X0467200Y0032407D03*
X0477200Y0032407D03*
X0487200Y0032407D03*
X0487200Y0082407D03*
X0477200Y0082407D03*
X0467200Y0082407D03*
X0457200Y0082407D03*
X0447200Y0082407D03*
X0437200Y0082407D03*
X0427200Y0082407D03*
X0417200Y0082407D03*
X0407200Y0082407D03*
X0397200Y0082407D03*
X0387200Y0082407D03*
X0377200Y0082407D03*
X0367200Y0082407D03*
X0357200Y0082407D03*
X0347200Y0082407D03*
X0337200Y0082407D03*
X0327200Y0082407D03*
X0317200Y0082407D03*
X0307200Y0082407D03*
X0297200Y0082407D03*
X0287200Y0082407D03*
X0277200Y0082407D03*
X0267200Y0082407D03*
X0257200Y0082407D03*
X0247200Y0082407D03*
X0237200Y0082407D03*
X0227200Y0082407D03*
X0217200Y0082407D03*
X0207200Y0082407D03*
X0197200Y0082407D03*
X0187200Y0082407D03*
X0177200Y0082407D03*
D11*
X0079700Y0117407D03*
X0512200Y0117407D03*
D12*
X0457200Y0042407D03*
X0377200Y0042407D03*
X0297200Y0042407D03*
X0217200Y0042407D03*
D13*
X0084700Y0027407D03*
X0094700Y0027407D03*
X0104700Y0027407D03*
X0104700Y0037407D03*
X0094700Y0037407D03*
X0084700Y0037407D03*
X0037200Y0062407D03*
X0027200Y0062407D03*
X0027200Y0072407D03*
X0037200Y0072407D03*
X0037200Y0082407D03*
X0027200Y0082407D03*
X0217200Y0062407D03*
X0227200Y0062407D03*
X0227200Y0052407D03*
X0217200Y0052407D03*
X0227200Y0042407D03*
X0297200Y0052407D03*
X0307200Y0052407D03*
X0307200Y0062407D03*
X0297200Y0062407D03*
X0307200Y0042407D03*
X0377200Y0052407D03*
X0387200Y0052407D03*
X0387200Y0062407D03*
X0377200Y0062407D03*
X0387200Y0042407D03*
X0457200Y0052407D03*
X0467200Y0052407D03*
X0467200Y0062407D03*
X0457200Y0062407D03*
X0467200Y0042407D03*
D14*
X0462043Y0113882D02*
X0462043Y0120932D01*
X0442357Y0120932D02*
X0442357Y0113882D01*
X0422672Y0113882D02*
X0422672Y0120932D01*
X0401728Y0120932D02*
X0401728Y0113882D01*
X0382043Y0113882D02*
X0382043Y0120932D01*
X0362357Y0120932D02*
X0362357Y0113882D01*
X0342672Y0113882D02*
X0342672Y0120932D01*
X0321728Y0120932D02*
X0321728Y0113882D01*
X0302043Y0113882D02*
X0302043Y0120932D01*
X0282357Y0120932D02*
X0282357Y0113882D01*
X0262672Y0113882D02*
X0262672Y0120932D01*
X0241728Y0120932D02*
X0241728Y0113882D01*
X0222043Y0113882D02*
X0222043Y0120932D01*
X0202357Y0120932D02*
X0202357Y0113882D01*
X0182672Y0113882D02*
X0182672Y0120932D01*
X0083225Y0084749D02*
X0076175Y0084749D01*
X0076175Y0065064D02*
X0083225Y0065064D01*
X0481728Y0113882D02*
X0481728Y0120932D01*
D15*
X0164700Y0094907D03*
X0164700Y0089907D03*
X0144700Y0089907D03*
X0139700Y0089907D03*
X0134700Y0089907D03*
X0129700Y0089907D03*
X0129700Y0094907D03*
X0134700Y0094907D03*
X0139700Y0094907D03*
X0144700Y0094907D03*
X0109700Y0094907D03*
X0109700Y0089907D03*
D16*
X0227200Y0042407D03*
X0307200Y0062407D03*
X0317200Y0019907D03*
X0337200Y0014907D03*
X0397200Y0019907D03*
X0417200Y0014907D03*
X0477200Y0019907D03*
X0257200Y0014907D03*
X0237200Y0019907D03*
X0177200Y0014907D03*
M02*
