%
M48
M72
T01C0.01969
T02C0.02362
T03C0.03543
T04C0.04000
T05C0.04700
T06C0.12598
%
T01
X109700Y89907
X109700Y94907
X129700Y94907
X134700Y94907
X139700Y94907
X144700Y94907
X144700Y89907
X139700Y89907
X134700Y89907
X129700Y89907
X164700Y89907
X164700Y94907
T02
X307200Y62407
X227200Y42407
X237200Y19907
X257200Y14907
X317200Y19907
X337200Y14907
X397200Y19907
X417200Y14907
X477200Y19907
X177200Y14907
T03
X177200Y32407
X187200Y32407
X197200Y32407
X207200Y32407
X217200Y32407
X227200Y32407
X237200Y32407
X247200Y32407
X257200Y32407
X267200Y32407
X277200Y32407
X287200Y32407
X297200Y32407
X307200Y32407
X317200Y32407
X327200Y32407
X337200Y32407
X347200Y32407
X357200Y32407
X367200Y32407
X377200Y32407
X387200Y32407
X397200Y32407
X407200Y32407
X417200Y32407
X427200Y32407
X437200Y32407
X447200Y32407
X457200Y32407
X467200Y32407
X477200Y32407
X487200Y32407
X487200Y82407
X477200Y82407
X467200Y82407
X457200Y82407
X447200Y82407
X437200Y82407
X427200Y82407
X417200Y82407
X407200Y82407
X397200Y82407
X387200Y82407
X377200Y82407
X367200Y82407
X357200Y82407
X347200Y82407
X337200Y82407
X327200Y82407
X317200Y82407
X307200Y82407
X297200Y82407
X287200Y82407
X277200Y82407
X267200Y82407
X257200Y82407
X247200Y82407
X237200Y82407
X227200Y82407
X217200Y82407
X207200Y82407
X197200Y82407
X187200Y82407
X177200Y82407
X57200Y87407
X57200Y97407
X57200Y107407
X7200Y107407
X7200Y97407
X7200Y87407
X7200Y77407
X7200Y67407
X7200Y57407
X7200Y47407
X7200Y37407
X57200Y37407
X57200Y47407
X57200Y57407
X57200Y67407
X57200Y77407
T04
X84700Y27407
X94700Y27407
X104700Y27407
X104700Y37407
X94700Y37407
X84700Y37407
X37200Y62407
X27200Y62407
X27200Y72407
X37200Y72407
X37200Y82407
X27200Y82407
X217200Y62407
X227200Y62407
X227200Y52407
X217200Y52407
X217200Y42407
X227200Y42407
X297200Y42407
X307200Y42407
X307200Y52407
X297200Y52407
X297200Y62407
X307200Y62407
X377200Y62407
X387200Y62407
X387200Y52407
X377200Y52407
X377200Y42407
X387200Y42407
X457200Y42407
X467200Y42407
X467200Y52407
X457200Y52407
X457200Y62407
X467200Y62407
T05
X462043Y117407
X442357Y117407
X422672Y117407
X401728Y117407
X382043Y117407
X362357Y117407
X342672Y117407
X321728Y117407
X302043Y117407
X282357Y117407
X262672Y117407
X241728Y117407
X222043Y117407
X202357Y117407
X182672Y117407
X79700Y84749
X79700Y65064
X481728Y117407
T06
X512200Y117407
X79700Y117407
M30
