G75*
%MOIN*%
%OFA0B0*%
%FSLAX24Y24*%
%IPPOS*%
%LPD*%
%AMOC8*
5,1,8,0,0,1.08239X$1,22.5*
%
%ADD10C,0.0060*%
%ADD11C,0.0040*%
%ADD12C,0.0160*%
%ADD13C,0.0020*%
%ADD14C,0.0080*%
%ADD15C,0.0000*%
D10*
X004602Y001749D02*
X004838Y001749D01*
X004838Y002222D02*
X004602Y002222D01*
X007283Y001986D02*
X007710Y001986D01*
X007928Y001986D02*
X008141Y002093D01*
X008248Y002093D01*
X008355Y001986D01*
X008355Y001772D01*
X008248Y001666D01*
X008034Y001666D01*
X007928Y001772D01*
X007928Y001986D02*
X007928Y002306D01*
X008355Y002306D01*
X008572Y002306D02*
X008572Y001879D01*
X008786Y001666D01*
X008999Y001879D01*
X008999Y002306D01*
X007497Y002199D02*
X007497Y001772D01*
X006070Y004036D02*
X003720Y004036D01*
X003718Y004080D01*
X003712Y004123D01*
X003703Y004165D01*
X003690Y004207D01*
X003673Y004247D01*
X003653Y004286D01*
X003630Y004323D01*
X003603Y004357D01*
X003574Y004390D01*
X003541Y004419D01*
X003507Y004446D01*
X003470Y004469D01*
X003431Y004489D01*
X003391Y004506D01*
X003349Y004519D01*
X003307Y004528D01*
X003264Y004534D01*
X003220Y004536D01*
X003176Y004534D01*
X003133Y004528D01*
X003091Y004519D01*
X003049Y004506D01*
X003009Y004489D01*
X002970Y004469D01*
X002933Y004446D01*
X002899Y004419D01*
X002866Y004390D01*
X002837Y004357D01*
X002810Y004323D01*
X002787Y004286D01*
X002767Y004247D01*
X002750Y004207D01*
X002737Y004165D01*
X002728Y004123D01*
X002722Y004080D01*
X002720Y004036D01*
X000370Y004036D01*
X000370Y011936D01*
X006070Y011936D01*
X006070Y004036D01*
X011270Y005636D02*
X019170Y005636D01*
X019170Y011336D01*
X011270Y011336D01*
X011270Y008986D01*
X011314Y008984D01*
X011357Y008978D01*
X011399Y008969D01*
X011441Y008956D01*
X011481Y008939D01*
X011520Y008919D01*
X011557Y008896D01*
X011591Y008869D01*
X011624Y008840D01*
X011653Y008807D01*
X011680Y008773D01*
X011703Y008736D01*
X011723Y008697D01*
X011740Y008657D01*
X011753Y008615D01*
X011762Y008573D01*
X011768Y008530D01*
X011770Y008486D01*
X011768Y008442D01*
X011762Y008399D01*
X011753Y008357D01*
X011740Y008315D01*
X011723Y008275D01*
X011703Y008236D01*
X011680Y008199D01*
X011653Y008165D01*
X011624Y008132D01*
X011591Y008103D01*
X011557Y008076D01*
X011520Y008053D01*
X011481Y008033D01*
X011441Y008016D01*
X011399Y008003D01*
X011357Y007994D01*
X011314Y007988D01*
X011270Y007986D01*
X011270Y005636D01*
X011484Y007368D02*
X011484Y007604D01*
X011956Y007604D02*
X011956Y007368D01*
X013852Y008749D02*
X014088Y008749D01*
X014088Y009222D02*
X013852Y009222D01*
X024270Y008986D02*
X024270Y011336D01*
X032170Y011336D01*
X032170Y005636D01*
X024270Y005636D01*
X024270Y007986D01*
X024484Y007604D02*
X024484Y007368D01*
X024956Y007368D02*
X024956Y007604D01*
X024270Y007986D02*
X024314Y007988D01*
X024357Y007994D01*
X024399Y008003D01*
X024441Y008016D01*
X024481Y008033D01*
X024520Y008053D01*
X024557Y008076D01*
X024591Y008103D01*
X024624Y008132D01*
X024653Y008165D01*
X024680Y008199D01*
X024703Y008236D01*
X024723Y008275D01*
X024740Y008315D01*
X024753Y008357D01*
X024762Y008399D01*
X024768Y008442D01*
X024770Y008486D01*
X024768Y008530D01*
X024762Y008573D01*
X024753Y008615D01*
X024740Y008657D01*
X024723Y008697D01*
X024703Y008736D01*
X024680Y008773D01*
X024653Y008807D01*
X024624Y008840D01*
X024591Y008869D01*
X024557Y008896D01*
X024520Y008919D01*
X024481Y008939D01*
X024441Y008956D01*
X024399Y008969D01*
X024357Y008978D01*
X024314Y008984D01*
X024270Y008986D01*
X026852Y009222D02*
X027088Y009222D01*
X027088Y008749D02*
X026852Y008749D01*
X037270Y008986D02*
X037270Y011336D01*
X045170Y011336D01*
X045170Y005636D01*
X037270Y005636D01*
X037270Y007986D01*
X037484Y007604D02*
X037484Y007368D01*
X037956Y007368D02*
X037956Y007604D01*
X037270Y007986D02*
X037314Y007988D01*
X037357Y007994D01*
X037399Y008003D01*
X037441Y008016D01*
X037481Y008033D01*
X037520Y008053D01*
X037557Y008076D01*
X037591Y008103D01*
X037624Y008132D01*
X037653Y008165D01*
X037680Y008199D01*
X037703Y008236D01*
X037723Y008275D01*
X037740Y008315D01*
X037753Y008357D01*
X037762Y008399D01*
X037768Y008442D01*
X037770Y008486D01*
X037768Y008530D01*
X037762Y008573D01*
X037753Y008615D01*
X037740Y008657D01*
X037723Y008697D01*
X037703Y008736D01*
X037680Y008773D01*
X037653Y008807D01*
X037624Y008840D01*
X037591Y008869D01*
X037557Y008896D01*
X037520Y008919D01*
X037481Y008939D01*
X037441Y008956D01*
X037399Y008969D01*
X037357Y008978D01*
X037314Y008984D01*
X037270Y008986D01*
X039852Y009222D02*
X040088Y009222D01*
X040088Y008749D02*
X039852Y008749D01*
X050270Y008986D02*
X050270Y011336D01*
X058170Y011336D01*
X058170Y005636D01*
X050270Y005636D01*
X050270Y007986D01*
X050484Y007604D02*
X050484Y007368D01*
X050956Y007368D02*
X050956Y007604D01*
X050270Y007986D02*
X050314Y007988D01*
X050357Y007994D01*
X050399Y008003D01*
X050441Y008016D01*
X050481Y008033D01*
X050520Y008053D01*
X050557Y008076D01*
X050591Y008103D01*
X050624Y008132D01*
X050653Y008165D01*
X050680Y008199D01*
X050703Y008236D01*
X050723Y008275D01*
X050740Y008315D01*
X050753Y008357D01*
X050762Y008399D01*
X050768Y008442D01*
X050770Y008486D01*
X050768Y008530D01*
X050762Y008573D01*
X050753Y008615D01*
X050740Y008657D01*
X050723Y008697D01*
X050703Y008736D01*
X050680Y008773D01*
X050653Y008807D01*
X050624Y008840D01*
X050591Y008869D01*
X050557Y008896D01*
X050520Y008919D01*
X050481Y008939D01*
X050441Y008956D01*
X050399Y008969D01*
X050357Y008978D01*
X050314Y008984D01*
X050270Y008986D01*
X052852Y009222D02*
X053088Y009222D01*
X053088Y008749D02*
X052852Y008749D01*
X059293Y007528D02*
X059399Y007528D01*
X059613Y007528D02*
X060040Y007528D01*
X060040Y007634D02*
X060040Y007421D01*
X060040Y007205D02*
X059933Y007205D01*
X059933Y007099D01*
X060040Y007099D01*
X060040Y007205D01*
X059613Y007421D02*
X059613Y007528D01*
X059720Y007851D02*
X059933Y007851D01*
X060040Y007957D01*
X060040Y008171D01*
X059933Y008278D01*
X059720Y008278D01*
X059613Y008171D01*
X059613Y007957D01*
X059720Y007851D01*
X060040Y008495D02*
X059399Y008922D01*
X059613Y009140D02*
X059613Y009460D01*
X059720Y009567D01*
X059933Y009567D01*
X060040Y009460D01*
X060040Y009140D01*
X060254Y009140D02*
X059613Y009140D01*
X059613Y009784D02*
X060040Y009784D01*
X059826Y009784D02*
X059613Y009998D01*
X059613Y010104D01*
X059720Y010321D02*
X059933Y010321D01*
X060040Y010428D01*
X060040Y010642D01*
X059933Y010748D01*
X059720Y010748D01*
X059613Y010642D01*
X059613Y010428D01*
X059720Y010321D01*
X060254Y010966D02*
X060254Y011073D01*
X060147Y011179D01*
X059613Y011179D01*
X059399Y011179D02*
X059293Y011179D01*
X059613Y011502D02*
X059720Y011396D01*
X059933Y011396D01*
X060040Y011502D01*
X060040Y011716D01*
X059826Y011823D02*
X059826Y011396D01*
X059613Y011502D02*
X059613Y011716D01*
X059720Y011823D01*
X059826Y011823D01*
X059720Y012040D02*
X059933Y012040D01*
X060040Y012147D01*
X060040Y012467D01*
X059933Y012791D02*
X060040Y012898D01*
X059933Y012791D02*
X059506Y012791D01*
X059613Y012685D02*
X059613Y012898D01*
X060040Y013114D02*
X059399Y013541D01*
X059613Y013759D02*
X059399Y013972D01*
X060040Y013972D01*
X060040Y013759D02*
X060040Y014186D01*
X060040Y014403D02*
X060040Y014830D01*
X060040Y014617D02*
X059399Y014617D01*
X059613Y014403D01*
X059613Y015048D02*
X059720Y015155D01*
X059720Y015475D01*
X059933Y015475D02*
X059506Y015475D01*
X059399Y015368D01*
X059399Y015155D01*
X059506Y015048D01*
X059613Y015048D01*
X059933Y015048D02*
X060040Y015155D01*
X060040Y015368D01*
X059933Y015475D01*
X059933Y015693D02*
X059506Y016120D01*
X059933Y016120D01*
X060040Y016013D01*
X060040Y015799D01*
X059933Y015693D01*
X059506Y015693D01*
X059399Y015799D01*
X059399Y016013D01*
X059506Y016120D01*
X059506Y016337D02*
X059399Y016444D01*
X059399Y016657D01*
X059506Y016764D01*
X059933Y016337D01*
X060040Y016444D01*
X060040Y016657D01*
X059933Y016764D01*
X059506Y016764D01*
X059506Y016337D02*
X059933Y016337D01*
X057870Y017486D02*
X057872Y017559D01*
X057878Y017632D01*
X057888Y017704D01*
X057902Y017776D01*
X057919Y017847D01*
X057941Y017917D01*
X057966Y017986D01*
X057995Y018053D01*
X058027Y018118D01*
X058063Y018182D01*
X058103Y018244D01*
X058145Y018303D01*
X058191Y018360D01*
X058240Y018414D01*
X058292Y018466D01*
X058346Y018515D01*
X058403Y018561D01*
X058462Y018603D01*
X058524Y018643D01*
X058588Y018679D01*
X058653Y018711D01*
X058720Y018740D01*
X058789Y018765D01*
X058859Y018787D01*
X058930Y018804D01*
X059002Y018818D01*
X059074Y018828D01*
X059147Y018834D01*
X059220Y018836D01*
X059293Y018834D01*
X059366Y018828D01*
X059438Y018818D01*
X059510Y018804D01*
X059581Y018787D01*
X059651Y018765D01*
X059720Y018740D01*
X059787Y018711D01*
X059852Y018679D01*
X059916Y018643D01*
X059978Y018603D01*
X060037Y018561D01*
X060094Y018515D01*
X060148Y018466D01*
X060200Y018414D01*
X060249Y018360D01*
X060295Y018303D01*
X060337Y018244D01*
X060377Y018182D01*
X060413Y018118D01*
X060445Y018053D01*
X060474Y017986D01*
X060499Y017917D01*
X060521Y017847D01*
X060538Y017776D01*
X060552Y017704D01*
X060562Y017632D01*
X060568Y017559D01*
X060570Y017486D01*
X060568Y017413D01*
X060562Y017340D01*
X060552Y017268D01*
X060538Y017196D01*
X060521Y017125D01*
X060499Y017055D01*
X060474Y016986D01*
X060445Y016919D01*
X060413Y016854D01*
X060377Y016790D01*
X060337Y016728D01*
X060295Y016669D01*
X060249Y016612D01*
X060200Y016558D01*
X060148Y016506D01*
X060094Y016457D01*
X060037Y016411D01*
X059978Y016369D01*
X059916Y016329D01*
X059852Y016293D01*
X059787Y016261D01*
X059720Y016232D01*
X059651Y016207D01*
X059581Y016185D01*
X059510Y016168D01*
X059438Y016154D01*
X059366Y016144D01*
X059293Y016138D01*
X059220Y016136D01*
X059147Y016138D01*
X059074Y016144D01*
X059002Y016154D01*
X058930Y016168D01*
X058859Y016185D01*
X058789Y016207D01*
X058720Y016232D01*
X058653Y016261D01*
X058588Y016293D01*
X058524Y016329D01*
X058462Y016369D01*
X058403Y016411D01*
X058346Y016457D01*
X058292Y016506D01*
X058240Y016558D01*
X058191Y016612D01*
X058145Y016669D01*
X058103Y016728D01*
X058063Y016790D01*
X058027Y016854D01*
X057995Y016919D01*
X057966Y016986D01*
X057941Y017055D01*
X057919Y017125D01*
X057902Y017196D01*
X057888Y017268D01*
X057878Y017340D01*
X057872Y017413D01*
X057870Y017486D01*
X059613Y012467D02*
X059613Y012147D01*
X059720Y012040D01*
X059613Y006881D02*
X060147Y006881D01*
X060254Y006774D01*
X060254Y006668D01*
X060040Y006561D02*
X059933Y006454D01*
X059613Y006454D01*
X059720Y006236D02*
X060040Y006236D01*
X060040Y005916D01*
X059933Y005809D01*
X059826Y005916D01*
X059826Y006236D01*
X059720Y006236D02*
X059613Y006130D01*
X059613Y005916D01*
X059613Y005592D02*
X059613Y005272D01*
X059720Y005165D01*
X059933Y005165D01*
X060040Y005272D01*
X060040Y005592D01*
X059399Y005592D01*
X059720Y004947D02*
X060040Y004947D01*
X060040Y004627D01*
X059933Y004520D01*
X059826Y004627D01*
X059826Y004947D01*
X059720Y004947D02*
X059613Y004841D01*
X059613Y004627D01*
X059613Y004304D02*
X059826Y003983D01*
X060040Y004304D01*
X060040Y003983D02*
X059399Y003983D01*
X059613Y003766D02*
X059613Y003445D01*
X059720Y003339D01*
X059933Y003339D01*
X060040Y003445D01*
X060040Y003766D01*
X060040Y003121D02*
X059720Y003121D01*
X059613Y003014D01*
X059613Y002801D01*
X059826Y002801D02*
X059826Y003121D01*
X060040Y003121D02*
X060040Y002801D01*
X059933Y002694D01*
X059826Y002801D01*
X059720Y002477D02*
X060040Y002477D01*
X059720Y002477D02*
X059613Y002370D01*
X059613Y002156D01*
X059720Y002050D01*
X060040Y002050D02*
X059399Y002050D01*
X057870Y001986D02*
X057872Y002059D01*
X057878Y002132D01*
X057888Y002204D01*
X057902Y002276D01*
X057919Y002347D01*
X057941Y002417D01*
X057966Y002486D01*
X057995Y002553D01*
X058027Y002618D01*
X058063Y002682D01*
X058103Y002744D01*
X058145Y002803D01*
X058191Y002860D01*
X058240Y002914D01*
X058292Y002966D01*
X058346Y003015D01*
X058403Y003061D01*
X058462Y003103D01*
X058524Y003143D01*
X058588Y003179D01*
X058653Y003211D01*
X058720Y003240D01*
X058789Y003265D01*
X058859Y003287D01*
X058930Y003304D01*
X059002Y003318D01*
X059074Y003328D01*
X059147Y003334D01*
X059220Y003336D01*
X059293Y003334D01*
X059366Y003328D01*
X059438Y003318D01*
X059510Y003304D01*
X059581Y003287D01*
X059651Y003265D01*
X059720Y003240D01*
X059787Y003211D01*
X059852Y003179D01*
X059916Y003143D01*
X059978Y003103D01*
X060037Y003061D01*
X060094Y003015D01*
X060148Y002966D01*
X060200Y002914D01*
X060249Y002860D01*
X060295Y002803D01*
X060337Y002744D01*
X060377Y002682D01*
X060413Y002618D01*
X060445Y002553D01*
X060474Y002486D01*
X060499Y002417D01*
X060521Y002347D01*
X060538Y002276D01*
X060552Y002204D01*
X060562Y002132D01*
X060568Y002059D01*
X060570Y001986D01*
X060568Y001913D01*
X060562Y001840D01*
X060552Y001768D01*
X060538Y001696D01*
X060521Y001625D01*
X060499Y001555D01*
X060474Y001486D01*
X060445Y001419D01*
X060413Y001354D01*
X060377Y001290D01*
X060337Y001228D01*
X060295Y001169D01*
X060249Y001112D01*
X060200Y001058D01*
X060148Y001006D01*
X060094Y000957D01*
X060037Y000911D01*
X059978Y000869D01*
X059916Y000829D01*
X059852Y000793D01*
X059787Y000761D01*
X059720Y000732D01*
X059651Y000707D01*
X059581Y000685D01*
X059510Y000668D01*
X059438Y000654D01*
X059366Y000644D01*
X059293Y000638D01*
X059220Y000636D01*
X059147Y000638D01*
X059074Y000644D01*
X059002Y000654D01*
X058930Y000668D01*
X058859Y000685D01*
X058789Y000707D01*
X058720Y000732D01*
X058653Y000761D01*
X058588Y000793D01*
X058524Y000829D01*
X058462Y000869D01*
X058403Y000911D01*
X058346Y000957D01*
X058292Y001006D01*
X058240Y001058D01*
X058191Y001112D01*
X058145Y001169D01*
X058103Y001228D01*
X058063Y001290D01*
X058027Y001354D01*
X057995Y001419D01*
X057966Y001486D01*
X057941Y001555D01*
X057919Y001625D01*
X057902Y001696D01*
X057888Y001768D01*
X057878Y001840D01*
X057872Y001913D01*
X057870Y001986D01*
X060040Y006561D02*
X060040Y006881D01*
X009572Y017806D02*
X009145Y017806D01*
X009358Y017806D02*
X009358Y017166D01*
X008927Y017272D02*
X008927Y017699D01*
X008820Y017806D01*
X008607Y017806D01*
X008500Y017699D01*
X008500Y017272D01*
X008607Y017166D01*
X008820Y017166D01*
X008927Y017272D01*
X008282Y017166D02*
X008282Y017806D01*
X008069Y017593D01*
X007855Y017806D01*
X007855Y017166D01*
X007638Y017379D02*
X007424Y017166D01*
X007211Y017379D01*
X007211Y017806D01*
X007638Y017806D02*
X007638Y017379D01*
X004838Y017249D02*
X004602Y017249D01*
X004602Y017722D02*
X004838Y017722D01*
X000620Y017486D02*
X000622Y017559D01*
X000628Y017632D01*
X000638Y017704D01*
X000652Y017776D01*
X000669Y017847D01*
X000691Y017917D01*
X000716Y017986D01*
X000745Y018053D01*
X000777Y018118D01*
X000813Y018182D01*
X000853Y018244D01*
X000895Y018303D01*
X000941Y018360D01*
X000990Y018414D01*
X001042Y018466D01*
X001096Y018515D01*
X001153Y018561D01*
X001212Y018603D01*
X001274Y018643D01*
X001338Y018679D01*
X001403Y018711D01*
X001470Y018740D01*
X001539Y018765D01*
X001609Y018787D01*
X001680Y018804D01*
X001752Y018818D01*
X001824Y018828D01*
X001897Y018834D01*
X001970Y018836D01*
X002043Y018834D01*
X002116Y018828D01*
X002188Y018818D01*
X002260Y018804D01*
X002331Y018787D01*
X002401Y018765D01*
X002470Y018740D01*
X002537Y018711D01*
X002602Y018679D01*
X002666Y018643D01*
X002728Y018603D01*
X002787Y018561D01*
X002844Y018515D01*
X002898Y018466D01*
X002950Y018414D01*
X002999Y018360D01*
X003045Y018303D01*
X003087Y018244D01*
X003127Y018182D01*
X003163Y018118D01*
X003195Y018053D01*
X003224Y017986D01*
X003249Y017917D01*
X003271Y017847D01*
X003288Y017776D01*
X003302Y017704D01*
X003312Y017632D01*
X003318Y017559D01*
X003320Y017486D01*
X003318Y017413D01*
X003312Y017340D01*
X003302Y017268D01*
X003288Y017196D01*
X003271Y017125D01*
X003249Y017055D01*
X003224Y016986D01*
X003195Y016919D01*
X003163Y016854D01*
X003127Y016790D01*
X003087Y016728D01*
X003045Y016669D01*
X002999Y016612D01*
X002950Y016558D01*
X002898Y016506D01*
X002844Y016457D01*
X002787Y016411D01*
X002728Y016369D01*
X002666Y016329D01*
X002602Y016293D01*
X002537Y016261D01*
X002470Y016232D01*
X002401Y016207D01*
X002331Y016185D01*
X002260Y016168D01*
X002188Y016154D01*
X002116Y016144D01*
X002043Y016138D01*
X001970Y016136D01*
X001897Y016138D01*
X001824Y016144D01*
X001752Y016154D01*
X001680Y016168D01*
X001609Y016185D01*
X001539Y016207D01*
X001470Y016232D01*
X001403Y016261D01*
X001338Y016293D01*
X001274Y016329D01*
X001212Y016369D01*
X001153Y016411D01*
X001096Y016457D01*
X001042Y016506D01*
X000990Y016558D01*
X000941Y016612D01*
X000895Y016669D01*
X000853Y016728D01*
X000813Y016790D01*
X000777Y016854D01*
X000745Y016919D01*
X000716Y016986D01*
X000691Y017055D01*
X000669Y017125D01*
X000652Y017196D01*
X000638Y017268D01*
X000628Y017340D01*
X000622Y017413D01*
X000620Y017486D01*
X003725Y015306D02*
X003831Y015199D01*
X003831Y014772D01*
X003725Y014879D02*
X003938Y014879D01*
X004156Y014985D02*
X004262Y014879D01*
X004476Y014879D01*
X004583Y014985D01*
X004583Y015199D01*
X004476Y015306D01*
X004262Y015306D01*
X004156Y015199D01*
X004156Y014985D01*
X004800Y014665D02*
X004800Y015306D01*
X005227Y015306D02*
X005227Y014665D01*
X005014Y014879D01*
X004800Y014665D01*
X005445Y014665D02*
X005445Y015092D01*
X005658Y015306D01*
X005872Y015092D01*
X005872Y014665D01*
X005550Y013306D02*
X005337Y013306D01*
X005230Y013199D01*
X005230Y012985D01*
X005443Y012985D01*
X005230Y012772D02*
X005337Y012665D01*
X005550Y012665D01*
X005657Y012772D01*
X005657Y013199D01*
X005550Y013306D01*
X005012Y013306D02*
X005012Y012879D01*
X004692Y012879D01*
X004585Y012985D01*
X004585Y013306D01*
X004368Y013199D02*
X004368Y012985D01*
X004261Y012879D01*
X003941Y012879D01*
X003941Y012665D02*
X003941Y013306D01*
X004261Y013306D01*
X004368Y013199D01*
D11*
X012740Y014872D02*
X012816Y014795D01*
X012740Y014872D02*
X012740Y015025D01*
X012816Y015102D01*
X012893Y015102D01*
X013200Y014795D01*
X013200Y015102D01*
X013200Y015256D02*
X012740Y015256D01*
X012740Y015486D01*
X012816Y015563D01*
X012893Y015563D01*
X012970Y015486D01*
X012970Y015256D01*
X012970Y015486D02*
X013047Y015563D01*
X013123Y015563D01*
X013200Y015486D01*
X013200Y015256D01*
X013990Y015409D02*
X014143Y015563D01*
X014450Y015563D01*
X014220Y015563D02*
X014220Y015256D01*
X014143Y015256D02*
X013990Y015409D01*
X014143Y015256D02*
X014450Y015256D01*
X014450Y015102D02*
X014450Y014795D01*
X014143Y015102D01*
X014066Y015102D01*
X013990Y015025D01*
X013990Y014872D01*
X014066Y014795D01*
X015490Y014949D02*
X015950Y014949D01*
X015950Y015102D02*
X015950Y014795D01*
X015643Y014795D02*
X015490Y014949D01*
X015643Y015256D02*
X015490Y015409D01*
X015643Y015563D01*
X015950Y015563D01*
X015720Y015563D02*
X015720Y015256D01*
X015643Y015256D02*
X015950Y015256D01*
X016990Y015256D02*
X016990Y015486D01*
X017066Y015563D01*
X017143Y015563D01*
X017220Y015486D01*
X017220Y015256D01*
X017220Y015486D02*
X017297Y015563D01*
X017373Y015563D01*
X017450Y015486D01*
X017450Y015256D01*
X016990Y015256D01*
X017450Y015102D02*
X017450Y014795D01*
X017450Y014949D02*
X016990Y014949D01*
X017143Y014795D01*
X025740Y014872D02*
X025816Y014795D01*
X025740Y014872D02*
X025740Y015025D01*
X025816Y015102D01*
X025893Y015102D01*
X026200Y014795D01*
X026200Y015102D01*
X026200Y015256D02*
X026200Y015486D01*
X026123Y015563D01*
X026047Y015563D01*
X025970Y015486D01*
X025970Y015256D01*
X025970Y015486D02*
X025893Y015563D01*
X025816Y015563D01*
X025740Y015486D01*
X025740Y015256D01*
X026200Y015256D01*
X026990Y015409D02*
X027143Y015256D01*
X027450Y015256D01*
X027450Y015102D02*
X027450Y014795D01*
X027143Y015102D01*
X027066Y015102D01*
X026990Y015025D01*
X026990Y014872D01*
X027066Y014795D01*
X027220Y015256D02*
X027220Y015563D01*
X027143Y015563D02*
X027450Y015563D01*
X027143Y015563D02*
X026990Y015409D01*
X028490Y015409D02*
X028643Y015256D01*
X028950Y015256D01*
X028950Y015102D02*
X028950Y014795D01*
X028950Y014949D02*
X028490Y014949D01*
X028643Y014795D01*
X028720Y015256D02*
X028720Y015563D01*
X028643Y015563D02*
X028950Y015563D01*
X028643Y015563D02*
X028490Y015409D01*
X029990Y015486D02*
X029990Y015256D01*
X030450Y015256D01*
X030450Y015486D01*
X030373Y015563D01*
X030297Y015563D01*
X030220Y015486D01*
X030220Y015256D01*
X030220Y015486D02*
X030143Y015563D01*
X030066Y015563D01*
X029990Y015486D01*
X030450Y015102D02*
X030450Y014795D01*
X030450Y014949D02*
X029990Y014949D01*
X030143Y014795D01*
X038740Y014775D02*
X038740Y014622D01*
X038816Y014545D01*
X038740Y014775D02*
X038816Y014852D01*
X038893Y014852D01*
X039200Y014545D01*
X039200Y014852D01*
X039200Y015006D02*
X038740Y015006D01*
X038740Y015236D01*
X038816Y015313D01*
X038893Y015313D01*
X038970Y015236D01*
X038970Y015006D01*
X038970Y015236D02*
X039047Y015313D01*
X039123Y015313D01*
X039200Y015236D01*
X039200Y015006D01*
X039990Y015159D02*
X040143Y015313D01*
X040450Y015313D01*
X040220Y015313D02*
X040220Y015006D01*
X040143Y015006D02*
X039990Y015159D01*
X040143Y015006D02*
X040450Y015006D01*
X040450Y014852D02*
X040450Y014545D01*
X040143Y014852D01*
X040066Y014852D01*
X039990Y014775D01*
X039990Y014622D01*
X040066Y014545D01*
X041490Y014699D02*
X041950Y014699D01*
X041950Y014852D02*
X041950Y014545D01*
X041643Y014545D02*
X041490Y014699D01*
X041643Y015006D02*
X041490Y015159D01*
X041643Y015313D01*
X041950Y015313D01*
X041720Y015313D02*
X041720Y015006D01*
X041643Y015006D02*
X041950Y015006D01*
X042990Y015006D02*
X042990Y015236D01*
X043066Y015313D01*
X043143Y015313D01*
X043220Y015236D01*
X043220Y015006D01*
X043220Y015236D02*
X043297Y015313D01*
X043373Y015313D01*
X043450Y015236D01*
X043450Y015006D01*
X042990Y015006D01*
X043450Y014852D02*
X043450Y014545D01*
X043450Y014699D02*
X042990Y014699D01*
X043143Y014545D01*
X051740Y014525D02*
X051740Y014372D01*
X051816Y014295D01*
X051740Y014525D02*
X051816Y014602D01*
X051893Y014602D01*
X052200Y014295D01*
X052200Y014602D01*
X052200Y014756D02*
X052200Y014986D01*
X052123Y015063D01*
X052047Y015063D01*
X051970Y014986D01*
X051970Y014756D01*
X052200Y014756D02*
X051740Y014756D01*
X051740Y014986D01*
X051816Y015063D01*
X051893Y015063D01*
X051970Y014986D01*
X052990Y014909D02*
X053143Y014756D01*
X053450Y014756D01*
X053450Y014602D02*
X053450Y014295D01*
X053143Y014602D01*
X053066Y014602D01*
X052990Y014525D01*
X052990Y014372D01*
X053066Y014295D01*
X053220Y014756D02*
X053220Y015063D01*
X053143Y015063D02*
X053450Y015063D01*
X053143Y015063D02*
X052990Y014909D01*
X054490Y014909D02*
X054643Y014756D01*
X054950Y014756D01*
X054950Y014602D02*
X054950Y014295D01*
X054950Y014449D02*
X054490Y014449D01*
X054643Y014295D01*
X054720Y014756D02*
X054720Y015063D01*
X054643Y015063D02*
X054950Y015063D01*
X054643Y015063D02*
X054490Y014909D01*
X055990Y014986D02*
X055990Y014756D01*
X056450Y014756D01*
X056450Y014986D01*
X056373Y015063D01*
X056297Y015063D01*
X056220Y014986D01*
X056220Y014756D01*
X056450Y014602D02*
X056450Y014295D01*
X056450Y014449D02*
X055990Y014449D01*
X056143Y014295D01*
X056220Y014986D02*
X056143Y015063D01*
X056066Y015063D01*
X055990Y014986D01*
D12*
X034830Y003214D02*
X034830Y002907D01*
X034830Y002293D02*
X034830Y001066D01*
X034523Y001066D02*
X035137Y001066D01*
X036364Y001066D02*
X036978Y002293D01*
X037592Y001986D02*
X037899Y002293D01*
X038513Y002293D01*
X038820Y001986D01*
X038820Y001679D01*
X037592Y001679D01*
X037592Y001373D02*
X037592Y001986D01*
X037592Y001373D02*
X037899Y001066D01*
X038513Y001066D01*
X039434Y001066D02*
X039434Y002293D01*
X040047Y002293D02*
X040354Y002293D01*
X040047Y002293D02*
X039434Y001679D01*
X036364Y001066D02*
X035750Y002293D01*
X034830Y002293D02*
X034523Y002293D01*
X033909Y002293D02*
X033602Y002293D01*
X032988Y001679D01*
X032374Y001373D02*
X032374Y002600D01*
X032067Y002907D01*
X031147Y002907D01*
X031147Y001066D01*
X032067Y001066D01*
X032374Y001373D01*
X032988Y001066D02*
X032988Y002293D01*
X028691Y002293D02*
X028384Y002293D01*
X027770Y001679D01*
X027156Y001679D02*
X025929Y001679D01*
X025929Y001373D02*
X025929Y001986D01*
X026236Y002293D01*
X026850Y002293D01*
X027156Y001986D01*
X027156Y001679D01*
X026236Y001066D02*
X025929Y001373D01*
X025315Y001373D02*
X025008Y001066D01*
X024087Y001066D01*
X023473Y001373D02*
X023166Y001066D01*
X022246Y001066D01*
X021325Y001066D02*
X020711Y001066D01*
X020404Y001373D01*
X020404Y001986D01*
X020711Y002293D01*
X021325Y002293D01*
X021632Y001986D01*
X021632Y001679D01*
X020404Y001679D01*
X019790Y001066D02*
X019483Y001373D01*
X019483Y002600D01*
X018562Y002600D02*
X018256Y002907D01*
X017642Y002907D01*
X017335Y002600D01*
X017335Y002293D01*
X017642Y001986D01*
X018256Y001986D01*
X018562Y001679D01*
X018562Y001373D01*
X018256Y001066D01*
X017642Y001066D01*
X017335Y001373D01*
X019176Y002293D02*
X019790Y002293D01*
X022246Y002293D02*
X023166Y002293D01*
X023473Y001986D01*
X023473Y001373D01*
X025008Y002293D02*
X025315Y001986D01*
X025315Y001373D01*
X026236Y001066D02*
X026850Y001066D01*
X027770Y001066D02*
X027770Y002293D01*
X025008Y002293D02*
X024087Y002293D01*
X024087Y000452D01*
X022246Y000452D02*
X022246Y002293D01*
X014879Y002293D02*
X014572Y001986D01*
X013959Y001986D01*
X013652Y002293D01*
X013652Y002600D01*
X013959Y002907D01*
X014572Y002907D01*
X014879Y002600D01*
X014879Y002293D01*
X014572Y001986D02*
X014879Y001679D01*
X014879Y001373D01*
X014572Y001066D01*
X013959Y001066D01*
X013652Y001373D01*
X013652Y001679D01*
X013959Y001986D01*
X013038Y002293D02*
X012731Y001986D01*
X012117Y001986D01*
X011810Y002293D01*
X011810Y002600D01*
X012117Y002907D01*
X012731Y002907D01*
X013038Y002600D01*
X013038Y002293D01*
X012731Y001986D02*
X013038Y001679D01*
X013038Y001373D01*
X012731Y001066D01*
X012117Y001066D01*
X011810Y001373D01*
X011810Y001679D01*
X012117Y001986D01*
X011196Y001986D02*
X010275Y001986D01*
X009968Y002293D01*
X009968Y002600D01*
X010275Y002907D01*
X010889Y002907D01*
X011196Y002600D01*
X011196Y001373D01*
X010889Y001066D01*
X010275Y001066D01*
X009968Y001373D01*
X009048Y001066D02*
X009048Y002907D01*
X008127Y001986D01*
X009355Y001986D01*
X007513Y001986D02*
X006285Y001986D01*
X006285Y002293D02*
X006899Y002907D01*
X007513Y002293D01*
X007513Y001066D01*
X006285Y001066D02*
X006285Y002293D01*
X042810Y001986D02*
X043731Y001986D01*
X044038Y001679D01*
X044038Y001373D01*
X043731Y001066D01*
X042810Y001066D01*
X042810Y002907D01*
X043731Y002907D01*
X044038Y002600D01*
X044038Y002293D01*
X043731Y001986D01*
X044651Y002293D02*
X044651Y001066D01*
X044651Y001679D02*
X045265Y002293D01*
X045572Y002293D01*
X046186Y001986D02*
X046493Y002293D01*
X047107Y002293D01*
X047414Y001986D01*
X047414Y001679D01*
X046186Y001679D01*
X046186Y001373D02*
X046186Y001986D01*
X046186Y001373D02*
X046493Y001066D01*
X047107Y001066D01*
X048028Y001373D02*
X048335Y001679D01*
X049255Y001679D01*
X049869Y001679D02*
X050790Y002293D01*
X051404Y001986D02*
X051404Y001373D01*
X051711Y001066D01*
X052325Y001066D01*
X052632Y001373D01*
X052632Y001986D01*
X052325Y002293D01*
X051711Y002293D01*
X051404Y001986D01*
X050790Y001066D02*
X049869Y001679D01*
X049255Y001986D02*
X049255Y001066D01*
X048335Y001066D01*
X048028Y001373D01*
X048948Y002293D02*
X049255Y001986D01*
X048948Y002293D02*
X048335Y002293D01*
X049869Y002907D02*
X049869Y001066D01*
X053245Y001373D02*
X053552Y001066D01*
X054473Y001066D01*
X054473Y002293D01*
X055087Y002293D02*
X055701Y002293D01*
X055394Y002600D02*
X055394Y001373D01*
X055701Y001066D01*
X053245Y001373D02*
X053245Y002293D01*
D13*
X052960Y006496D02*
X052740Y006496D01*
X052813Y006569D01*
X052740Y006642D01*
X052960Y006642D01*
X052923Y006717D02*
X052960Y006753D01*
X052960Y006827D01*
X052923Y006863D01*
X052887Y006863D01*
X052850Y006827D01*
X052850Y006753D01*
X052813Y006717D01*
X052777Y006717D01*
X052740Y006753D01*
X052740Y006827D01*
X052777Y006863D01*
X052777Y006938D02*
X052740Y006974D01*
X052740Y007048D01*
X052777Y007084D01*
X052813Y007084D01*
X052960Y006938D01*
X052960Y007084D01*
X053740Y007048D02*
X053740Y006974D01*
X053777Y006938D01*
X053777Y006863D02*
X053740Y006827D01*
X053740Y006753D01*
X053777Y006717D01*
X053813Y006717D01*
X053850Y006753D01*
X053850Y006827D01*
X053887Y006863D01*
X053923Y006863D01*
X053960Y006827D01*
X053960Y006753D01*
X053923Y006717D01*
X053960Y006642D02*
X053740Y006642D01*
X053813Y006569D01*
X053740Y006496D01*
X053960Y006496D01*
X054740Y006496D02*
X054740Y006606D01*
X054777Y006642D01*
X054850Y006642D01*
X054887Y006606D01*
X054887Y006496D01*
X054960Y006496D02*
X054740Y006496D01*
X054887Y006569D02*
X054960Y006642D01*
X054923Y006717D02*
X054960Y006753D01*
X054960Y006827D01*
X054923Y006863D01*
X054887Y006863D01*
X054850Y006827D01*
X054850Y006753D01*
X054813Y006717D01*
X054777Y006717D01*
X054740Y006753D01*
X054740Y006827D01*
X054777Y006863D01*
X054740Y006938D02*
X054740Y007084D01*
X054740Y007011D02*
X054960Y007011D01*
X053960Y006974D02*
X053923Y006938D01*
X053960Y006974D02*
X053960Y007048D01*
X053923Y007084D01*
X053887Y007084D01*
X053850Y007048D01*
X053850Y007011D01*
X053850Y007048D02*
X053813Y007084D01*
X053777Y007084D01*
X053740Y007048D01*
X051960Y007084D02*
X051960Y006938D01*
X051960Y007011D02*
X051740Y007011D01*
X051813Y006938D01*
X051777Y006863D02*
X051740Y006827D01*
X051740Y006753D01*
X051777Y006717D01*
X051813Y006717D01*
X051850Y006753D01*
X051850Y006827D01*
X051887Y006863D01*
X051923Y006863D01*
X051960Y006827D01*
X051960Y006753D01*
X051923Y006717D01*
X051960Y006642D02*
X051740Y006642D01*
X051813Y006569D01*
X051740Y006496D01*
X051960Y006496D01*
X050960Y006496D02*
X050960Y006642D01*
X050960Y006717D02*
X050740Y006717D01*
X050960Y006863D01*
X050740Y006863D01*
X050740Y006642D02*
X050740Y006496D01*
X050960Y006496D01*
X050850Y006496D02*
X050850Y006569D01*
X055740Y006532D02*
X055777Y006496D01*
X055813Y006496D01*
X055850Y006532D01*
X055850Y006606D01*
X055887Y006642D01*
X055923Y006642D01*
X055960Y006606D01*
X055960Y006532D01*
X055923Y006496D01*
X055740Y006532D02*
X055740Y006606D01*
X055777Y006642D01*
X055740Y006717D02*
X055960Y006717D01*
X055960Y006863D01*
X055960Y006938D02*
X055740Y006938D01*
X055740Y007048D01*
X055777Y007084D01*
X055850Y007084D01*
X055887Y007048D01*
X055887Y006938D01*
X056740Y006938D02*
X056740Y007084D01*
X056740Y007159D02*
X056740Y007269D01*
X056777Y007305D01*
X056850Y007305D01*
X056887Y007269D01*
X056887Y007159D01*
X056960Y007159D02*
X056740Y007159D01*
X056850Y007011D02*
X056850Y006938D01*
X056740Y006938D02*
X056960Y006938D01*
X056960Y007084D01*
X056740Y006863D02*
X056740Y006717D01*
X056740Y006790D02*
X056960Y006790D01*
X056923Y006642D02*
X056960Y006606D01*
X056960Y006532D01*
X056923Y006496D01*
X056850Y006532D02*
X056850Y006606D01*
X056887Y006642D01*
X056923Y006642D01*
X056850Y006532D02*
X056813Y006496D01*
X056777Y006496D01*
X056740Y006532D01*
X056740Y006606D01*
X056777Y006642D01*
X057740Y006606D02*
X057740Y006496D01*
X057960Y006496D01*
X057960Y006606D01*
X057923Y006642D01*
X057777Y006642D01*
X057740Y006606D01*
X057740Y006717D02*
X057740Y006790D01*
X057740Y006753D02*
X057960Y006753D01*
X057960Y006717D02*
X057960Y006790D01*
X057960Y006864D02*
X057740Y006864D01*
X057740Y006974D01*
X057777Y007011D01*
X057850Y007011D01*
X057887Y006974D01*
X057887Y006864D01*
X057887Y006937D02*
X057960Y007011D01*
X050700Y009759D02*
X050627Y009685D01*
X050480Y009685D01*
X050480Y009832D02*
X050627Y009832D01*
X050700Y009759D01*
X050700Y009906D02*
X050553Y009906D01*
X050553Y009943D01*
X050590Y009980D01*
X050553Y010016D01*
X050590Y010053D01*
X050700Y010053D01*
X050700Y009980D02*
X050590Y009980D01*
X050590Y010127D02*
X050663Y010127D01*
X050700Y010164D01*
X050700Y010237D01*
X050663Y010274D01*
X050590Y010274D01*
X050553Y010237D01*
X050553Y010164D01*
X050590Y010127D01*
X050553Y010348D02*
X050553Y010422D01*
X050517Y010385D02*
X050663Y010385D01*
X050700Y010422D01*
X051480Y010385D02*
X051480Y010275D01*
X051700Y010275D01*
X051700Y010385D01*
X051663Y010421D01*
X051517Y010421D01*
X051480Y010385D01*
X051480Y010200D02*
X051700Y010200D01*
X051480Y010054D01*
X051700Y010054D01*
X051663Y009979D02*
X051590Y009979D01*
X051590Y009906D01*
X051663Y009833D02*
X051700Y009869D01*
X051700Y009943D01*
X051663Y009979D01*
X051663Y009833D02*
X051517Y009833D01*
X051480Y009869D01*
X051480Y009943D01*
X051517Y009979D01*
X052480Y010090D02*
X052480Y010164D01*
X052517Y010200D01*
X052553Y010200D01*
X052700Y010054D01*
X052700Y010200D01*
X052700Y010275D02*
X052700Y010385D01*
X052663Y010421D01*
X052627Y010421D01*
X052590Y010385D01*
X052590Y010275D01*
X052590Y010385D02*
X052553Y010421D01*
X052517Y010421D01*
X052480Y010385D01*
X052480Y010275D01*
X052700Y010275D01*
X052517Y010054D02*
X052480Y010090D01*
X053480Y010090D02*
X053517Y010054D01*
X053480Y010090D02*
X053480Y010164D01*
X053517Y010200D01*
X053553Y010200D01*
X053700Y010054D01*
X053700Y010200D01*
X053700Y010275D02*
X053553Y010275D01*
X053480Y010348D01*
X053553Y010421D01*
X053700Y010421D01*
X053590Y010421D02*
X053590Y010275D01*
X054480Y010348D02*
X054553Y010275D01*
X054700Y010275D01*
X054700Y010200D02*
X054700Y010054D01*
X054700Y010127D02*
X054480Y010127D01*
X054553Y010054D01*
X054590Y010275D02*
X054590Y010421D01*
X054553Y010421D02*
X054700Y010421D01*
X054553Y010421D02*
X054480Y010348D01*
X055480Y010385D02*
X055480Y010275D01*
X055700Y010275D01*
X055700Y010385D01*
X055663Y010421D01*
X055627Y010421D01*
X055590Y010385D01*
X055590Y010275D01*
X055590Y010385D02*
X055553Y010421D01*
X055517Y010421D01*
X055480Y010385D01*
X055480Y010127D02*
X055700Y010127D01*
X055700Y010054D02*
X055700Y010200D01*
X055553Y010054D02*
X055480Y010127D01*
X056480Y010164D02*
X056480Y010054D01*
X056700Y010054D01*
X056700Y010164D01*
X056663Y010200D01*
X056517Y010200D01*
X056480Y010164D01*
X056480Y010275D02*
X056480Y010385D01*
X056517Y010421D01*
X056663Y010421D01*
X056700Y010385D01*
X056700Y010275D01*
X056480Y010275D01*
X056480Y009979D02*
X056627Y009979D01*
X056700Y009906D01*
X056627Y009833D01*
X056480Y009833D01*
X057480Y009869D02*
X057480Y009943D01*
X057517Y009979D01*
X057590Y009979D02*
X057590Y009906D01*
X057590Y009979D02*
X057663Y009979D01*
X057700Y009943D01*
X057700Y009869D01*
X057663Y009833D01*
X057517Y009833D01*
X057480Y009869D01*
X057480Y010054D02*
X057700Y010200D01*
X057480Y010200D01*
X057480Y010275D02*
X057480Y010385D01*
X057517Y010421D01*
X057663Y010421D01*
X057700Y010385D01*
X057700Y010275D01*
X057480Y010275D01*
X057480Y010054D02*
X057700Y010054D01*
X044700Y010054D02*
X044480Y010054D01*
X044700Y010200D01*
X044480Y010200D01*
X044480Y010275D02*
X044480Y010385D01*
X044517Y010421D01*
X044663Y010421D01*
X044700Y010385D01*
X044700Y010275D01*
X044480Y010275D01*
X044517Y009979D02*
X044480Y009943D01*
X044480Y009869D01*
X044517Y009833D01*
X044663Y009833D01*
X044700Y009869D01*
X044700Y009943D01*
X044663Y009979D01*
X044590Y009979D01*
X044590Y009906D01*
X043700Y009906D02*
X043627Y009979D01*
X043480Y009979D01*
X043480Y010054D02*
X043480Y010164D01*
X043517Y010200D01*
X043663Y010200D01*
X043700Y010164D01*
X043700Y010054D01*
X043480Y010054D01*
X043480Y010275D02*
X043480Y010385D01*
X043517Y010421D01*
X043663Y010421D01*
X043700Y010385D01*
X043700Y010275D01*
X043480Y010275D01*
X043700Y009906D02*
X043627Y009833D01*
X043480Y009833D01*
X042700Y010054D02*
X042700Y010200D01*
X042700Y010127D02*
X042480Y010127D01*
X042553Y010054D01*
X042590Y010275D02*
X042590Y010385D01*
X042627Y010421D01*
X042663Y010421D01*
X042700Y010385D01*
X042700Y010275D01*
X042480Y010275D01*
X042480Y010385D01*
X042517Y010421D01*
X042553Y010421D01*
X042590Y010385D01*
X041700Y010421D02*
X041553Y010421D01*
X041480Y010348D01*
X041553Y010275D01*
X041700Y010275D01*
X041700Y010200D02*
X041700Y010054D01*
X041700Y010127D02*
X041480Y010127D01*
X041553Y010054D01*
X041590Y010275D02*
X041590Y010421D01*
X040700Y010421D02*
X040553Y010421D01*
X040480Y010348D01*
X040553Y010275D01*
X040700Y010275D01*
X040700Y010200D02*
X040700Y010054D01*
X040553Y010200D01*
X040517Y010200D01*
X040480Y010164D01*
X040480Y010090D01*
X040517Y010054D01*
X040590Y010275D02*
X040590Y010421D01*
X039700Y010385D02*
X039700Y010275D01*
X039480Y010275D01*
X039480Y010385D01*
X039517Y010421D01*
X039553Y010421D01*
X039590Y010385D01*
X039590Y010275D01*
X039553Y010200D02*
X039517Y010200D01*
X039480Y010164D01*
X039480Y010090D01*
X039517Y010054D01*
X039553Y010200D02*
X039700Y010054D01*
X039700Y010200D01*
X039700Y010385D02*
X039663Y010421D01*
X039627Y010421D01*
X039590Y010385D01*
X038700Y010385D02*
X038700Y010275D01*
X038480Y010275D01*
X038480Y010385D01*
X038517Y010421D01*
X038663Y010421D01*
X038700Y010385D01*
X038700Y010200D02*
X038480Y010200D01*
X038480Y010054D02*
X038700Y010200D01*
X038700Y010054D02*
X038480Y010054D01*
X038517Y009979D02*
X038480Y009943D01*
X038480Y009869D01*
X038517Y009833D01*
X038663Y009833D01*
X038700Y009869D01*
X038700Y009943D01*
X038663Y009979D01*
X038590Y009979D01*
X038590Y009906D01*
X037700Y009906D02*
X037553Y009906D01*
X037553Y009943D01*
X037590Y009980D01*
X037553Y010016D01*
X037590Y010053D01*
X037700Y010053D01*
X037700Y009980D02*
X037590Y009980D01*
X037590Y010127D02*
X037663Y010127D01*
X037700Y010164D01*
X037700Y010237D01*
X037663Y010274D01*
X037590Y010274D01*
X037553Y010237D01*
X037553Y010164D01*
X037590Y010127D01*
X037553Y010348D02*
X037553Y010422D01*
X037517Y010385D02*
X037663Y010385D01*
X037700Y010422D01*
X037627Y009832D02*
X037480Y009832D01*
X037627Y009832D02*
X037700Y009759D01*
X037627Y009685D01*
X037480Y009685D01*
X031700Y009869D02*
X031700Y009943D01*
X031663Y009979D01*
X031590Y009979D01*
X031590Y009906D01*
X031663Y009833D02*
X031700Y009869D01*
X031663Y009833D02*
X031517Y009833D01*
X031480Y009869D01*
X031480Y009943D01*
X031517Y009979D01*
X031480Y010054D02*
X031700Y010200D01*
X031480Y010200D01*
X031480Y010275D02*
X031480Y010385D01*
X031517Y010421D01*
X031663Y010421D01*
X031700Y010385D01*
X031700Y010275D01*
X031480Y010275D01*
X031480Y010054D02*
X031700Y010054D01*
X030700Y010054D02*
X030700Y010164D01*
X030663Y010200D01*
X030517Y010200D01*
X030480Y010164D01*
X030480Y010054D01*
X030700Y010054D01*
X030627Y009979D02*
X030480Y009979D01*
X030480Y009833D02*
X030627Y009833D01*
X030700Y009906D01*
X030627Y009979D01*
X030700Y010275D02*
X030480Y010275D01*
X030480Y010385D01*
X030517Y010421D01*
X030663Y010421D01*
X030700Y010385D01*
X030700Y010275D01*
X029700Y010275D02*
X029700Y010385D01*
X029663Y010421D01*
X029627Y010421D01*
X029590Y010385D01*
X029590Y010275D01*
X029590Y010385D02*
X029553Y010421D01*
X029517Y010421D01*
X029480Y010385D01*
X029480Y010275D01*
X029700Y010275D01*
X029700Y010200D02*
X029700Y010054D01*
X029700Y010127D02*
X029480Y010127D01*
X029553Y010054D01*
X028700Y010054D02*
X028700Y010200D01*
X028700Y010127D02*
X028480Y010127D01*
X028553Y010054D01*
X028553Y010275D02*
X028480Y010348D01*
X028553Y010421D01*
X028700Y010421D01*
X028590Y010421D02*
X028590Y010275D01*
X028553Y010275D02*
X028700Y010275D01*
X027700Y010275D02*
X027553Y010275D01*
X027480Y010348D01*
X027553Y010421D01*
X027700Y010421D01*
X027590Y010421D02*
X027590Y010275D01*
X027553Y010200D02*
X027517Y010200D01*
X027480Y010164D01*
X027480Y010090D01*
X027517Y010054D01*
X027553Y010200D02*
X027700Y010054D01*
X027700Y010200D01*
X026700Y010200D02*
X026700Y010054D01*
X026553Y010200D01*
X026517Y010200D01*
X026480Y010164D01*
X026480Y010090D01*
X026517Y010054D01*
X026480Y010275D02*
X026480Y010385D01*
X026517Y010421D01*
X026553Y010421D01*
X026590Y010385D01*
X026590Y010275D01*
X026590Y010385D02*
X026627Y010421D01*
X026663Y010421D01*
X026700Y010385D01*
X026700Y010275D01*
X026480Y010275D01*
X025700Y010275D02*
X025700Y010385D01*
X025663Y010421D01*
X025517Y010421D01*
X025480Y010385D01*
X025480Y010275D01*
X025700Y010275D01*
X025700Y010200D02*
X025480Y010200D01*
X025480Y010054D02*
X025700Y010200D01*
X025700Y010054D02*
X025480Y010054D01*
X025517Y009979D02*
X025480Y009943D01*
X025480Y009869D01*
X025517Y009833D01*
X025663Y009833D01*
X025700Y009869D01*
X025700Y009943D01*
X025663Y009979D01*
X025590Y009979D01*
X025590Y009906D01*
X024700Y009906D02*
X024553Y009906D01*
X024553Y009943D01*
X024590Y009980D01*
X024553Y010016D01*
X024590Y010053D01*
X024700Y010053D01*
X024700Y009980D02*
X024590Y009980D01*
X024590Y010127D02*
X024663Y010127D01*
X024700Y010164D01*
X024700Y010237D01*
X024663Y010274D01*
X024590Y010274D01*
X024553Y010237D01*
X024553Y010164D01*
X024590Y010127D01*
X024553Y010348D02*
X024553Y010422D01*
X024517Y010385D02*
X024663Y010385D01*
X024700Y010422D01*
X024627Y009832D02*
X024480Y009832D01*
X024627Y009832D02*
X024700Y009759D01*
X024627Y009685D01*
X024480Y009685D01*
X018700Y009869D02*
X018700Y009943D01*
X018663Y009979D01*
X018590Y009979D01*
X018590Y009906D01*
X018663Y009833D02*
X018700Y009869D01*
X018663Y009833D02*
X018517Y009833D01*
X018480Y009869D01*
X018480Y009943D01*
X018517Y009979D01*
X018480Y010054D02*
X018700Y010200D01*
X018480Y010200D01*
X018480Y010275D02*
X018480Y010385D01*
X018517Y010421D01*
X018663Y010421D01*
X018700Y010385D01*
X018700Y010275D01*
X018480Y010275D01*
X018480Y010054D02*
X018700Y010054D01*
X017700Y010054D02*
X017700Y010164D01*
X017663Y010200D01*
X017517Y010200D01*
X017480Y010164D01*
X017480Y010054D01*
X017700Y010054D01*
X017627Y009979D02*
X017480Y009979D01*
X017480Y009833D02*
X017627Y009833D01*
X017700Y009906D01*
X017627Y009979D01*
X017700Y010275D02*
X017700Y010385D01*
X017663Y010421D01*
X017517Y010421D01*
X017480Y010385D01*
X017480Y010275D01*
X017700Y010275D01*
X016700Y010275D02*
X016700Y010385D01*
X016663Y010421D01*
X016627Y010421D01*
X016590Y010385D01*
X016590Y010275D01*
X016590Y010385D02*
X016553Y010421D01*
X016517Y010421D01*
X016480Y010385D01*
X016480Y010275D01*
X016700Y010275D01*
X016700Y010200D02*
X016700Y010054D01*
X016700Y010127D02*
X016480Y010127D01*
X016553Y010054D01*
X015700Y010054D02*
X015700Y010200D01*
X015700Y010127D02*
X015480Y010127D01*
X015553Y010054D01*
X015553Y010275D02*
X015480Y010348D01*
X015553Y010421D01*
X015700Y010421D01*
X015590Y010421D02*
X015590Y010275D01*
X015553Y010275D02*
X015700Y010275D01*
X014700Y010275D02*
X014553Y010275D01*
X014480Y010348D01*
X014553Y010421D01*
X014700Y010421D01*
X014590Y010421D02*
X014590Y010275D01*
X014553Y010200D02*
X014517Y010200D01*
X014480Y010164D01*
X014480Y010090D01*
X014517Y010054D01*
X014553Y010200D02*
X014700Y010054D01*
X014700Y010200D01*
X013700Y010200D02*
X013700Y010054D01*
X013553Y010200D01*
X013517Y010200D01*
X013480Y010164D01*
X013480Y010090D01*
X013517Y010054D01*
X013480Y010275D02*
X013480Y010385D01*
X013517Y010421D01*
X013553Y010421D01*
X013590Y010385D01*
X013590Y010275D01*
X013590Y010385D02*
X013627Y010421D01*
X013663Y010421D01*
X013700Y010385D01*
X013700Y010275D01*
X013480Y010275D01*
X012700Y010275D02*
X012700Y010385D01*
X012663Y010421D01*
X012517Y010421D01*
X012480Y010385D01*
X012480Y010275D01*
X012700Y010275D01*
X012700Y010200D02*
X012480Y010200D01*
X012480Y010054D02*
X012700Y010200D01*
X012700Y010054D02*
X012480Y010054D01*
X012517Y009979D02*
X012480Y009943D01*
X012480Y009869D01*
X012517Y009833D01*
X012663Y009833D01*
X012700Y009869D01*
X012700Y009943D01*
X012663Y009979D01*
X012590Y009979D01*
X012590Y009906D01*
X011700Y009906D02*
X011553Y009906D01*
X011553Y009943D01*
X011590Y009980D01*
X011553Y010016D01*
X011590Y010053D01*
X011700Y010053D01*
X011700Y009980D02*
X011590Y009980D01*
X011590Y010127D02*
X011663Y010127D01*
X011700Y010164D01*
X011700Y010237D01*
X011663Y010274D01*
X011590Y010274D01*
X011553Y010237D01*
X011553Y010164D01*
X011590Y010127D01*
X011553Y010348D02*
X011553Y010422D01*
X011517Y010385D02*
X011663Y010385D01*
X011700Y010422D01*
X011627Y009832D02*
X011480Y009832D01*
X011627Y009832D02*
X011700Y009759D01*
X011627Y009685D01*
X011480Y009685D01*
X005156Y009689D02*
X005156Y009616D01*
X005119Y009579D01*
X005009Y009579D01*
X005009Y009506D02*
X005009Y009726D01*
X005119Y009726D01*
X005156Y009689D01*
X004935Y009506D02*
X004788Y009506D01*
X004788Y009726D01*
X004714Y009689D02*
X004677Y009726D01*
X004604Y009726D01*
X004567Y009689D01*
X004567Y009652D01*
X004604Y009616D01*
X004677Y009616D01*
X004714Y009579D01*
X004714Y009542D01*
X004677Y009506D01*
X004604Y009506D01*
X004567Y009542D01*
X004640Y010506D02*
X004640Y010726D01*
X004567Y010726D02*
X004714Y010726D01*
X004788Y010726D02*
X004788Y010506D01*
X004935Y010506D01*
X005009Y010506D02*
X005009Y010726D01*
X005119Y010726D01*
X005156Y010689D01*
X005156Y010616D01*
X005119Y010579D01*
X005009Y010579D01*
X004861Y010616D02*
X004788Y010616D01*
X004788Y010726D02*
X004935Y010726D01*
X004493Y010689D02*
X004456Y010726D01*
X004383Y010726D01*
X004346Y010689D01*
X004346Y010652D01*
X004383Y010616D01*
X004456Y010616D01*
X004493Y010579D01*
X004493Y010542D01*
X004456Y010506D01*
X004383Y010506D01*
X004346Y010542D01*
X004641Y011506D02*
X004751Y011506D01*
X004787Y011542D01*
X004787Y011689D01*
X004751Y011726D01*
X004641Y011726D01*
X004641Y011506D01*
X004862Y011506D02*
X004935Y011506D01*
X004898Y011506D02*
X004898Y011726D01*
X004862Y011726D02*
X004935Y011726D01*
X005009Y011726D02*
X005119Y011726D01*
X005156Y011689D01*
X005156Y011616D01*
X005119Y011579D01*
X005009Y011579D01*
X005009Y011506D02*
X005009Y011726D01*
X005082Y011579D02*
X005156Y011506D01*
X001819Y011429D02*
X001819Y011282D01*
X001782Y011246D01*
X001672Y011246D01*
X001672Y011466D01*
X001782Y011466D01*
X001819Y011429D01*
X001598Y011466D02*
X001598Y011246D01*
X001451Y011466D01*
X001451Y011246D01*
X001377Y011282D02*
X001377Y011356D01*
X001303Y011356D01*
X001230Y011429D02*
X001230Y011282D01*
X001267Y011246D01*
X001340Y011246D01*
X001377Y011282D01*
X001377Y011429D02*
X001340Y011466D01*
X001267Y011466D01*
X001230Y011429D01*
X001230Y010466D02*
X001230Y010319D01*
X001303Y010246D01*
X001377Y010319D01*
X001377Y010466D01*
X001451Y010466D02*
X001561Y010466D01*
X001598Y010429D01*
X001598Y010282D01*
X001561Y010246D01*
X001451Y010246D01*
X001451Y010466D01*
X001672Y010466D02*
X001782Y010466D01*
X001819Y010429D01*
X001819Y010282D01*
X001782Y010246D01*
X001672Y010246D01*
X001672Y010466D01*
X001561Y009466D02*
X001598Y009429D01*
X001598Y009392D01*
X001561Y009356D01*
X001451Y009356D01*
X001451Y009466D02*
X001561Y009466D01*
X001451Y009466D02*
X001451Y009246D01*
X001561Y009246D01*
X001598Y009282D01*
X001598Y009319D01*
X001561Y009356D01*
X001377Y009246D02*
X001230Y009246D01*
X001303Y009246D02*
X001303Y009466D01*
X001230Y009392D01*
X001303Y008466D02*
X001303Y008246D01*
X001230Y008246D02*
X001377Y008246D01*
X001451Y008246D02*
X001451Y008392D01*
X001524Y008466D01*
X001598Y008392D01*
X001598Y008246D01*
X001598Y008356D02*
X001451Y008356D01*
X001303Y008466D02*
X001230Y008392D01*
X001267Y007466D02*
X001230Y007429D01*
X001267Y007466D02*
X001340Y007466D01*
X001377Y007429D01*
X001377Y007392D01*
X001230Y007246D01*
X001377Y007246D01*
X001451Y007246D02*
X001451Y007392D01*
X001524Y007466D01*
X001598Y007392D01*
X001598Y007246D01*
X001598Y007356D02*
X001451Y007356D01*
X001451Y006466D02*
X001561Y006466D01*
X001598Y006429D01*
X001598Y006392D01*
X001561Y006356D01*
X001451Y006356D01*
X001377Y006392D02*
X001377Y006429D01*
X001340Y006466D01*
X001267Y006466D01*
X001230Y006429D01*
X001377Y006392D02*
X001230Y006246D01*
X001377Y006246D01*
X001451Y006246D02*
X001561Y006246D01*
X001598Y006282D01*
X001598Y006319D01*
X001561Y006356D01*
X001451Y006246D02*
X001451Y006466D01*
X001451Y005466D02*
X001598Y005246D01*
X001598Y005466D01*
X001672Y005466D02*
X001782Y005466D01*
X001819Y005429D01*
X001819Y005282D01*
X001782Y005246D01*
X001672Y005246D01*
X001672Y005466D01*
X001451Y005466D02*
X001451Y005246D01*
X001377Y005282D02*
X001340Y005246D01*
X001267Y005246D01*
X001230Y005282D01*
X001230Y005429D01*
X001267Y005466D01*
X001340Y005466D01*
X001377Y005429D01*
X001377Y005356D02*
X001303Y005356D01*
X001377Y005356D02*
X001377Y005282D01*
X001377Y004466D02*
X001377Y004319D01*
X001303Y004246D01*
X001230Y004319D01*
X001230Y004466D01*
X001451Y004392D02*
X001488Y004392D01*
X001524Y004356D01*
X001561Y004392D01*
X001598Y004356D01*
X001598Y004246D01*
X001524Y004246D02*
X001524Y004356D01*
X001451Y004392D02*
X001451Y004246D01*
X001672Y004282D02*
X001709Y004246D01*
X001782Y004246D01*
X001819Y004282D01*
X001819Y004356D01*
X001782Y004392D01*
X001709Y004392D01*
X001672Y004356D01*
X001672Y004282D01*
X001893Y004392D02*
X001966Y004392D01*
X001930Y004429D02*
X001930Y004282D01*
X001966Y004246D01*
X004788Y004506D02*
X004935Y004506D01*
X005009Y004506D02*
X005009Y004726D01*
X005156Y004506D01*
X005156Y004726D01*
X004935Y004726D02*
X004788Y004726D01*
X004788Y004506D01*
X004788Y004616D02*
X004861Y004616D01*
X004825Y005506D02*
X004788Y005542D01*
X004825Y005506D02*
X004898Y005506D01*
X004935Y005542D01*
X004935Y005579D01*
X004898Y005616D01*
X004825Y005616D01*
X004788Y005652D01*
X004788Y005689D01*
X004825Y005726D01*
X004898Y005726D01*
X004935Y005689D01*
X005009Y005652D02*
X005082Y005726D01*
X005082Y005506D01*
X005009Y005506D02*
X005156Y005506D01*
X004714Y005506D02*
X004714Y005726D01*
X004640Y005652D01*
X004567Y005726D01*
X004567Y005506D01*
X004567Y006506D02*
X004567Y006726D01*
X004640Y006652D01*
X004714Y006726D01*
X004714Y006506D01*
X004788Y006542D02*
X004825Y006506D01*
X004898Y006506D01*
X004935Y006542D01*
X004935Y006579D01*
X004898Y006616D01*
X004825Y006616D01*
X004788Y006652D01*
X004788Y006689D01*
X004825Y006726D01*
X004898Y006726D01*
X004935Y006689D01*
X005009Y006689D02*
X005046Y006726D01*
X005119Y006726D01*
X005156Y006689D01*
X005156Y006652D01*
X005009Y006506D01*
X005156Y006506D01*
X005119Y007506D02*
X005046Y007506D01*
X005009Y007542D01*
X004935Y007542D02*
X004898Y007506D01*
X004825Y007506D01*
X004788Y007542D01*
X004825Y007616D02*
X004898Y007616D01*
X004935Y007579D01*
X004935Y007542D01*
X004825Y007616D02*
X004788Y007652D01*
X004788Y007689D01*
X004825Y007726D01*
X004898Y007726D01*
X004935Y007689D01*
X005009Y007689D02*
X005046Y007726D01*
X005119Y007726D01*
X005156Y007689D01*
X005156Y007652D01*
X005119Y007616D01*
X005156Y007579D01*
X005156Y007542D01*
X005119Y007506D01*
X005119Y007616D02*
X005082Y007616D01*
X004714Y007726D02*
X004714Y007506D01*
X004567Y007506D02*
X004567Y007726D01*
X004640Y007652D01*
X004714Y007726D01*
X004714Y008506D02*
X004640Y008579D01*
X004677Y008579D02*
X004567Y008579D01*
X004567Y008506D02*
X004567Y008726D01*
X004677Y008726D01*
X004714Y008689D01*
X004714Y008616D01*
X004677Y008579D01*
X004788Y008542D02*
X004825Y008506D01*
X004898Y008506D01*
X004935Y008542D01*
X004935Y008579D01*
X004898Y008616D01*
X004825Y008616D01*
X004788Y008652D01*
X004788Y008689D01*
X004825Y008726D01*
X004898Y008726D01*
X004935Y008689D01*
X005009Y008726D02*
X005156Y008726D01*
X005082Y008726D02*
X005082Y008506D01*
X011740Y006863D02*
X011960Y006863D01*
X011740Y006717D01*
X011960Y006717D01*
X011960Y006642D02*
X011960Y006496D01*
X011740Y006496D01*
X011740Y006642D01*
X011850Y006569D02*
X011850Y006496D01*
X012740Y006496D02*
X012813Y006569D01*
X012740Y006642D01*
X012960Y006642D01*
X012923Y006717D02*
X012960Y006753D01*
X012960Y006827D01*
X012923Y006863D01*
X012887Y006863D01*
X012850Y006827D01*
X012850Y006753D01*
X012813Y006717D01*
X012777Y006717D01*
X012740Y006753D01*
X012740Y006827D01*
X012777Y006863D01*
X012813Y006938D02*
X012740Y007011D01*
X012960Y007011D01*
X012960Y006938D02*
X012960Y007084D01*
X013740Y007048D02*
X013740Y006974D01*
X013777Y006938D01*
X013777Y006863D02*
X013740Y006827D01*
X013740Y006753D01*
X013777Y006717D01*
X013813Y006717D01*
X013850Y006753D01*
X013850Y006827D01*
X013887Y006863D01*
X013923Y006863D01*
X013960Y006827D01*
X013960Y006753D01*
X013923Y006717D01*
X013960Y006642D02*
X013740Y006642D01*
X013813Y006569D01*
X013740Y006496D01*
X013960Y006496D01*
X012960Y006496D02*
X012740Y006496D01*
X013813Y007084D02*
X013960Y006938D01*
X013960Y007084D01*
X013813Y007084D02*
X013777Y007084D01*
X013740Y007048D01*
X014740Y007048D02*
X014740Y006974D01*
X014777Y006938D01*
X014777Y006863D02*
X014740Y006827D01*
X014740Y006753D01*
X014777Y006717D01*
X014813Y006717D01*
X014850Y006753D01*
X014850Y006827D01*
X014887Y006863D01*
X014923Y006863D01*
X014960Y006827D01*
X014960Y006753D01*
X014923Y006717D01*
X014960Y006642D02*
X014740Y006642D01*
X014813Y006569D01*
X014740Y006496D01*
X014960Y006496D01*
X015740Y006496D02*
X015740Y006606D01*
X015777Y006642D01*
X015850Y006642D01*
X015887Y006606D01*
X015887Y006496D01*
X015960Y006496D02*
X015740Y006496D01*
X015887Y006569D02*
X015960Y006642D01*
X015923Y006717D02*
X015960Y006753D01*
X015960Y006827D01*
X015923Y006863D01*
X015887Y006863D01*
X015850Y006827D01*
X015850Y006753D01*
X015813Y006717D01*
X015777Y006717D01*
X015740Y006753D01*
X015740Y006827D01*
X015777Y006863D01*
X015740Y006938D02*
X015740Y007084D01*
X015740Y007011D02*
X015960Y007011D01*
X016740Y007048D02*
X016740Y006938D01*
X016960Y006938D01*
X016887Y006938D02*
X016887Y007048D01*
X016850Y007084D01*
X016777Y007084D01*
X016740Y007048D01*
X016960Y006863D02*
X016960Y006717D01*
X016740Y006717D01*
X016777Y006642D02*
X016740Y006606D01*
X016740Y006532D01*
X016777Y006496D01*
X016813Y006496D01*
X016850Y006532D01*
X016850Y006606D01*
X016887Y006642D01*
X016923Y006642D01*
X016960Y006606D01*
X016960Y006532D01*
X016923Y006496D01*
X017740Y006532D02*
X017777Y006496D01*
X017813Y006496D01*
X017850Y006532D01*
X017850Y006606D01*
X017887Y006642D01*
X017923Y006642D01*
X017960Y006606D01*
X017960Y006532D01*
X017923Y006496D01*
X017740Y006532D02*
X017740Y006606D01*
X017777Y006642D01*
X017740Y006717D02*
X017740Y006863D01*
X017740Y006790D02*
X017960Y006790D01*
X017960Y006938D02*
X017740Y006938D01*
X017740Y007084D01*
X017740Y007159D02*
X017740Y007269D01*
X017777Y007305D01*
X017850Y007305D01*
X017887Y007269D01*
X017887Y007159D01*
X017960Y007159D02*
X017740Y007159D01*
X017850Y007011D02*
X017850Y006938D01*
X017960Y006938D02*
X017960Y007084D01*
X018740Y006974D02*
X018777Y007011D01*
X018850Y007011D01*
X018887Y006974D01*
X018887Y006864D01*
X018960Y006864D02*
X018740Y006864D01*
X018740Y006974D01*
X018887Y006937D02*
X018960Y007011D01*
X018960Y006790D02*
X018960Y006717D01*
X018960Y006753D02*
X018740Y006753D01*
X018740Y006717D02*
X018740Y006790D01*
X018777Y006642D02*
X018740Y006606D01*
X018740Y006496D01*
X018960Y006496D01*
X018960Y006606D01*
X018923Y006642D01*
X018777Y006642D01*
X014960Y006974D02*
X014923Y006938D01*
X014960Y006974D02*
X014960Y007048D01*
X014923Y007084D01*
X014887Y007084D01*
X014850Y007048D01*
X014850Y007011D01*
X014850Y007048D02*
X014813Y007084D01*
X014777Y007084D01*
X014740Y007048D01*
X024740Y006863D02*
X024960Y006863D01*
X024740Y006717D01*
X024960Y006717D01*
X024960Y006642D02*
X024960Y006496D01*
X024740Y006496D01*
X024740Y006642D01*
X024850Y006569D02*
X024850Y006496D01*
X025740Y006496D02*
X025813Y006569D01*
X025740Y006642D01*
X025960Y006642D01*
X025923Y006717D02*
X025960Y006753D01*
X025960Y006827D01*
X025923Y006863D01*
X025887Y006863D01*
X025850Y006827D01*
X025850Y006753D01*
X025813Y006717D01*
X025777Y006717D01*
X025740Y006753D01*
X025740Y006827D01*
X025777Y006863D01*
X025813Y006938D02*
X025740Y007011D01*
X025960Y007011D01*
X025960Y006938D02*
X025960Y007084D01*
X026740Y007048D02*
X026740Y006974D01*
X026777Y006938D01*
X026777Y006863D02*
X026740Y006827D01*
X026740Y006753D01*
X026777Y006717D01*
X026813Y006717D01*
X026850Y006753D01*
X026850Y006827D01*
X026887Y006863D01*
X026923Y006863D01*
X026960Y006827D01*
X026960Y006753D01*
X026923Y006717D01*
X026960Y006642D02*
X026740Y006642D01*
X026813Y006569D01*
X026740Y006496D01*
X026960Y006496D01*
X027740Y006496D02*
X027813Y006569D01*
X027740Y006642D01*
X027960Y006642D01*
X027923Y006717D02*
X027960Y006753D01*
X027960Y006827D01*
X027923Y006863D01*
X027887Y006863D01*
X027850Y006827D01*
X027850Y006753D01*
X027813Y006717D01*
X027777Y006717D01*
X027740Y006753D01*
X027740Y006827D01*
X027777Y006863D01*
X027777Y006938D02*
X027740Y006974D01*
X027740Y007048D01*
X027777Y007084D01*
X027813Y007084D01*
X027850Y007048D01*
X027887Y007084D01*
X027923Y007084D01*
X027960Y007048D01*
X027960Y006974D01*
X027923Y006938D01*
X027850Y007011D02*
X027850Y007048D01*
X028740Y007084D02*
X028740Y006938D01*
X028740Y007011D02*
X028960Y007011D01*
X028923Y006863D02*
X028960Y006827D01*
X028960Y006753D01*
X028923Y006717D01*
X028850Y006753D02*
X028850Y006827D01*
X028887Y006863D01*
X028923Y006863D01*
X028850Y006753D02*
X028813Y006717D01*
X028777Y006717D01*
X028740Y006753D01*
X028740Y006827D01*
X028777Y006863D01*
X028777Y006642D02*
X028850Y006642D01*
X028887Y006606D01*
X028887Y006496D01*
X028960Y006496D02*
X028740Y006496D01*
X028740Y006606D01*
X028777Y006642D01*
X028887Y006569D02*
X028960Y006642D01*
X029740Y006606D02*
X029740Y006532D01*
X029777Y006496D01*
X029813Y006496D01*
X029850Y006532D01*
X029850Y006606D01*
X029887Y006642D01*
X029923Y006642D01*
X029960Y006606D01*
X029960Y006532D01*
X029923Y006496D01*
X029777Y006642D02*
X029740Y006606D01*
X029740Y006717D02*
X029960Y006717D01*
X029960Y006863D01*
X029960Y006938D02*
X029740Y006938D01*
X029740Y007048D01*
X029777Y007084D01*
X029850Y007084D01*
X029887Y007048D01*
X029887Y006938D01*
X030740Y006938D02*
X030960Y006938D01*
X030960Y007084D01*
X030960Y007159D02*
X030740Y007159D01*
X030740Y007269D01*
X030777Y007305D01*
X030850Y007305D01*
X030887Y007269D01*
X030887Y007159D01*
X030850Y007011D02*
X030850Y006938D01*
X030740Y006938D02*
X030740Y007084D01*
X030740Y006863D02*
X030740Y006717D01*
X030740Y006790D02*
X030960Y006790D01*
X030923Y006642D02*
X030960Y006606D01*
X030960Y006532D01*
X030923Y006496D01*
X030850Y006532D02*
X030850Y006606D01*
X030887Y006642D01*
X030923Y006642D01*
X030850Y006532D02*
X030813Y006496D01*
X030777Y006496D01*
X030740Y006532D01*
X030740Y006606D01*
X030777Y006642D01*
X031740Y006606D02*
X031740Y006496D01*
X031960Y006496D01*
X031960Y006606D01*
X031923Y006642D01*
X031777Y006642D01*
X031740Y006606D01*
X031740Y006717D02*
X031740Y006790D01*
X031740Y006753D02*
X031960Y006753D01*
X031960Y006717D02*
X031960Y006790D01*
X031960Y006864D02*
X031740Y006864D01*
X031740Y006974D01*
X031777Y007011D01*
X031850Y007011D01*
X031887Y006974D01*
X031887Y006864D01*
X031887Y006937D02*
X031960Y007011D01*
X027960Y006496D02*
X027740Y006496D01*
X026960Y006938D02*
X026813Y007084D01*
X026777Y007084D01*
X026740Y007048D01*
X026960Y007084D02*
X026960Y006938D01*
X025960Y006496D02*
X025740Y006496D01*
X037740Y006496D02*
X037960Y006496D01*
X037960Y006642D01*
X037960Y006717D02*
X037740Y006717D01*
X037960Y006863D01*
X037740Y006863D01*
X037740Y006642D02*
X037740Y006496D01*
X037850Y006496D02*
X037850Y006569D01*
X038740Y006496D02*
X038813Y006569D01*
X038740Y006642D01*
X038960Y006642D01*
X038923Y006717D02*
X038960Y006753D01*
X038960Y006827D01*
X038923Y006863D01*
X038887Y006863D01*
X038850Y006827D01*
X038850Y006753D01*
X038813Y006717D01*
X038777Y006717D01*
X038740Y006753D01*
X038740Y006827D01*
X038777Y006863D01*
X038813Y006938D02*
X038740Y007011D01*
X038960Y007011D01*
X038960Y006938D02*
X038960Y007084D01*
X039740Y007048D02*
X039740Y006974D01*
X039777Y006938D01*
X039777Y006863D02*
X039740Y006827D01*
X039740Y006753D01*
X039777Y006717D01*
X039813Y006717D01*
X039850Y006753D01*
X039850Y006827D01*
X039887Y006863D01*
X039923Y006863D01*
X039960Y006827D01*
X039960Y006753D01*
X039923Y006717D01*
X039960Y006642D02*
X039740Y006642D01*
X039813Y006569D01*
X039740Y006496D01*
X039960Y006496D01*
X040740Y006496D02*
X040813Y006569D01*
X040740Y006642D01*
X040960Y006642D01*
X040923Y006717D02*
X040960Y006753D01*
X040960Y006827D01*
X040923Y006863D01*
X040887Y006863D01*
X040850Y006827D01*
X040850Y006753D01*
X040813Y006717D01*
X040777Y006717D01*
X040740Y006753D01*
X040740Y006827D01*
X040777Y006863D01*
X040777Y006938D02*
X040740Y006974D01*
X040740Y007048D01*
X040777Y007084D01*
X040813Y007084D01*
X040850Y007048D01*
X040887Y007084D01*
X040923Y007084D01*
X040960Y007048D01*
X040960Y006974D01*
X040923Y006938D01*
X040850Y007011D02*
X040850Y007048D01*
X039960Y007084D02*
X039960Y006938D01*
X039813Y007084D01*
X039777Y007084D01*
X039740Y007048D01*
X038960Y006496D02*
X038740Y006496D01*
X040740Y006496D02*
X040960Y006496D01*
X041740Y006496D02*
X041740Y006606D01*
X041777Y006642D01*
X041850Y006642D01*
X041887Y006606D01*
X041887Y006496D01*
X041960Y006496D02*
X041740Y006496D01*
X041887Y006569D02*
X041960Y006642D01*
X041923Y006717D02*
X041960Y006753D01*
X041960Y006827D01*
X041923Y006863D01*
X041887Y006863D01*
X041850Y006827D01*
X041850Y006753D01*
X041813Y006717D01*
X041777Y006717D01*
X041740Y006753D01*
X041740Y006827D01*
X041777Y006863D01*
X041740Y006938D02*
X041740Y007084D01*
X041740Y007011D02*
X041960Y007011D01*
X042740Y007048D02*
X042740Y006938D01*
X042960Y006938D01*
X042887Y006938D02*
X042887Y007048D01*
X042850Y007084D01*
X042777Y007084D01*
X042740Y007048D01*
X042960Y006863D02*
X042960Y006717D01*
X042740Y006717D01*
X042777Y006642D02*
X042740Y006606D01*
X042740Y006532D01*
X042777Y006496D01*
X042813Y006496D01*
X042850Y006532D01*
X042850Y006606D01*
X042887Y006642D01*
X042923Y006642D01*
X042960Y006606D01*
X042960Y006532D01*
X042923Y006496D01*
X043740Y006532D02*
X043777Y006496D01*
X043813Y006496D01*
X043850Y006532D01*
X043850Y006606D01*
X043887Y006642D01*
X043923Y006642D01*
X043960Y006606D01*
X043960Y006532D01*
X043923Y006496D01*
X043740Y006532D02*
X043740Y006606D01*
X043777Y006642D01*
X043740Y006717D02*
X043740Y006863D01*
X043740Y006790D02*
X043960Y006790D01*
X043960Y006938D02*
X043960Y007084D01*
X043960Y007159D02*
X043740Y007159D01*
X043740Y007269D01*
X043777Y007305D01*
X043850Y007305D01*
X043887Y007269D01*
X043887Y007159D01*
X043850Y007011D02*
X043850Y006938D01*
X043740Y006938D02*
X043960Y006938D01*
X043740Y006938D02*
X043740Y007084D01*
X044740Y006974D02*
X044777Y007011D01*
X044850Y007011D01*
X044887Y006974D01*
X044887Y006864D01*
X044960Y006864D02*
X044740Y006864D01*
X044740Y006974D01*
X044887Y006937D02*
X044960Y007011D01*
X044960Y006790D02*
X044960Y006717D01*
X044960Y006753D02*
X044740Y006753D01*
X044740Y006717D02*
X044740Y006790D01*
X044777Y006642D02*
X044740Y006606D01*
X044740Y006496D01*
X044960Y006496D01*
X044960Y006606D01*
X044923Y006642D01*
X044777Y006642D01*
D14*
X045555Y006320D02*
X047129Y006320D01*
X048311Y006320D02*
X049885Y006320D01*
X049885Y009864D01*
X049098Y010651D01*
X048311Y010651D01*
X047129Y010651D02*
X046342Y010651D01*
X045555Y009864D01*
X045555Y006320D01*
X047120Y006585D02*
X047037Y006613D01*
X046954Y006644D01*
X046874Y006679D01*
X046794Y006717D01*
X046717Y006759D01*
X046642Y006804D01*
X046568Y006852D01*
X046497Y006904D01*
X046428Y006959D01*
X046362Y007016D01*
X046299Y007077D01*
X046238Y007141D01*
X046180Y007207D01*
X046125Y007275D01*
X046073Y007346D01*
X046024Y007419D01*
X045979Y007495D01*
X045937Y007572D01*
X045898Y007651D01*
X045863Y007732D01*
X045832Y007814D01*
X045804Y007897D01*
X045780Y007982D01*
X045760Y008067D01*
X045744Y008154D01*
X045731Y008241D01*
X045723Y008328D01*
X045718Y008416D01*
X045717Y008504D01*
X045720Y008592D01*
X045727Y008680D01*
X045738Y008767D01*
X045753Y008853D01*
X045772Y008939D01*
X045794Y009024D01*
X045820Y009108D01*
X045850Y009191D01*
X045883Y009272D01*
X045921Y009352D01*
X045961Y009430D01*
X046005Y009506D01*
X046053Y009580D01*
X046103Y009652D01*
X046157Y009722D01*
X046214Y009789D01*
X046273Y009853D01*
X046336Y009915D01*
X046401Y009974D01*
X046469Y010030D01*
X046539Y010083D01*
X046611Y010133D01*
X046686Y010179D01*
X046763Y010222D01*
X046841Y010262D01*
X046921Y010298D01*
X047003Y010331D01*
X047086Y010360D01*
X047170Y010385D01*
X048270Y010385D02*
X048354Y010360D01*
X048437Y010331D01*
X048519Y010298D01*
X048599Y010262D01*
X048677Y010222D01*
X048754Y010179D01*
X048829Y010133D01*
X048901Y010083D01*
X048971Y010030D01*
X049039Y009974D01*
X049104Y009915D01*
X049167Y009853D01*
X049226Y009789D01*
X049283Y009722D01*
X049337Y009652D01*
X049387Y009580D01*
X049435Y009506D01*
X049479Y009430D01*
X049519Y009352D01*
X049557Y009272D01*
X049590Y009191D01*
X049620Y009108D01*
X049646Y009024D01*
X049668Y008939D01*
X049687Y008853D01*
X049702Y008767D01*
X049713Y008680D01*
X049720Y008592D01*
X049723Y008504D01*
X049722Y008416D01*
X049717Y008328D01*
X049709Y008241D01*
X049696Y008154D01*
X049680Y008067D01*
X049660Y007982D01*
X049636Y007897D01*
X049608Y007814D01*
X049577Y007732D01*
X049542Y007651D01*
X049503Y007572D01*
X049461Y007495D01*
X049416Y007419D01*
X049367Y007346D01*
X049315Y007275D01*
X049260Y007207D01*
X049202Y007141D01*
X049141Y007077D01*
X049078Y007016D01*
X049012Y006959D01*
X048943Y006904D01*
X048872Y006852D01*
X048798Y006804D01*
X048723Y006759D01*
X048646Y006717D01*
X048566Y006679D01*
X048486Y006644D01*
X048403Y006613D01*
X048320Y006585D01*
X036885Y006320D02*
X035311Y006320D01*
X034129Y006320D02*
X032555Y006320D01*
X032555Y009864D01*
X033342Y010651D01*
X034129Y010651D01*
X035311Y010651D02*
X036098Y010651D01*
X036885Y009864D01*
X036885Y006320D01*
X035320Y006585D02*
X035403Y006613D01*
X035486Y006644D01*
X035566Y006679D01*
X035646Y006717D01*
X035723Y006759D01*
X035798Y006804D01*
X035872Y006852D01*
X035943Y006904D01*
X036012Y006959D01*
X036078Y007016D01*
X036141Y007077D01*
X036202Y007141D01*
X036260Y007207D01*
X036315Y007275D01*
X036367Y007346D01*
X036416Y007419D01*
X036461Y007495D01*
X036503Y007572D01*
X036542Y007651D01*
X036577Y007732D01*
X036608Y007814D01*
X036636Y007897D01*
X036660Y007982D01*
X036680Y008067D01*
X036696Y008154D01*
X036709Y008241D01*
X036717Y008328D01*
X036722Y008416D01*
X036723Y008504D01*
X036720Y008592D01*
X036713Y008680D01*
X036702Y008767D01*
X036687Y008853D01*
X036668Y008939D01*
X036646Y009024D01*
X036620Y009108D01*
X036590Y009191D01*
X036557Y009272D01*
X036519Y009352D01*
X036479Y009430D01*
X036435Y009506D01*
X036387Y009580D01*
X036337Y009652D01*
X036283Y009722D01*
X036226Y009789D01*
X036167Y009853D01*
X036104Y009915D01*
X036039Y009974D01*
X035971Y010030D01*
X035901Y010083D01*
X035829Y010133D01*
X035754Y010179D01*
X035677Y010222D01*
X035599Y010262D01*
X035519Y010298D01*
X035437Y010331D01*
X035354Y010360D01*
X035270Y010385D01*
X034170Y010385D02*
X034086Y010360D01*
X034003Y010331D01*
X033921Y010298D01*
X033841Y010262D01*
X033763Y010222D01*
X033686Y010179D01*
X033611Y010133D01*
X033539Y010083D01*
X033469Y010030D01*
X033401Y009974D01*
X033336Y009915D01*
X033273Y009853D01*
X033214Y009789D01*
X033157Y009722D01*
X033103Y009652D01*
X033053Y009580D01*
X033005Y009506D01*
X032961Y009430D01*
X032921Y009352D01*
X032883Y009272D01*
X032850Y009191D01*
X032820Y009108D01*
X032794Y009024D01*
X032772Y008939D01*
X032753Y008853D01*
X032738Y008767D01*
X032727Y008680D01*
X032720Y008592D01*
X032717Y008504D01*
X032718Y008416D01*
X032723Y008328D01*
X032731Y008241D01*
X032744Y008154D01*
X032760Y008067D01*
X032780Y007982D01*
X032804Y007897D01*
X032832Y007814D01*
X032863Y007732D01*
X032898Y007651D01*
X032937Y007572D01*
X032979Y007495D01*
X033024Y007419D01*
X033073Y007346D01*
X033125Y007275D01*
X033180Y007207D01*
X033238Y007141D01*
X033299Y007077D01*
X033362Y007016D01*
X033428Y006959D01*
X033497Y006904D01*
X033568Y006852D01*
X033642Y006804D01*
X033717Y006759D01*
X033794Y006717D01*
X033874Y006679D01*
X033954Y006644D01*
X034037Y006613D01*
X034120Y006585D01*
X023885Y006320D02*
X022311Y006320D01*
X021129Y006320D02*
X019555Y006320D01*
X019555Y009864D01*
X020342Y010651D01*
X021129Y010651D01*
X022311Y010651D02*
X023098Y010651D01*
X023885Y009864D01*
X023885Y006320D01*
X022320Y006585D02*
X022403Y006613D01*
X022486Y006644D01*
X022566Y006679D01*
X022646Y006717D01*
X022723Y006759D01*
X022798Y006804D01*
X022872Y006852D01*
X022943Y006904D01*
X023012Y006959D01*
X023078Y007016D01*
X023141Y007077D01*
X023202Y007141D01*
X023260Y007207D01*
X023315Y007275D01*
X023367Y007346D01*
X023416Y007419D01*
X023461Y007495D01*
X023503Y007572D01*
X023542Y007651D01*
X023577Y007732D01*
X023608Y007814D01*
X023636Y007897D01*
X023660Y007982D01*
X023680Y008067D01*
X023696Y008154D01*
X023709Y008241D01*
X023717Y008328D01*
X023722Y008416D01*
X023723Y008504D01*
X023720Y008592D01*
X023713Y008680D01*
X023702Y008767D01*
X023687Y008853D01*
X023668Y008939D01*
X023646Y009024D01*
X023620Y009108D01*
X023590Y009191D01*
X023557Y009272D01*
X023519Y009352D01*
X023479Y009430D01*
X023435Y009506D01*
X023387Y009580D01*
X023337Y009652D01*
X023283Y009722D01*
X023226Y009789D01*
X023167Y009853D01*
X023104Y009915D01*
X023039Y009974D01*
X022971Y010030D01*
X022901Y010083D01*
X022829Y010133D01*
X022754Y010179D01*
X022677Y010222D01*
X022599Y010262D01*
X022519Y010298D01*
X022437Y010331D01*
X022354Y010360D01*
X022270Y010385D01*
X021170Y010385D02*
X021086Y010360D01*
X021003Y010331D01*
X020921Y010298D01*
X020841Y010262D01*
X020763Y010222D01*
X020686Y010179D01*
X020611Y010133D01*
X020539Y010083D01*
X020469Y010030D01*
X020401Y009974D01*
X020336Y009915D01*
X020273Y009853D01*
X020214Y009789D01*
X020157Y009722D01*
X020103Y009652D01*
X020053Y009580D01*
X020005Y009506D01*
X019961Y009430D01*
X019921Y009352D01*
X019883Y009272D01*
X019850Y009191D01*
X019820Y009108D01*
X019794Y009024D01*
X019772Y008939D01*
X019753Y008853D01*
X019738Y008767D01*
X019727Y008680D01*
X019720Y008592D01*
X019717Y008504D01*
X019718Y008416D01*
X019723Y008328D01*
X019731Y008241D01*
X019744Y008154D01*
X019760Y008067D01*
X019780Y007982D01*
X019804Y007897D01*
X019832Y007814D01*
X019863Y007732D01*
X019898Y007651D01*
X019937Y007572D01*
X019979Y007495D01*
X020024Y007419D01*
X020073Y007346D01*
X020125Y007275D01*
X020180Y007207D01*
X020238Y007141D01*
X020299Y007077D01*
X020362Y007016D01*
X020428Y006959D01*
X020497Y006904D01*
X020568Y006852D01*
X020642Y006804D01*
X020717Y006759D01*
X020794Y006717D01*
X020874Y006679D01*
X020954Y006644D01*
X021037Y006613D01*
X021120Y006585D01*
X010885Y006320D02*
X010885Y009864D01*
X010098Y010651D01*
X009311Y010651D01*
X008129Y010651D02*
X007342Y010651D01*
X006555Y009864D01*
X006555Y006320D01*
X008129Y006320D01*
X009311Y006320D02*
X010885Y006320D01*
X004992Y007119D02*
X004992Y005009D01*
X001488Y005009D01*
X001448Y005009D02*
X001448Y010962D01*
X004992Y010962D01*
X004992Y008852D01*
X004401Y008852D01*
X004401Y007119D01*
X004992Y007119D01*
X004992Y008852D01*
X008170Y010385D02*
X008086Y010360D01*
X008003Y010331D01*
X007921Y010298D01*
X007841Y010262D01*
X007763Y010222D01*
X007686Y010179D01*
X007611Y010133D01*
X007539Y010083D01*
X007469Y010030D01*
X007401Y009974D01*
X007336Y009915D01*
X007273Y009853D01*
X007214Y009789D01*
X007157Y009722D01*
X007103Y009652D01*
X007053Y009580D01*
X007005Y009506D01*
X006961Y009430D01*
X006921Y009352D01*
X006883Y009272D01*
X006850Y009191D01*
X006820Y009108D01*
X006794Y009024D01*
X006772Y008939D01*
X006753Y008853D01*
X006738Y008767D01*
X006727Y008680D01*
X006720Y008592D01*
X006717Y008504D01*
X006718Y008416D01*
X006723Y008328D01*
X006731Y008241D01*
X006744Y008154D01*
X006760Y008067D01*
X006780Y007982D01*
X006804Y007897D01*
X006832Y007814D01*
X006863Y007732D01*
X006898Y007651D01*
X006937Y007572D01*
X006979Y007495D01*
X007024Y007419D01*
X007073Y007346D01*
X007125Y007275D01*
X007180Y007207D01*
X007238Y007141D01*
X007299Y007077D01*
X007362Y007016D01*
X007428Y006959D01*
X007497Y006904D01*
X007568Y006852D01*
X007642Y006804D01*
X007717Y006759D01*
X007794Y006717D01*
X007874Y006679D01*
X007954Y006644D01*
X008037Y006613D01*
X008120Y006585D01*
X004313Y006736D02*
X004313Y007236D01*
X009320Y006585D02*
X009403Y006613D01*
X009486Y006644D01*
X009566Y006679D01*
X009646Y006717D01*
X009723Y006759D01*
X009798Y006804D01*
X009872Y006852D01*
X009943Y006904D01*
X010012Y006959D01*
X010078Y007016D01*
X010141Y007077D01*
X010202Y007141D01*
X010260Y007207D01*
X010315Y007275D01*
X010367Y007346D01*
X010416Y007419D01*
X010461Y007495D01*
X010503Y007572D01*
X010542Y007651D01*
X010577Y007732D01*
X010608Y007814D01*
X010636Y007897D01*
X010660Y007982D01*
X010680Y008067D01*
X010696Y008154D01*
X010709Y008241D01*
X010717Y008328D01*
X010722Y008416D01*
X010723Y008504D01*
X010720Y008592D01*
X010713Y008680D01*
X010702Y008767D01*
X010687Y008853D01*
X010668Y008939D01*
X010646Y009024D01*
X010620Y009108D01*
X010590Y009191D01*
X010557Y009272D01*
X010519Y009352D01*
X010479Y009430D01*
X010435Y009506D01*
X010387Y009580D01*
X010337Y009652D01*
X010283Y009722D01*
X010226Y009789D01*
X010167Y009853D01*
X010104Y009915D01*
X010039Y009974D01*
X009971Y010030D01*
X009901Y010083D01*
X009829Y010133D01*
X009754Y010179D01*
X009677Y010222D01*
X009599Y010262D01*
X009519Y010298D01*
X009437Y010331D01*
X009354Y010360D01*
X009270Y010385D01*
X003059Y012669D02*
X000618Y012669D01*
X000618Y015425D01*
X003059Y015425D01*
X003059Y012669D01*
X000618Y012669D02*
X000303Y012669D01*
X000303Y015425D01*
X000618Y015425D01*
X006153Y017305D02*
X006153Y017486D01*
X006275Y017578D01*
X006153Y017667D02*
X006153Y017486D01*
X006159Y017476D02*
X006275Y017400D01*
X001301Y017486D02*
X001303Y017537D01*
X001309Y017588D01*
X001319Y017638D01*
X001332Y017688D01*
X001350Y017736D01*
X001370Y017783D01*
X001395Y017828D01*
X001423Y017871D01*
X001454Y017912D01*
X001488Y017950D01*
X001525Y017985D01*
X001564Y018018D01*
X001606Y018048D01*
X001650Y018074D01*
X001696Y018096D01*
X001744Y018116D01*
X001793Y018131D01*
X001843Y018143D01*
X001893Y018151D01*
X001944Y018155D01*
X001996Y018155D01*
X002047Y018151D01*
X002097Y018143D01*
X002147Y018131D01*
X002196Y018116D01*
X002244Y018096D01*
X002290Y018074D01*
X002334Y018048D01*
X002376Y018018D01*
X002415Y017985D01*
X002452Y017950D01*
X002486Y017912D01*
X002517Y017871D01*
X002545Y017828D01*
X002570Y017783D01*
X002590Y017736D01*
X002608Y017688D01*
X002621Y017638D01*
X002631Y017588D01*
X002637Y017537D01*
X002639Y017486D01*
X002637Y017435D01*
X002631Y017384D01*
X002621Y017334D01*
X002608Y017284D01*
X002590Y017236D01*
X002570Y017189D01*
X002545Y017144D01*
X002517Y017101D01*
X002486Y017060D01*
X002452Y017022D01*
X002415Y016987D01*
X002376Y016954D01*
X002334Y016924D01*
X002290Y016898D01*
X002244Y016876D01*
X002196Y016856D01*
X002147Y016841D01*
X002097Y016829D01*
X002047Y016821D01*
X001996Y016817D01*
X001944Y016817D01*
X001893Y016821D01*
X001843Y016829D01*
X001793Y016841D01*
X001744Y016856D01*
X001696Y016876D01*
X001650Y016898D01*
X001606Y016924D01*
X001564Y016954D01*
X001525Y016987D01*
X001488Y017022D01*
X001454Y017060D01*
X001423Y017101D01*
X001395Y017144D01*
X001370Y017189D01*
X001350Y017236D01*
X001332Y017284D01*
X001319Y017334D01*
X001309Y017384D01*
X001303Y017435D01*
X001301Y017486D01*
X012064Y018574D02*
X012064Y016133D01*
X018009Y016133D01*
X018009Y015818D01*
X012064Y015818D01*
X012064Y016133D01*
X018009Y016133D02*
X018009Y018574D01*
X012064Y018574D01*
X025064Y018574D02*
X025064Y016133D01*
X031009Y016133D01*
X031009Y015818D01*
X025064Y015818D01*
X025064Y016133D01*
X031009Y016133D02*
X031009Y018574D01*
X025064Y018574D01*
X038064Y018324D02*
X038064Y015883D01*
X044009Y015883D01*
X044009Y015568D01*
X038064Y015568D01*
X038064Y015883D01*
X044009Y015883D02*
X044009Y018324D01*
X038064Y018324D01*
X051064Y018074D02*
X051064Y015633D01*
X057009Y015633D01*
X057009Y015318D01*
X051064Y015318D01*
X051064Y015633D01*
X057009Y015633D02*
X057009Y018074D01*
X051064Y018074D01*
X058551Y017486D02*
X058553Y017537D01*
X058559Y017588D01*
X058569Y017638D01*
X058582Y017688D01*
X058600Y017736D01*
X058620Y017783D01*
X058645Y017828D01*
X058673Y017871D01*
X058704Y017912D01*
X058738Y017950D01*
X058775Y017985D01*
X058814Y018018D01*
X058856Y018048D01*
X058900Y018074D01*
X058946Y018096D01*
X058994Y018116D01*
X059043Y018131D01*
X059093Y018143D01*
X059143Y018151D01*
X059194Y018155D01*
X059246Y018155D01*
X059297Y018151D01*
X059347Y018143D01*
X059397Y018131D01*
X059446Y018116D01*
X059494Y018096D01*
X059540Y018074D01*
X059584Y018048D01*
X059626Y018018D01*
X059665Y017985D01*
X059702Y017950D01*
X059736Y017912D01*
X059767Y017871D01*
X059795Y017828D01*
X059820Y017783D01*
X059840Y017736D01*
X059858Y017688D01*
X059871Y017638D01*
X059881Y017588D01*
X059887Y017537D01*
X059889Y017486D01*
X059887Y017435D01*
X059881Y017384D01*
X059871Y017334D01*
X059858Y017284D01*
X059840Y017236D01*
X059820Y017189D01*
X059795Y017144D01*
X059767Y017101D01*
X059736Y017060D01*
X059702Y017022D01*
X059665Y016987D01*
X059626Y016954D01*
X059584Y016924D01*
X059540Y016898D01*
X059494Y016876D01*
X059446Y016856D01*
X059397Y016841D01*
X059347Y016829D01*
X059297Y016821D01*
X059246Y016817D01*
X059194Y016817D01*
X059143Y016821D01*
X059093Y016829D01*
X059043Y016841D01*
X058994Y016856D01*
X058946Y016876D01*
X058900Y016898D01*
X058856Y016924D01*
X058814Y016954D01*
X058775Y016987D01*
X058738Y017022D01*
X058704Y017060D01*
X058673Y017101D01*
X058645Y017144D01*
X058620Y017189D01*
X058600Y017236D01*
X058582Y017284D01*
X058569Y017334D01*
X058559Y017384D01*
X058553Y017435D01*
X058551Y017486D01*
X058551Y001986D02*
X058553Y002037D01*
X058559Y002088D01*
X058569Y002138D01*
X058582Y002188D01*
X058600Y002236D01*
X058620Y002283D01*
X058645Y002328D01*
X058673Y002371D01*
X058704Y002412D01*
X058738Y002450D01*
X058775Y002485D01*
X058814Y002518D01*
X058856Y002548D01*
X058900Y002574D01*
X058946Y002596D01*
X058994Y002616D01*
X059043Y002631D01*
X059093Y002643D01*
X059143Y002651D01*
X059194Y002655D01*
X059246Y002655D01*
X059297Y002651D01*
X059347Y002643D01*
X059397Y002631D01*
X059446Y002616D01*
X059494Y002596D01*
X059540Y002574D01*
X059584Y002548D01*
X059626Y002518D01*
X059665Y002485D01*
X059702Y002450D01*
X059736Y002412D01*
X059767Y002371D01*
X059795Y002328D01*
X059820Y002283D01*
X059840Y002236D01*
X059858Y002188D01*
X059871Y002138D01*
X059881Y002088D01*
X059887Y002037D01*
X059889Y001986D01*
X059887Y001935D01*
X059881Y001884D01*
X059871Y001834D01*
X059858Y001784D01*
X059840Y001736D01*
X059820Y001689D01*
X059795Y001644D01*
X059767Y001601D01*
X059736Y001560D01*
X059702Y001522D01*
X059665Y001487D01*
X059626Y001454D01*
X059584Y001424D01*
X059540Y001398D01*
X059494Y001376D01*
X059446Y001356D01*
X059397Y001341D01*
X059347Y001329D01*
X059297Y001321D01*
X059246Y001317D01*
X059194Y001317D01*
X059143Y001321D01*
X059093Y001329D01*
X059043Y001341D01*
X058994Y001356D01*
X058946Y001376D01*
X058900Y001398D01*
X058856Y001424D01*
X058814Y001454D01*
X058775Y001487D01*
X058738Y001522D01*
X058704Y001560D01*
X058673Y001601D01*
X058645Y001644D01*
X058620Y001689D01*
X058600Y001736D01*
X058582Y001784D01*
X058569Y001834D01*
X058559Y001884D01*
X058553Y001935D01*
X058551Y001986D01*
X006275Y001900D02*
X006159Y001976D01*
X006153Y001986D02*
X006275Y002078D01*
X006153Y002167D02*
X006153Y001986D01*
X006153Y001805D01*
D15*
X001340Y001986D02*
X001342Y002036D01*
X001348Y002086D01*
X001358Y002135D01*
X001372Y002183D01*
X001389Y002230D01*
X001410Y002275D01*
X001435Y002319D01*
X001463Y002360D01*
X001495Y002399D01*
X001529Y002436D01*
X001566Y002470D01*
X001606Y002500D01*
X001648Y002527D01*
X001692Y002551D01*
X001738Y002572D01*
X001785Y002588D01*
X001833Y002601D01*
X001883Y002610D01*
X001932Y002615D01*
X001983Y002616D01*
X002033Y002613D01*
X002082Y002606D01*
X002131Y002595D01*
X002179Y002580D01*
X002225Y002562D01*
X002270Y002540D01*
X002313Y002514D01*
X002354Y002485D01*
X002393Y002453D01*
X002429Y002418D01*
X002461Y002380D01*
X002491Y002340D01*
X002518Y002297D01*
X002541Y002253D01*
X002560Y002207D01*
X002576Y002159D01*
X002588Y002110D01*
X002596Y002061D01*
X002600Y002011D01*
X002600Y001961D01*
X002596Y001911D01*
X002588Y001862D01*
X002576Y001813D01*
X002560Y001765D01*
X002541Y001719D01*
X002518Y001675D01*
X002491Y001632D01*
X002461Y001592D01*
X002429Y001554D01*
X002393Y001519D01*
X002354Y001487D01*
X002313Y001458D01*
X002270Y001432D01*
X002225Y001410D01*
X002179Y001392D01*
X002131Y001377D01*
X002082Y001366D01*
X002033Y001359D01*
X001983Y001356D01*
X001932Y001357D01*
X001883Y001362D01*
X001833Y001371D01*
X001785Y001384D01*
X001738Y001400D01*
X001692Y001421D01*
X001648Y001445D01*
X001606Y001472D01*
X001566Y001502D01*
X001529Y001536D01*
X001495Y001573D01*
X001463Y001612D01*
X001435Y001653D01*
X001410Y001697D01*
X001389Y001742D01*
X001372Y001789D01*
X001358Y001837D01*
X001348Y001886D01*
X001342Y001936D01*
X001340Y001986D01*
X001340Y017486D02*
X001342Y017536D01*
X001348Y017586D01*
X001358Y017635D01*
X001372Y017683D01*
X001389Y017730D01*
X001410Y017775D01*
X001435Y017819D01*
X001463Y017860D01*
X001495Y017899D01*
X001529Y017936D01*
X001566Y017970D01*
X001606Y018000D01*
X001648Y018027D01*
X001692Y018051D01*
X001738Y018072D01*
X001785Y018088D01*
X001833Y018101D01*
X001883Y018110D01*
X001932Y018115D01*
X001983Y018116D01*
X002033Y018113D01*
X002082Y018106D01*
X002131Y018095D01*
X002179Y018080D01*
X002225Y018062D01*
X002270Y018040D01*
X002313Y018014D01*
X002354Y017985D01*
X002393Y017953D01*
X002429Y017918D01*
X002461Y017880D01*
X002491Y017840D01*
X002518Y017797D01*
X002541Y017753D01*
X002560Y017707D01*
X002576Y017659D01*
X002588Y017610D01*
X002596Y017561D01*
X002600Y017511D01*
X002600Y017461D01*
X002596Y017411D01*
X002588Y017362D01*
X002576Y017313D01*
X002560Y017265D01*
X002541Y017219D01*
X002518Y017175D01*
X002491Y017132D01*
X002461Y017092D01*
X002429Y017054D01*
X002393Y017019D01*
X002354Y016987D01*
X002313Y016958D01*
X002270Y016932D01*
X002225Y016910D01*
X002179Y016892D01*
X002131Y016877D01*
X002082Y016866D01*
X002033Y016859D01*
X001983Y016856D01*
X001932Y016857D01*
X001883Y016862D01*
X001833Y016871D01*
X001785Y016884D01*
X001738Y016900D01*
X001692Y016921D01*
X001648Y016945D01*
X001606Y016972D01*
X001566Y017002D01*
X001529Y017036D01*
X001495Y017073D01*
X001463Y017112D01*
X001435Y017153D01*
X001410Y017197D01*
X001389Y017242D01*
X001372Y017289D01*
X001358Y017337D01*
X001348Y017386D01*
X001342Y017436D01*
X001340Y017486D01*
X058590Y017486D02*
X058592Y017536D01*
X058598Y017586D01*
X058608Y017635D01*
X058622Y017683D01*
X058639Y017730D01*
X058660Y017775D01*
X058685Y017819D01*
X058713Y017860D01*
X058745Y017899D01*
X058779Y017936D01*
X058816Y017970D01*
X058856Y018000D01*
X058898Y018027D01*
X058942Y018051D01*
X058988Y018072D01*
X059035Y018088D01*
X059083Y018101D01*
X059133Y018110D01*
X059182Y018115D01*
X059233Y018116D01*
X059283Y018113D01*
X059332Y018106D01*
X059381Y018095D01*
X059429Y018080D01*
X059475Y018062D01*
X059520Y018040D01*
X059563Y018014D01*
X059604Y017985D01*
X059643Y017953D01*
X059679Y017918D01*
X059711Y017880D01*
X059741Y017840D01*
X059768Y017797D01*
X059791Y017753D01*
X059810Y017707D01*
X059826Y017659D01*
X059838Y017610D01*
X059846Y017561D01*
X059850Y017511D01*
X059850Y017461D01*
X059846Y017411D01*
X059838Y017362D01*
X059826Y017313D01*
X059810Y017265D01*
X059791Y017219D01*
X059768Y017175D01*
X059741Y017132D01*
X059711Y017092D01*
X059679Y017054D01*
X059643Y017019D01*
X059604Y016987D01*
X059563Y016958D01*
X059520Y016932D01*
X059475Y016910D01*
X059429Y016892D01*
X059381Y016877D01*
X059332Y016866D01*
X059283Y016859D01*
X059233Y016856D01*
X059182Y016857D01*
X059133Y016862D01*
X059083Y016871D01*
X059035Y016884D01*
X058988Y016900D01*
X058942Y016921D01*
X058898Y016945D01*
X058856Y016972D01*
X058816Y017002D01*
X058779Y017036D01*
X058745Y017073D01*
X058713Y017112D01*
X058685Y017153D01*
X058660Y017197D01*
X058639Y017242D01*
X058622Y017289D01*
X058608Y017337D01*
X058598Y017386D01*
X058592Y017436D01*
X058590Y017486D01*
X058590Y001986D02*
X058592Y002036D01*
X058598Y002086D01*
X058608Y002135D01*
X058622Y002183D01*
X058639Y002230D01*
X058660Y002275D01*
X058685Y002319D01*
X058713Y002360D01*
X058745Y002399D01*
X058779Y002436D01*
X058816Y002470D01*
X058856Y002500D01*
X058898Y002527D01*
X058942Y002551D01*
X058988Y002572D01*
X059035Y002588D01*
X059083Y002601D01*
X059133Y002610D01*
X059182Y002615D01*
X059233Y002616D01*
X059283Y002613D01*
X059332Y002606D01*
X059381Y002595D01*
X059429Y002580D01*
X059475Y002562D01*
X059520Y002540D01*
X059563Y002514D01*
X059604Y002485D01*
X059643Y002453D01*
X059679Y002418D01*
X059711Y002380D01*
X059741Y002340D01*
X059768Y002297D01*
X059791Y002253D01*
X059810Y002207D01*
X059826Y002159D01*
X059838Y002110D01*
X059846Y002061D01*
X059850Y002011D01*
X059850Y001961D01*
X059846Y001911D01*
X059838Y001862D01*
X059826Y001813D01*
X059810Y001765D01*
X059791Y001719D01*
X059768Y001675D01*
X059741Y001632D01*
X059711Y001592D01*
X059679Y001554D01*
X059643Y001519D01*
X059604Y001487D01*
X059563Y001458D01*
X059520Y001432D01*
X059475Y001410D01*
X059429Y001392D01*
X059381Y001377D01*
X059332Y001366D01*
X059283Y001359D01*
X059233Y001356D01*
X059182Y001357D01*
X059133Y001362D01*
X059083Y001371D01*
X059035Y001384D01*
X058988Y001400D01*
X058942Y001421D01*
X058898Y001445D01*
X058856Y001472D01*
X058816Y001502D01*
X058779Y001536D01*
X058745Y001573D01*
X058713Y001612D01*
X058685Y001653D01*
X058660Y001697D01*
X058639Y001742D01*
X058622Y001789D01*
X058608Y001837D01*
X058598Y001886D01*
X058592Y001936D01*
X058590Y001986D01*
M02*
