G75*
%MOIN*%
%OFA0B0*%
%FSLAX24Y24*%
%IPPOS*%
%LPD*%
%AMOC8*
5,1,8,0,0,1.08239X$1,22.5*
%
%ADD10C,0.0554*%
%ADD11R,0.0800X0.0800*%
%ADD12C,0.0800*%
%ADD13R,0.0740X0.0740*%
%ADD14OC8,0.0740*%
%ADD15R,0.0472X0.0315*%
%ADD16R,0.0315X0.0472*%
%ADD17R,0.0984X0.1772*%
%ADD18C,0.0118*%
%ADD19C,0.0560*%
%ADD20C,0.0660*%
%ADD21C,0.0240*%
%ADD22C,0.0500*%
%ADD23C,0.0320*%
%ADD24R,0.0396X0.0396*%
D10*
X000720Y004486D03*
X000720Y005486D03*
X000720Y006486D03*
X000720Y007486D03*
X000720Y008486D03*
X000720Y009486D03*
X000720Y010486D03*
X000720Y011486D03*
X005720Y011486D03*
X005720Y010486D03*
X005720Y009486D03*
X005720Y008486D03*
X005720Y007486D03*
X005720Y006486D03*
X005720Y005486D03*
X005720Y004486D03*
X011720Y005986D03*
X012720Y005986D03*
X013720Y005986D03*
X014720Y005986D03*
X015720Y005986D03*
X016720Y005986D03*
X017720Y005986D03*
X018720Y005986D03*
X024720Y005986D03*
X025720Y005986D03*
X026720Y005986D03*
X027720Y005986D03*
X028720Y005986D03*
X029720Y005986D03*
X030720Y005986D03*
X031720Y005986D03*
X037720Y005986D03*
X038720Y005986D03*
X039720Y005986D03*
X040720Y005986D03*
X041720Y005986D03*
X042720Y005986D03*
X043720Y005986D03*
X044720Y005986D03*
X050720Y005986D03*
X051720Y005986D03*
X052720Y005986D03*
X053720Y005986D03*
X054720Y005986D03*
X055720Y005986D03*
X056720Y005986D03*
X057720Y005986D03*
X057720Y010986D03*
X056720Y010986D03*
X055720Y010986D03*
X054720Y010986D03*
X053720Y010986D03*
X052720Y010986D03*
X051720Y010986D03*
X050720Y010986D03*
X044720Y010986D03*
X043720Y010986D03*
X042720Y010986D03*
X041720Y010986D03*
X040720Y010986D03*
X039720Y010986D03*
X038720Y010986D03*
X037720Y010986D03*
X031720Y010986D03*
X030720Y010986D03*
X029720Y010986D03*
X028720Y010986D03*
X027720Y010986D03*
X026720Y010986D03*
X025720Y010986D03*
X024720Y010986D03*
X018720Y010986D03*
X017720Y010986D03*
X016720Y010986D03*
X015720Y010986D03*
X014720Y010986D03*
X013720Y010986D03*
X012720Y010986D03*
X011720Y010986D03*
D11*
X001720Y014736D03*
X012970Y017236D03*
X025970Y017236D03*
X038970Y016986D03*
X051970Y016736D03*
D12*
X053348Y016736D03*
X054726Y016736D03*
X056104Y016736D03*
X043104Y016986D03*
X041726Y016986D03*
X040348Y016986D03*
X030104Y017236D03*
X028726Y017236D03*
X027348Y017236D03*
X017104Y017236D03*
X015726Y017236D03*
X014348Y017236D03*
X001720Y013358D03*
D13*
X015720Y006986D03*
X028720Y006986D03*
X041720Y006986D03*
X054720Y006986D03*
D14*
X055720Y006986D03*
X055720Y007986D03*
X054720Y007986D03*
X054720Y008986D03*
X055720Y008986D03*
X042720Y008986D03*
X041720Y008986D03*
X041720Y007986D03*
X042720Y007986D03*
X042720Y006986D03*
X029720Y006986D03*
X029720Y007986D03*
X028720Y007986D03*
X028720Y008986D03*
X029720Y008986D03*
X016720Y008986D03*
X015720Y008986D03*
X015720Y007986D03*
X016720Y007986D03*
X016720Y006986D03*
X003720Y006986D03*
X002720Y006986D03*
X002720Y007986D03*
X003720Y007986D03*
X003720Y008986D03*
X002720Y008986D03*
D15*
X011720Y007840D03*
X011720Y007131D03*
X024720Y007131D03*
X024720Y007840D03*
X037720Y007840D03*
X037720Y007131D03*
X050720Y007131D03*
X050720Y007840D03*
D16*
X052616Y008986D03*
X053324Y008986D03*
X040324Y008986D03*
X039616Y008986D03*
X027324Y008986D03*
X026616Y008986D03*
X014324Y008986D03*
X013616Y008986D03*
X005074Y001986D03*
X004366Y001986D03*
X004366Y017486D03*
X005074Y017486D03*
D17*
X008720Y010257D03*
X008720Y006714D03*
X021720Y006714D03*
X021720Y010257D03*
X034720Y010257D03*
X034720Y006714D03*
X047720Y006714D03*
X047720Y010257D03*
D18*
X006703Y017348D02*
X006703Y017624D01*
X006703Y017348D02*
X006427Y017348D01*
X006427Y017624D01*
X006703Y017624D01*
X006703Y017465D02*
X006427Y017465D01*
X006427Y017582D02*
X006703Y017582D01*
X006013Y017624D02*
X006013Y017348D01*
X005737Y017348D01*
X005737Y017624D01*
X006013Y017624D01*
X006013Y017465D02*
X005737Y017465D01*
X005737Y017582D02*
X006013Y017582D01*
X006013Y002124D02*
X006013Y001848D01*
X005737Y001848D01*
X005737Y002124D01*
X006013Y002124D01*
X006013Y001965D02*
X005737Y001965D01*
X005737Y002082D02*
X006013Y002082D01*
X006703Y002124D02*
X006703Y001848D01*
X006427Y001848D01*
X006427Y002124D01*
X006703Y002124D01*
X006703Y001965D02*
X006427Y001965D01*
X006427Y002082D02*
X006703Y002082D01*
D19*
X013720Y010986D02*
X013720Y011986D01*
X012970Y012736D01*
X012970Y017236D01*
X014348Y017236D02*
X014348Y013108D01*
X014720Y012736D01*
X014720Y010986D01*
X015720Y010986D02*
X015726Y010992D01*
X015726Y017236D01*
X017104Y017236D02*
X017104Y012369D01*
X016720Y011986D01*
X016720Y010986D01*
X025970Y012736D02*
X026720Y011986D01*
X026720Y010986D01*
X027720Y010986D02*
X027720Y012486D01*
X027348Y012858D01*
X027348Y017236D01*
X028726Y017236D02*
X028726Y010992D01*
X028720Y010986D01*
X029720Y010986D02*
X029720Y011986D01*
X030104Y012369D01*
X030104Y017236D01*
X025970Y017236D02*
X025970Y012736D01*
X038970Y012736D02*
X039720Y011986D01*
X039720Y010986D01*
X040720Y010986D02*
X040720Y012486D01*
X040348Y012858D01*
X040348Y016986D01*
X038970Y016986D02*
X038970Y012736D01*
X042720Y011986D02*
X042720Y010986D01*
X041726Y010992D02*
X041720Y010986D01*
X041726Y010992D02*
X041726Y016986D01*
X043104Y016986D02*
X043104Y012369D01*
X042720Y011986D01*
X051970Y012736D02*
X052720Y011986D01*
X052720Y010986D01*
X053720Y010986D02*
X053720Y012486D01*
X053348Y012858D01*
X053348Y016736D01*
X054726Y016736D02*
X054720Y013980D01*
X054720Y010986D01*
X055720Y010986D02*
X055720Y011986D01*
X056104Y012369D01*
X056104Y016736D01*
X051970Y016736D02*
X051970Y012736D01*
D20*
X051720Y010986D02*
X051720Y009986D01*
X052720Y009986D01*
X057720Y009986D01*
X057720Y010986D01*
X051720Y009986D02*
X050220Y008486D01*
X047720Y008486D01*
X047720Y006714D01*
X047720Y008486D02*
X044720Y008486D01*
X044720Y009986D01*
X038720Y009986D01*
X038720Y008986D01*
X038720Y008486D01*
X034720Y008486D01*
X034720Y006714D01*
X034720Y008486D02*
X031720Y008486D01*
X031720Y009986D01*
X025720Y009986D01*
X025720Y010986D01*
X024720Y010986D02*
X023992Y010257D01*
X021720Y010257D01*
X018720Y009986D02*
X012720Y009986D01*
X012720Y008986D01*
X012720Y008486D01*
X010720Y008486D01*
X008948Y006714D01*
X008720Y006714D01*
X007220Y008214D01*
X007220Y012736D01*
X006348Y013358D01*
X001720Y013358D01*
X001720Y014736D02*
X005220Y014736D01*
X010470Y014736D01*
X011720Y013486D01*
X011720Y010986D01*
X010992Y010257D01*
X008720Y010257D01*
X012720Y009986D02*
X012720Y010986D01*
X018720Y010986D02*
X018720Y009986D01*
X018720Y008486D01*
X021720Y008486D01*
X021720Y006714D01*
X021720Y008486D02*
X025720Y008486D01*
X025720Y008986D01*
X025720Y009986D01*
X031720Y009986D02*
X031720Y010986D01*
X034720Y010257D02*
X036992Y010257D01*
X037720Y010986D01*
X038720Y010986D02*
X038720Y009986D01*
X044720Y009986D02*
X044720Y010986D01*
X047720Y010257D02*
X049992Y010257D01*
X050720Y010986D01*
D21*
X000912Y000584D02*
X000738Y000736D01*
X000586Y000910D01*
X000457Y001102D01*
X000355Y001309D01*
X000280Y001528D01*
X000235Y001755D01*
X000220Y001986D01*
X000269Y001986D01*
X000220Y001986D02*
X000220Y017486D01*
X000252Y017729D01*
X000316Y017967D01*
X000403Y018175D01*
X000269Y017742D01*
X000269Y017229D01*
X000420Y016739D01*
X000709Y016316D01*
X000709Y016316D01*
X001110Y015996D01*
X001587Y015809D01*
X001587Y015809D01*
X002099Y015770D01*
X002598Y015885D01*
X002598Y015885D01*
X003042Y016141D01*
X003042Y016141D01*
X003391Y016517D01*
X003614Y016979D01*
X003690Y017486D01*
X003614Y017993D01*
X003391Y018455D01*
X003042Y018830D01*
X002598Y019087D01*
X002099Y019201D01*
X002099Y019201D01*
X001587Y019163D01*
X001208Y019014D01*
X001266Y019047D01*
X001493Y019141D01*
X001730Y019204D01*
X001974Y019236D01*
X002220Y019236D01*
X059220Y019236D01*
X059448Y019221D01*
X059673Y019176D01*
X059890Y019102D01*
X060095Y019001D01*
X060285Y018874D01*
X060457Y018723D01*
X060608Y018551D01*
X060736Y018361D01*
X060837Y018155D01*
X060910Y017939D01*
X060955Y017714D01*
X060970Y017486D01*
X060970Y001986D01*
X060940Y001986D01*
X060864Y002493D01*
X060641Y002955D01*
X060292Y003330D01*
X059848Y003587D01*
X059349Y003701D01*
X058837Y003663D01*
X058360Y003475D01*
X057959Y003156D01*
X057670Y002732D01*
X057519Y002242D01*
X057519Y001729D01*
X057670Y001239D01*
X057959Y000816D01*
X057959Y000816D01*
X058360Y000496D01*
X058837Y000309D01*
X058837Y000309D01*
X059349Y000270D01*
X059848Y000385D01*
X059848Y000385D01*
X060292Y000641D01*
X060292Y000641D01*
X060641Y001017D01*
X060864Y001479D01*
X060940Y001986D01*
X060970Y001986D02*
X060972Y001772D01*
X060947Y001561D01*
X060894Y001354D01*
X060815Y001156D01*
X060710Y000971D01*
X060582Y000800D01*
X060433Y000648D01*
X060266Y000516D01*
X060082Y000407D01*
X059886Y000323D01*
X059681Y000266D01*
X059470Y000236D01*
X002220Y000236D01*
X001989Y000220D01*
X001758Y000235D01*
X001532Y000279D01*
X001312Y000353D01*
X001105Y000455D01*
X000912Y000584D01*
X000956Y000555D02*
X001037Y000555D01*
X001110Y000496D02*
X001587Y000309D01*
X002099Y000270D01*
X002598Y000385D01*
X002598Y000385D01*
X003042Y000641D01*
X003042Y000641D01*
X003391Y001017D01*
X003614Y001479D01*
X003690Y001986D01*
X004366Y001986D01*
X004366Y001986D01*
X004366Y002442D01*
X004552Y002442D01*
X004608Y002427D01*
X004658Y002398D01*
X004699Y002357D01*
X004725Y002313D01*
X004834Y002422D01*
X005315Y002422D01*
X005431Y002306D01*
X005553Y002306D01*
X005590Y002343D01*
X005685Y002382D01*
X006064Y002382D01*
X006159Y002343D01*
X006220Y002282D01*
X006245Y002308D01*
X006245Y003286D01*
X003130Y003286D01*
X003055Y003317D01*
X003391Y002955D01*
X003391Y002955D01*
X003614Y002493D01*
X003614Y002493D01*
X003690Y001986D01*
X003654Y002224D02*
X003988Y002224D01*
X003988Y002251D02*
X003988Y001986D01*
X004366Y001986D01*
X004366Y002442D01*
X004179Y002442D01*
X004123Y002427D01*
X004073Y002398D01*
X004032Y002357D01*
X004003Y002307D01*
X003988Y002251D01*
X004116Y002090D02*
X000720Y005486D01*
X000720Y005983D01*
X000681Y005983D01*
X000604Y005971D01*
X000529Y005946D01*
X000459Y005911D01*
X000396Y005865D01*
X000341Y005810D01*
X000295Y005746D01*
X000259Y005676D01*
X000235Y005602D01*
X000223Y005525D01*
X000223Y005486D01*
X000720Y005486D01*
X000720Y005486D01*
X000720Y005983D01*
X000759Y005983D01*
X000836Y005971D01*
X000911Y005946D01*
X000981Y005911D01*
X001020Y005882D01*
X001020Y006111D01*
X000990Y006081D01*
X000815Y006008D01*
X000625Y006008D01*
X000450Y006081D01*
X000315Y006215D01*
X000243Y006391D01*
X000243Y006581D01*
X000315Y006756D01*
X000450Y006890D01*
X000625Y006963D01*
X000815Y006963D01*
X000990Y006890D01*
X001020Y006860D01*
X001020Y007111D01*
X000990Y007081D01*
X000815Y007008D01*
X000625Y007008D01*
X000450Y007081D01*
X000315Y007215D01*
X000243Y007391D01*
X000243Y007581D01*
X000315Y007756D01*
X000450Y007890D01*
X000625Y007963D01*
X000815Y007963D01*
X000990Y007890D01*
X001020Y007860D01*
X001020Y008111D01*
X000990Y008081D01*
X000815Y008008D01*
X000625Y008008D01*
X000450Y008081D01*
X000315Y008215D01*
X000243Y008391D01*
X000243Y008581D01*
X000315Y008756D01*
X000450Y008890D01*
X000625Y008963D01*
X000815Y008963D01*
X000990Y008890D01*
X001020Y008860D01*
X001020Y009111D01*
X000990Y009081D01*
X000815Y009008D01*
X000625Y009008D01*
X000450Y009081D01*
X000315Y009215D01*
X000243Y009391D01*
X000243Y009581D01*
X000315Y009756D01*
X000450Y009890D01*
X000612Y009957D01*
X000515Y010054D01*
X000450Y010081D01*
X000315Y010215D01*
X000243Y010391D01*
X000243Y010581D01*
X000315Y010756D01*
X000450Y010890D01*
X000625Y010963D01*
X000815Y010963D01*
X000990Y010890D01*
X001125Y010756D01*
X001152Y010690D01*
X001725Y010117D01*
X001725Y010117D01*
X001851Y009991D01*
X001920Y009825D01*
X001920Y007306D01*
X002234Y007306D01*
X002414Y007486D01*
X002150Y007750D01*
X002150Y008222D01*
X002400Y008471D01*
X002130Y008741D01*
X002130Y008986D01*
X002720Y008986D01*
X002720Y009576D01*
X002476Y009576D01*
X002130Y009230D01*
X002130Y008986D01*
X002720Y008986D01*
X002720Y008986D01*
X002720Y009576D01*
X002964Y009576D01*
X003234Y009306D01*
X003484Y009556D01*
X003956Y009556D01*
X004290Y009222D01*
X004290Y008750D01*
X004026Y008486D01*
X004290Y008222D01*
X004290Y007750D01*
X004026Y007486D01*
X004290Y007222D01*
X004290Y006750D01*
X003956Y006416D01*
X003484Y006416D01*
X003220Y006680D01*
X002956Y006416D01*
X002484Y006416D01*
X002234Y006666D01*
X001920Y006666D01*
X001920Y005672D01*
X003406Y004186D01*
X005345Y004186D01*
X005315Y004215D01*
X005243Y004391D01*
X005243Y004581D01*
X005315Y004756D01*
X005450Y004890D01*
X005625Y004963D01*
X005815Y004963D01*
X005990Y004890D01*
X006125Y004756D01*
X006197Y004581D01*
X006197Y004391D01*
X006125Y004215D01*
X006095Y004186D01*
X010400Y004186D01*
X010400Y007549D01*
X010449Y007667D01*
X010539Y007757D01*
X010893Y008111D01*
X011011Y008160D01*
X011363Y008160D01*
X011401Y008197D01*
X012039Y008197D01*
X012156Y008080D01*
X012156Y007600D01*
X012042Y007486D01*
X012156Y007372D01*
X012156Y006891D01*
X012040Y006775D01*
X012040Y006340D01*
X012125Y006256D01*
X012197Y006081D01*
X012197Y005891D01*
X012125Y005715D01*
X012040Y005631D01*
X012040Y004595D01*
X012118Y004517D01*
X012118Y004186D01*
X016900Y004186D01*
X016900Y005544D01*
X016815Y005508D01*
X016625Y005508D01*
X016450Y005581D01*
X016365Y005666D01*
X016075Y005666D01*
X015990Y005581D01*
X015815Y005508D01*
X015625Y005508D01*
X015450Y005581D01*
X015315Y005715D01*
X015243Y005891D01*
X015243Y005999D01*
X015197Y005954D01*
X015197Y005891D01*
X015125Y005715D01*
X014990Y005581D01*
X014815Y005508D01*
X014625Y005508D01*
X014450Y005581D01*
X014315Y005715D01*
X014243Y005891D01*
X014243Y005999D01*
X014197Y005954D01*
X014197Y005891D01*
X014125Y005715D01*
X013990Y005581D01*
X013815Y005508D01*
X013625Y005508D01*
X013450Y005581D01*
X013315Y005715D01*
X013243Y005891D01*
X013243Y005999D01*
X013197Y005954D01*
X013197Y005891D01*
X013125Y005715D01*
X012990Y005581D01*
X012815Y005508D01*
X012625Y005508D01*
X012450Y005581D01*
X012315Y005715D01*
X012243Y005891D01*
X012243Y006081D01*
X012315Y006256D01*
X012450Y006390D01*
X012625Y006463D01*
X012688Y006463D01*
X014851Y008626D01*
X014641Y008626D01*
X014565Y008549D01*
X014084Y008549D01*
X013975Y008659D01*
X013949Y008614D01*
X013908Y008573D01*
X013858Y008544D01*
X013802Y008529D01*
X013616Y008529D01*
X013616Y008986D01*
X013616Y008986D01*
X013616Y009442D01*
X013802Y009442D01*
X013858Y009427D01*
X013908Y009398D01*
X013949Y009357D01*
X013975Y009313D01*
X014084Y009422D01*
X014565Y009422D01*
X014641Y009346D01*
X015274Y009346D01*
X015484Y009556D01*
X015956Y009556D01*
X016220Y009292D01*
X016484Y009556D01*
X016956Y009556D01*
X017290Y009222D01*
X017290Y008750D01*
X017080Y008540D01*
X017080Y008432D01*
X017290Y008222D01*
X017290Y007750D01*
X017080Y007540D01*
X017080Y007432D01*
X017290Y007222D01*
X017290Y006868D01*
X017401Y006757D01*
X017401Y006757D01*
X017491Y006667D01*
X017540Y006549D01*
X017540Y006428D01*
X017625Y006463D01*
X017815Y006463D01*
X017990Y006390D01*
X018125Y006256D01*
X018197Y006081D01*
X018197Y005891D01*
X018125Y005715D01*
X018040Y005631D01*
X018040Y005095D01*
X018118Y005017D01*
X018118Y004455D01*
X018001Y004338D01*
X017540Y004338D01*
X017540Y004186D01*
X023400Y004186D01*
X023400Y007549D01*
X023449Y007667D01*
X023539Y007757D01*
X023893Y008111D01*
X024011Y008160D01*
X024363Y008160D01*
X024401Y008197D01*
X025039Y008197D01*
X025156Y008080D01*
X025156Y007600D01*
X025042Y007486D01*
X025156Y007372D01*
X025156Y006891D01*
X025040Y006775D01*
X025040Y006340D01*
X025125Y006256D01*
X025197Y006081D01*
X025197Y005891D01*
X025125Y005715D01*
X025040Y005631D01*
X025040Y004595D01*
X025118Y004517D01*
X025118Y004186D01*
X029900Y004186D01*
X029900Y005544D01*
X029815Y005508D01*
X029625Y005508D01*
X029450Y005581D01*
X029365Y005666D01*
X029075Y005666D01*
X028990Y005581D01*
X028815Y005508D01*
X028625Y005508D01*
X028450Y005581D01*
X028315Y005715D01*
X028243Y005891D01*
X028243Y005999D01*
X028197Y005954D01*
X028197Y005891D01*
X028125Y005715D01*
X027990Y005581D01*
X027815Y005508D01*
X027625Y005508D01*
X027450Y005581D01*
X027315Y005715D01*
X027243Y005891D01*
X027243Y005999D01*
X027197Y005954D01*
X027197Y005891D01*
X027125Y005715D01*
X026990Y005581D01*
X026815Y005508D01*
X026625Y005508D01*
X026450Y005581D01*
X026315Y005715D01*
X026243Y005891D01*
X026243Y005999D01*
X026197Y005954D01*
X026197Y005891D01*
X026125Y005715D01*
X025990Y005581D01*
X025815Y005508D01*
X025625Y005508D01*
X025450Y005581D01*
X025315Y005715D01*
X025243Y005891D01*
X025243Y006081D01*
X025315Y006256D01*
X025450Y006390D01*
X025625Y006463D01*
X025688Y006463D01*
X027851Y008626D01*
X027641Y008626D01*
X027565Y008549D01*
X027084Y008549D01*
X026975Y008659D01*
X026949Y008614D01*
X026908Y008573D01*
X026858Y008544D01*
X026802Y008529D01*
X026616Y008529D01*
X026616Y008986D01*
X026616Y008986D01*
X026616Y009442D01*
X026802Y009442D01*
X026858Y009427D01*
X026908Y009398D01*
X026949Y009357D01*
X026975Y009313D01*
X027084Y009422D01*
X027565Y009422D01*
X027641Y009346D01*
X028274Y009346D01*
X028484Y009556D01*
X028956Y009556D01*
X029220Y009292D01*
X029484Y009556D01*
X029956Y009556D01*
X030290Y009222D01*
X030290Y008750D01*
X030170Y008630D01*
X030170Y008342D01*
X030290Y008222D01*
X030290Y007750D01*
X030170Y007630D01*
X030170Y007342D01*
X030290Y007222D01*
X030290Y006868D01*
X030401Y006757D01*
X030491Y006667D01*
X030540Y006549D01*
X030540Y006428D01*
X030625Y006463D01*
X030815Y006463D01*
X030990Y006390D01*
X031125Y006256D01*
X031197Y006081D01*
X031197Y005891D01*
X031125Y005715D01*
X031040Y005631D01*
X031040Y005095D01*
X031118Y005017D01*
X031118Y004455D01*
X031001Y004338D01*
X030540Y004338D01*
X030540Y004186D01*
X036400Y004186D01*
X036400Y007549D01*
X036449Y007667D01*
X036539Y007757D01*
X036893Y008111D01*
X037011Y008160D01*
X037363Y008160D01*
X037401Y008197D01*
X038039Y008197D01*
X038156Y008080D01*
X038156Y007600D01*
X038042Y007486D01*
X038156Y007372D01*
X038156Y006891D01*
X038080Y006815D01*
X038080Y006300D01*
X038125Y006256D01*
X038197Y006081D01*
X038197Y005891D01*
X038125Y005715D01*
X038040Y005631D01*
X038040Y004595D01*
X038118Y004517D01*
X038118Y004186D01*
X042860Y004186D01*
X042860Y005527D01*
X042815Y005508D01*
X042625Y005508D01*
X042450Y005581D01*
X042365Y005666D01*
X042075Y005666D01*
X041990Y005581D01*
X041815Y005508D01*
X041625Y005508D01*
X041450Y005581D01*
X041315Y005715D01*
X041243Y005891D01*
X041243Y005999D01*
X041197Y005954D01*
X041197Y005891D01*
X041125Y005715D01*
X040990Y005581D01*
X040815Y005508D01*
X040625Y005508D01*
X040450Y005581D01*
X040315Y005715D01*
X040243Y005891D01*
X040243Y005999D01*
X040197Y005954D01*
X040197Y005891D01*
X040125Y005715D01*
X039990Y005581D01*
X039815Y005508D01*
X039625Y005508D01*
X039450Y005581D01*
X039315Y005715D01*
X039243Y005891D01*
X039243Y005999D01*
X039197Y005954D01*
X039197Y005891D01*
X039125Y005715D01*
X038990Y005581D01*
X038815Y005508D01*
X038625Y005508D01*
X038450Y005581D01*
X038315Y005715D01*
X038243Y005891D01*
X038243Y006081D01*
X038315Y006256D01*
X038450Y006390D01*
X038625Y006463D01*
X038688Y006463D01*
X040851Y008626D01*
X040641Y008626D01*
X040565Y008549D01*
X040084Y008549D01*
X039975Y008659D01*
X039949Y008614D01*
X039908Y008573D01*
X039858Y008544D01*
X039802Y008529D01*
X039616Y008529D01*
X039616Y008986D01*
X039616Y008986D01*
X039616Y009442D01*
X039802Y009442D01*
X039858Y009427D01*
X039908Y009398D01*
X039949Y009357D01*
X039975Y009313D01*
X040084Y009422D01*
X040565Y009422D01*
X040641Y009346D01*
X041274Y009346D01*
X041484Y009556D01*
X041956Y009556D01*
X042220Y009292D01*
X042484Y009556D01*
X042956Y009556D01*
X043290Y009222D01*
X043290Y008750D01*
X043080Y008540D01*
X043080Y008432D01*
X043290Y008222D01*
X043290Y007750D01*
X043080Y007540D01*
X043080Y007432D01*
X043290Y007222D01*
X043290Y006925D01*
X043525Y006690D01*
X043580Y006557D01*
X043580Y006444D01*
X043625Y006463D01*
X043815Y006463D01*
X043990Y006390D01*
X044125Y006256D01*
X044197Y006081D01*
X044197Y005891D01*
X044125Y005715D01*
X044040Y005631D01*
X044040Y005095D01*
X044118Y005017D01*
X044118Y004455D01*
X044001Y004338D01*
X043580Y004338D01*
X043580Y004186D01*
X049400Y004186D01*
X049400Y007549D01*
X049449Y007667D01*
X049539Y007757D01*
X049893Y008111D01*
X050011Y008160D01*
X050363Y008160D01*
X050401Y008197D01*
X051039Y008197D01*
X051156Y008080D01*
X051156Y007600D01*
X051042Y007486D01*
X051156Y007372D01*
X051156Y006891D01*
X051040Y006775D01*
X051040Y006340D01*
X051125Y006256D01*
X051197Y006081D01*
X051197Y005891D01*
X051125Y005715D01*
X051040Y005631D01*
X051040Y004595D01*
X051118Y004517D01*
X051118Y004186D01*
X055860Y004186D01*
X055860Y005527D01*
X055815Y005508D01*
X055625Y005508D01*
X055450Y005581D01*
X055365Y005666D01*
X055075Y005666D01*
X054990Y005581D01*
X054815Y005508D01*
X054625Y005508D01*
X054450Y005581D01*
X054315Y005715D01*
X054243Y005891D01*
X054243Y005999D01*
X054197Y005954D01*
X054197Y005891D01*
X054125Y005715D01*
X053990Y005581D01*
X053815Y005508D01*
X053625Y005508D01*
X053450Y005581D01*
X053315Y005715D01*
X053243Y005891D01*
X053243Y005999D01*
X053197Y005954D01*
X053197Y005891D01*
X053125Y005715D01*
X052990Y005581D01*
X052815Y005508D01*
X052625Y005508D01*
X052450Y005581D01*
X052315Y005715D01*
X052243Y005891D01*
X052243Y005999D01*
X052197Y005954D01*
X052197Y005891D01*
X052125Y005715D01*
X051990Y005581D01*
X051815Y005508D01*
X051625Y005508D01*
X051450Y005581D01*
X051315Y005715D01*
X051243Y005891D01*
X051243Y006081D01*
X051315Y006256D01*
X051450Y006390D01*
X051625Y006463D01*
X051688Y006463D01*
X053851Y008626D01*
X053641Y008626D01*
X053565Y008549D01*
X053084Y008549D01*
X052975Y008659D01*
X052949Y008614D01*
X052908Y008573D01*
X052858Y008544D01*
X052802Y008529D01*
X052616Y008529D01*
X052616Y008986D01*
X052616Y008986D01*
X052616Y009442D01*
X052802Y009442D01*
X052858Y009427D01*
X052908Y009398D01*
X052949Y009357D01*
X052975Y009313D01*
X053084Y009422D01*
X053565Y009422D01*
X053641Y009346D01*
X054274Y009346D01*
X054484Y009556D01*
X054956Y009556D01*
X055220Y009292D01*
X055484Y009556D01*
X055956Y009556D01*
X056290Y009222D01*
X056290Y008750D01*
X056026Y008486D01*
X056290Y008222D01*
X056290Y007750D01*
X056026Y007486D01*
X056290Y007222D01*
X056290Y006925D01*
X056424Y006791D01*
X056525Y006690D01*
X056580Y006557D01*
X056580Y006444D01*
X056625Y006463D01*
X056815Y006463D01*
X056990Y006390D01*
X057125Y006256D01*
X057197Y006081D01*
X057197Y005891D01*
X057125Y005715D01*
X057040Y005631D01*
X057040Y005095D01*
X057118Y005017D01*
X057118Y004455D01*
X057001Y004338D01*
X056580Y004338D01*
X056580Y004012D01*
X056601Y003991D01*
X056670Y003825D01*
X056670Y003646D01*
X056601Y003481D01*
X056475Y003354D01*
X056310Y003286D01*
X006885Y003286D01*
X006885Y002308D01*
X006923Y002270D01*
X006962Y002175D01*
X006962Y001796D01*
X006923Y001701D01*
X006850Y001628D01*
X006755Y001589D01*
X006376Y001589D01*
X006281Y001628D01*
X006220Y001689D01*
X006159Y001628D01*
X006064Y001589D01*
X005685Y001589D01*
X005590Y001628D01*
X005553Y001666D01*
X005431Y001666D01*
X005315Y001549D01*
X004834Y001549D01*
X004725Y001659D01*
X004699Y001614D01*
X004658Y001573D01*
X004608Y001544D01*
X004552Y001529D01*
X004366Y001529D01*
X004366Y001986D01*
X004116Y002090D01*
X003988Y001986D02*
X003988Y001720D01*
X004003Y001664D01*
X004032Y001614D01*
X004073Y001573D01*
X004123Y001544D01*
X004179Y001529D01*
X004366Y001529D01*
X004366Y001986D01*
X004366Y001986D01*
X004366Y001986D01*
X003988Y001986D01*
X004366Y002224D02*
X004366Y002224D01*
X005074Y001986D02*
X005875Y001986D01*
X006565Y001986D02*
X006565Y003581D01*
X005220Y003736D01*
X005251Y004371D02*
X003221Y004371D01*
X002983Y004609D02*
X005255Y004609D01*
X005407Y004848D02*
X002744Y004848D01*
X002506Y005086D02*
X005445Y005086D01*
X005450Y005081D02*
X005625Y005008D01*
X005815Y005008D01*
X005990Y005081D01*
X006125Y005215D01*
X006197Y005391D01*
X006197Y005581D01*
X006125Y005756D01*
X005990Y005890D01*
X005815Y005963D01*
X005625Y005963D01*
X005450Y005890D01*
X005315Y005756D01*
X005243Y005581D01*
X005243Y005391D01*
X005315Y005215D01*
X005450Y005081D01*
X005270Y005325D02*
X002267Y005325D01*
X002029Y005563D02*
X005243Y005563D01*
X005361Y005802D02*
X001920Y005802D01*
X001920Y006040D02*
X005549Y006040D01*
X005625Y006008D02*
X005815Y006008D01*
X005990Y006081D01*
X006125Y006215D01*
X006197Y006391D01*
X006197Y006581D01*
X006125Y006756D01*
X005990Y006890D01*
X005815Y006963D01*
X005625Y006963D01*
X005450Y006890D01*
X005315Y006756D01*
X005243Y006581D01*
X005243Y006391D01*
X005315Y006215D01*
X005450Y006081D01*
X005625Y006008D01*
X005891Y006040D02*
X008008Y006040D01*
X008008Y006279D02*
X006151Y006279D01*
X006197Y006517D02*
X008008Y006517D01*
X008008Y006594D02*
X008008Y005799D01*
X008023Y005743D01*
X008052Y005693D01*
X008093Y005652D01*
X008143Y005623D01*
X008199Y005608D01*
X008600Y005608D01*
X008600Y006594D01*
X008008Y006594D01*
X008600Y006594D02*
X008600Y006834D01*
X008600Y007820D01*
X008199Y007820D01*
X008143Y007805D01*
X008093Y007776D01*
X008052Y007735D01*
X008023Y007685D01*
X008008Y007629D01*
X008008Y006834D01*
X008600Y006834D01*
X008840Y006834D01*
X008840Y007820D01*
X009241Y007820D01*
X009297Y007805D01*
X009347Y007776D01*
X009388Y007735D01*
X009417Y007685D01*
X009432Y007629D01*
X009432Y006834D01*
X008840Y006834D01*
X008840Y006594D01*
X009432Y006594D01*
X009432Y005799D01*
X009417Y005743D01*
X009388Y005693D01*
X009347Y005652D01*
X009297Y005623D01*
X009241Y005608D01*
X008840Y005608D01*
X008840Y006594D01*
X008600Y006594D01*
X008600Y006517D02*
X008840Y006517D01*
X008840Y006279D02*
X008600Y006279D01*
X008600Y006040D02*
X008840Y006040D01*
X009432Y006040D02*
X010400Y006040D01*
X010400Y006279D02*
X009432Y006279D01*
X009432Y006517D02*
X010400Y006517D01*
X010400Y006756D02*
X008840Y006756D01*
X008840Y006994D02*
X008600Y006994D01*
X008600Y006756D02*
X006125Y006756D01*
X005990Y007081D02*
X006125Y007215D01*
X006197Y007391D01*
X006197Y007581D01*
X006125Y007756D01*
X005990Y007890D01*
X005815Y007963D01*
X005625Y007963D01*
X005450Y007890D01*
X005315Y007756D01*
X005243Y007581D01*
X005243Y007391D01*
X005315Y007215D01*
X005450Y007081D01*
X005625Y007008D01*
X005815Y007008D01*
X005990Y007081D01*
X006132Y007233D02*
X008008Y007233D01*
X008008Y007471D02*
X006197Y007471D01*
X006144Y007710D02*
X008037Y007710D01*
X008600Y007710D02*
X008840Y007710D01*
X008840Y007471D02*
X008600Y007471D01*
X008600Y007233D02*
X008840Y007233D01*
X009432Y007233D02*
X010400Y007233D01*
X010400Y007471D02*
X009432Y007471D01*
X009403Y007710D02*
X010491Y007710D01*
X010720Y007486D02*
X010720Y003736D01*
X011720Y004236D02*
X011720Y005986D01*
X011720Y007131D01*
X012156Y007233D02*
X013458Y007233D01*
X013696Y007471D02*
X012057Y007471D01*
X012156Y007710D02*
X013935Y007710D01*
X014173Y007948D02*
X012156Y007948D01*
X011720Y007840D02*
X011074Y007840D01*
X010720Y007486D01*
X010730Y007948D02*
X005850Y007948D01*
X005815Y008008D02*
X005990Y008081D01*
X006125Y008215D01*
X006197Y008391D01*
X006197Y008581D01*
X006125Y008756D01*
X006080Y008800D01*
X006080Y009171D01*
X006125Y009215D01*
X006197Y009391D01*
X006197Y009581D01*
X006125Y009756D01*
X005990Y009890D01*
X005815Y009963D01*
X005625Y009963D01*
X005450Y009890D01*
X005315Y009756D01*
X005243Y009581D01*
X005243Y009391D01*
X005315Y009215D01*
X005360Y009171D01*
X005360Y008800D01*
X005315Y008756D01*
X005243Y008581D01*
X005243Y008391D01*
X005315Y008215D01*
X005450Y008081D01*
X005625Y008008D01*
X005815Y008008D01*
X005590Y007948D02*
X004290Y007948D01*
X004250Y007710D02*
X005296Y007710D01*
X005243Y007471D02*
X004041Y007471D01*
X004279Y007233D02*
X005308Y007233D01*
X004290Y006994D02*
X008008Y006994D01*
X009432Y006994D02*
X010400Y006994D01*
X012040Y006756D02*
X012981Y006756D01*
X013219Y006994D02*
X012156Y006994D01*
X012040Y006517D02*
X012742Y006517D01*
X012338Y006279D02*
X012102Y006279D01*
X012197Y006040D02*
X012243Y006040D01*
X012280Y005802D02*
X012160Y005802D01*
X012040Y005563D02*
X012493Y005563D01*
X012947Y005563D02*
X013493Y005563D01*
X013280Y005802D02*
X013160Y005802D01*
X013947Y005563D02*
X014493Y005563D01*
X014280Y005802D02*
X014160Y005802D01*
X014947Y005563D02*
X015493Y005563D01*
X015280Y005802D02*
X015160Y005802D01*
X015720Y005986D02*
X016720Y005986D01*
X017720Y005986D02*
X017720Y004736D01*
X018118Y004848D02*
X023400Y004848D01*
X023400Y004609D02*
X018118Y004609D01*
X018034Y004371D02*
X023400Y004371D01*
X024720Y004236D02*
X024720Y005986D01*
X024720Y007131D01*
X025156Y007233D02*
X026458Y007233D01*
X026696Y007471D02*
X025057Y007471D01*
X025156Y007710D02*
X026935Y007710D01*
X027173Y007948D02*
X025156Y007948D01*
X024720Y007840D02*
X024074Y007840D01*
X023720Y007486D01*
X023720Y003736D01*
X025118Y004371D02*
X029900Y004371D01*
X029900Y004609D02*
X025040Y004609D01*
X025040Y004848D02*
X029900Y004848D01*
X029900Y005086D02*
X025040Y005086D01*
X025040Y005325D02*
X029900Y005325D01*
X029493Y005563D02*
X028947Y005563D01*
X028493Y005563D02*
X027947Y005563D01*
X028160Y005802D02*
X028280Y005802D01*
X028720Y005986D02*
X029720Y005986D01*
X030720Y005986D02*
X030720Y004736D01*
X031118Y004848D02*
X036400Y004848D01*
X036400Y004609D02*
X031118Y004609D01*
X031034Y004371D02*
X036400Y004371D01*
X037720Y004236D02*
X037720Y005986D01*
X038160Y005802D02*
X038280Y005802D01*
X038493Y005563D02*
X038040Y005563D01*
X038040Y005325D02*
X042860Y005325D01*
X042860Y005086D02*
X038040Y005086D01*
X038040Y004848D02*
X042860Y004848D01*
X042860Y004609D02*
X038040Y004609D01*
X038118Y004371D02*
X042860Y004371D01*
X044034Y004371D02*
X049400Y004371D01*
X049400Y004609D02*
X044118Y004609D01*
X044118Y004848D02*
X049400Y004848D01*
X049400Y005086D02*
X044049Y005086D01*
X044040Y005325D02*
X049400Y005325D01*
X049400Y005563D02*
X044947Y005563D01*
X044990Y005581D02*
X045125Y005715D01*
X045197Y005891D01*
X045197Y006081D01*
X045125Y006256D01*
X044990Y006390D01*
X044815Y006463D01*
X044625Y006463D01*
X044450Y006390D01*
X044315Y006256D01*
X044243Y006081D01*
X044243Y005891D01*
X044315Y005715D01*
X044450Y005581D01*
X044625Y005508D01*
X044815Y005508D01*
X044990Y005581D01*
X045160Y005802D02*
X047008Y005802D01*
X047008Y005799D02*
X047023Y005743D01*
X047052Y005693D01*
X047093Y005652D01*
X047143Y005623D01*
X047199Y005608D01*
X047600Y005608D01*
X047600Y006594D01*
X047008Y006594D01*
X047008Y005799D01*
X047600Y005802D02*
X047840Y005802D01*
X047840Y005608D02*
X048241Y005608D01*
X048297Y005623D01*
X048347Y005652D01*
X048388Y005693D01*
X048417Y005743D01*
X048432Y005799D01*
X048432Y006594D01*
X047840Y006594D01*
X047840Y006834D01*
X047600Y006834D01*
X047600Y007820D01*
X047199Y007820D01*
X047143Y007805D01*
X047093Y007776D01*
X047052Y007735D01*
X047023Y007685D01*
X047008Y007629D01*
X047008Y006834D01*
X047600Y006834D01*
X047600Y006594D01*
X047840Y006594D01*
X047840Y005608D01*
X048432Y005802D02*
X049400Y005802D01*
X049400Y006040D02*
X048432Y006040D01*
X048432Y006279D02*
X049400Y006279D01*
X049400Y006517D02*
X048432Y006517D01*
X047840Y006517D02*
X047600Y006517D01*
X047600Y006279D02*
X047840Y006279D01*
X047840Y006040D02*
X047600Y006040D01*
X047008Y006040D02*
X045197Y006040D01*
X045102Y006279D02*
X047008Y006279D01*
X047008Y006517D02*
X043580Y006517D01*
X043459Y006756D02*
X047600Y006756D01*
X047600Y006994D02*
X047840Y006994D01*
X047840Y006834D02*
X047840Y007820D01*
X048241Y007820D01*
X048297Y007805D01*
X048347Y007776D01*
X048388Y007735D01*
X048417Y007685D01*
X048432Y007629D01*
X048432Y006834D01*
X047840Y006834D01*
X047840Y006756D02*
X049400Y006756D01*
X049400Y006994D02*
X048432Y006994D01*
X048432Y007233D02*
X049400Y007233D01*
X049400Y007471D02*
X048432Y007471D01*
X048403Y007710D02*
X049491Y007710D01*
X049720Y007486D02*
X049720Y003736D01*
X050720Y004236D02*
X050720Y005986D01*
X050720Y007131D01*
X051156Y007233D02*
X052458Y007233D01*
X052696Y007471D02*
X051057Y007471D01*
X051156Y007710D02*
X052935Y007710D01*
X053173Y007948D02*
X051156Y007948D01*
X050720Y007840D02*
X050074Y007840D01*
X049720Y007486D01*
X049730Y007948D02*
X043290Y007948D01*
X043250Y007710D02*
X047037Y007710D01*
X047008Y007471D02*
X043080Y007471D01*
X043279Y007233D02*
X047008Y007233D01*
X047600Y007233D02*
X047840Y007233D01*
X047840Y007471D02*
X047600Y007471D01*
X047600Y007710D02*
X047840Y007710D01*
X047008Y006994D02*
X043290Y006994D01*
X044102Y006279D02*
X044338Y006279D01*
X044243Y006040D02*
X044197Y006040D01*
X043720Y005986D02*
X043720Y004736D01*
X044040Y005563D02*
X044493Y005563D01*
X044280Y005802D02*
X044160Y005802D01*
X042720Y005986D02*
X041720Y005986D01*
X041280Y005802D02*
X041160Y005802D01*
X040947Y005563D02*
X041493Y005563D01*
X041947Y005563D02*
X042493Y005563D01*
X040493Y005563D02*
X039947Y005563D01*
X040160Y005802D02*
X040280Y005802D01*
X039493Y005563D02*
X038947Y005563D01*
X039160Y005802D02*
X039280Y005802D01*
X038243Y006040D02*
X038197Y006040D01*
X038102Y006279D02*
X038338Y006279D01*
X038080Y006517D02*
X038742Y006517D01*
X038981Y006756D02*
X038080Y006756D01*
X038156Y006994D02*
X039219Y006994D01*
X039458Y007233D02*
X038156Y007233D01*
X038057Y007471D02*
X039696Y007471D01*
X039935Y007710D02*
X038156Y007710D01*
X038156Y007948D02*
X040173Y007948D01*
X040412Y008187D02*
X038050Y008187D01*
X037390Y008187D02*
X030290Y008187D01*
X030170Y008425D02*
X040650Y008425D01*
X039616Y008529D02*
X039616Y008986D01*
X039616Y009442D01*
X039429Y009442D01*
X039373Y009427D01*
X039323Y009398D01*
X039282Y009357D01*
X039253Y009307D01*
X039238Y009251D01*
X039238Y008986D01*
X039616Y008986D01*
X039616Y008986D01*
X039616Y008986D01*
X039238Y008986D01*
X039238Y008720D01*
X039253Y008664D01*
X039282Y008614D01*
X039323Y008573D01*
X039373Y008544D01*
X039429Y008529D01*
X039616Y008529D01*
X039616Y008664D02*
X039616Y008664D01*
X039616Y008902D02*
X039616Y008902D01*
X039616Y009141D02*
X039616Y009141D01*
X039238Y009141D02*
X030290Y009141D01*
X030290Y008902D02*
X039238Y008902D01*
X039254Y008664D02*
X030204Y008664D01*
X030133Y009379D02*
X034028Y009379D01*
X034028Y009289D02*
X034145Y009171D01*
X035295Y009171D01*
X035412Y009289D01*
X035412Y009727D01*
X037097Y009727D01*
X037292Y009808D01*
X038169Y010685D01*
X038240Y010855D01*
X038259Y010795D01*
X038295Y010725D01*
X038341Y010662D01*
X038396Y010606D01*
X038459Y010560D01*
X038529Y010525D01*
X038604Y010501D01*
X038681Y010488D01*
X038720Y010488D01*
X038759Y010488D01*
X038836Y010501D01*
X038911Y010525D01*
X038981Y010560D01*
X039044Y010606D01*
X039099Y010662D01*
X039145Y010725D01*
X039181Y010795D01*
X039205Y010869D01*
X039217Y010946D01*
X039217Y010986D01*
X039217Y011025D01*
X039205Y011102D01*
X039181Y011176D01*
X039145Y011246D01*
X039099Y011310D01*
X039044Y011365D01*
X038981Y011411D01*
X038911Y011446D01*
X038836Y011471D01*
X038759Y011483D01*
X038720Y011483D01*
X038681Y011483D01*
X038604Y011471D01*
X038529Y011446D01*
X038459Y011411D01*
X038396Y011365D01*
X038341Y011310D01*
X038295Y011246D01*
X038259Y011176D01*
X038240Y011116D01*
X038169Y011286D01*
X038020Y011435D01*
X037825Y011516D01*
X037615Y011516D01*
X037420Y011435D01*
X036772Y010787D01*
X035412Y010787D01*
X035412Y011226D01*
X035295Y011343D01*
X034145Y011343D01*
X034028Y011226D01*
X034028Y009289D01*
X034028Y009618D02*
X022412Y009618D01*
X022412Y009727D02*
X024097Y009727D01*
X024292Y009808D01*
X025169Y010685D01*
X025240Y010855D01*
X025259Y010795D01*
X025295Y010725D01*
X025341Y010662D01*
X025396Y010606D01*
X025459Y010560D01*
X025529Y010525D01*
X025604Y010501D01*
X025681Y010488D01*
X025720Y010488D01*
X025759Y010488D01*
X025836Y010501D01*
X025911Y010525D01*
X025981Y010560D01*
X026044Y010606D01*
X026099Y010662D01*
X026145Y010725D01*
X026181Y010795D01*
X026205Y010869D01*
X026217Y010946D01*
X026217Y010986D01*
X026217Y011025D01*
X026205Y011102D01*
X026181Y011176D01*
X026145Y011246D01*
X026099Y011310D01*
X026044Y011365D01*
X025981Y011411D01*
X025911Y011446D01*
X025836Y011471D01*
X025759Y011483D01*
X025720Y011483D01*
X025681Y011483D01*
X025604Y011471D01*
X025529Y011446D01*
X025459Y011411D01*
X025396Y011365D01*
X025341Y011310D01*
X025295Y011246D01*
X025259Y011176D01*
X025240Y011116D01*
X025169Y011286D01*
X025020Y011435D01*
X024825Y011516D01*
X024615Y011516D01*
X024420Y011435D01*
X023772Y010787D01*
X022412Y010787D01*
X022412Y011226D01*
X022295Y011343D01*
X021145Y011343D01*
X021028Y011226D01*
X021028Y009289D01*
X021145Y009171D01*
X022295Y009171D01*
X022412Y009289D01*
X022412Y009727D01*
X022412Y009379D02*
X026304Y009379D01*
X026323Y009398D02*
X026282Y009357D01*
X026253Y009307D01*
X026238Y009251D01*
X026238Y008986D01*
X026616Y008986D01*
X026616Y009442D01*
X026429Y009442D01*
X026373Y009427D01*
X026323Y009398D01*
X026616Y009379D02*
X026616Y009379D01*
X026927Y009379D02*
X027041Y009379D01*
X027607Y009379D02*
X028307Y009379D01*
X029133Y009379D02*
X029307Y009379D01*
X026616Y009141D02*
X026616Y009141D01*
X026616Y008986D02*
X026616Y008986D01*
X026616Y008986D01*
X026616Y008529D01*
X026429Y008529D01*
X026373Y008544D01*
X026323Y008573D01*
X026282Y008614D01*
X026253Y008664D01*
X026238Y008720D01*
X026238Y008986D01*
X026616Y008986D01*
X026616Y008902D02*
X026616Y008902D01*
X026616Y008664D02*
X026616Y008664D01*
X026254Y008664D02*
X017204Y008664D01*
X017290Y008902D02*
X026238Y008902D01*
X026238Y009141D02*
X017290Y009141D01*
X017133Y009379D02*
X021028Y009379D01*
X021028Y009618D02*
X009412Y009618D01*
X009412Y009727D02*
X011097Y009727D01*
X011292Y009808D01*
X012020Y010536D01*
X012169Y010685D01*
X012240Y010855D01*
X012259Y010795D01*
X012295Y010725D01*
X012341Y010662D01*
X012396Y010606D01*
X012459Y010560D01*
X012529Y010525D01*
X012604Y010501D01*
X012681Y010488D01*
X012720Y010488D01*
X012759Y010488D01*
X012836Y010501D01*
X012911Y010525D01*
X012981Y010560D01*
X013044Y010606D01*
X013099Y010662D01*
X013145Y010725D01*
X013181Y010795D01*
X013205Y010869D01*
X013217Y010946D01*
X013217Y010986D01*
X013217Y011025D01*
X013205Y011102D01*
X013181Y011176D01*
X013145Y011246D01*
X013099Y011310D01*
X013044Y011365D01*
X012981Y011411D01*
X012911Y011446D01*
X012836Y011471D01*
X012759Y011483D01*
X012720Y011483D01*
X012681Y011483D01*
X012604Y011471D01*
X012529Y011446D01*
X012459Y011411D01*
X012396Y011365D01*
X012341Y011310D01*
X012295Y011246D01*
X012259Y011176D01*
X012250Y011148D01*
X012250Y013591D01*
X012169Y013786D01*
X012020Y013935D01*
X010770Y015185D01*
X010575Y015266D01*
X006885Y015266D01*
X006885Y017164D01*
X006923Y017201D01*
X006962Y017296D01*
X006962Y017675D01*
X006923Y017770D01*
X006850Y017843D01*
X006755Y017882D01*
X006376Y017882D01*
X006281Y017843D01*
X006220Y017782D01*
X006159Y017843D01*
X006064Y017882D01*
X005685Y017882D01*
X005590Y017843D01*
X005553Y017806D01*
X005431Y017806D01*
X005315Y017922D01*
X004834Y017922D01*
X004725Y017813D01*
X004699Y017857D01*
X004658Y017898D01*
X004608Y017927D01*
X004552Y017942D01*
X004366Y017942D01*
X004366Y017486D01*
X004366Y017486D01*
X004366Y017942D01*
X004179Y017942D01*
X004123Y017927D01*
X004073Y017898D01*
X004032Y017857D01*
X004003Y017807D01*
X003988Y017751D01*
X003988Y017486D01*
X004366Y017486D01*
X004366Y016131D01*
X003720Y015486D01*
X001220Y015486D01*
X000720Y014986D01*
X000720Y012486D01*
X000784Y012422D01*
X000220Y012480D02*
X011190Y012480D01*
X011190Y012718D02*
X000220Y012718D01*
X000220Y012957D02*
X001245Y012957D01*
X001247Y012954D02*
X001316Y012885D01*
X001395Y012827D01*
X001482Y012783D01*
X001575Y012753D01*
X001671Y012738D01*
X001720Y012738D01*
X001720Y013358D01*
X001720Y013978D01*
X001671Y013978D01*
X001575Y013962D01*
X001482Y013932D01*
X001395Y013888D01*
X001316Y013831D01*
X001247Y013762D01*
X001190Y013683D01*
X001145Y013596D01*
X001115Y013503D01*
X001100Y013406D01*
X001100Y013358D01*
X001720Y013358D01*
X001720Y013358D01*
X001720Y013978D01*
X001769Y013978D01*
X001865Y013962D01*
X001958Y013932D01*
X002045Y013888D01*
X002124Y013831D01*
X002193Y013762D01*
X002250Y013683D01*
X002295Y013596D01*
X002325Y013503D01*
X002340Y013406D01*
X002340Y013358D01*
X001720Y013358D01*
X001720Y013358D01*
X001720Y013358D01*
X001100Y013358D01*
X001100Y013309D01*
X001115Y013212D01*
X001145Y013120D01*
X001190Y013033D01*
X001247Y012954D01*
X001121Y013195D02*
X000220Y013195D01*
X000220Y013434D02*
X001104Y013434D01*
X001184Y013672D02*
X000220Y013672D01*
X000220Y013911D02*
X001440Y013911D01*
X001720Y013911D02*
X001720Y013911D01*
X001720Y013672D02*
X001720Y013672D01*
X001720Y013434D02*
X001720Y013434D01*
X001720Y013358D02*
X002340Y013358D01*
X002340Y013309D01*
X002325Y013212D01*
X002295Y013120D01*
X002250Y013033D01*
X002193Y012954D01*
X002124Y012885D01*
X002045Y012827D01*
X001958Y012783D01*
X001865Y012753D01*
X001769Y012738D01*
X001720Y012738D01*
X001720Y013358D01*
X001720Y013358D01*
X001720Y013195D02*
X001720Y013195D01*
X001720Y012957D02*
X001720Y012957D01*
X002195Y012957D02*
X011190Y012957D01*
X011190Y013195D02*
X002319Y013195D01*
X002336Y013434D02*
X011022Y013434D01*
X011190Y013266D02*
X011190Y011205D01*
X010772Y010787D01*
X009412Y010787D01*
X009412Y011226D01*
X009295Y011343D01*
X008145Y011343D01*
X008028Y011226D01*
X008028Y009289D01*
X008145Y009171D01*
X009295Y009171D01*
X009412Y009289D01*
X009412Y009727D01*
X009412Y009379D02*
X013304Y009379D01*
X013323Y009398D02*
X013282Y009357D01*
X013253Y009307D01*
X013238Y009251D01*
X013238Y008986D01*
X013616Y008986D01*
X013616Y009442D01*
X013429Y009442D01*
X013373Y009427D01*
X013323Y009398D01*
X013616Y009379D02*
X013616Y009379D01*
X013927Y009379D02*
X014041Y009379D01*
X014607Y009379D02*
X015307Y009379D01*
X016133Y009379D02*
X016307Y009379D01*
X013616Y009141D02*
X013616Y009141D01*
X013616Y008986D02*
X013616Y008986D01*
X013616Y008986D01*
X013616Y008529D01*
X013429Y008529D01*
X013373Y008544D01*
X013323Y008573D01*
X013282Y008614D01*
X013253Y008664D01*
X013238Y008720D01*
X013238Y008986D01*
X013616Y008986D01*
X013616Y008902D02*
X013616Y008902D01*
X013616Y008664D02*
X013616Y008664D01*
X013254Y008664D02*
X006163Y008664D01*
X006197Y008425D02*
X014650Y008425D01*
X014412Y008187D02*
X012050Y008187D01*
X011390Y008187D02*
X006096Y008187D01*
X005344Y008187D02*
X004290Y008187D01*
X004087Y008425D02*
X005243Y008425D01*
X005277Y008664D02*
X004204Y008664D01*
X004290Y008902D02*
X005360Y008902D01*
X005360Y009141D02*
X004290Y009141D01*
X004133Y009379D02*
X005248Y009379D01*
X005258Y009618D02*
X001920Y009618D01*
X001907Y009856D02*
X005416Y009856D01*
X005450Y010081D02*
X005625Y010008D01*
X005815Y010008D01*
X005990Y010081D01*
X006125Y010215D01*
X006197Y010391D01*
X006197Y010581D01*
X006125Y010756D01*
X005990Y010890D01*
X005815Y010963D01*
X005625Y010963D01*
X005450Y010890D01*
X005315Y010756D01*
X005243Y010581D01*
X005243Y010391D01*
X005315Y010215D01*
X005450Y010081D01*
X005436Y010095D02*
X001747Y010095D01*
X001509Y010333D02*
X005267Y010333D01*
X005243Y010572D02*
X001270Y010572D01*
X001070Y010810D02*
X005370Y010810D01*
X005450Y011081D02*
X005625Y011008D01*
X005815Y011008D01*
X005990Y011081D01*
X006125Y011215D01*
X006197Y011391D01*
X006197Y011581D01*
X006125Y011756D01*
X005990Y011890D01*
X005815Y011963D01*
X005625Y011963D01*
X005450Y011890D01*
X005315Y011756D01*
X005243Y011581D01*
X005243Y011391D01*
X005315Y011215D01*
X005450Y011081D01*
X005528Y011049D02*
X000957Y011049D01*
X000981Y011060D02*
X001044Y011106D01*
X001099Y011162D01*
X001145Y011225D01*
X001181Y011295D01*
X001205Y011369D01*
X001217Y011446D01*
X001217Y011486D01*
X001217Y011525D01*
X001205Y011602D01*
X001181Y011676D01*
X001145Y011746D01*
X001099Y011810D01*
X001044Y011865D01*
X000981Y011911D01*
X000911Y011946D01*
X000836Y011971D01*
X000759Y011983D01*
X000720Y011983D01*
X000681Y011983D01*
X000604Y011971D01*
X000529Y011946D01*
X000459Y011911D01*
X000396Y011865D01*
X000341Y011810D01*
X000295Y011746D01*
X000259Y011676D01*
X000235Y011602D01*
X000223Y011525D01*
X000223Y011486D01*
X000720Y011486D01*
X000720Y011983D01*
X000720Y011486D01*
X000720Y011486D01*
X001217Y011486D01*
X000720Y011486D01*
X000720Y011486D01*
X000720Y011486D01*
X002720Y009486D01*
X002720Y008986D01*
X002720Y008986D01*
X002720Y009141D02*
X002720Y009141D01*
X002130Y009141D02*
X001920Y009141D01*
X001920Y008902D02*
X002130Y008902D01*
X002208Y008664D02*
X001920Y008664D01*
X001920Y008425D02*
X002353Y008425D01*
X002150Y008187D02*
X001920Y008187D01*
X001920Y007948D02*
X002150Y007948D01*
X002190Y007710D02*
X001920Y007710D01*
X001920Y007471D02*
X002399Y007471D01*
X001020Y007948D02*
X000850Y007948D01*
X000590Y007948D02*
X000220Y007948D01*
X000220Y007710D02*
X000296Y007710D01*
X000243Y007471D02*
X000220Y007471D01*
X000220Y007233D02*
X000308Y007233D01*
X000220Y006994D02*
X001020Y006994D01*
X001470Y006986D02*
X002720Y006986D01*
X003058Y006517D02*
X003382Y006517D01*
X004058Y006517D02*
X005243Y006517D01*
X005289Y006279D02*
X001920Y006279D01*
X001920Y006517D02*
X002382Y006517D01*
X001020Y006040D02*
X000891Y006040D01*
X000549Y006040D02*
X000220Y006040D01*
X000220Y006279D02*
X000289Y006279D01*
X000243Y006517D02*
X000220Y006517D01*
X000220Y006756D02*
X000315Y006756D01*
X000335Y005802D02*
X000220Y005802D01*
X000220Y005563D02*
X000229Y005563D01*
X000223Y005486D02*
X000223Y005446D01*
X000235Y005369D01*
X000259Y005295D01*
X000295Y005225D01*
X000341Y005162D01*
X000396Y005106D01*
X000459Y005060D01*
X000529Y005025D01*
X000604Y005001D01*
X000681Y004988D01*
X000720Y004988D01*
X000720Y005486D01*
X000720Y005486D01*
X000223Y005486D01*
X000220Y005325D02*
X000250Y005325D01*
X000220Y005086D02*
X000424Y005086D01*
X000450Y004890D02*
X000315Y004756D01*
X000243Y004581D01*
X000243Y004391D01*
X000315Y004215D01*
X000450Y004081D01*
X000625Y004008D01*
X000815Y004008D01*
X000990Y004081D01*
X001125Y004215D01*
X001197Y004391D01*
X001197Y004581D01*
X001125Y004756D01*
X000990Y004890D01*
X000815Y004963D01*
X000625Y004963D01*
X000450Y004890D01*
X000407Y004848D02*
X000220Y004848D01*
X000220Y004609D02*
X000255Y004609D01*
X000251Y004371D02*
X000220Y004371D01*
X000220Y004132D02*
X000399Y004132D01*
X000220Y003894D02*
X002426Y003894D01*
X002187Y004132D02*
X001041Y004132D01*
X001189Y004371D02*
X001949Y004371D01*
X001710Y004609D02*
X001185Y004609D01*
X001033Y004848D02*
X001472Y004848D01*
X000981Y005060D02*
X000911Y005025D01*
X000836Y005001D01*
X000759Y004988D01*
X000720Y004988D01*
X000720Y005486D01*
X000720Y005486D01*
X000720Y005563D02*
X000720Y005563D01*
X000720Y005325D02*
X000720Y005325D01*
X000720Y005086D02*
X000720Y005086D01*
X000981Y005060D02*
X001044Y005106D01*
X001099Y005162D01*
X001124Y005195D01*
X002916Y003404D01*
X002598Y003587D01*
X002099Y003701D01*
X002099Y003701D01*
X001587Y003663D01*
X001110Y003475D01*
X000709Y003156D01*
X000709Y003156D01*
X000420Y002732D01*
X000269Y002242D01*
X000269Y001729D01*
X000420Y001239D01*
X000709Y000816D01*
X001110Y000496D01*
X001423Y000316D02*
X001568Y000316D01*
X002099Y000270D02*
X002099Y000270D01*
X002299Y000316D02*
X058818Y000316D01*
X058360Y000496D02*
X058360Y000496D01*
X058287Y000555D02*
X002893Y000555D01*
X003184Y000793D02*
X057987Y000793D01*
X057959Y000816D02*
X057959Y000816D01*
X057812Y001032D02*
X003398Y001032D01*
X003391Y001017D02*
X003391Y001017D01*
X003513Y001270D02*
X057661Y001270D01*
X057670Y001239D02*
X057670Y001239D01*
X057587Y001509D02*
X003618Y001509D01*
X003614Y001479D02*
X003614Y001479D01*
X003654Y001747D02*
X003988Y001747D01*
X004366Y001747D02*
X004366Y001747D01*
X003618Y002463D02*
X006245Y002463D01*
X006245Y002701D02*
X003513Y002701D01*
X003398Y002940D02*
X006245Y002940D01*
X006245Y003178D02*
X003184Y003178D01*
X002903Y003417D02*
X002893Y003417D01*
X002664Y003655D02*
X002299Y003655D01*
X002598Y003587D02*
X002598Y003587D01*
X001587Y003663D02*
X001587Y003663D01*
X001568Y003655D02*
X000220Y003655D01*
X000220Y003417D02*
X001037Y003417D01*
X001110Y003475D02*
X001110Y003475D01*
X000737Y003178D02*
X000220Y003178D01*
X000220Y002940D02*
X000562Y002940D01*
X000420Y002732D02*
X000420Y002732D01*
X000411Y002701D02*
X000220Y002701D01*
X000220Y002463D02*
X000337Y002463D01*
X000269Y002224D02*
X000220Y002224D01*
X000237Y001747D02*
X000269Y001747D01*
X000287Y001509D02*
X000337Y001509D01*
X000374Y001270D02*
X000411Y001270D01*
X000420Y001239D02*
X000420Y001239D01*
X000504Y001032D02*
X000562Y001032D01*
X000709Y000816D02*
X000709Y000816D01*
X000688Y000793D02*
X000737Y000793D01*
X006942Y001747D02*
X057519Y001747D01*
X057519Y001986D02*
X006962Y001986D01*
X006942Y002224D02*
X057519Y002224D01*
X057587Y002463D02*
X006885Y002463D01*
X006885Y002701D02*
X057661Y002701D01*
X057670Y002732D02*
X057670Y002732D01*
X057812Y002940D02*
X006885Y002940D01*
X006885Y003178D02*
X057987Y003178D01*
X057959Y003156D02*
X057959Y003156D01*
X058287Y003417D02*
X056537Y003417D01*
X056670Y003655D02*
X058818Y003655D01*
X058360Y003475D02*
X058360Y003475D01*
X059549Y003655D02*
X060970Y003655D01*
X060970Y003417D02*
X060143Y003417D01*
X060292Y003330D02*
X060292Y003330D01*
X060434Y003178D02*
X060970Y003178D01*
X060970Y002940D02*
X060648Y002940D01*
X060641Y002955D02*
X060641Y002955D01*
X060763Y002701D02*
X060970Y002701D01*
X060864Y002493D02*
X060864Y002493D01*
X060868Y002463D02*
X060970Y002463D01*
X060970Y002224D02*
X060904Y002224D01*
X060904Y001747D02*
X060969Y001747D01*
X060934Y001509D02*
X060868Y001509D01*
X060864Y001479D02*
X060864Y001479D01*
X060860Y001270D02*
X060763Y001270D01*
X060745Y001032D02*
X060648Y001032D01*
X060641Y001017D02*
X060641Y001017D01*
X060576Y000793D02*
X060434Y000793D01*
X060315Y000555D02*
X060143Y000555D01*
X059861Y000316D02*
X059549Y000316D01*
X059349Y000270D02*
X059349Y000270D01*
X059848Y003587D02*
X059848Y003587D01*
X060970Y003894D02*
X056642Y003894D01*
X056580Y004132D02*
X060970Y004132D01*
X060970Y004371D02*
X057034Y004371D01*
X057118Y004609D02*
X060970Y004609D01*
X060970Y004848D02*
X057118Y004848D01*
X056720Y004736D02*
X056720Y005986D01*
X057160Y005802D02*
X057280Y005802D01*
X057315Y005715D02*
X057450Y005581D01*
X057625Y005508D01*
X057815Y005508D01*
X057990Y005581D01*
X058125Y005715D01*
X058197Y005891D01*
X058197Y006081D01*
X058125Y006256D01*
X057990Y006390D01*
X057815Y006463D01*
X057625Y006463D01*
X057450Y006390D01*
X057315Y006256D01*
X057243Y006081D01*
X057243Y005891D01*
X057315Y005715D01*
X057493Y005563D02*
X057040Y005563D01*
X057040Y005325D02*
X060970Y005325D01*
X060970Y005563D02*
X057947Y005563D01*
X058160Y005802D02*
X060970Y005802D01*
X060970Y006040D02*
X058197Y006040D01*
X058102Y006279D02*
X060970Y006279D01*
X060970Y006517D02*
X056580Y006517D01*
X056459Y006756D02*
X060970Y006756D01*
X060970Y006994D02*
X056290Y006994D01*
X056279Y007233D02*
X060970Y007233D01*
X060970Y007471D02*
X056041Y007471D01*
X056250Y007710D02*
X060970Y007710D01*
X060970Y007948D02*
X056290Y007948D01*
X056290Y008187D02*
X060970Y008187D01*
X060970Y008425D02*
X056087Y008425D01*
X056204Y008664D02*
X060970Y008664D01*
X060970Y008902D02*
X056290Y008902D01*
X056290Y009141D02*
X060970Y009141D01*
X060970Y009379D02*
X056133Y009379D01*
X055307Y009379D02*
X055133Y009379D01*
X054307Y009379D02*
X053607Y009379D01*
X053041Y009379D02*
X052927Y009379D01*
X052616Y009379D02*
X052616Y009379D01*
X052616Y009442D02*
X052429Y009442D01*
X052373Y009427D01*
X052323Y009398D01*
X052282Y009357D01*
X052253Y009307D01*
X052238Y009251D01*
X052238Y008986D01*
X052616Y008986D01*
X052616Y009442D01*
X052304Y009379D02*
X048412Y009379D01*
X048412Y009289D02*
X048295Y009171D01*
X047145Y009171D01*
X047028Y009289D01*
X047028Y011226D01*
X047145Y011343D01*
X048295Y011343D01*
X048412Y011226D01*
X048412Y010787D01*
X049772Y010787D01*
X050420Y011435D01*
X050615Y011516D01*
X050825Y011516D01*
X051020Y011435D01*
X051169Y011286D01*
X051240Y011116D01*
X051259Y011176D01*
X051295Y011246D01*
X051341Y011310D01*
X051396Y011365D01*
X051459Y011411D01*
X051529Y011446D01*
X051604Y011471D01*
X051681Y011483D01*
X051720Y011483D01*
X051720Y010986D01*
X051720Y010986D01*
X051720Y011483D01*
X051759Y011483D01*
X051836Y011471D01*
X051911Y011446D01*
X051981Y011411D01*
X052044Y011365D01*
X052099Y011310D01*
X052145Y011246D01*
X052181Y011176D01*
X052205Y011102D01*
X052217Y011025D01*
X052217Y010986D01*
X051720Y010986D01*
X051720Y010986D01*
X052217Y010986D01*
X052217Y010946D01*
X052205Y010869D01*
X052181Y010795D01*
X052145Y010725D01*
X052099Y010662D01*
X052044Y010606D01*
X051981Y010560D01*
X051911Y010525D01*
X051836Y010501D01*
X051759Y010488D01*
X051720Y010488D01*
X051720Y010986D01*
X051720Y010986D01*
X051720Y010488D01*
X051681Y010488D01*
X051604Y010501D01*
X051529Y010525D01*
X051459Y010560D01*
X051396Y010606D01*
X051341Y010662D01*
X051295Y010725D01*
X051259Y010795D01*
X051240Y010855D01*
X051169Y010685D01*
X050292Y009808D01*
X050097Y009727D01*
X048412Y009727D01*
X048412Y009289D01*
X048412Y009618D02*
X060970Y009618D01*
X060970Y009856D02*
X050340Y009856D01*
X050579Y010095D02*
X060970Y010095D01*
X060970Y010333D02*
X050817Y010333D01*
X051056Y010572D02*
X051444Y010572D01*
X051720Y010572D02*
X051720Y010572D01*
X051720Y010810D02*
X051720Y010810D01*
X051720Y011049D02*
X051720Y011049D01*
X052213Y011049D02*
X052240Y011049D01*
X052240Y010890D02*
X052313Y010714D01*
X052448Y010579D01*
X052625Y010506D01*
X052815Y010506D01*
X052992Y010579D01*
X053127Y010714D01*
X053200Y010890D01*
X053200Y012081D01*
X053127Y012258D01*
X052992Y012393D01*
X052450Y012934D01*
X052450Y016136D01*
X052453Y016136D01*
X052570Y016253D01*
X052570Y017218D01*
X052453Y017336D01*
X051487Y017336D01*
X051370Y017218D01*
X051370Y016253D01*
X051487Y016136D01*
X051490Y016136D01*
X051490Y012640D01*
X051563Y012464D01*
X052240Y011787D01*
X052240Y010890D01*
X052273Y010810D02*
X052186Y010810D01*
X051996Y010572D02*
X052465Y010572D01*
X052975Y010572D02*
X053465Y010572D01*
X053448Y010579D02*
X053625Y010506D01*
X053815Y010506D01*
X053992Y010579D01*
X054127Y010714D01*
X054200Y010890D01*
X054200Y012581D01*
X054127Y012758D01*
X053992Y012893D01*
X053828Y013056D01*
X053828Y016367D01*
X053857Y016396D01*
X053948Y016616D01*
X053948Y016855D01*
X053857Y017075D01*
X053688Y017244D01*
X053467Y017336D01*
X053229Y017336D01*
X053008Y017244D01*
X052839Y017075D01*
X052748Y016855D01*
X052748Y016616D01*
X052839Y016396D01*
X052868Y016367D01*
X052868Y012762D01*
X052941Y012586D01*
X053240Y012287D01*
X053240Y010890D01*
X053313Y010714D01*
X053448Y010579D01*
X053273Y010810D02*
X053167Y010810D01*
X053200Y011049D02*
X053240Y011049D01*
X053240Y011287D02*
X053200Y011287D01*
X053200Y011526D02*
X053240Y011526D01*
X053240Y011764D02*
X053200Y011764D01*
X053200Y012003D02*
X053240Y012003D01*
X053240Y012241D02*
X053134Y012241D01*
X053047Y012480D02*
X052905Y012480D01*
X052886Y012718D02*
X052666Y012718D01*
X052868Y012957D02*
X052450Y012957D01*
X052450Y013195D02*
X052868Y013195D01*
X053828Y013195D02*
X054240Y013195D01*
X054240Y012957D02*
X053928Y012957D01*
X053992Y012893D02*
X053992Y012893D01*
X054143Y012718D02*
X054240Y012718D01*
X054240Y012480D02*
X054200Y012480D01*
X054200Y012241D02*
X054240Y012241D01*
X054240Y012003D02*
X054200Y012003D01*
X054200Y011764D02*
X054240Y011764D01*
X054240Y011526D02*
X054200Y011526D01*
X054200Y011287D02*
X054240Y011287D01*
X054240Y011049D02*
X054200Y011049D01*
X054240Y010890D02*
X054313Y010714D01*
X054448Y010579D01*
X054625Y010506D01*
X054815Y010506D01*
X054992Y010579D01*
X055127Y010714D01*
X055200Y010890D01*
X055200Y013979D01*
X055205Y016366D01*
X055235Y016396D01*
X055326Y016616D01*
X055326Y016855D01*
X055235Y017075D01*
X055066Y017244D01*
X054845Y017336D01*
X054607Y017336D01*
X054386Y017244D01*
X054217Y017075D01*
X054126Y016855D01*
X054126Y016616D01*
X054217Y016396D01*
X054245Y016368D01*
X054240Y014076D01*
X054240Y014075D01*
X054240Y013980D01*
X054240Y013885D01*
X054240Y010890D01*
X054273Y010810D02*
X054167Y010810D01*
X053975Y010572D02*
X054465Y010572D01*
X054975Y010572D02*
X055465Y010572D01*
X055448Y010579D02*
X055625Y010506D01*
X055815Y010506D01*
X055992Y010579D01*
X056127Y010714D01*
X056200Y010890D01*
X056200Y011787D01*
X056511Y012098D01*
X056584Y012274D01*
X056584Y016367D01*
X056613Y016396D01*
X056704Y016616D01*
X056704Y016855D01*
X056613Y017075D01*
X056444Y017244D01*
X056223Y017336D01*
X055985Y017336D01*
X055764Y017244D01*
X055595Y017075D01*
X055504Y016855D01*
X055504Y016616D01*
X055595Y016396D01*
X055624Y016367D01*
X055624Y012568D01*
X055448Y012393D01*
X055313Y012258D01*
X055240Y012081D01*
X055240Y010890D01*
X055313Y010714D01*
X055448Y010579D01*
X055273Y010810D02*
X055167Y010810D01*
X055200Y011049D02*
X055240Y011049D01*
X056167Y010810D02*
X056276Y010810D01*
X056243Y010891D02*
X056315Y010715D01*
X056450Y010581D01*
X056625Y010508D01*
X056815Y010508D01*
X056990Y010581D01*
X057125Y010715D01*
X057197Y010891D01*
X057197Y011081D01*
X057125Y011256D01*
X056990Y011390D01*
X056815Y011463D01*
X056625Y011463D01*
X056450Y011390D01*
X056315Y011256D01*
X056243Y011081D01*
X056243Y010891D01*
X056243Y011049D02*
X056200Y011049D01*
X056200Y011287D02*
X056347Y011287D01*
X056200Y011526D02*
X060970Y011526D01*
X060970Y011764D02*
X056200Y011764D01*
X056416Y012003D02*
X060970Y012003D01*
X060970Y012241D02*
X056570Y012241D01*
X056584Y012480D02*
X060970Y012480D01*
X060970Y012718D02*
X056584Y012718D01*
X056584Y012957D02*
X060970Y012957D01*
X060970Y013195D02*
X056584Y013195D01*
X056584Y013434D02*
X060970Y013434D01*
X060970Y013672D02*
X056584Y013672D01*
X056584Y013911D02*
X060970Y013911D01*
X060970Y014149D02*
X056584Y014149D01*
X056584Y014388D02*
X060970Y014388D01*
X060970Y014626D02*
X056584Y014626D01*
X056584Y014865D02*
X060970Y014865D01*
X060970Y015103D02*
X056584Y015103D01*
X056584Y015342D02*
X060970Y015342D01*
X060970Y015580D02*
X056584Y015580D01*
X056584Y015819D02*
X058812Y015819D01*
X058837Y015809D02*
X058837Y015809D01*
X058360Y015996D01*
X058360Y015996D01*
X057959Y016316D01*
X057959Y016316D01*
X057670Y016739D01*
X057670Y016739D01*
X057519Y017229D01*
X057519Y017742D01*
X057670Y018232D01*
X057670Y018232D01*
X057959Y018656D01*
X057959Y018656D01*
X057959Y018656D01*
X058360Y018975D01*
X058360Y018975D01*
X058837Y019163D01*
X058837Y019163D01*
X059349Y019201D01*
X059349Y019201D01*
X059848Y019087D01*
X059848Y019087D01*
X060292Y018830D01*
X060292Y018830D01*
X060641Y018455D01*
X060641Y018455D01*
X060864Y017993D01*
X060864Y017993D01*
X060940Y017486D01*
X060864Y016979D01*
X060864Y016979D01*
X060641Y016517D01*
X060641Y016517D01*
X060292Y016141D01*
X060292Y016141D01*
X059848Y015885D01*
X059848Y015885D01*
X059349Y015770D01*
X059349Y015770D01*
X058837Y015809D01*
X058283Y016057D02*
X056584Y016057D01*
X056584Y016296D02*
X057984Y016296D01*
X057959Y016316D02*
X057959Y016316D01*
X057810Y016534D02*
X056670Y016534D01*
X056704Y016773D02*
X057660Y016773D01*
X057586Y017011D02*
X056639Y017011D01*
X056431Y017250D02*
X057519Y017250D01*
X057519Y017488D02*
X043450Y017488D01*
X043444Y017494D02*
X043223Y017586D01*
X042985Y017586D01*
X042764Y017494D01*
X042595Y017325D01*
X042504Y017105D01*
X042504Y016866D01*
X042595Y016646D01*
X042624Y016617D01*
X042624Y012568D01*
X042448Y012393D01*
X042313Y012258D01*
X042240Y012081D01*
X042240Y010890D01*
X042313Y010714D01*
X042448Y010579D01*
X042625Y010506D01*
X042815Y010506D01*
X042992Y010579D01*
X043127Y010714D01*
X043200Y010890D01*
X043200Y011787D01*
X043511Y012098D01*
X043584Y012274D01*
X043584Y016617D01*
X043613Y016646D01*
X043704Y016866D01*
X043704Y017105D01*
X043613Y017325D01*
X043444Y017494D01*
X043644Y017250D02*
X051401Y017250D01*
X051370Y017011D02*
X043704Y017011D01*
X043665Y016773D02*
X051370Y016773D01*
X051370Y016534D02*
X043584Y016534D01*
X043584Y016296D02*
X051370Y016296D01*
X051490Y016057D02*
X043584Y016057D01*
X043584Y015819D02*
X051490Y015819D01*
X051490Y015580D02*
X043584Y015580D01*
X043584Y015342D02*
X051490Y015342D01*
X051490Y015103D02*
X043584Y015103D01*
X043584Y014865D02*
X051490Y014865D01*
X051490Y014626D02*
X043584Y014626D01*
X043584Y014388D02*
X051490Y014388D01*
X051490Y014149D02*
X043584Y014149D01*
X043584Y013911D02*
X051490Y013911D01*
X051490Y013672D02*
X043584Y013672D01*
X043584Y013434D02*
X051490Y013434D01*
X052450Y013434D02*
X052868Y013434D01*
X052868Y013672D02*
X052450Y013672D01*
X052450Y013911D02*
X052868Y013911D01*
X052868Y014149D02*
X052450Y014149D01*
X052450Y014388D02*
X052868Y014388D01*
X053828Y014388D02*
X054241Y014388D01*
X054240Y014149D02*
X053828Y014149D01*
X053828Y013911D02*
X054240Y013911D01*
X054240Y013885D02*
X054240Y013885D01*
X054240Y013672D02*
X053828Y013672D01*
X053828Y013434D02*
X054240Y013434D01*
X055200Y013434D02*
X055624Y013434D01*
X055624Y013672D02*
X055200Y013672D01*
X055200Y013911D02*
X055624Y013911D01*
X055624Y014149D02*
X055200Y014149D01*
X055201Y014388D02*
X055624Y014388D01*
X055624Y014626D02*
X055201Y014626D01*
X055202Y014865D02*
X055624Y014865D01*
X055624Y015103D02*
X055202Y015103D01*
X055203Y015342D02*
X055624Y015342D01*
X055624Y015580D02*
X055203Y015580D01*
X055204Y015819D02*
X055624Y015819D01*
X055624Y016057D02*
X055204Y016057D01*
X055205Y016296D02*
X055624Y016296D01*
X055538Y016534D02*
X055292Y016534D01*
X055326Y016773D02*
X055504Y016773D01*
X055569Y017011D02*
X055261Y017011D01*
X055053Y017250D02*
X055777Y017250D01*
X054399Y017250D02*
X053675Y017250D01*
X053883Y017011D02*
X054191Y017011D01*
X054126Y016773D02*
X053948Y016773D01*
X053914Y016534D02*
X054160Y016534D01*
X054245Y016296D02*
X053828Y016296D01*
X053828Y016057D02*
X054244Y016057D01*
X054244Y015819D02*
X053828Y015819D01*
X053828Y015580D02*
X054243Y015580D01*
X054243Y015342D02*
X053828Y015342D01*
X053828Y015103D02*
X054242Y015103D01*
X054242Y014865D02*
X053828Y014865D01*
X053828Y014626D02*
X054241Y014626D01*
X052868Y014626D02*
X052450Y014626D01*
X052450Y014865D02*
X052868Y014865D01*
X052868Y015103D02*
X052450Y015103D01*
X052450Y015342D02*
X052868Y015342D01*
X052868Y015580D02*
X052450Y015580D01*
X052450Y015819D02*
X052868Y015819D01*
X052868Y016057D02*
X052450Y016057D01*
X052570Y016296D02*
X052868Y016296D01*
X052782Y016534D02*
X052570Y016534D01*
X052570Y016773D02*
X052748Y016773D01*
X052813Y017011D02*
X052570Y017011D01*
X052539Y017250D02*
X053021Y017250D01*
X057519Y017727D02*
X030461Y017727D01*
X030444Y017744D02*
X030223Y017836D01*
X029985Y017836D01*
X029764Y017744D01*
X029595Y017575D01*
X029504Y017355D01*
X029504Y017116D01*
X029595Y016896D01*
X029624Y016867D01*
X029624Y012568D01*
X029448Y012393D01*
X029313Y012258D01*
X029240Y012081D01*
X029240Y010890D01*
X029313Y010714D01*
X029448Y010579D01*
X029625Y010506D01*
X029815Y010506D01*
X029992Y010579D01*
X030127Y010714D01*
X030200Y010890D01*
X030200Y011787D01*
X030511Y012098D01*
X030584Y012274D01*
X030584Y016867D01*
X030613Y016896D01*
X030704Y017116D01*
X030704Y017355D01*
X030613Y017575D01*
X030444Y017744D01*
X029746Y017727D02*
X029083Y017727D01*
X029066Y017744D02*
X028845Y017836D01*
X028607Y017836D01*
X028386Y017744D01*
X028217Y017575D01*
X028126Y017355D01*
X028126Y017116D01*
X028217Y016896D01*
X028246Y016867D01*
X028246Y011095D01*
X028240Y011081D01*
X028240Y010890D01*
X028313Y010714D01*
X028448Y010579D01*
X028625Y010506D01*
X028815Y010506D01*
X028992Y010579D01*
X029133Y010720D01*
X029206Y010896D01*
X029206Y011087D01*
X029206Y016867D01*
X029235Y016896D01*
X029326Y017116D01*
X029326Y017355D01*
X029235Y017575D01*
X029066Y017744D01*
X028368Y017727D02*
X027705Y017727D01*
X027688Y017744D02*
X027467Y017836D01*
X027229Y017836D01*
X027008Y017744D01*
X026839Y017575D01*
X026748Y017355D01*
X026748Y017116D01*
X026839Y016896D01*
X026868Y016867D01*
X026868Y012762D01*
X026941Y012586D01*
X027240Y012287D01*
X027240Y010890D01*
X027313Y010714D01*
X027448Y010579D01*
X027625Y010506D01*
X027815Y010506D01*
X027992Y010579D01*
X028127Y010714D01*
X028200Y010890D01*
X028200Y012581D01*
X028127Y012758D01*
X027992Y012893D01*
X027828Y013056D01*
X027828Y016867D01*
X027857Y016896D01*
X027948Y017116D01*
X027948Y017355D01*
X027857Y017575D01*
X027688Y017744D01*
X026990Y017727D02*
X026562Y017727D01*
X026570Y017718D02*
X026453Y017836D01*
X025487Y017836D01*
X025370Y017718D01*
X025370Y016753D01*
X025487Y016636D01*
X025490Y016636D01*
X025490Y012640D01*
X025563Y012464D01*
X026240Y011787D01*
X026240Y010890D01*
X026313Y010714D01*
X026448Y010579D01*
X026625Y010506D01*
X026815Y010506D01*
X026992Y010579D01*
X027127Y010714D01*
X027200Y010890D01*
X027200Y012081D01*
X027127Y012258D01*
X026992Y012393D01*
X026450Y012934D01*
X026450Y016636D01*
X026453Y016636D01*
X026570Y016753D01*
X026570Y017718D01*
X026570Y017488D02*
X026803Y017488D01*
X026748Y017250D02*
X026570Y017250D01*
X026570Y017011D02*
X026792Y017011D01*
X026868Y016773D02*
X026570Y016773D01*
X026450Y016534D02*
X026868Y016534D01*
X026868Y016296D02*
X026450Y016296D01*
X026450Y016057D02*
X026868Y016057D01*
X026868Y015819D02*
X026450Y015819D01*
X026450Y015580D02*
X026868Y015580D01*
X026868Y015342D02*
X026450Y015342D01*
X026450Y015103D02*
X026868Y015103D01*
X026868Y014865D02*
X026450Y014865D01*
X026450Y014626D02*
X026868Y014626D01*
X026868Y014388D02*
X026450Y014388D01*
X026450Y014149D02*
X026868Y014149D01*
X026868Y013911D02*
X026450Y013911D01*
X026450Y013672D02*
X026868Y013672D01*
X026868Y013434D02*
X026450Y013434D01*
X026450Y013195D02*
X026868Y013195D01*
X026868Y012957D02*
X026450Y012957D01*
X026666Y012718D02*
X026886Y012718D01*
X026905Y012480D02*
X027047Y012480D01*
X028143Y012718D02*
X028246Y012718D01*
X028246Y012480D02*
X028200Y012480D01*
X029206Y012480D02*
X029535Y012480D01*
X029624Y012718D02*
X029206Y012718D01*
X029206Y012957D02*
X029624Y012957D01*
X029624Y013195D02*
X029206Y013195D01*
X028246Y013195D02*
X027828Y013195D01*
X027928Y012957D02*
X028246Y012957D01*
X028246Y013434D02*
X027828Y013434D01*
X027828Y013672D02*
X028246Y013672D01*
X028246Y013911D02*
X027828Y013911D01*
X027828Y014149D02*
X028246Y014149D01*
X028246Y014388D02*
X027828Y014388D01*
X027828Y014626D02*
X028246Y014626D01*
X028246Y014865D02*
X027828Y014865D01*
X027828Y015103D02*
X028246Y015103D01*
X028246Y015342D02*
X027828Y015342D01*
X027828Y015580D02*
X028246Y015580D01*
X028246Y015819D02*
X027828Y015819D01*
X027828Y016057D02*
X028246Y016057D01*
X028246Y016296D02*
X027828Y016296D01*
X027828Y016534D02*
X028246Y016534D01*
X029206Y016534D02*
X029624Y016534D01*
X029624Y016296D02*
X029206Y016296D01*
X029206Y016057D02*
X029624Y016057D01*
X029624Y015819D02*
X029206Y015819D01*
X029206Y015580D02*
X029624Y015580D01*
X030584Y015580D02*
X038490Y015580D01*
X038490Y015819D02*
X030584Y015819D01*
X030584Y016057D02*
X038490Y016057D01*
X038490Y016296D02*
X030584Y016296D01*
X030584Y016534D02*
X038370Y016534D01*
X038370Y016503D02*
X038487Y016386D01*
X038490Y016386D01*
X038490Y012640D01*
X038563Y012464D01*
X039240Y011787D01*
X039240Y010890D01*
X039313Y010714D01*
X039448Y010579D01*
X039625Y010506D01*
X039815Y010506D01*
X039992Y010579D01*
X040127Y010714D01*
X040200Y010890D01*
X040200Y012081D01*
X040127Y012258D01*
X039992Y012393D01*
X039450Y012934D01*
X039450Y016386D01*
X039453Y016386D01*
X039570Y016503D01*
X039570Y017468D01*
X039453Y017586D01*
X038487Y017586D01*
X038370Y017468D01*
X038370Y016503D01*
X038370Y016773D02*
X030584Y016773D01*
X030660Y017011D02*
X038370Y017011D01*
X038370Y017250D02*
X030704Y017250D01*
X030649Y017488D02*
X038390Y017488D01*
X039550Y017488D02*
X040002Y017488D01*
X040008Y017494D02*
X039839Y017325D01*
X039748Y017105D01*
X039748Y016866D01*
X039839Y016646D01*
X039868Y016617D01*
X039868Y012762D01*
X039941Y012586D01*
X040240Y012287D01*
X040240Y010890D01*
X040313Y010714D01*
X040448Y010579D01*
X040625Y010506D01*
X040815Y010506D01*
X040992Y010579D01*
X041127Y010714D01*
X041200Y010890D01*
X041200Y012581D01*
X041127Y012758D01*
X040992Y012893D01*
X040828Y013056D01*
X040828Y016617D01*
X040857Y016646D01*
X040948Y016866D01*
X040948Y017105D01*
X040857Y017325D01*
X040688Y017494D01*
X040467Y017586D01*
X040229Y017586D01*
X040008Y017494D01*
X039808Y017250D02*
X039570Y017250D01*
X039570Y017011D02*
X039748Y017011D01*
X039787Y016773D02*
X039570Y016773D01*
X039570Y016534D02*
X039868Y016534D01*
X039868Y016296D02*
X039450Y016296D01*
X039450Y016057D02*
X039868Y016057D01*
X039868Y015819D02*
X039450Y015819D01*
X039450Y015580D02*
X039868Y015580D01*
X040828Y015580D02*
X041246Y015580D01*
X041246Y015819D02*
X040828Y015819D01*
X040828Y016057D02*
X041246Y016057D01*
X041246Y016296D02*
X040828Y016296D01*
X040828Y016534D02*
X041246Y016534D01*
X041246Y016617D02*
X041246Y011095D01*
X041240Y011081D01*
X041240Y010890D01*
X041313Y010714D01*
X041448Y010579D01*
X041625Y010506D01*
X041815Y010506D01*
X041992Y010579D01*
X042133Y010720D01*
X042206Y010896D01*
X042206Y011087D01*
X042206Y016617D01*
X042235Y016646D01*
X042326Y016866D01*
X042326Y017105D01*
X042235Y017325D01*
X042066Y017494D01*
X041845Y017586D01*
X041607Y017586D01*
X041386Y017494D01*
X041217Y017325D01*
X041126Y017105D01*
X041126Y016866D01*
X041217Y016646D01*
X041246Y016617D01*
X041165Y016773D02*
X040909Y016773D01*
X040948Y017011D02*
X041126Y017011D01*
X041186Y017250D02*
X040888Y017250D01*
X040694Y017488D02*
X041380Y017488D01*
X042072Y017488D02*
X042758Y017488D01*
X042564Y017250D02*
X042266Y017250D01*
X042326Y017011D02*
X042504Y017011D01*
X042543Y016773D02*
X042287Y016773D01*
X042206Y016534D02*
X042624Y016534D01*
X042624Y016296D02*
X042206Y016296D01*
X042206Y016057D02*
X042624Y016057D01*
X042624Y015819D02*
X042206Y015819D01*
X042206Y015580D02*
X042624Y015580D01*
X042624Y015342D02*
X042206Y015342D01*
X042206Y015103D02*
X042624Y015103D01*
X042624Y014865D02*
X042206Y014865D01*
X042206Y014626D02*
X042624Y014626D01*
X042624Y014388D02*
X042206Y014388D01*
X042206Y014149D02*
X042624Y014149D01*
X042624Y013911D02*
X042206Y013911D01*
X042206Y013672D02*
X042624Y013672D01*
X042624Y013434D02*
X042206Y013434D01*
X041246Y013434D02*
X040828Y013434D01*
X040828Y013672D02*
X041246Y013672D01*
X041246Y013911D02*
X040828Y013911D01*
X040828Y014149D02*
X041246Y014149D01*
X041246Y014388D02*
X040828Y014388D01*
X039868Y014388D02*
X039450Y014388D01*
X039450Y014149D02*
X039868Y014149D01*
X039868Y013911D02*
X039450Y013911D01*
X039450Y013672D02*
X039868Y013672D01*
X039868Y013434D02*
X039450Y013434D01*
X039450Y013195D02*
X039868Y013195D01*
X039868Y012957D02*
X039450Y012957D01*
X039666Y012718D02*
X039886Y012718D01*
X039905Y012480D02*
X040047Y012480D01*
X040134Y012241D02*
X040240Y012241D01*
X040240Y012003D02*
X040200Y012003D01*
X040200Y011764D02*
X040240Y011764D01*
X040240Y011526D02*
X040200Y011526D01*
X040200Y011287D02*
X040240Y011287D01*
X039240Y011287D02*
X039115Y011287D01*
X039240Y011526D02*
X030200Y011526D01*
X030200Y011764D02*
X039240Y011764D01*
X039024Y012003D02*
X030416Y012003D01*
X030570Y012241D02*
X038786Y012241D01*
X038556Y012480D02*
X030584Y012480D01*
X030584Y012718D02*
X038490Y012718D01*
X038490Y012957D02*
X030584Y012957D01*
X030584Y013195D02*
X038490Y013195D01*
X038490Y013434D02*
X030584Y013434D01*
X030584Y013672D02*
X038490Y013672D01*
X038490Y013911D02*
X030584Y013911D01*
X030584Y014149D02*
X038490Y014149D01*
X038490Y014388D02*
X030584Y014388D01*
X029624Y014388D02*
X029206Y014388D01*
X029206Y014149D02*
X029624Y014149D01*
X029624Y013911D02*
X029206Y013911D01*
X029206Y013672D02*
X029624Y013672D01*
X029624Y013434D02*
X029206Y013434D01*
X029206Y014626D02*
X029624Y014626D01*
X029624Y014865D02*
X029206Y014865D01*
X029206Y015103D02*
X029624Y015103D01*
X029624Y015342D02*
X029206Y015342D01*
X030584Y015342D02*
X038490Y015342D01*
X038490Y015103D02*
X030584Y015103D01*
X030584Y014865D02*
X038490Y014865D01*
X038490Y014626D02*
X030584Y014626D01*
X025490Y014626D02*
X017584Y014626D01*
X017584Y014865D02*
X025490Y014865D01*
X025490Y015103D02*
X017584Y015103D01*
X017584Y015342D02*
X025490Y015342D01*
X025490Y015580D02*
X017584Y015580D01*
X017584Y015819D02*
X025490Y015819D01*
X025490Y016057D02*
X017584Y016057D01*
X017584Y016296D02*
X025490Y016296D01*
X025490Y016534D02*
X017584Y016534D01*
X016624Y016534D02*
X016206Y016534D01*
X016206Y016296D02*
X016624Y016296D01*
X016624Y016057D02*
X016206Y016057D01*
X016206Y015819D02*
X016624Y015819D01*
X016624Y015580D02*
X016206Y015580D01*
X016206Y015342D02*
X016624Y015342D01*
X016624Y015103D02*
X016206Y015103D01*
X016206Y014865D02*
X016624Y014865D01*
X016624Y014626D02*
X016206Y014626D01*
X016206Y014388D02*
X016624Y014388D01*
X016624Y014149D02*
X016206Y014149D01*
X016206Y013911D02*
X016624Y013911D01*
X016624Y013672D02*
X016206Y013672D01*
X016206Y013434D02*
X016624Y013434D01*
X017584Y013434D02*
X025490Y013434D01*
X025490Y013672D02*
X017584Y013672D01*
X017584Y013911D02*
X025490Y013911D01*
X025490Y014149D02*
X017584Y014149D01*
X017584Y014388D02*
X025490Y014388D01*
X025490Y013195D02*
X017584Y013195D01*
X017584Y012957D02*
X025490Y012957D01*
X025490Y012718D02*
X017584Y012718D01*
X017584Y012480D02*
X025556Y012480D01*
X025786Y012241D02*
X017570Y012241D01*
X017584Y012274D02*
X017511Y012098D01*
X017200Y011787D01*
X017200Y010890D01*
X017127Y010714D01*
X016992Y010579D01*
X016815Y010506D01*
X016625Y010506D01*
X016448Y010579D01*
X016313Y010714D01*
X016240Y010890D01*
X016240Y012081D01*
X016313Y012258D01*
X016448Y012393D01*
X016624Y012568D01*
X016624Y016867D01*
X016595Y016896D01*
X016504Y017116D01*
X016504Y017355D01*
X016595Y017575D01*
X016764Y017744D01*
X016985Y017836D01*
X017223Y017836D01*
X017444Y017744D01*
X017613Y017575D01*
X017704Y017355D01*
X017704Y017116D01*
X017613Y016896D01*
X017584Y016867D01*
X017584Y012274D01*
X016535Y012480D02*
X016206Y012480D01*
X016206Y012718D02*
X016624Y012718D01*
X016624Y012957D02*
X016206Y012957D01*
X016206Y013195D02*
X016624Y013195D01*
X015246Y013195D02*
X014939Y013195D01*
X014992Y013143D02*
X014828Y013306D01*
X014828Y016867D01*
X014857Y016896D01*
X014948Y017116D01*
X014948Y017355D01*
X014857Y017575D01*
X014688Y017744D01*
X014467Y017836D01*
X014229Y017836D01*
X014008Y017744D01*
X013839Y017575D01*
X013748Y017355D01*
X013748Y017116D01*
X013839Y016896D01*
X013868Y016867D01*
X013868Y013012D01*
X013941Y012836D01*
X014240Y012537D01*
X014240Y010890D01*
X014313Y010714D01*
X014448Y010579D01*
X014625Y010506D01*
X014815Y010506D01*
X014992Y010579D01*
X015127Y010714D01*
X015200Y010890D01*
X015200Y012831D01*
X015127Y013008D01*
X014992Y013143D01*
X015148Y012957D02*
X015246Y012957D01*
X015246Y012718D02*
X015200Y012718D01*
X015200Y012480D02*
X015246Y012480D01*
X014240Y012480D02*
X013905Y012480D01*
X013992Y012393D02*
X013450Y012934D01*
X013450Y016636D01*
X013453Y016636D01*
X013570Y016753D01*
X013570Y017718D01*
X013453Y017836D01*
X012487Y017836D01*
X012370Y017718D01*
X012370Y016753D01*
X012487Y016636D01*
X012490Y016636D01*
X012490Y012640D01*
X012563Y012464D01*
X013240Y011787D01*
X013240Y010890D01*
X013313Y010714D01*
X013448Y010579D01*
X013625Y010506D01*
X013815Y010506D01*
X013992Y010579D01*
X014127Y010714D01*
X014200Y010890D01*
X014200Y012081D01*
X014127Y012258D01*
X013992Y012393D01*
X014134Y012241D02*
X014240Y012241D01*
X014240Y012003D02*
X014200Y012003D01*
X014200Y011764D02*
X014240Y011764D01*
X014240Y011526D02*
X014200Y011526D01*
X014200Y011287D02*
X014240Y011287D01*
X015200Y011287D02*
X015246Y011287D01*
X015246Y011095D02*
X015240Y011081D01*
X015240Y010890D01*
X015313Y010714D01*
X015448Y010579D01*
X015625Y010506D01*
X015815Y010506D01*
X015992Y010579D01*
X016133Y010720D01*
X016206Y010896D01*
X016206Y011087D01*
X016206Y016867D01*
X016235Y016896D01*
X016326Y017116D01*
X016326Y017355D01*
X016235Y017575D01*
X016066Y017744D01*
X015845Y017836D01*
X015607Y017836D01*
X015386Y017744D01*
X015217Y017575D01*
X015126Y017355D01*
X015126Y017116D01*
X015217Y016896D01*
X015246Y016867D01*
X015246Y011095D01*
X015240Y011049D02*
X015200Y011049D01*
X015167Y010810D02*
X015273Y010810D01*
X015465Y010572D02*
X014975Y010572D01*
X014465Y010572D02*
X013975Y010572D01*
X014167Y010810D02*
X014273Y010810D01*
X014240Y011049D02*
X014200Y011049D01*
X013465Y010572D02*
X012996Y010572D01*
X012720Y010572D02*
X012720Y010572D01*
X012720Y010488D02*
X012720Y010986D01*
X012720Y011483D01*
X012720Y010986D01*
X012720Y010986D01*
X013217Y010986D01*
X012720Y010986D01*
X012720Y010986D01*
X012720Y010986D01*
X012720Y010488D01*
X012444Y010572D02*
X012056Y010572D01*
X012020Y010536D02*
X012020Y010536D01*
X011817Y010333D02*
X021028Y010333D01*
X021028Y010572D02*
X018996Y010572D01*
X018981Y010560D02*
X019044Y010606D01*
X019099Y010662D01*
X019145Y010725D01*
X019181Y010795D01*
X019205Y010869D01*
X019217Y010946D01*
X019217Y010986D01*
X019217Y011025D01*
X019205Y011102D01*
X019181Y011176D01*
X019145Y011246D01*
X019099Y011310D01*
X019044Y011365D01*
X018981Y011411D01*
X018911Y011446D01*
X018836Y011471D01*
X018759Y011483D01*
X018720Y011483D01*
X018681Y011483D01*
X018604Y011471D01*
X018529Y011446D01*
X018459Y011411D01*
X018396Y011365D01*
X018341Y011310D01*
X018295Y011246D01*
X018259Y011176D01*
X018235Y011102D01*
X018223Y011025D01*
X018223Y010986D01*
X018720Y010986D01*
X018720Y011483D01*
X018720Y010986D01*
X018720Y010986D01*
X018720Y010986D01*
X019217Y010986D01*
X018720Y010986D01*
X018720Y010986D01*
X018223Y010986D01*
X018223Y010946D01*
X018235Y010869D01*
X018259Y010795D01*
X018295Y010725D01*
X018341Y010662D01*
X018396Y010606D01*
X018459Y010560D01*
X018529Y010525D01*
X018604Y010501D01*
X018681Y010488D01*
X018720Y010488D01*
X018759Y010488D01*
X018836Y010501D01*
X018911Y010525D01*
X018981Y010560D01*
X018720Y010572D02*
X018720Y010572D01*
X018720Y010488D02*
X018720Y010986D01*
X018720Y010986D01*
X018720Y010488D01*
X018444Y010572D02*
X017967Y010572D01*
X017990Y010581D02*
X018125Y010715D01*
X018197Y010891D01*
X018197Y011081D01*
X018125Y011256D01*
X017990Y011390D01*
X017815Y011463D01*
X017625Y011463D01*
X017450Y011390D01*
X017315Y011256D01*
X017243Y011081D01*
X017243Y010891D01*
X017315Y010715D01*
X017450Y010581D01*
X017625Y010508D01*
X017815Y010508D01*
X017990Y010581D01*
X018164Y010810D02*
X018254Y010810D01*
X018227Y011049D02*
X018197Y011049D01*
X018720Y011049D02*
X018720Y011049D01*
X018720Y010810D02*
X018720Y010810D01*
X019186Y010810D02*
X021028Y010810D01*
X021028Y011049D02*
X019213Y011049D01*
X019115Y011287D02*
X021089Y011287D01*
X022351Y011287D02*
X024272Y011287D01*
X024033Y011049D02*
X022412Y011049D01*
X022412Y010810D02*
X023795Y010810D01*
X024817Y010333D02*
X034028Y010333D01*
X034028Y010572D02*
X031996Y010572D01*
X031981Y010560D02*
X032044Y010606D01*
X032099Y010662D01*
X032145Y010725D01*
X032181Y010795D01*
X032205Y010869D01*
X032217Y010946D01*
X032217Y010986D01*
X032217Y011025D01*
X032205Y011102D01*
X032181Y011176D01*
X032145Y011246D01*
X032099Y011310D01*
X032044Y011365D01*
X031981Y011411D01*
X031911Y011446D01*
X031836Y011471D01*
X031759Y011483D01*
X031720Y011483D01*
X031681Y011483D01*
X031604Y011471D01*
X031529Y011446D01*
X031459Y011411D01*
X031396Y011365D01*
X031341Y011310D01*
X031295Y011246D01*
X031259Y011176D01*
X031235Y011102D01*
X031223Y011025D01*
X031223Y010986D01*
X031720Y010986D01*
X031720Y011483D01*
X031720Y010986D01*
X031720Y010986D01*
X031720Y010986D01*
X032217Y010986D01*
X031720Y010986D01*
X031720Y010986D01*
X031223Y010986D01*
X031223Y010946D01*
X031235Y010869D01*
X031259Y010795D01*
X031295Y010725D01*
X031341Y010662D01*
X031396Y010606D01*
X031459Y010560D01*
X031529Y010525D01*
X031604Y010501D01*
X031681Y010488D01*
X031720Y010488D01*
X031759Y010488D01*
X031836Y010501D01*
X031911Y010525D01*
X031981Y010560D01*
X031720Y010572D02*
X031720Y010572D01*
X031720Y010488D02*
X031720Y010986D01*
X031720Y010986D01*
X031720Y010488D01*
X031444Y010572D02*
X030967Y010572D01*
X030990Y010581D02*
X031125Y010715D01*
X031197Y010891D01*
X031197Y011081D01*
X031125Y011256D01*
X030990Y011390D01*
X030815Y011463D01*
X030625Y011463D01*
X030450Y011390D01*
X030315Y011256D01*
X030243Y011081D01*
X030243Y010891D01*
X030315Y010715D01*
X030450Y010581D01*
X030625Y010508D01*
X030815Y010508D01*
X030990Y010581D01*
X031164Y010810D02*
X031254Y010810D01*
X031227Y011049D02*
X031197Y011049D01*
X031720Y011049D02*
X031720Y011049D01*
X031720Y010810D02*
X031720Y010810D01*
X032186Y010810D02*
X034028Y010810D01*
X034028Y011049D02*
X032213Y011049D01*
X032115Y011287D02*
X034089Y011287D01*
X035351Y011287D02*
X037272Y011287D01*
X037033Y011049D02*
X035412Y011049D01*
X035412Y010810D02*
X036795Y010810D01*
X037817Y010333D02*
X047028Y010333D01*
X047028Y010572D02*
X044996Y010572D01*
X044981Y010560D02*
X045044Y010606D01*
X045099Y010662D01*
X045145Y010725D01*
X045181Y010795D01*
X045205Y010869D01*
X045217Y010946D01*
X045217Y010986D01*
X045217Y011025D01*
X045205Y011102D01*
X045181Y011176D01*
X045145Y011246D01*
X045099Y011310D01*
X045044Y011365D01*
X044981Y011411D01*
X044911Y011446D01*
X044836Y011471D01*
X044759Y011483D01*
X044720Y011483D01*
X044681Y011483D01*
X044604Y011471D01*
X044529Y011446D01*
X044459Y011411D01*
X044396Y011365D01*
X044341Y011310D01*
X044295Y011246D01*
X044259Y011176D01*
X044235Y011102D01*
X044223Y011025D01*
X044223Y010986D01*
X044720Y010986D01*
X044720Y011483D01*
X044720Y010986D01*
X044720Y010986D01*
X044720Y010986D01*
X045217Y010986D01*
X044720Y010986D01*
X044720Y010986D01*
X044223Y010986D01*
X044223Y010946D01*
X044235Y010869D01*
X044259Y010795D01*
X044295Y010725D01*
X044341Y010662D01*
X044396Y010606D01*
X044459Y010560D01*
X044529Y010525D01*
X044604Y010501D01*
X044681Y010488D01*
X044720Y010488D01*
X044759Y010488D01*
X044836Y010501D01*
X044911Y010525D01*
X044981Y010560D01*
X044720Y010572D02*
X044720Y010572D01*
X044720Y010488D02*
X044720Y010986D01*
X044720Y010986D01*
X044720Y010488D01*
X044444Y010572D02*
X043967Y010572D01*
X043990Y010581D02*
X044125Y010715D01*
X044197Y010891D01*
X044197Y011081D01*
X044125Y011256D01*
X043990Y011390D01*
X043815Y011463D01*
X043625Y011463D01*
X043450Y011390D01*
X043315Y011256D01*
X043243Y011081D01*
X043243Y010891D01*
X043315Y010715D01*
X043450Y010581D01*
X043625Y010508D01*
X043815Y010508D01*
X043990Y010581D01*
X044164Y010810D02*
X044254Y010810D01*
X044227Y011049D02*
X044197Y011049D01*
X044720Y011049D02*
X044720Y011049D01*
X044720Y010810D02*
X044720Y010810D01*
X045186Y010810D02*
X047028Y010810D01*
X047028Y011049D02*
X045213Y011049D01*
X045115Y011287D02*
X047089Y011287D01*
X048351Y011287D02*
X050272Y011287D01*
X051168Y011287D02*
X051325Y011287D01*
X051720Y011287D02*
X051720Y011287D01*
X052115Y011287D02*
X052240Y011287D01*
X052240Y011526D02*
X043200Y011526D01*
X043200Y011764D02*
X052240Y011764D01*
X052024Y012003D02*
X043416Y012003D01*
X043570Y012241D02*
X051786Y012241D01*
X051556Y012480D02*
X043584Y012480D01*
X043584Y012718D02*
X051490Y012718D01*
X051490Y012957D02*
X043584Y012957D01*
X043584Y013195D02*
X051490Y013195D01*
X055200Y013195D02*
X055624Y013195D01*
X055624Y012957D02*
X055200Y012957D01*
X055200Y012718D02*
X055624Y012718D01*
X055535Y012480D02*
X055200Y012480D01*
X055200Y012241D02*
X055306Y012241D01*
X055240Y012003D02*
X055200Y012003D01*
X055200Y011764D02*
X055240Y011764D01*
X055240Y011526D02*
X055200Y011526D01*
X055200Y011287D02*
X055240Y011287D01*
X057093Y011287D02*
X057325Y011287D01*
X057341Y011310D02*
X057295Y011246D01*
X057259Y011176D01*
X057235Y011102D01*
X057223Y011025D01*
X057223Y010986D01*
X057720Y010986D01*
X057720Y011483D01*
X057681Y011483D01*
X057604Y011471D01*
X057529Y011446D01*
X057459Y011411D01*
X057396Y011365D01*
X057341Y011310D01*
X057720Y011287D02*
X057720Y011287D01*
X057720Y011483D02*
X057720Y010986D01*
X057720Y010986D01*
X057720Y010986D01*
X058217Y010986D01*
X058217Y011025D01*
X058205Y011102D01*
X058181Y011176D01*
X058145Y011246D01*
X058099Y011310D01*
X058044Y011365D01*
X057981Y011411D01*
X057911Y011446D01*
X057836Y011471D01*
X057759Y011483D01*
X057720Y011483D01*
X058115Y011287D02*
X060970Y011287D01*
X060970Y011049D02*
X058213Y011049D01*
X058217Y010986D02*
X057720Y010986D01*
X057720Y010986D01*
X057223Y010986D01*
X057223Y010946D01*
X057235Y010869D01*
X057259Y010795D01*
X057295Y010725D01*
X057341Y010662D01*
X057396Y010606D01*
X057459Y010560D01*
X057529Y010525D01*
X057604Y010501D01*
X057681Y010488D01*
X057720Y010488D01*
X057759Y010488D01*
X057836Y010501D01*
X057911Y010525D01*
X057981Y010560D01*
X058044Y010606D01*
X058099Y010662D01*
X058145Y010725D01*
X058181Y010795D01*
X058205Y010869D01*
X058217Y010946D01*
X058217Y010986D01*
X058186Y010810D02*
X060970Y010810D01*
X060970Y010572D02*
X057996Y010572D01*
X057720Y010572D02*
X057720Y010572D01*
X057720Y010488D02*
X057720Y010986D01*
X057720Y010986D01*
X057720Y010488D01*
X057444Y010572D02*
X056967Y010572D01*
X057164Y010810D02*
X057254Y010810D01*
X057227Y011049D02*
X057197Y011049D01*
X057720Y011049D02*
X057720Y011049D01*
X057720Y010810D02*
X057720Y010810D01*
X056473Y010572D02*
X055975Y010572D01*
X052616Y009141D02*
X052616Y009141D01*
X052616Y008986D02*
X052616Y008986D01*
X052616Y008986D01*
X052616Y008529D01*
X052429Y008529D01*
X052373Y008544D01*
X052323Y008573D01*
X052282Y008614D01*
X052253Y008664D01*
X052238Y008720D01*
X052238Y008986D01*
X052616Y008986D01*
X052616Y008902D02*
X052616Y008902D01*
X052616Y008664D02*
X052616Y008664D01*
X052254Y008664D02*
X043204Y008664D01*
X043290Y008902D02*
X052238Y008902D01*
X052238Y009141D02*
X043290Y009141D01*
X043133Y009379D02*
X047028Y009379D01*
X047028Y009618D02*
X035412Y009618D01*
X035412Y009379D02*
X039304Y009379D01*
X039616Y009379D02*
X039616Y009379D01*
X039927Y009379D02*
X040041Y009379D01*
X040607Y009379D02*
X041307Y009379D01*
X042133Y009379D02*
X042307Y009379D01*
X043087Y008425D02*
X053650Y008425D01*
X053412Y008187D02*
X051050Y008187D01*
X050390Y008187D02*
X043290Y008187D01*
X047028Y009856D02*
X037340Y009856D01*
X037579Y010095D02*
X047028Y010095D01*
X048412Y010810D02*
X049795Y010810D01*
X050033Y011049D02*
X048412Y011049D01*
X051221Y010810D02*
X051254Y010810D01*
X044720Y011287D02*
X044720Y011287D01*
X044325Y011287D02*
X044093Y011287D01*
X043347Y011287D02*
X043200Y011287D01*
X042240Y011287D02*
X042206Y011287D01*
X042206Y011526D02*
X042240Y011526D01*
X042240Y011764D02*
X042206Y011764D01*
X042206Y012003D02*
X042240Y012003D01*
X042206Y012241D02*
X042306Y012241D01*
X042206Y012480D02*
X042535Y012480D01*
X042624Y012718D02*
X042206Y012718D01*
X042206Y012957D02*
X042624Y012957D01*
X042624Y013195D02*
X042206Y013195D01*
X041246Y013195D02*
X040828Y013195D01*
X040928Y012957D02*
X041246Y012957D01*
X041246Y012718D02*
X041143Y012718D01*
X041200Y012480D02*
X041246Y012480D01*
X041246Y012241D02*
X041200Y012241D01*
X041200Y012003D02*
X041246Y012003D01*
X041246Y011764D02*
X041200Y011764D01*
X041200Y011526D02*
X041246Y011526D01*
X041246Y011287D02*
X041200Y011287D01*
X041200Y011049D02*
X041240Y011049D01*
X041273Y010810D02*
X041167Y010810D01*
X040975Y010572D02*
X041465Y010572D01*
X041975Y010572D02*
X042465Y010572D01*
X042273Y010810D02*
X042170Y010810D01*
X042206Y011049D02*
X042240Y011049D01*
X043167Y010810D02*
X043276Y010810D01*
X043243Y011049D02*
X043200Y011049D01*
X042975Y010572D02*
X043473Y010572D01*
X040465Y010572D02*
X039975Y010572D01*
X040167Y010810D02*
X040273Y010810D01*
X040240Y011049D02*
X040200Y011049D01*
X039273Y010810D02*
X039186Y010810D01*
X039217Y010986D02*
X038720Y010986D01*
X038720Y011483D01*
X038720Y010986D01*
X038720Y010986D01*
X039217Y010986D01*
X039213Y011049D02*
X039240Y011049D01*
X038720Y011049D02*
X038720Y011049D01*
X038720Y010986D02*
X038720Y010986D01*
X038720Y010488D01*
X038720Y010986D01*
X038720Y010986D01*
X038720Y010810D02*
X038720Y010810D01*
X038720Y010572D02*
X038720Y010572D01*
X038996Y010572D02*
X039465Y010572D01*
X038444Y010572D02*
X038056Y010572D01*
X038221Y010810D02*
X038254Y010810D01*
X038325Y011287D02*
X038168Y011287D01*
X038720Y011287D02*
X038720Y011287D01*
X034028Y010095D02*
X024579Y010095D01*
X024340Y009856D02*
X034028Y009856D01*
X030473Y010572D02*
X029975Y010572D01*
X030167Y010810D02*
X030276Y010810D01*
X030243Y011049D02*
X030200Y011049D01*
X030200Y011287D02*
X030347Y011287D01*
X031093Y011287D02*
X031325Y011287D01*
X031720Y011287D02*
X031720Y011287D01*
X029465Y010572D02*
X028975Y010572D01*
X029170Y010810D02*
X029273Y010810D01*
X029240Y011049D02*
X029206Y011049D01*
X028273Y010810D02*
X028167Y010810D01*
X028200Y011049D02*
X028240Y011049D01*
X028246Y011287D02*
X028200Y011287D01*
X028200Y011526D02*
X028246Y011526D01*
X028246Y011764D02*
X028200Y011764D01*
X028200Y012003D02*
X028246Y012003D01*
X028246Y012241D02*
X028200Y012241D01*
X029206Y012241D02*
X029306Y012241D01*
X029240Y012003D02*
X029206Y012003D01*
X029206Y011764D02*
X029240Y011764D01*
X029240Y011526D02*
X029206Y011526D01*
X029206Y011287D02*
X029240Y011287D01*
X027240Y011287D02*
X027200Y011287D01*
X027200Y011526D02*
X027240Y011526D01*
X027240Y011764D02*
X027200Y011764D01*
X027200Y012003D02*
X027240Y012003D01*
X027240Y012241D02*
X027134Y012241D01*
X026240Y011764D02*
X017200Y011764D01*
X017200Y011526D02*
X026240Y011526D01*
X026240Y011287D02*
X026115Y011287D01*
X025720Y011287D02*
X025720Y011287D01*
X025720Y011483D02*
X025720Y010986D01*
X025720Y011483D01*
X025325Y011287D02*
X025168Y011287D01*
X025720Y011049D02*
X025720Y011049D01*
X025720Y010986D02*
X025720Y010986D01*
X026217Y010986D01*
X025720Y010986D01*
X025720Y010986D01*
X025720Y010488D01*
X025720Y010986D01*
X025720Y010986D01*
X025720Y010810D02*
X025720Y010810D01*
X025720Y010572D02*
X025720Y010572D01*
X025996Y010572D02*
X026465Y010572D01*
X026273Y010810D02*
X026186Y010810D01*
X026213Y011049D02*
X026240Y011049D01*
X025254Y010810D02*
X025221Y010810D01*
X025056Y010572D02*
X025444Y010572D01*
X026975Y010572D02*
X027465Y010572D01*
X027273Y010810D02*
X027167Y010810D01*
X027200Y011049D02*
X027240Y011049D01*
X027975Y010572D02*
X028465Y010572D01*
X026024Y012003D02*
X017416Y012003D01*
X016306Y012241D02*
X016206Y012241D01*
X016206Y012003D02*
X016240Y012003D01*
X016240Y011764D02*
X016206Y011764D01*
X016206Y011526D02*
X016240Y011526D01*
X016240Y011287D02*
X016206Y011287D01*
X016206Y011049D02*
X016240Y011049D01*
X016273Y010810D02*
X016170Y010810D01*
X015975Y010572D02*
X016465Y010572D01*
X016975Y010572D02*
X017473Y010572D01*
X017276Y010810D02*
X017167Y010810D01*
X017200Y011049D02*
X017243Y011049D01*
X017200Y011287D02*
X017347Y011287D01*
X018093Y011287D02*
X018325Y011287D01*
X018720Y011287D02*
X018720Y011287D01*
X015246Y011526D02*
X015200Y011526D01*
X015200Y011764D02*
X015246Y011764D01*
X015246Y012003D02*
X015200Y012003D01*
X015200Y012241D02*
X015246Y012241D01*
X014059Y012718D02*
X013666Y012718D01*
X013450Y012957D02*
X013891Y012957D01*
X013868Y013195D02*
X013450Y013195D01*
X012490Y013195D02*
X012250Y013195D01*
X012250Y012957D02*
X012490Y012957D01*
X012490Y012718D02*
X012250Y012718D01*
X012250Y012480D02*
X012556Y012480D01*
X012786Y012241D02*
X012250Y012241D01*
X012250Y012003D02*
X013024Y012003D01*
X013240Y011764D02*
X012250Y011764D01*
X012250Y011526D02*
X013240Y011526D01*
X013240Y011287D02*
X013115Y011287D01*
X012720Y011287D02*
X012720Y011287D01*
X012325Y011287D02*
X012250Y011287D01*
X012720Y011049D02*
X012720Y011049D01*
X012720Y010810D02*
X012720Y010810D01*
X013186Y010810D02*
X013273Y010810D01*
X013240Y011049D02*
X013213Y011049D01*
X012254Y010810D02*
X012221Y010810D01*
X011033Y011049D02*
X009412Y011049D01*
X009412Y010810D02*
X010795Y010810D01*
X011190Y011287D02*
X009351Y011287D01*
X008089Y011287D02*
X006154Y011287D01*
X006197Y011526D02*
X011190Y011526D01*
X011190Y011764D02*
X006116Y011764D01*
X005324Y011764D02*
X001132Y011764D01*
X001217Y011526D02*
X005243Y011526D01*
X005286Y011287D02*
X001177Y011287D01*
X000720Y011287D02*
X000720Y011287D01*
X000720Y011486D02*
X000720Y010988D01*
X000720Y011486D01*
X000223Y011486D01*
X000223Y011446D01*
X000235Y011369D01*
X000259Y011295D01*
X000295Y011225D01*
X000341Y011162D01*
X000396Y011106D01*
X000459Y011060D01*
X000529Y011025D01*
X000604Y011001D01*
X000681Y010988D01*
X000720Y010988D01*
X000759Y010988D01*
X000836Y011001D01*
X000911Y011025D01*
X000981Y011060D01*
X000720Y011049D02*
X000720Y011049D01*
X000483Y011049D02*
X000220Y011049D01*
X000220Y010810D02*
X000370Y010810D01*
X000243Y010572D02*
X000220Y010572D01*
X000220Y010333D02*
X000267Y010333D01*
X000220Y010095D02*
X000436Y010095D01*
X000416Y009856D02*
X000220Y009856D01*
X000220Y009618D02*
X000258Y009618D01*
X000248Y009379D02*
X000220Y009379D01*
X000220Y009141D02*
X000390Y009141D01*
X000479Y008902D02*
X000220Y008902D01*
X000220Y008664D02*
X000277Y008664D01*
X000243Y008425D02*
X000220Y008425D01*
X000220Y008187D02*
X000344Y008187D01*
X000961Y008902D02*
X001020Y008902D01*
X001920Y009379D02*
X002279Y009379D01*
X002720Y009379D02*
X002720Y009379D01*
X003161Y009379D02*
X003307Y009379D01*
X006024Y009856D02*
X008028Y009856D01*
X008028Y009618D02*
X006182Y009618D01*
X006192Y009379D02*
X008028Y009379D01*
X008028Y010095D02*
X006004Y010095D01*
X006173Y010333D02*
X008028Y010333D01*
X008028Y010572D02*
X006197Y010572D01*
X006070Y010810D02*
X008028Y010810D01*
X008028Y011049D02*
X005912Y011049D01*
X000720Y011486D02*
X000720Y011486D01*
X000720Y011526D02*
X000720Y011526D01*
X000720Y011764D02*
X000720Y011764D01*
X000308Y011764D02*
X000220Y011764D01*
X000220Y011526D02*
X000223Y011526D01*
X000220Y011287D02*
X000263Y011287D01*
X000220Y012003D02*
X011190Y012003D01*
X011190Y012241D02*
X000220Y012241D01*
X002256Y013672D02*
X010784Y013672D01*
X010545Y013911D02*
X002000Y013911D01*
X002203Y014136D02*
X001237Y014136D01*
X001120Y014253D01*
X001120Y015218D01*
X001237Y015336D01*
X002203Y015336D01*
X002273Y015266D01*
X006245Y015266D01*
X006245Y017164D01*
X006220Y017189D01*
X006159Y017128D01*
X006064Y017089D01*
X005685Y017089D01*
X005590Y017128D01*
X005553Y017166D01*
X005431Y017166D01*
X005315Y017049D01*
X004834Y017049D01*
X004725Y017159D01*
X004699Y017114D01*
X004658Y017073D01*
X004608Y017044D01*
X004552Y017029D01*
X004366Y017029D01*
X004366Y017486D01*
X004366Y017486D01*
X004366Y017486D01*
X004366Y017029D01*
X004179Y017029D01*
X004123Y017044D01*
X004073Y017073D01*
X004032Y017114D01*
X004003Y017164D01*
X003988Y017220D01*
X003988Y017486D01*
X004366Y017486D01*
X004366Y017488D02*
X004366Y017488D01*
X004366Y017250D02*
X004366Y017250D01*
X003988Y017250D02*
X003654Y017250D01*
X003690Y017488D02*
X003988Y017488D01*
X003988Y017727D02*
X003654Y017727D01*
X003618Y017965D02*
X057588Y017965D01*
X057662Y018204D02*
X003512Y018204D01*
X003614Y017993D02*
X003614Y017993D01*
X003397Y018442D02*
X057814Y018442D01*
X057991Y018681D02*
X003181Y018681D01*
X003042Y018830D02*
X003042Y018830D01*
X002889Y018919D02*
X058290Y018919D01*
X058825Y019158D02*
X002288Y019158D01*
X002598Y019087D02*
X002598Y019087D01*
X001587Y019163D02*
X001587Y019163D01*
X001575Y019158D02*
X001556Y019158D01*
X003391Y018455D02*
X003391Y018455D01*
X004366Y017727D02*
X004366Y017727D01*
X005074Y017486D02*
X005875Y017486D01*
X006565Y017486D02*
X006565Y014640D01*
X005220Y014736D01*
X006245Y015342D02*
X000220Y015342D01*
X000220Y015103D02*
X001120Y015103D01*
X001120Y014865D02*
X000220Y014865D01*
X000220Y014626D02*
X001120Y014626D01*
X001120Y014388D02*
X000220Y014388D01*
X000220Y014149D02*
X001224Y014149D01*
X002203Y014136D02*
X002273Y014206D01*
X010250Y014206D01*
X011190Y013266D01*
X012250Y013434D02*
X012490Y013434D01*
X012490Y013672D02*
X012216Y013672D01*
X012045Y013911D02*
X012490Y013911D01*
X012490Y014149D02*
X011806Y014149D01*
X011568Y014388D02*
X012490Y014388D01*
X013450Y014388D02*
X013868Y014388D01*
X013868Y014149D02*
X013450Y014149D01*
X013450Y013911D02*
X013868Y013911D01*
X013868Y013672D02*
X013450Y013672D01*
X013450Y013434D02*
X013868Y013434D01*
X014828Y013434D02*
X015246Y013434D01*
X015246Y013672D02*
X014828Y013672D01*
X014828Y013911D02*
X015246Y013911D01*
X015246Y014149D02*
X014828Y014149D01*
X014828Y014388D02*
X015246Y014388D01*
X015246Y014626D02*
X014828Y014626D01*
X014828Y014865D02*
X015246Y014865D01*
X015246Y015103D02*
X014828Y015103D01*
X014828Y015342D02*
X015246Y015342D01*
X015246Y015580D02*
X014828Y015580D01*
X014828Y015819D02*
X015246Y015819D01*
X015246Y016057D02*
X014828Y016057D01*
X014828Y016296D02*
X015246Y016296D01*
X015246Y016534D02*
X014828Y016534D01*
X014828Y016773D02*
X015246Y016773D01*
X015169Y017011D02*
X014904Y017011D01*
X014948Y017250D02*
X015126Y017250D01*
X015181Y017488D02*
X014893Y017488D01*
X014705Y017727D02*
X015368Y017727D01*
X016083Y017727D02*
X016746Y017727D01*
X017461Y017727D02*
X025378Y017727D01*
X025370Y017488D02*
X017649Y017488D01*
X017704Y017250D02*
X025370Y017250D01*
X025370Y017011D02*
X017660Y017011D01*
X017584Y016773D02*
X025370Y016773D01*
X027828Y016773D02*
X028246Y016773D01*
X028169Y017011D02*
X027904Y017011D01*
X027948Y017250D02*
X028126Y017250D01*
X028181Y017488D02*
X027893Y017488D01*
X029271Y017488D02*
X029559Y017488D01*
X029504Y017250D02*
X029326Y017250D01*
X029282Y017011D02*
X029547Y017011D01*
X029624Y016773D02*
X029206Y016773D01*
X039450Y015342D02*
X039868Y015342D01*
X039868Y015103D02*
X039450Y015103D01*
X039450Y014865D02*
X039868Y014865D01*
X039868Y014626D02*
X039450Y014626D01*
X040828Y014626D02*
X041246Y014626D01*
X041246Y014865D02*
X040828Y014865D01*
X040828Y015103D02*
X041246Y015103D01*
X041246Y015342D02*
X040828Y015342D01*
X059560Y015819D02*
X060970Y015819D01*
X060970Y016057D02*
X060147Y016057D01*
X060292Y016141D02*
X060292Y016141D01*
X060436Y016296D02*
X060970Y016296D01*
X060970Y016534D02*
X060650Y016534D01*
X060764Y016773D02*
X060970Y016773D01*
X060970Y017011D02*
X060868Y017011D01*
X060904Y017250D02*
X060970Y017250D01*
X060970Y017488D02*
X060940Y017488D01*
X060953Y017727D02*
X060904Y017727D01*
X060901Y017965D02*
X060868Y017965D01*
X060813Y018204D02*
X060762Y018204D01*
X060681Y018442D02*
X060647Y018442D01*
X060495Y018681D02*
X060431Y018681D01*
X060218Y018919D02*
X060139Y018919D01*
X059727Y019158D02*
X059538Y019158D01*
X027650Y008425D02*
X017087Y008425D01*
X017290Y008187D02*
X024390Y008187D01*
X025050Y008187D02*
X027412Y008187D01*
X030170Y007471D02*
X034008Y007471D01*
X034008Y007629D02*
X034008Y006834D01*
X034600Y006834D01*
X034600Y007820D01*
X034199Y007820D01*
X034143Y007805D01*
X034093Y007776D01*
X034052Y007735D01*
X034023Y007685D01*
X034008Y007629D01*
X034037Y007710D02*
X030250Y007710D01*
X030290Y007948D02*
X036730Y007948D01*
X036491Y007710D02*
X035403Y007710D01*
X035388Y007735D02*
X035347Y007776D01*
X035297Y007805D01*
X035241Y007820D01*
X034840Y007820D01*
X034840Y006834D01*
X034600Y006834D01*
X034600Y006594D01*
X034008Y006594D01*
X034008Y005799D01*
X034023Y005743D01*
X034052Y005693D01*
X034093Y005652D01*
X034143Y005623D01*
X034199Y005608D01*
X034600Y005608D01*
X034600Y006594D01*
X034840Y006594D01*
X034840Y006834D01*
X035432Y006834D01*
X035432Y007629D01*
X035417Y007685D01*
X035388Y007735D01*
X035432Y007471D02*
X036400Y007471D01*
X036400Y007233D02*
X035432Y007233D01*
X034840Y007233D02*
X034600Y007233D01*
X034600Y007471D02*
X034840Y007471D01*
X034840Y007710D02*
X034600Y007710D01*
X034008Y007233D02*
X030279Y007233D01*
X030290Y006994D02*
X034008Y006994D01*
X034600Y006994D02*
X034840Y006994D01*
X034840Y006756D02*
X036400Y006756D01*
X036400Y006994D02*
X035432Y006994D01*
X034600Y006756D02*
X030403Y006756D01*
X030540Y006517D02*
X034008Y006517D01*
X034008Y006279D02*
X032102Y006279D01*
X032125Y006256D02*
X031990Y006390D01*
X031815Y006463D01*
X031625Y006463D01*
X031450Y006390D01*
X031315Y006256D01*
X031243Y006081D01*
X031243Y005891D01*
X031315Y005715D01*
X031450Y005581D01*
X031625Y005508D01*
X031815Y005508D01*
X031990Y005581D01*
X032125Y005715D01*
X032197Y005891D01*
X032197Y006081D01*
X032125Y006256D01*
X032197Y006040D02*
X034008Y006040D01*
X034600Y006040D02*
X034840Y006040D01*
X034840Y006279D02*
X034600Y006279D01*
X034600Y006517D02*
X034840Y006517D01*
X034840Y006594D02*
X034840Y005608D01*
X035241Y005608D01*
X035297Y005623D01*
X035347Y005652D01*
X035388Y005693D01*
X035417Y005743D01*
X035432Y005799D01*
X035432Y006594D01*
X034840Y006594D01*
X035432Y006517D02*
X036400Y006517D01*
X036400Y006279D02*
X035432Y006279D01*
X035432Y006040D02*
X036400Y006040D01*
X036400Y005802D02*
X035432Y005802D01*
X034840Y005802D02*
X034600Y005802D01*
X034008Y005802D02*
X032160Y005802D01*
X031947Y005563D02*
X036400Y005563D01*
X036400Y005325D02*
X031040Y005325D01*
X031040Y005563D02*
X031493Y005563D01*
X031280Y005802D02*
X031160Y005802D01*
X031197Y006040D02*
X031243Y006040D01*
X031338Y006279D02*
X031102Y006279D01*
X030220Y006486D02*
X030220Y003736D01*
X031049Y005086D02*
X036400Y005086D01*
X036720Y003736D02*
X036720Y007486D01*
X037074Y007840D01*
X037720Y007840D01*
X030220Y006486D02*
X029720Y006986D01*
X027280Y005802D02*
X027160Y005802D01*
X026947Y005563D02*
X027493Y005563D01*
X026493Y005563D02*
X025947Y005563D01*
X026160Y005802D02*
X026280Y005802D01*
X025493Y005563D02*
X025040Y005563D01*
X025160Y005802D02*
X025280Y005802D01*
X025243Y006040D02*
X025197Y006040D01*
X025102Y006279D02*
X025338Y006279D01*
X025040Y006517D02*
X025742Y006517D01*
X025981Y006756D02*
X025040Y006756D01*
X025156Y006994D02*
X026219Y006994D01*
X023400Y006994D02*
X022432Y006994D01*
X022432Y006834D02*
X022432Y007629D01*
X022417Y007685D01*
X022388Y007735D01*
X022347Y007776D01*
X022297Y007805D01*
X022241Y007820D01*
X021840Y007820D01*
X021840Y006834D01*
X021600Y006834D01*
X021600Y007820D01*
X021199Y007820D01*
X021143Y007805D01*
X021093Y007776D01*
X021052Y007735D01*
X021023Y007685D01*
X021008Y007629D01*
X021008Y006834D01*
X021600Y006834D01*
X021600Y006594D01*
X021008Y006594D01*
X021008Y005799D01*
X021023Y005743D01*
X021052Y005693D01*
X021093Y005652D01*
X021143Y005623D01*
X021199Y005608D01*
X021600Y005608D01*
X021600Y006594D01*
X021840Y006594D01*
X021840Y006834D01*
X022432Y006834D01*
X021840Y006756D02*
X023400Y006756D01*
X023400Y006517D02*
X022432Y006517D01*
X022432Y006594D02*
X021840Y006594D01*
X021840Y005608D01*
X022241Y005608D01*
X022297Y005623D01*
X022347Y005652D01*
X022388Y005693D01*
X022417Y005743D01*
X022432Y005799D01*
X022432Y006594D01*
X022432Y006279D02*
X023400Y006279D01*
X023400Y006040D02*
X022432Y006040D01*
X021840Y006040D02*
X021600Y006040D01*
X021600Y006279D02*
X021840Y006279D01*
X021840Y006517D02*
X021600Y006517D01*
X021600Y006756D02*
X017403Y006756D01*
X017290Y006994D02*
X021008Y006994D01*
X021600Y006994D02*
X021840Y006994D01*
X021840Y007233D02*
X021600Y007233D01*
X021600Y007471D02*
X021840Y007471D01*
X021840Y007710D02*
X021600Y007710D01*
X021037Y007710D02*
X017250Y007710D01*
X017290Y007948D02*
X023730Y007948D01*
X023491Y007710D02*
X022403Y007710D01*
X022432Y007471D02*
X023400Y007471D01*
X023400Y007233D02*
X022432Y007233D01*
X021008Y007233D02*
X017279Y007233D01*
X017080Y007471D02*
X021008Y007471D01*
X021008Y006517D02*
X017540Y006517D01*
X017220Y006486D02*
X017220Y003736D01*
X016900Y004371D02*
X012118Y004371D01*
X012040Y004609D02*
X016900Y004609D01*
X016900Y004848D02*
X012040Y004848D01*
X012040Y005086D02*
X016900Y005086D01*
X016900Y005325D02*
X012040Y005325D01*
X010400Y005325D02*
X006170Y005325D01*
X006197Y005563D02*
X010400Y005563D01*
X010400Y005802D02*
X009432Y005802D01*
X008840Y005802D02*
X008600Y005802D01*
X008008Y005802D02*
X006079Y005802D01*
X005995Y005086D02*
X010400Y005086D01*
X010400Y004848D02*
X006033Y004848D01*
X006185Y004609D02*
X010400Y004609D01*
X010400Y004371D02*
X006189Y004371D01*
X001233Y005086D02*
X001016Y005086D01*
X000720Y005802D02*
X000720Y005802D01*
X004290Y006756D02*
X005315Y006756D01*
X006080Y008902D02*
X013238Y008902D01*
X013238Y009141D02*
X006080Y009141D01*
X011340Y009856D02*
X021028Y009856D01*
X021028Y010095D02*
X011579Y010095D01*
X016720Y006986D02*
X017220Y006486D01*
X018102Y006279D02*
X018338Y006279D01*
X018315Y006256D02*
X018243Y006081D01*
X018243Y005891D01*
X018315Y005715D01*
X018450Y005581D01*
X018625Y005508D01*
X018815Y005508D01*
X018990Y005581D01*
X019125Y005715D01*
X019197Y005891D01*
X019197Y006081D01*
X019125Y006256D01*
X018990Y006390D01*
X018815Y006463D01*
X018625Y006463D01*
X018450Y006390D01*
X018315Y006256D01*
X018243Y006040D02*
X018197Y006040D01*
X018160Y005802D02*
X018280Y005802D01*
X018493Y005563D02*
X018040Y005563D01*
X018040Y005325D02*
X023400Y005325D01*
X023400Y005563D02*
X018947Y005563D01*
X019160Y005802D02*
X021008Y005802D01*
X021600Y005802D02*
X021840Y005802D01*
X022432Y005802D02*
X023400Y005802D01*
X023400Y005086D02*
X018049Y005086D01*
X016493Y005563D02*
X015947Y005563D01*
X019102Y006279D02*
X021008Y006279D01*
X021008Y006040D02*
X019197Y006040D01*
X010307Y014149D02*
X002216Y014149D01*
X000220Y015580D02*
X006245Y015580D01*
X006245Y015819D02*
X002310Y015819D01*
X002099Y015770D02*
X002099Y015770D01*
X001562Y015819D02*
X000220Y015819D01*
X000220Y016057D02*
X001033Y016057D01*
X001110Y015996D02*
X001110Y015996D01*
X000734Y016296D02*
X000220Y016296D01*
X000220Y016534D02*
X000560Y016534D01*
X000709Y016316D02*
X000709Y016316D01*
X000420Y016739D02*
X000420Y016739D01*
X000410Y016773D02*
X000220Y016773D01*
X000220Y017011D02*
X000336Y017011D01*
X000269Y017250D02*
X000220Y017250D01*
X000220Y017488D02*
X000269Y017488D01*
X000252Y017727D02*
X000269Y017727D01*
X000316Y017965D02*
X000338Y017965D01*
X003618Y017011D02*
X006245Y017011D01*
X006245Y016773D02*
X003514Y016773D01*
X003614Y016979D02*
X003614Y016979D01*
X003400Y016534D02*
X006245Y016534D01*
X006245Y016296D02*
X003186Y016296D01*
X003042Y016141D02*
X003042Y016141D01*
X002897Y016057D02*
X006245Y016057D01*
X006885Y016057D02*
X012490Y016057D01*
X012490Y015819D02*
X006885Y015819D01*
X006885Y015580D02*
X012490Y015580D01*
X013450Y015580D02*
X013868Y015580D01*
X013868Y015819D02*
X013450Y015819D01*
X013450Y016057D02*
X013868Y016057D01*
X013868Y016296D02*
X013450Y016296D01*
X013450Y016534D02*
X013868Y016534D01*
X013868Y016773D02*
X013570Y016773D01*
X013570Y017011D02*
X013792Y017011D01*
X013748Y017250D02*
X013570Y017250D01*
X013570Y017488D02*
X013803Y017488D01*
X013990Y017727D02*
X013562Y017727D01*
X012378Y017727D02*
X006941Y017727D01*
X006962Y017488D02*
X012370Y017488D01*
X012370Y017250D02*
X006943Y017250D01*
X006885Y017011D02*
X012370Y017011D01*
X012370Y016773D02*
X006885Y016773D01*
X006885Y016534D02*
X012490Y016534D01*
X012490Y016296D02*
X006885Y016296D01*
X006885Y015342D02*
X012490Y015342D01*
X012490Y015103D02*
X010852Y015103D01*
X011091Y014865D02*
X012490Y014865D01*
X012490Y014626D02*
X011329Y014626D01*
X013450Y014626D02*
X013868Y014626D01*
X013868Y014865D02*
X013450Y014865D01*
X013450Y015103D02*
X013868Y015103D01*
X013868Y015342D02*
X013450Y015342D01*
X016206Y016773D02*
X016624Y016773D01*
X016547Y017011D02*
X016282Y017011D01*
X016326Y017250D02*
X016504Y017250D01*
X016559Y017488D02*
X016271Y017488D01*
X003391Y016517D02*
X003391Y016517D01*
X051040Y006756D02*
X051981Y006756D01*
X052219Y006994D02*
X051156Y006994D01*
X051040Y006517D02*
X051742Y006517D01*
X051338Y006279D02*
X051102Y006279D01*
X051197Y006040D02*
X051243Y006040D01*
X051280Y005802D02*
X051160Y005802D01*
X051040Y005563D02*
X051493Y005563D01*
X051947Y005563D02*
X052493Y005563D01*
X052280Y005802D02*
X052160Y005802D01*
X052947Y005563D02*
X053493Y005563D01*
X053280Y005802D02*
X053160Y005802D01*
X053947Y005563D02*
X054493Y005563D01*
X054280Y005802D02*
X054160Y005802D01*
X054720Y005986D02*
X055720Y005986D01*
X055493Y005563D02*
X054947Y005563D01*
X055860Y005325D02*
X051040Y005325D01*
X051040Y005086D02*
X055860Y005086D01*
X055860Y004848D02*
X051040Y004848D01*
X051040Y004609D02*
X055860Y004609D01*
X055860Y004371D02*
X051118Y004371D01*
X057049Y005086D02*
X060970Y005086D01*
X057338Y006279D02*
X057102Y006279D01*
X057197Y006040D02*
X057243Y006040D01*
D22*
X056220Y003736D02*
X049720Y003736D01*
X043220Y003736D01*
X036720Y003736D01*
X030220Y003736D01*
X023720Y003736D01*
X017220Y003736D01*
X010720Y003736D01*
X005220Y003736D01*
X003220Y003736D01*
X001470Y005486D01*
X001470Y006986D01*
X001470Y009736D01*
X000720Y010486D01*
X029720Y008986D02*
X029720Y006986D01*
D23*
X029720Y007986D01*
X029720Y008986D01*
X028720Y008986D02*
X027324Y008986D01*
X026616Y008986D02*
X025720Y008986D01*
X028720Y008986D02*
X025720Y005986D01*
X026720Y005986D02*
X028720Y007986D01*
X028720Y006986D02*
X027720Y005986D01*
X037720Y005986D02*
X037720Y007131D01*
X038720Y005986D02*
X041720Y008986D01*
X040324Y008986D01*
X039616Y008986D02*
X038720Y008986D01*
X041720Y007986D02*
X039720Y005986D01*
X040720Y005986D02*
X041720Y006986D01*
X042720Y006986D02*
X042720Y007986D01*
X042720Y008986D01*
X042720Y006986D02*
X043220Y006486D01*
X043220Y003736D01*
X051720Y005986D02*
X054720Y008986D01*
X053324Y008986D01*
X052616Y008986D02*
X052616Y009881D01*
X052720Y009986D01*
X054720Y007986D02*
X052720Y005986D01*
X053720Y005986D02*
X054720Y006986D01*
X055720Y006986D02*
X056220Y006486D01*
X056220Y003736D01*
X016720Y006986D02*
X016720Y007986D01*
X016720Y008986D01*
X015720Y008986D02*
X014324Y008986D01*
X013616Y008986D02*
X012720Y008986D01*
X015720Y008986D02*
X012720Y005986D01*
X013720Y005986D02*
X015720Y007986D01*
X015720Y006986D02*
X014720Y005986D01*
X005720Y008486D02*
X005720Y009486D01*
X000720Y011486D02*
X000720Y012358D01*
X000784Y012422D01*
X001720Y013358D01*
D24*
X016720Y006986D03*
X017720Y004736D03*
X011720Y004236D03*
X024720Y004236D03*
X030720Y004736D03*
X037720Y004236D03*
X043720Y004736D03*
X050720Y004236D03*
X056720Y004736D03*
X029720Y008986D03*
M02*
