G75*
%MOIN*%
%OFA0B0*%
%FSLAX25Y25*%
%IPPOS*%
%LPD*%
%AMOC8*
5,1,8,0,0,1.08239X$1,22.5*
%
%ADD10C,0.00600*%
%ADD11C,0.00500*%
%ADD12C,0.00800*%
%ADD13C,0.00100*%
%ADD14C,0.00200*%
D10*
X0003700Y0032907D02*
X0003700Y0111907D01*
X0027200Y0111907D01*
X0027202Y0111767D01*
X0027208Y0111627D01*
X0027218Y0111487D01*
X0027231Y0111347D01*
X0027249Y0111208D01*
X0027271Y0111069D01*
X0027296Y0110932D01*
X0027325Y0110794D01*
X0027358Y0110658D01*
X0027395Y0110523D01*
X0027436Y0110389D01*
X0027481Y0110256D01*
X0027529Y0110124D01*
X0027581Y0109994D01*
X0027636Y0109865D01*
X0027695Y0109738D01*
X0027758Y0109612D01*
X0027824Y0109488D01*
X0027893Y0109367D01*
X0027966Y0109247D01*
X0028043Y0109129D01*
X0028122Y0109014D01*
X0028205Y0108900D01*
X0028291Y0108790D01*
X0028380Y0108681D01*
X0028472Y0108575D01*
X0028567Y0108472D01*
X0028664Y0108371D01*
X0028765Y0108274D01*
X0028868Y0108179D01*
X0028974Y0108087D01*
X0029083Y0107998D01*
X0029193Y0107912D01*
X0029307Y0107829D01*
X0029422Y0107750D01*
X0029540Y0107673D01*
X0029660Y0107600D01*
X0029781Y0107531D01*
X0029905Y0107465D01*
X0030031Y0107402D01*
X0030158Y0107343D01*
X0030287Y0107288D01*
X0030417Y0107236D01*
X0030549Y0107188D01*
X0030682Y0107143D01*
X0030816Y0107102D01*
X0030951Y0107065D01*
X0031087Y0107032D01*
X0031225Y0107003D01*
X0031362Y0106978D01*
X0031501Y0106956D01*
X0031640Y0106938D01*
X0031780Y0106925D01*
X0031920Y0106915D01*
X0032060Y0106909D01*
X0032200Y0106907D01*
X0032340Y0106909D01*
X0032480Y0106915D01*
X0032620Y0106925D01*
X0032760Y0106938D01*
X0032899Y0106956D01*
X0033038Y0106978D01*
X0033175Y0107003D01*
X0033313Y0107032D01*
X0033449Y0107065D01*
X0033584Y0107102D01*
X0033718Y0107143D01*
X0033851Y0107188D01*
X0033983Y0107236D01*
X0034113Y0107288D01*
X0034242Y0107343D01*
X0034369Y0107402D01*
X0034495Y0107465D01*
X0034619Y0107531D01*
X0034740Y0107600D01*
X0034860Y0107673D01*
X0034978Y0107750D01*
X0035093Y0107829D01*
X0035207Y0107912D01*
X0035317Y0107998D01*
X0035426Y0108087D01*
X0035532Y0108179D01*
X0035635Y0108274D01*
X0035736Y0108371D01*
X0035833Y0108472D01*
X0035928Y0108575D01*
X0036020Y0108681D01*
X0036109Y0108790D01*
X0036195Y0108900D01*
X0036278Y0109014D01*
X0036357Y0109129D01*
X0036434Y0109247D01*
X0036507Y0109367D01*
X0036576Y0109488D01*
X0036642Y0109612D01*
X0036705Y0109738D01*
X0036764Y0109865D01*
X0036819Y0109994D01*
X0036871Y0110124D01*
X0036919Y0110256D01*
X0036964Y0110389D01*
X0037005Y0110523D01*
X0037042Y0110658D01*
X0037075Y0110794D01*
X0037104Y0110932D01*
X0037129Y0111069D01*
X0037151Y0111208D01*
X0037169Y0111347D01*
X0037182Y0111487D01*
X0037192Y0111627D01*
X0037198Y0111767D01*
X0037200Y0111907D01*
X0060700Y0111907D01*
X0060700Y0032907D01*
X0003700Y0032907D01*
X0113880Y0115207D02*
X0113880Y0119611D01*
X0111679Y0119611D01*
X0110945Y0118877D01*
X0110945Y0117409D01*
X0111679Y0116675D01*
X0113880Y0116675D01*
X0115549Y0115941D02*
X0115549Y0119611D01*
X0118484Y0119611D02*
X0118484Y0115941D01*
X0117750Y0115207D01*
X0116282Y0115207D01*
X0115549Y0115941D01*
X0120152Y0115207D02*
X0123088Y0115207D01*
X0121620Y0115207D02*
X0121620Y0119611D01*
X0123088Y0118143D01*
X0124756Y0118877D02*
X0124756Y0115941D01*
X0125490Y0115207D01*
X0126958Y0115207D01*
X0127692Y0115941D01*
X0124756Y0118877D01*
X0125490Y0119611D01*
X0126958Y0119611D01*
X0127692Y0118877D01*
X0127692Y0115941D01*
X0129360Y0115207D02*
X0132296Y0115207D01*
X0130828Y0115207D02*
X0130828Y0119611D01*
X0132296Y0118143D01*
X0133964Y0118143D02*
X0135432Y0119611D01*
X0136900Y0118143D01*
X0136900Y0115207D01*
X0138568Y0115207D02*
X0138568Y0119611D01*
X0138568Y0117409D02*
X0141504Y0117409D01*
X0141504Y0115207D02*
X0141504Y0119611D01*
X0144640Y0119611D02*
X0146108Y0118143D01*
X0147776Y0117409D02*
X0150712Y0117409D01*
X0152380Y0119611D02*
X0155316Y0119611D01*
X0155316Y0115207D01*
X0152380Y0115207D01*
X0156984Y0115207D02*
X0159920Y0115207D01*
X0159920Y0119611D01*
X0156984Y0119611D01*
X0158452Y0117409D02*
X0159920Y0117409D01*
X0161588Y0119611D02*
X0164524Y0119611D01*
X0164524Y0115207D01*
X0161588Y0115207D01*
X0163056Y0117409D02*
X0164524Y0117409D01*
X0155316Y0117409D02*
X0153848Y0117409D01*
X0144640Y0119611D02*
X0144640Y0115207D01*
X0146108Y0115207D02*
X0143172Y0115207D01*
X0133964Y0115207D02*
X0133964Y0118143D01*
X0133964Y0117409D02*
X0136900Y0117409D01*
X0137000Y0122707D02*
X0138468Y0122707D01*
X0139202Y0123441D01*
X0136266Y0126377D01*
X0136266Y0123441D01*
X0137000Y0122707D01*
X0139202Y0123441D02*
X0139202Y0126377D01*
X0138468Y0127111D01*
X0137000Y0127111D01*
X0136266Y0126377D01*
X0134598Y0125643D02*
X0134598Y0123441D01*
X0133864Y0122707D01*
X0131662Y0122707D01*
X0131662Y0125643D01*
X0129994Y0124909D02*
X0128526Y0124909D01*
X0129994Y0127111D02*
X0127058Y0127111D01*
X0129994Y0127111D02*
X0129994Y0122707D01*
X0140870Y0123441D02*
X0141604Y0122707D01*
X0143072Y0122707D01*
X0143806Y0123441D01*
X0140870Y0126377D01*
X0140870Y0123441D01*
X0143806Y0123441D02*
X0143806Y0126377D01*
X0143072Y0127111D01*
X0141604Y0127111D01*
X0140870Y0126377D01*
X0146942Y0127111D02*
X0148410Y0125643D01*
X0146942Y0127111D02*
X0146942Y0122707D01*
X0148410Y0122707D02*
X0145474Y0122707D01*
D11*
X0234950Y0049117D02*
X0235701Y0049867D01*
X0236451Y0049867D01*
X0237202Y0049117D01*
X0237202Y0046865D01*
X0235701Y0046865D01*
X0234950Y0047615D01*
X0234950Y0049117D01*
X0237202Y0046865D02*
X0238703Y0048366D01*
X0239454Y0049867D01*
X0238703Y0045263D02*
X0237202Y0045263D01*
X0236451Y0044513D01*
X0236451Y0042261D01*
X0234950Y0042261D02*
X0239454Y0042261D01*
X0239454Y0044513D01*
X0238703Y0045263D01*
X0239454Y0040659D02*
X0239454Y0039158D01*
X0239454Y0039909D02*
X0235701Y0039909D01*
X0234950Y0039158D01*
X0234950Y0038408D01*
X0235701Y0037657D01*
X0314950Y0038408D02*
X0314950Y0039158D01*
X0315701Y0039909D01*
X0319454Y0039909D01*
X0319454Y0040659D02*
X0319454Y0039158D01*
X0315701Y0037657D02*
X0314950Y0038408D01*
X0314950Y0042261D02*
X0319454Y0042261D01*
X0319454Y0044513D01*
X0318703Y0045263D01*
X0317202Y0045263D01*
X0316451Y0044513D01*
X0316451Y0042261D01*
X0315701Y0046865D02*
X0314950Y0046865D01*
X0315701Y0046865D02*
X0318703Y0049867D01*
X0319454Y0049867D01*
X0319454Y0046865D01*
X0394950Y0047615D02*
X0395701Y0046865D01*
X0396451Y0046865D01*
X0397202Y0047615D01*
X0397202Y0049117D01*
X0396451Y0049867D01*
X0395701Y0049867D01*
X0394950Y0049117D01*
X0394950Y0047615D01*
X0397202Y0047615D02*
X0397953Y0046865D01*
X0398703Y0046865D01*
X0399454Y0047615D01*
X0399454Y0049117D01*
X0398703Y0049867D01*
X0397953Y0049867D01*
X0397202Y0049117D01*
X0397202Y0045263D02*
X0396451Y0044513D01*
X0396451Y0042261D01*
X0394950Y0042261D02*
X0399454Y0042261D01*
X0399454Y0044513D01*
X0398703Y0045263D01*
X0397202Y0045263D01*
X0399454Y0040659D02*
X0399454Y0039158D01*
X0399454Y0039909D02*
X0395701Y0039909D01*
X0394950Y0039158D01*
X0394950Y0038408D01*
X0395701Y0037657D01*
X0474950Y0038408D02*
X0474950Y0039158D01*
X0475701Y0039909D01*
X0479454Y0039909D01*
X0479454Y0040659D02*
X0479454Y0039158D01*
X0475701Y0037657D02*
X0474950Y0038408D01*
X0474950Y0042261D02*
X0479454Y0042261D01*
X0479454Y0044513D01*
X0478703Y0045263D01*
X0477202Y0045263D01*
X0476451Y0044513D01*
X0476451Y0042261D01*
X0475701Y0046865D02*
X0474950Y0047615D01*
X0474950Y0049117D01*
X0475701Y0049867D01*
X0478703Y0049867D01*
X0479454Y0049117D01*
X0479454Y0047615D01*
X0478703Y0046865D01*
X0477953Y0046865D01*
X0477202Y0047615D01*
X0477202Y0049867D01*
D12*
X0049917Y0042643D02*
X0014483Y0042643D01*
X0014483Y0102171D01*
X0014877Y0102171D02*
X0049917Y0102171D01*
X0049917Y0081068D01*
X0044011Y0081068D01*
X0044011Y0063745D01*
X0049917Y0063745D01*
X0049917Y0081068D01*
X0043125Y0079907D02*
X0043125Y0084907D01*
X0049917Y0063745D02*
X0049917Y0042643D01*
D13*
X0043150Y0040958D02*
X0042649Y0040958D01*
X0042899Y0040958D02*
X0042899Y0039707D01*
X0043150Y0039457D01*
X0043400Y0039457D01*
X0043650Y0039707D01*
X0042177Y0039457D02*
X0042177Y0040958D01*
X0041426Y0040958D01*
X0041176Y0040708D01*
X0041176Y0040208D01*
X0041426Y0039957D01*
X0042177Y0039957D01*
X0040703Y0039457D02*
X0039703Y0039457D01*
X0040203Y0039457D02*
X0040203Y0040958D01*
X0040703Y0040458D01*
D14*
X0046949Y0036842D02*
X0046949Y0036108D01*
X0047316Y0035741D01*
X0048417Y0035741D01*
X0048417Y0035007D02*
X0048417Y0037209D01*
X0047316Y0037209D01*
X0046949Y0036842D01*
X0047683Y0035741D02*
X0046949Y0035007D01*
X0049156Y0035007D02*
X0049890Y0035007D01*
X0049523Y0035007D02*
X0049523Y0037209D01*
X0049890Y0037209D02*
X0049156Y0037209D01*
X0050632Y0036842D02*
X0050999Y0037209D01*
X0052100Y0037209D01*
X0052100Y0035007D01*
X0050999Y0035007D01*
X0050632Y0035374D01*
X0050632Y0036842D01*
X0050999Y0045007D02*
X0051733Y0045007D01*
X0052100Y0045374D01*
X0051733Y0046108D02*
X0050999Y0046108D01*
X0050632Y0045741D01*
X0050632Y0045374D01*
X0050999Y0045007D01*
X0051733Y0046108D02*
X0052100Y0046475D01*
X0052100Y0046842D01*
X0051733Y0047209D01*
X0050999Y0047209D01*
X0050632Y0046842D01*
X0049890Y0047209D02*
X0048422Y0047209D01*
X0049156Y0047209D02*
X0049156Y0045007D01*
X0047680Y0045007D02*
X0047680Y0047209D01*
X0046212Y0047209D01*
X0045470Y0047209D02*
X0044369Y0047209D01*
X0044002Y0046842D01*
X0044002Y0046108D01*
X0044369Y0045741D01*
X0045470Y0045741D01*
X0045470Y0045007D02*
X0045470Y0047209D01*
X0046946Y0046108D02*
X0047680Y0046108D01*
X0047680Y0045007D02*
X0046212Y0045007D01*
X0018730Y0048341D02*
X0017996Y0047607D01*
X0017262Y0048341D01*
X0017262Y0049809D01*
X0016520Y0049809D02*
X0015419Y0049809D01*
X0015052Y0049442D01*
X0015052Y0047974D01*
X0015419Y0047607D01*
X0016520Y0047607D01*
X0016520Y0049809D01*
X0018730Y0049809D02*
X0018730Y0048341D01*
X0014310Y0047607D02*
X0013209Y0047607D01*
X0012842Y0047974D01*
X0012842Y0049442D01*
X0013209Y0049809D01*
X0014310Y0049809D01*
X0014310Y0047607D01*
X0014310Y0039809D02*
X0013209Y0039809D01*
X0012842Y0039442D01*
X0012842Y0037974D01*
X0013209Y0037607D01*
X0014310Y0037607D01*
X0014310Y0039809D01*
X0015052Y0039809D02*
X0015052Y0037607D01*
X0016520Y0039809D01*
X0016520Y0037607D01*
X0017262Y0037974D02*
X0017629Y0037607D01*
X0018363Y0037607D01*
X0018730Y0037974D01*
X0018730Y0039442D01*
X0018363Y0039809D01*
X0017629Y0039809D01*
X0017262Y0039442D01*
X0017262Y0038708D02*
X0017996Y0038708D01*
X0017262Y0038708D02*
X0017262Y0037974D01*
X0046212Y0056108D02*
X0046579Y0055741D01*
X0047680Y0055741D01*
X0047680Y0055007D02*
X0047680Y0057209D01*
X0046579Y0057209D01*
X0046212Y0056842D01*
X0046212Y0056108D01*
X0048422Y0055007D02*
X0049890Y0055007D01*
X0049890Y0057209D01*
X0050632Y0056842D02*
X0050999Y0057209D01*
X0051733Y0057209D01*
X0052100Y0056842D01*
X0052100Y0056475D01*
X0051733Y0056108D01*
X0050999Y0056108D01*
X0050632Y0055741D01*
X0050632Y0055374D01*
X0050999Y0055007D01*
X0051733Y0055007D01*
X0052100Y0055374D01*
X0052100Y0065007D02*
X0052100Y0067209D01*
X0050999Y0067209D01*
X0050632Y0066842D01*
X0050632Y0066108D01*
X0050999Y0065741D01*
X0052100Y0065741D01*
X0051366Y0065741D02*
X0050632Y0065007D01*
X0049890Y0065374D02*
X0049523Y0065007D01*
X0048789Y0065007D01*
X0048422Y0065374D01*
X0048422Y0065741D01*
X0048789Y0066108D01*
X0049523Y0066108D01*
X0049890Y0066475D01*
X0049890Y0066842D01*
X0049523Y0067209D01*
X0048789Y0067209D01*
X0048422Y0066842D01*
X0047680Y0067209D02*
X0046212Y0067209D01*
X0046946Y0067209D02*
X0046946Y0065007D01*
X0016520Y0067607D02*
X0015052Y0067607D01*
X0015786Y0067607D02*
X0015786Y0069809D01*
X0016520Y0069075D01*
X0014310Y0069075D02*
X0014310Y0067607D01*
X0014310Y0068708D02*
X0012842Y0068708D01*
X0012842Y0069075D02*
X0012842Y0067607D01*
X0012842Y0069075D02*
X0013576Y0069809D01*
X0014310Y0069075D01*
X0014310Y0077607D02*
X0014310Y0079075D01*
X0013576Y0079809D01*
X0012842Y0079075D01*
X0012842Y0077607D01*
X0012842Y0078708D02*
X0014310Y0078708D01*
X0015052Y0079075D02*
X0015052Y0079442D01*
X0015419Y0079809D01*
X0016153Y0079809D01*
X0016520Y0079442D01*
X0015052Y0079075D02*
X0016520Y0077607D01*
X0015052Y0077607D01*
X0046212Y0076842D02*
X0046212Y0076475D01*
X0046579Y0076108D01*
X0046212Y0075741D01*
X0046212Y0075374D01*
X0046579Y0075007D01*
X0047313Y0075007D01*
X0047680Y0075374D01*
X0048422Y0075374D02*
X0048789Y0075007D01*
X0049523Y0075007D01*
X0049890Y0075374D01*
X0049523Y0076108D02*
X0048789Y0076108D01*
X0048422Y0075741D01*
X0048422Y0075374D01*
X0049523Y0076108D02*
X0049890Y0076475D01*
X0049890Y0076842D01*
X0049523Y0077209D01*
X0048789Y0077209D01*
X0048422Y0076842D01*
X0047680Y0076842D02*
X0047313Y0077209D01*
X0046579Y0077209D01*
X0046212Y0076842D01*
X0046579Y0076108D02*
X0046946Y0076108D01*
X0050632Y0077209D02*
X0050632Y0075007D01*
X0052100Y0075007D02*
X0052100Y0077209D01*
X0051366Y0076475D01*
X0050632Y0077209D01*
X0050632Y0085007D02*
X0050632Y0087209D01*
X0051366Y0086475D01*
X0052100Y0087209D01*
X0052100Y0085007D01*
X0049890Y0085374D02*
X0049523Y0085007D01*
X0048789Y0085007D01*
X0048422Y0085374D01*
X0048422Y0085741D01*
X0048789Y0086108D01*
X0049523Y0086108D01*
X0049890Y0086475D01*
X0049890Y0086842D01*
X0049523Y0087209D01*
X0048789Y0087209D01*
X0048422Y0086842D01*
X0047680Y0086842D02*
X0047313Y0087209D01*
X0046579Y0087209D01*
X0046212Y0086842D01*
X0046212Y0086475D01*
X0047680Y0085007D01*
X0046212Y0085007D01*
X0016520Y0087607D02*
X0015052Y0089075D01*
X0015052Y0089442D01*
X0015419Y0089809D01*
X0016153Y0089809D01*
X0016520Y0089442D01*
X0016520Y0087607D02*
X0015052Y0087607D01*
X0014310Y0087607D02*
X0013209Y0087607D01*
X0012842Y0087974D01*
X0012842Y0088341D01*
X0013209Y0088708D01*
X0014310Y0088708D01*
X0014310Y0087607D02*
X0014310Y0089809D01*
X0013209Y0089809D01*
X0012842Y0089442D01*
X0012842Y0089075D01*
X0013209Y0088708D01*
X0013209Y0097607D02*
X0012842Y0097974D01*
X0012842Y0099442D01*
X0013209Y0099809D01*
X0014310Y0099809D01*
X0014310Y0097607D01*
X0013209Y0097607D01*
X0015052Y0097607D02*
X0015052Y0099809D01*
X0016520Y0099809D02*
X0015052Y0097607D01*
X0016520Y0097607D02*
X0016520Y0099809D01*
X0017262Y0099442D02*
X0017629Y0099809D01*
X0018363Y0099809D01*
X0018730Y0099442D01*
X0018730Y0097974D01*
X0018363Y0097607D01*
X0017629Y0097607D01*
X0017262Y0097974D01*
X0017262Y0098708D01*
X0017996Y0098708D01*
X0046212Y0095007D02*
X0047680Y0095007D01*
X0046946Y0095007D02*
X0046946Y0097209D01*
X0047680Y0096475D01*
X0048422Y0096842D02*
X0048789Y0097209D01*
X0049523Y0097209D01*
X0049890Y0096842D01*
X0049890Y0096475D01*
X0049523Y0096108D01*
X0048789Y0096108D01*
X0048422Y0095741D01*
X0048422Y0095374D01*
X0048789Y0095007D01*
X0049523Y0095007D01*
X0049890Y0095374D01*
X0050632Y0095007D02*
X0050632Y0097209D01*
X0051366Y0096475D01*
X0052100Y0097209D01*
X0052100Y0095007D01*
X0052100Y0105007D02*
X0050632Y0105007D01*
X0049890Y0105007D02*
X0049890Y0107209D01*
X0048422Y0105007D01*
X0048422Y0107209D01*
X0050632Y0107209D02*
X0052100Y0107209D01*
X0052100Y0105007D01*
X0052100Y0106108D02*
X0051366Y0106108D01*
X0020203Y0108341D02*
X0019469Y0107607D01*
X0018735Y0108341D01*
X0018735Y0109809D01*
X0017993Y0109075D02*
X0017626Y0109075D01*
X0017259Y0108708D01*
X0016892Y0109075D01*
X0016525Y0108708D01*
X0016525Y0107607D01*
X0017259Y0107607D02*
X0017259Y0108708D01*
X0017993Y0109075D02*
X0017993Y0107607D01*
X0015783Y0107974D02*
X0015783Y0108708D01*
X0015416Y0109075D01*
X0014682Y0109075D01*
X0014315Y0108708D01*
X0014315Y0107974D01*
X0014682Y0107607D01*
X0015416Y0107607D01*
X0015783Y0107974D01*
X0013573Y0109075D02*
X0012839Y0109075D01*
X0013206Y0109442D02*
X0013206Y0107974D01*
X0012839Y0107607D01*
X0020203Y0108341D02*
X0020203Y0109809D01*
X0015786Y0059809D02*
X0015786Y0057607D01*
X0016520Y0057607D02*
X0015052Y0057607D01*
X0014310Y0057607D02*
X0013209Y0057607D01*
X0012842Y0057974D01*
X0012842Y0058341D01*
X0013209Y0058708D01*
X0014310Y0058708D01*
X0014310Y0057607D02*
X0014310Y0059809D01*
X0013209Y0059809D01*
X0012842Y0059442D01*
X0012842Y0059075D01*
X0013209Y0058708D01*
X0015786Y0059809D02*
X0016520Y0059075D01*
M02*
