G75*
%MOIN*%
%OFA0B0*%
%FSLAX25Y25*%
%IPPOS*%
%LPD*%
%AMOC8*
5,1,8,0,0,1.08239X$1,22.5*
%
%ADD10C,0.02400*%
D10*
X0062200Y0019907D02*
X0062200Y0032407D01*
X0062200Y0112407D01*
X0062200Y0117407D01*
X0062200Y0112407D02*
X0002200Y0112407D01*
X0002200Y0032407D01*
X0062200Y0032407D01*
X0062200Y0019907D02*
X0062205Y0019484D01*
X0062220Y0019062D01*
X0062246Y0018639D01*
X0062282Y0018218D01*
X0062328Y0017798D01*
X0062384Y0017378D01*
X0062450Y0016961D01*
X0062526Y0016545D01*
X0062612Y0016131D01*
X0062709Y0015719D01*
X0062815Y0015310D01*
X0062931Y0014903D01*
X0063057Y0014499D01*
X0063192Y0014099D01*
X0063337Y0013701D01*
X0063492Y0013308D01*
X0063656Y0012918D01*
X0063830Y0012532D01*
X0064013Y0012151D01*
X0064205Y0011774D01*
X0064406Y0011402D01*
X0064616Y0011035D01*
X0064834Y0010673D01*
X0065062Y0010317D01*
X0065298Y0009966D01*
X0065542Y0009621D01*
X0065795Y0009282D01*
X0066056Y0008949D01*
X0066324Y0008622D01*
X0066601Y0008302D01*
X0066885Y0007989D01*
X0067177Y0007683D01*
X0067476Y0007384D01*
X0067782Y0007092D01*
X0068095Y0006808D01*
X0068415Y0006531D01*
X0068742Y0006263D01*
X0069075Y0006002D01*
X0069414Y0005749D01*
X0069759Y0005505D01*
X0070110Y0005269D01*
X0070466Y0005041D01*
X0070828Y0004823D01*
X0071195Y0004613D01*
X0071567Y0004412D01*
X0071944Y0004220D01*
X0072325Y0004037D01*
X0072711Y0003863D01*
X0073101Y0003699D01*
X0073494Y0003544D01*
X0073892Y0003399D01*
X0074292Y0003264D01*
X0074696Y0003138D01*
X0075103Y0003022D01*
X0075512Y0002916D01*
X0075924Y0002819D01*
X0076338Y0002733D01*
X0076754Y0002657D01*
X0077171Y0002591D01*
X0077591Y0002535D01*
X0078011Y0002489D01*
X0078432Y0002453D01*
X0078855Y0002427D01*
X0079277Y0002412D01*
X0079700Y0002407D01*
X0512200Y0002407D01*
X0529700Y0014907D02*
X0529700Y0117407D01*
X0529695Y0117830D01*
X0529680Y0118252D01*
X0529654Y0118675D01*
X0529618Y0119096D01*
X0529572Y0119516D01*
X0529516Y0119936D01*
X0529450Y0120353D01*
X0529374Y0120769D01*
X0529288Y0121183D01*
X0529191Y0121595D01*
X0529085Y0122004D01*
X0528969Y0122411D01*
X0528843Y0122815D01*
X0528708Y0123215D01*
X0528563Y0123613D01*
X0528408Y0124006D01*
X0528244Y0124396D01*
X0528070Y0124782D01*
X0527887Y0125163D01*
X0527695Y0125540D01*
X0527494Y0125912D01*
X0527284Y0126279D01*
X0527066Y0126641D01*
X0526838Y0126997D01*
X0526602Y0127348D01*
X0526358Y0127693D01*
X0526105Y0128032D01*
X0525844Y0128365D01*
X0525576Y0128692D01*
X0525299Y0129012D01*
X0525015Y0129325D01*
X0524723Y0129631D01*
X0524424Y0129930D01*
X0524118Y0130222D01*
X0523805Y0130506D01*
X0523485Y0130783D01*
X0523158Y0131051D01*
X0522825Y0131312D01*
X0522486Y0131565D01*
X0522141Y0131809D01*
X0521790Y0132045D01*
X0521434Y0132273D01*
X0521072Y0132491D01*
X0520705Y0132701D01*
X0520333Y0132902D01*
X0519956Y0133094D01*
X0519575Y0133277D01*
X0519189Y0133451D01*
X0518799Y0133615D01*
X0518406Y0133770D01*
X0518008Y0133915D01*
X0517608Y0134050D01*
X0517204Y0134176D01*
X0516797Y0134292D01*
X0516388Y0134398D01*
X0515976Y0134495D01*
X0515562Y0134581D01*
X0515146Y0134657D01*
X0514729Y0134723D01*
X0514309Y0134779D01*
X0513889Y0134825D01*
X0513468Y0134861D01*
X0513045Y0134887D01*
X0512623Y0134902D01*
X0512200Y0134907D01*
X0082200Y0134907D01*
X0081747Y0134932D01*
X0081293Y0134946D01*
X0080839Y0134949D01*
X0080385Y0134940D01*
X0079931Y0134921D01*
X0079478Y0134891D01*
X0079025Y0134850D01*
X0078574Y0134798D01*
X0078125Y0134735D01*
X0077676Y0134662D01*
X0077230Y0134577D01*
X0076786Y0134482D01*
X0076345Y0134376D01*
X0075906Y0134259D01*
X0075470Y0134132D01*
X0075037Y0133995D01*
X0074608Y0133846D01*
X0074182Y0133688D01*
X0073761Y0133519D01*
X0073343Y0133341D01*
X0072930Y0133152D01*
X0072522Y0132953D01*
X0072118Y0132744D01*
X0071720Y0132526D01*
X0071327Y0132298D01*
X0070940Y0132061D01*
X0070559Y0131815D01*
X0070183Y0131559D01*
X0069814Y0131294D01*
X0069452Y0131021D01*
X0069096Y0130739D01*
X0068747Y0130448D01*
X0068405Y0130149D01*
X0068071Y0129842D01*
X0067744Y0129526D01*
X0067425Y0129203D01*
X0067114Y0128873D01*
X0066810Y0128535D01*
X0066515Y0128189D01*
X0066229Y0127837D01*
X0065951Y0127478D01*
X0065682Y0127112D01*
X0065421Y0126740D01*
X0065170Y0126362D01*
X0064928Y0125978D01*
X0064696Y0125588D01*
X0064473Y0125192D01*
X0064259Y0124791D01*
X0064055Y0124385D01*
X0063861Y0123975D01*
X0063677Y0123560D01*
X0063504Y0123140D01*
X0063340Y0122716D01*
X0063187Y0122289D01*
X0063044Y0121858D01*
X0062911Y0121424D01*
X0062789Y0120986D01*
X0062678Y0120546D01*
X0062577Y0120103D01*
X0062487Y0119658D01*
X0062408Y0119211D01*
X0062339Y0118762D01*
X0062282Y0118311D01*
X0062235Y0117860D01*
X0062200Y0117407D01*
X0512200Y0002407D02*
X0512563Y0002351D01*
X0512928Y0002304D01*
X0513293Y0002265D01*
X0513659Y0002236D01*
X0514026Y0002215D01*
X0514394Y0002203D01*
X0514761Y0002200D01*
X0515128Y0002206D01*
X0515496Y0002221D01*
X0515862Y0002244D01*
X0516228Y0002277D01*
X0516594Y0002318D01*
X0516958Y0002369D01*
X0517320Y0002427D01*
X0517682Y0002495D01*
X0518041Y0002572D01*
X0518399Y0002657D01*
X0518754Y0002750D01*
X0519107Y0002853D01*
X0519457Y0002963D01*
X0519805Y0003082D01*
X0520150Y0003210D01*
X0520491Y0003346D01*
X0520829Y0003490D01*
X0521164Y0003642D01*
X0521494Y0003802D01*
X0521821Y0003970D01*
X0522144Y0004146D01*
X0522462Y0004330D01*
X0522776Y0004521D01*
X0523085Y0004720D01*
X0523389Y0004927D01*
X0523688Y0005140D01*
X0523982Y0005361D01*
X0524270Y0005589D01*
X0524553Y0005824D01*
X0524830Y0006065D01*
X0525101Y0006313D01*
X0525366Y0006568D01*
X0525625Y0006829D01*
X0525877Y0007096D01*
X0526123Y0007369D01*
X0526362Y0007648D01*
X0526595Y0007932D01*
X0526820Y0008222D01*
X0527039Y0008518D01*
X0527250Y0008819D01*
X0527454Y0009124D01*
X0527650Y0009435D01*
X0527839Y0009750D01*
X0528020Y0010070D01*
X0528193Y0010394D01*
X0528359Y0010722D01*
X0528516Y0011054D01*
X0528666Y0011390D01*
X0528807Y0011729D01*
X0528940Y0012072D01*
X0529065Y0012417D01*
X0529181Y0012766D01*
X0529289Y0013117D01*
X0529389Y0013471D01*
X0529480Y0013827D01*
X0529562Y0014185D01*
X0529635Y0014545D01*
X0529700Y0014907D01*
M02*
